<svg xmlns="http://www.w3.org/2000/svg" width="510" height="511" fill="none" viewBox="0 0 510 511"><g clip-path="url(#clip0)"><path fill="#E0E0E0" d="M457.276 448.515c0 11.505-90.556 20.828-202.276 20.828-111.721 0-202.276-9.323-202.276-20.828 0-11.506 90.555-20.829 202.276-20.829 111.72 0 202.276 9.374 202.276 20.829z"/><path fill="#263238" d="M47.92 415.069l51.775-.245 51.765-.092 103.54-.163 103.541.163 51.765.092 51.765.245-51.765.255-51.765.092-103.541.163-103.54-.163-51.765-.092-51.775-.255z"/><g clip-path="url(#clip1)"><path fill="#FFE2DF" d="M349.264 92.059c-49.005 0-88.724 39.726-88.724 88.724 0 .727.007 1.447.029 2.166v119.366l50.43-41.461c11.589 5.55 24.56 8.653 38.265 8.653 49.005 0 88.724-39.727 88.724-88.724 0-48.998-39.719-88.724-88.724-88.724z"/><path fill="#FF8F7E" d="M431.762 269.384l-97.584-.842 13.237-58.117c.9-3.959 12.719-6.76 16.772-6.76h71.455c5.579 0 9.718 5.183 8.472 11.46l-12.352 54.259z"/><path fill="#FFADA1" d="M364.798 225.123s-25.078 22.242-28.849 21.738c-3.765-.504-57.744-50.293-57.744-50.293l-12.136-10.667s18.845-4.946 32.723 9.595c0 0 17.858 17.102 26.187 15.072 8.328-2.029 29.757-21.076 29.757-21.076l10.062 35.631z"/><path fill="#fff" d="M365.928 177.903s18.982-10.192 29.923.051c11.862 11.107-24.114 51.178-35.055 53.734l-13.201-37.898 18.333-15.887z"/><path fill="#fff" d="M401.293 174.096s22.832 2.742 24.624 25.783c1.793 23.041-4.484 69.951-4.484 69.951l-76.595-.669 10.667-61.508c.288-5.873 7.523-28.403 9.502-28.641l31.938-8.019 4.348 3.103z"/><path fill="#FFB3A8" d="M425.097 231.205s-4.42 36.524-7.58 38.633c-3.16 2.109-73.795-.116-73.795-.116l-15.051-.554s10.847-16.721 30.865-14.965c0 0 25.438.655 30.355-6.37 4.916-7.025 8.314-21.76 8.314-21.76l26.892 5.132zm-35.775-77.372l3.973 15.246-14.339 15.763-2.231-5.808-1.871-13.734 11.423-13.626s2.238 1.101 2.57 1.576c.331.475.475.583.475.583z"/><path fill="#00042B" d="M386.285 151.674L374.861 165.3l1.174 9.408s10.516-6.666 9.479-16.383"/><path fill="#06002B" d="M390.013 145.159s-2.051.684-3.037 3.067l-8.732-14.152s-5.564-2.181-7.572.324-3.844 4.182-5.615 3.959c-1.77-.223-3.8-2.534-3.8-2.534s-11.956-8.716-9.106-11.567c2.851-2.85 23.79-2.829 29.915-.734 5.91 2.015 9.596 4.945 8.66 21.731"/><path fill="#FFB3A8" d="M386.651 146.441a.619.619 0 0 0 1.029-.022c.799-1.274 2.548-3.182 4.305.648 2.389 5.197-3.671 5.722-3.952 6.572-.569 1.727-2.332 7.486-6.349 10.559-2.447 1.872-6.464 3.081-10.164 1.022-3.699-2.058-4.563.202-10.847-30.167 0 0 2.023 2.246 4.16 2.412 2.145.172 4.636-3.297 6.731-4.478 1.698-.957 4.909-3.152 8.63 2.513 1.706 2.605 4.945 8.803 6.457 10.941z"/><path fill="#fff" d="M366.201 156.655s2.03.424 6.342-1.087c0 0-1.584 3.743-3.477 3.57-1.893-.173-2.865-2.483-2.865-2.483z"/><path fill="#CF5F36" d="M391.006 146.88l-2.505 3.037s-.23-5.773 2.505-3.037z"/><path fill="#00042B" d="M368.21 149.377c.165.656.561 1.123.892 1.037.331-.079.461-.684.295-1.339-.165-.655-.561-1.123-.892-1.036-.331.079-.461.676-.295 1.338zm-4.017.389c.165.655.561 1.123.892 1.037.331-.08.461-.684.295-1.339-.165-.655-.561-1.123-.892-1.037-.324.079-.461.684-.295 1.339zm7.731-6.766c1.029.381-1.03-1.994-2.304-1.994-1.274 0-2.303.885-2.31 1.987 0 0 2.13-.907 4.614.007zm-9.128 1.979c1.224-.475 2.181-.489 2.181-.489-.41-.936-1.511-1.389-2.613-1.145"/><path fill="#CF5F36" d="M366.007 149.277l-.548 5.492c-.007.086.065.165.152.151l2.181-.382a.129.129 0 0 0 .093-.172l-1.634-5.111c-.043-.144-.23-.122-.244.022z"/><path fill="#010A0F" d="M377.561 196.072a1.535 1.535 0 0 1-3.067 0c0-.85.691-1.534 1.533-1.534a1.526 1.526 0 0 1 1.534 1.534zm-.123 6.341c0 .849-.691 1.533-1.533 1.533a1.534 1.534 0 0 1-1.533-1.533c0-.849.691-1.533 1.533-1.533s1.533.691 1.533 1.533z"/><path fill="#fff" d="M393.612 163.536l6.406 9.473-20.342 20.903-2.202-11.531 16.138-18.845zm-18.247 7.479c-.381.129-4.168 5.154-4.168 5.154l.31 15.62 5.938-10.387-2.08-10.387z"/><path stroke="#010A0F" stroke-miterlimit="10" stroke-width=".583" d="M401.019 173.873l-21.032 20.478-2.513-11.97-5.967 9.408-1.483-14.843"/><path fill="#010A0F" d="M371.421 191.882l6.982-6.003-.928-3.498-6.054 9.501z"/><path fill="#CFDAFF" d="M302.894 156.007h-71.743c-6.551 0-11.863-5.312-11.863-11.863v-.014c0-6.55 5.312-11.862 11.863-11.862h71.743c6.55 0 11.862 5.312 11.862 11.862v.014c0 6.558-5.312 11.863-11.862 11.863z"/><path fill="#010A0F" d="M263.664 152.192v-13.576l9.667 6.788-9.667 6.788zm35.94-6.284a4.55 4.55 0 1 0-9.099 0 4.55 4.55 0 0 0 9.099 0z"/><path fill="#FF8F7E" d="M246.057 145.908a4.55 4.55 0 1 0-9.099 0 4.55 4.55 0 0 0 9.099 0z"/><path fill="#010A0F" d="M322.854 270.127h49.25v-5.772h-49.25v5.772z"/><path fill="#ADBCFF" stroke="#ADBCFF" stroke-miterlimit="10" stroke-width="1.099" d="M372.104 264.338h-32.183l2.534 5.788h29.649v-5.788z"/><path fill="#ADBCFF" d="M261.289 270.126h77.625l-18.737-53.533h-77.624l18.736 53.533z"/><path fill="#010A0F" d="M286.166 244.867a4.872 4.872 0 0 1 4.873-4.873 4.872 4.872 0 0 1 4.873 4.873 4.872 4.872 0 1 1-9.746 0z"/><path stroke="#010A0F" stroke-miterlimit="10" stroke-width="1.75" d="M261.686 270.205h173.675"/><path fill="#FFE2DF" d="M490.095 116.907a3.627 3.627 0 0 1-3.628 3.628 3.626 3.626 0 0 1-3.628-3.628 3.627 3.627 0 1 1 7.256 0zm-29.045 94.381a3.072 3.072 0 0 1-3.073 3.074 3.072 3.072 0 0 1-3.074-3.074 3.072 3.072 0 0 1 3.074-3.073 3.071 3.071 0 0 1 3.073 3.073z"/><path stroke="#FFE2DF" stroke-miterlimit="10" stroke-width="1.167" d="M276.901 112.163c0 3.095-2.505 5.6-5.6 5.6a5.597 5.597 0 0 1-5.6-5.6c0-3.095 2.505-5.6 5.6-5.6 3.095 0 5.6 2.512 5.6 5.6z"/><path fill="#FFE2DF" d="M415.256 108.816a3.073 3.073 0 1 0 .001-6.147 3.073 3.073 0 0 0-.001 6.147z"/><path fill="#E6EBFF" d="M476.584 203.694c13.115 0 23.747-10.631 23.747-23.746 0-13.115-10.632-23.747-23.747-23.747-13.114 0-23.746 10.632-23.746 23.747s10.632 23.746 23.746 23.746z"/><path fill="#ADBCFF" d="M505.766 178.933l-24.575-.252a2.265 2.265 0 0 0-2.058 1.267l-2.34 4.779c-.129.259-.518.173-.525-.115l-.122-5.989.244-23.919a4.243 4.243 0 0 1 4.283-4.196l25.381.259a4.242 4.242 0 0 1 4.196 4.283l-.201 19.686a4.248 4.248 0 0 1-4.283 4.197z"/><path fill="#fff" d="M487.31 158.692a2.574 2.574 0 0 1-2.606 2.548 2.575 2.575 0 0 1-2.548-2.606 2.576 2.576 0 0 1 2.606-2.548 2.575 2.575 0 0 1 2.548 2.606z"/><path fill="#08175C" d="M504.636 159.16l-13.741-.144a.713.713 0 0 1 .014-1.426l13.742.144a.715.715 0 0 1 .705.72.715.715 0 0 1-.72.706zm-.022 2.145l-9.422-.101a.71.71 0 0 1-.706-.72.71.71 0 0 1 .72-.705l9.423.1a.71.71 0 0 1 .705.72.71.71 0 0 1-.72.706z"/><path fill="#fff" d="M491.312 170.115l-7.234-.072a.748.748 0 1 1 .015-1.497l7.234.072a.748.748 0 0 1 .741.756.739.739 0 0 1-.756.741zm4.881 2.484l-12.244-.13a.715.715 0 0 1-.706-.72.714.714 0 0 1 .72-.705l12.244.129a.714.714 0 0 1 .705.72.705.705 0 0 1-.719.706z"/><path fill="#FFE2DF" d="M448.433 188.154l20.003.208a1.856 1.856 0 0 1 1.656 1.066l1.828 3.93c.101.216.418.151.425-.087l.201-4.873.202-19.478a3.45 3.45 0 0 0-3.412-3.484l-20.666-.216a3.45 3.45 0 0 0-3.484 3.412l-.165 16.023a3.452 3.452 0 0 0 3.412 3.499z"/><path fill="#607AF0" d="M458.438 183.655l-3.707-.036a.256.256 0 0 1-.252-.252l.065-6.493c0-.137.115-.252.252-.252l3.707.036c.137 0 .252.115.252.252l-.065 6.493a.246.246 0 0 1-.252.252z"/><path fill="#3A4DA1" d="M453.773 183.604l-3.822-.036a.193.193 0 0 1-.194-.194l.036-3.822c0-.108.086-.194.201-.194l3.823.036c.108 0 .194.086.194.194l-.036 3.822a.205.205 0 0 1-.202.194z"/><path fill="#ADBCFF" d="M463.124 183.705l-3.707-.036a.255.255 0 0 1-.252-.252l.108-10.264c0-.137.115-.252.252-.252l3.707.036c.137 0 .252.115.252.252l-.108 10.264a.255.255 0 0 1-.252.252z"/><path fill="#D7DEFF" d="M467.241 183.748l-3.001-.028a.399.399 0 0 1-.396-.411l.137-13.086c0-.223.187-.403.41-.396l3.002.029c.223 0 .403.187.396.41l-.137 13.086a.407.407 0 0 1-.411.396z"/><path fill="#E6EBFF" d="M456.387 142.412c8.449-3.443 12.508-13.084 9.064-21.534-3.443-8.449-13.084-12.507-21.533-9.064-8.449 3.443-12.508 13.084-9.064 21.533 3.443 8.45 13.084 12.508 21.533 9.065z"/><path fill="#ADBCFF" d="M436.167 125.897l-.935 1.13a.796.796 0 0 0 .057 1.066c.9.899 1.929 1.634 3.074 2.195a.79.79 0 0 0 1.022-.288l.777-1.26a.78.78 0 0 1 .871-.345 8.988 8.988 0 0 0 1.735.317.77.77 0 0 1 .662.54l.511 1.619c.115.36.468.583.843.54a11.783 11.783 0 0 0 3.728-1.058.794.794 0 0 0 .418-.95l-.468-1.498a.761.761 0 0 1 .28-.856c.238-.173.476-.36.699-.562.208-.187.41-.388.604-.59a.773.773 0 0 1 .864-.18l1.512.619a.787.787 0 0 0 .964-.309 11.708 11.708 0 0 0 1.49-3.57.795.795 0 0 0-.468-.915l-1.482-.597a.78.78 0 0 1-.49-.749 9.022 9.022 0 0 0-.115-1.871.787.787 0 0 1 .453-.842l1.325-.598a.79.79 0 0 0 .417-.986 11.624 11.624 0 0 0-1.871-3.361.793.793 0 0 0-.958-.231l-1.59.756a.781.781 0 0 1-.828-.094 8.623 8.623 0 0 0-1.396-.964.789.789 0 0 1-.375-.864l.346-1.44a.79.79 0 0 0-.511-.928 11.635 11.635 0 0 0-3.787-.634.788.788 0 0 0-.777.641l-.309 1.634a.768.768 0 0 1-.605.619 8.983 8.983 0 0 0-1.663.49.774.774 0 0 1-.885-.231l-.979-1.187a.788.788 0 0 0-1.03-.166c-.532.338-1.036.72-1.511 1.137-.482.432-.929.9-1.332 1.397a.781.781 0 0 0 .051 1.043l1.065 1.087a.775.775 0 0 1 .129.915 9.18 9.18 0 0 0-.719 1.741.765.765 0 0 1-.742.555l-1.511.007a.787.787 0 0 0-.778.705 11.83 11.83 0 0 0 .209 3.801.779.779 0 0 0 .842.612l1.519-.151a.774.774 0 0 1 .792.468c.245.575.547 1.137.921 1.662a.866.866 0 0 1-.065.979zm1.382-6.557c1.534-7.486 11.287-6.91 11.935.698a.919.919 0 0 1-.015.245c-1.54 7.479-11.286 6.91-11.934-.699a.954.954 0 0 1 .014-.244z"/><path fill="#08175C" d="M451.442 140.337l-.756.914a.64.64 0 0 0 .043.856 9.087 9.087 0 0 0 2.476 1.764.64.64 0 0 0 .821-.23l.626-1.015a.615.615 0 0 1 .698-.274c.461.13.929.216 1.397.252.252.022.46.194.532.439l.418 1.303a.642.642 0 0 0 .676.439 9.482 9.482 0 0 0 3.009-.849.638.638 0 0 0 .339-.763l-.375-1.202a.627.627 0 0 1 .223-.691c.195-.137.382-.288.562-.454.173-.151.331-.309.482-.475a.62.62 0 0 1 .691-.144l1.217.504a.639.639 0 0 0 .777-.252 9.534 9.534 0 0 0 1.202-2.879.632.632 0 0 0-.381-.735l-1.195-.482a.634.634 0 0 1-.396-.604 6.96 6.96 0 0 0-.094-1.505.623.623 0 0 1 .36-.676l1.066-.476a.638.638 0 0 0 .338-.791 9.284 9.284 0 0 0-1.505-2.707.637.637 0 0 0-.77-.187l-1.281.612a.616.616 0 0 1-.662-.079 6.55 6.55 0 0 0-1.13-.778.624.624 0 0 1-.303-.691l.281-1.159a.633.633 0 0 0-.41-.748 9.35 9.35 0 0 0-3.052-.511.632.632 0 0 0-.626.518l-.252 1.317a.614.614 0 0 1-.49.497 6.781 6.781 0 0 0-1.339.396.626.626 0 0 1-.712-.187l-.792-.958a.634.634 0 0 0-.828-.129 9.405 9.405 0 0 0-1.216.921c-.389.346-.749.72-1.073 1.123a.637.637 0 0 0 .036.842l.857.878a.612.612 0 0 1 .1.735 7.268 7.268 0 0 0-.583 1.403.622.622 0 0 1-.597.446l-1.224.008a.63.63 0 0 0-.626.568 9.546 9.546 0 0 0 .173 3.067c.072.316.36.525.684.496l1.223-.122a.62.62 0 0 1 .641.382c.194.467.446.914.741 1.338.173.202.159.519-.021.735zm1.108-5.284c1.238-6.032 9.091-5.571 9.617.562a.652.652 0 0 1-.014.201c-1.239 6.032-9.092 5.564-9.617-.561 0-.072 0-.137.014-.202z"/><path stroke="#ADBCFF" stroke-miterlimit="10" stroke-width="1.151" d="M313.367 285.119a4.766 4.766 0 0 1-9.53 0 4.77 4.77 0 0 1 4.765-4.765c2.627-.007 4.765 2.131 4.765 4.765z"/><path fill="#ADBCFF" d="M238.975 265.879a2.977 2.977 0 0 1-2.98 2.98 2.977 2.977 0 0 1-2.98-2.98 2.976 2.976 0 0 1 2.98-2.98 2.982 2.982 0 0 1 2.98 2.98z"/><path stroke="#ADBCFF" stroke-miterlimit="10" stroke-width="1.192" d="M34.729 336.766a1.994 1.994 0 1 1-3.988 0 1.994 1.994 0 0 1 3.988 0zm53.921 78.171a4.284 4.284 0 0 1-8.566 0 4.284 4.284 0 0 1 8.566 0zm-5.989-186.863a4.284 4.284 0 0 1-8.565 0 4.284 4.284 0 0 1 8.565 0z"/><path fill="#E6EBFF" d="M141.736 402.383c51.06 0 92.452-41.392 92.452-92.452 0-51.06-41.392-92.452-92.452-92.452-51.06 0-92.453 41.392-92.453 92.452 0 51.06 41.393 92.452 92.453 92.452z"/><path fill="#ADBCFF" d="M77.334 396.704h109.484l-16.225-80.669c-1.101-5.492-5.42-9.386-10.394-9.386H72.576c-6.838 0-11.912 7.191-10.394 14.741l15.152 75.314z"/><path fill="#010A0F" d="M141.175 375.304c-10.301 5.967-38.265 6.543-38.265 6.543s-11.985-115.824 29.483-139.031c7.457-3.196 25.978.569 31.945 6.673 2.181 2.224 5.809 10.919 4.816 13.834l-18.909 58.636"/><path stroke="#010A0F" stroke-miterlimit="10" stroke-width="1.222" d="M141.175 375.304c-10.301 5.967-38.265 6.543-38.265 6.543s-11.985-115.824 29.483-139.031c7.457-3.196 25.978.569 31.945 6.673 2.181 2.224 5.809 10.919 4.816 13.834l-18.909 58.636"/><path fill="#010A0F" stroke="#010A0F" stroke-miterlimit="10" stroke-width="1.222" d="M164.31 265.836l28.044 85.808-40.511-35.256 12.467-50.552z"/><path fill="#FFB9AE" d="M137.605 269.075c-.072.403-.447.655-.821.54-1.583-.461-5.47-1.087-6.917 3.159-1.461 4.298 4.218 6.752 6.593 7.58.684.238 1.26.749 1.62 1.425 1.094 2.081 4.355 10.034 6.852 17.125 2.174 6.176 1.267 21.248 1.267 21.248s17.556.454 26.029-2.872c0 0-12.064-22.4-11.64-27.957.008-.122 10.279-.554 10.373-18.557.086-16.959-12.547-19.19-15.426-19.456-2.44-.223-14.281-2.347-17.93 17.765z"/><path fill="#010A0F" d="M160.97 289.273s-1.497.417-5.003.583c-.828.036-2.426-.051-3.966-.375-.871-.187-1.389.936-.684 1.483 0 0 11.604 10.761 12.273 7.767.504-2.275-3.563-7.328-2.62-9.458z"/><path fill="#fff" d="M135.437 284.795a4.326 4.326 0 1 0 0-8.651 4.326 4.326 0 0 0 0 8.651z"/><path fill="#fff" d="M135.437 293.001a4.326 4.326 0 1 0 0-8.651 4.326 4.326 0 0 0 0 8.651z"/><path fill="#FFB9AE" d="M230.733 299.076s3.859-17.757 5.305-18.924c1.447-1.166.195 10.675 1.75 10.15-.008 0-5.334 7.63-7.055 8.774z"/><path fill="#FFB9AE" d="M171.392 353.955a408.063 408.063 0 0 1-9.106-8.321l10.171-19.018c-1.864-3.757-3.405-7.068-4.168-9.17-.482-1.332-.172-2.973.058-2.951 4.247.431 29.498 30.188 33.759 34.291 1.332 1.282 3.506.144 4.34-1.425l24.071-48.234c.561-1.382 7.831-9.682 12.784-24.711 5.154 4.081 3.8 16.75 2.67 22.306 0 0-16.98 71.233-34.507 81.303 0 0-23.099 2.635-37.639-21.933-1.433 1.116-2.39 1.843-2.39 1.843-4.355-2.368-3.153-3.441-.043-3.98z"/><path fill="#fff" d="M124.173 318.705s8.191-3.743 14.929-6.42c6.658-4.542 6.881-10.358 6.881-10.358 15.699-1.865 19.118-.159 19.118-.159 2.85 3.427 6.421 11.381 6.421 11.381-.439 1.144 14.324 21.371 16.541 32.42 2.095 10.437 9.645 42.692 9.645 46.78l-64.034.583c.015 0-14.13-60.183-9.501-74.227z"/><path fill="#FFB9AE" d="M135.487 337.867c1.771-8.22 4.37-21.191 4.226-25.849 0 0-11.085 4.564-14.101 5.593l.036.116c-2.448.942-5.507 2.195-7.119 3.109-9.898 5.6-6.968 31.125-7.457 41.706-.447 9.753-5.37 33.471 19.42 33.881 24.79.411 81.814-2.893 81.814-2.893s-1.929-12.806-14.807-13.014c-12.877-.209-42.217-2.275-51.718-7.235-9.502-4.952-10.33-22.717-10.294-35.414z"/><path fill="#DE5D49" d="M132.076 274.66s.799-6.017 5.831.288l-5.831-.288z"/><path fill="#F58C7C" d="M153.886 271.529a4.336 4.336 0 0 1 3.131 5.269 4.335 4.335 0 0 1-5.269 3.131 4.337 4.337 0 0 1-3.131-5.269 4.33 4.33 0 0 1 5.269-3.131z"/><path fill="#fff" d="M169.103 275.143l-9.566 1.338s2.613 4.442 5.341 3.815c2.721-.619 4.225-5.153 4.225-5.153z"/><path fill="#DC6856" d="M164.892 270.111l-.259 4.823 2.483-.36a.612.612 0 0 0 .403-.972l-2.627-3.491z"/><path fill="#010A0F" d="M156.686 265.202c-.82.662.324-2.131 1.483-2.526 1.159-.396 2.376.1 2.714 1.101-.007 0-2.224-.166-4.197 1.425zm13.036-2.757c-1.209-.187-2.778.583-2.944 1.627 0 0 1.706-.475 3.419.036m-9.112 5.701c.094.849.504 1.497.914 1.447.41-.044.662-.77.569-1.613-.094-.849-.504-1.497-.914-1.446-.411.043-.663.762-.569 1.612zm6.168-1.145c.094.807.483 1.426.871 1.382.389-.043.634-.734.547-1.54-.093-.806-.482-1.425-.871-1.382-.396.036-.64.727-.547 1.54z"/><path fill="#010A0F" stroke="#010A0F" stroke-miterlimit="10" stroke-width="1.222" d="M165.108 259.739s-16.023 1.065-29.102 5.708c0 0 8.94-41.274 29.102-5.708z"/><path fill="#FFE2DF" d="M85.828 271.313H12.393C5.685 271.313.25 265.879.25 259.17v-.014c0-6.709 5.435-12.144 12.143-12.144h73.442c6.709 0 12.144 5.435 12.144 12.144v.014c-.008 6.701-5.442 12.143-12.15 12.143z"/><path fill="#010A0F" d="M45.678 267.398v-13.893l9.897 6.946-9.897 6.947z"/><path fill="#FF8F7E" d="M82.459 260.97a4.656 4.656 0 1 0-9.314 0 4.656 4.656 0 0 0 4.657 4.657 4.66 4.66 0 0 0 4.657-4.657z"/><path fill="#010A0F" d="M27.653 260.97c0-2.57-2.08-4.658-4.657-4.658a4.652 4.652 0 0 0-4.657 4.658 4.656 4.656 0 0 0 4.657 4.657 4.656 4.656 0 0 0 4.657-4.657z"/><path fill="#ADBCFF" d="M332.347 392.616H298.56v4.47h33.787v-4.47z"/><path fill="#ADBCFF" d="M335.875 369.848a10.61 10.61 0 0 0-4.924 1.224v-2.052h-31.556v13.662c0 5.564 4.513 10.078 10.077 10.078h11.402c3.332 0 6.284-1.627 8.119-4.125a10.602 10.602 0 0 0 6.882 2.534c5.88 0 10.66-4.78 10.66-10.661 0-5.88-4.787-10.66-10.66-10.66zm0 20.176a9.476 9.476 0 0 1-6.248-2.353 10.034 10.034 0 0 0 1.331-4.989v-10.293a9.46 9.46 0 0 1 4.924-1.396c5.247 0 9.516 4.268 9.516 9.515-.008 5.248-4.276 9.516-9.523 9.516z"/><path fill="#010A0F" d="M206.303 389.823h-63.43v7.435h63.43v-7.435z"/><path fill="#FF8F7E" d="M142.873 389.823h41.447l-3.261 7.435h-38.186v-7.435zm142.709 7.435h-99.967l24.128-68.943h99.975l-24.136 68.943z"/><path fill="#010A0F" d="M248.857 370.817a6.277 6.277 0 1 0-3.176-12.146 6.277 6.277 0 0 0 3.176 12.146z"/><path fill="#fff" d="M103.297 397.496H89.635a7.49 7.49 0 0 1-7.486-7.486v-20.09h28.634v20.09a7.49 7.49 0 0 1-7.486 7.486z"/><path fill="#fff" d="M103.297 397.496H89.635a7.49 7.49 0 0 1-7.486-7.486v-20.09"/><path fill="#010A0F" d="M89.959 347.736a135.815 135.815 0 0 0-3.499-3.772c-1.626-1.685-3.34-3.347-5.312-4.571-.611 1.144-1.706 2.203-2.987 2.037-1.368-.173-2.31-1.677-2.685-2.973-.043.036-.086.072-.122.115-.324.353-.504.821-.634 1.282a8.973 8.973 0 0 0-.323 2.389c4.354 3.412 9.933 7.314 15.562 5.493z"/><path fill="#010A0F" d="M90.118 347.908c-.008 0-.008.007-.008.007-5.672 1.894-11.3-1.965-15.706-5.391.036 1.872.569 3.758 1.346 5.478 1.152 2.541 2.808 4.823 4.233 7.22.237.395.468.871.381 1.302a19.408 19.408 0 0 1 3.146 7.94c.021.137-.187.194-.209.057a19.302 19.302 0 0 0-3.023-7.745c-.403.749-1.562.461-2.332.058-.087-.043-.18-.094-.267-.137a814.483 814.483 0 0 0 2.93 5.607c.029.058 0 .116-.043.144 2.656 2.16 5.074 4.65 7.4 7.148.093.101-.058.252-.152.151-4.491-4.815-9.336-9.645-15.562-12.035.007.043.007.086.014.13.98 6.233 6.421 11.481 12.683 12.244l21.156-.152c-4.305-7.608-9.999-15.303-15.987-22.026zm-12.438-6.86c1.367.627 2.612-.539 3.282-1.763a13.407 13.407 0 0 0-1.922-.965c-1.087-.439-2.462-.655-3.376 0 .288 1.102.965 2.246 2.016 2.728z"/><path fill="#010A0F" d="M80.357 362.261a1065.772 1065.772 0 0 1-3.002-5.744c-.806-.424-1.62-.849-2.425-1.274-.41-.216-.857-.439-1.325-.396-1.101.101-1.454 1.461-1.375 2.62 2.988 1.13 5.658 2.815 8.127 4.794z"/><path fill="#FF8F7E" d="M103.269 354.919a80.366 80.366 0 0 1 2.375-2.555c1.101-1.145 2.267-2.268 3.606-3.103.418.778 1.159 1.49 2.023 1.383.928-.116 1.569-1.138 1.821-2.016.029.029.058.05.086.079.223.238.339.554.432.871.151.533.216 1.073.223 1.627-2.958 2.296-6.744 4.945-10.566 3.714z"/><path fill="#FF8F7E" d="M103.168 355.034c3.858 1.289 7.673-1.331 10.668-3.656-.022 1.274-.389 2.555-.914 3.721-.785 1.728-1.901 3.275-2.872 4.902-.159.266-.317.59-.26.885a13.109 13.109 0 0 0-2.13 5.385c-.015.093.122.129.137.036.302-1.908 1-3.679 2.051-5.255.274.511 1.058.31 1.584.036.057-.029.122-.065.18-.094-.663 1.267-1.318 2.541-1.987 3.801-.022.043 0 .079.029.101-1.8 1.468-3.448 3.16-5.025 4.851-.064.065.036.173.101.101 3.052-3.268 6.335-6.543 10.56-8.163-.007.029-.007.058-.015.087-.662 4.225-4.354 7.795-8.609 8.306l-14.352-.107c2.922-5.154 6.787-10.373 10.854-14.937zm8.436-4.657c-.928.425-1.778-.367-2.224-1.195a8.773 8.773 0 0 1 1.303-.655c.741-.295 1.67-.446 2.289 0-.195.749-.655 1.526-1.368 1.85z"/><path fill="#FF8F7E" d="M109.791 364.773c.684-1.295 1.36-2.598 2.037-3.901.547-.288 1.101-.576 1.648-.864.281-.144.583-.295.9-.266.749.072.986.993.929 1.778-2.03.763-3.837 1.907-5.514 3.253z"/><path stroke="#010A0F" stroke-miterlimit="10" stroke-width="2.384" d="M41.293 397.244h310.965"/><path fill="#E6EBFF" d="M198.357 245.04c19.113 0 34.608-15.495 34.608-34.608 0-19.114-15.495-34.609-34.608-34.609-19.114 0-34.609 15.495-34.609 34.609 0 19.113 15.495 34.608 34.609 34.608z"/><path fill="#08175C" d="M216.849 231.414h-35.566a4.23 4.23 0 0 1-4.232-4.232v-46.039a4.23 4.23 0 0 1 4.232-4.233h35.566a4.23 4.23 0 0 1 4.233 4.233v46.046a4.239 4.239 0 0 1-4.233 4.225z"/><path fill="#fff" stroke="#fff" stroke-miterlimit="10" stroke-width=".254" d="M210.817 226.937h-26.561c-.971 0-1.756-.763-1.756-1.699v-42.346c0-.936.785-1.699 1.756-1.699h30.362c.972 0 1.756.763 1.756 1.699v38.661c-.684.669-4.873 4.722-5.557 5.384z"/><path fill="#D8CFCE" d="M215.741 221.315l-5.478 5.478-.13-3.484a2.045 2.045 0 0 1 2.124-2.123l3.484.129z"/><path fill="#08175C" d="M187.135 182.438c-.95 0-1.713-.77-1.713-1.713v-5.262a1.712 1.712 0 1 1 3.426 0v5.262c0 .95-.77 1.713-1.713 1.713z"/><path fill="#1F235B" d="M187.135 184.727c-.95 0-1.713-.77-1.713-1.713v-5.262a1.712 1.712 0 1 1 3.426 0v5.262c0 .943-.77 1.713-1.713 1.713z" opacity=".37"/><path fill="#08175C" d="M198.105 182.438c-.95 0-1.713-.77-1.713-1.713v-5.262a1.712 1.712 0 1 1 3.426 0v5.262a1.704 1.704 0 0 1-1.713 1.713z"/><path fill="#1F235B" d="M198.105 184.727c-.95 0-1.713-.77-1.713-1.713v-5.262a1.712 1.712 0 1 1 3.426 0v5.262a1.708 1.708 0 0 1-1.713 1.713z" opacity=".37"/><path fill="#08175C" d="M209.082 182.438c-.95 0-1.713-.77-1.713-1.713v-5.262a1.712 1.712 0 1 1 3.426 0v5.262c0 .95-.763 1.713-1.713 1.713z"/><path fill="#1F235B" d="M209.082 184.727c-.95 0-1.713-.77-1.713-1.713v-5.262a1.712 1.712 0 1 1 3.426 0v5.262c0 .943-.763 1.713-1.713 1.713z" opacity=".37"/><path stroke="#FF5C4C" stroke-miterlimit="10" stroke-width="1.627" d="M189.512 203.874a1.815 1.815 0 1 1-1.814-1.814c1 0 1.814.814 1.814 1.814zm0 7.789c0 1-.814 1.814-1.814 1.814a1.815 1.815 0 0 1 0-3.628c1-.008 1.814.806 1.814 1.814zm0 7.788a1.815 1.815 0 1 1-3.626-.002 1.815 1.815 0 0 1 3.626.002z"/><path fill="#FF5C4C" d="M208.687 204.457h-14.634a.74.74 0 1 1 0-1.482h14.634a.74.74 0 1 1 0 1.482zm0 8.005h-14.634a.74.74 0 0 1-.741-.742.74.74 0 0 1 .741-.741h14.634a.74.74 0 0 1 .741.741.74.74 0 0 1-.741.742zm0 8.004h-14.634a.74.74 0 0 1-.741-.741.74.74 0 0 1 .741-.742h14.634a.74.74 0 0 1 .741.742.745.745 0 0 1-.741.741z"/><path fill="#1A1A4D" stroke="#1A1A4D" stroke-linecap="round" stroke-linejoin="round" stroke-miterlimit="10" stroke-width="1.22" d="M187.762 204.616a.391.391 0 0 1-.31-.152l-1.907-2.195a.555.555 0 0 1 0-.713.41.41 0 0 1 .626 0l1.598 1.836 2.771-3.189a.405.405 0 0 1 .626 0 .555.555 0 0 1 0 .713l-3.08 3.541a.417.417 0 0 1-.324.159zm0 7.81a.391.391 0 0 1-.31-.152l-1.907-2.195a.555.555 0 0 1 0-.713.41.41 0 0 1 .626 0l1.598 1.836 2.771-3.189a.41.41 0 0 1 .626 0 .555.555 0 0 1 0 .713l-3.08 3.541a.417.417 0 0 1-.324.159z"/><path fill="#ADBCFF" d="M205.209 195.608a6.32 6.32 0 1 0-11.617-4.982 6.32 6.32 0 0 0 11.617 4.982z"/><path fill="#FFB3A8" d="M198.085 199.289l.223-2.275 3.462-2.663s.339.108.396.238c.058.129.223.122.223.122l.087 3.88c0-.007-1.749 1.231-4.391.698z"/><path fill="#00042B" d="M201.771 194.351l-3.462 2.663-.216 2.318s2.879-1.043 3.145-3.433"/><path fill="#06002B" d="M203.015 192.984s-.533.057-.893.575l-1.346-3.858s-1.223-.82-1.835-.324c-.619.497-1.145.799-1.555.655-.41-.144-.777-.806-.777-.806s-2.412-2.728-1.577-3.261c.835-.532 5.859.583 7.22 1.411 1.31.799 2.044 1.692.928 5.672"/><path fill="#FFB3A8" d="M202.137 193.113c.043.101.173.13.245.05.259-.266.777-.626 1 .382.296 1.375-1.187 1.18-1.295 1.368-.231.381-.958 1.677-2.081 2.202-.683.317-1.713.396-2.497-.295-.778-.691-1.109-.194-1.008-7.817 0 0 .367.648.871.799.504.151 1.288-.547 1.85-.72.461-.137 1.346-.496 1.936 1.058.281.72.734 2.376.979 2.973z"/><path fill="#fff" d="M196.688 194.481s.461.208 1.584.072c0 0-.576.813-1.022.669-.454-.137-.562-.741-.562-.741z"/><path fill="#CF5F36" d="M203.16 193.444l-.763.598s.252-1.397.763-.598z"/><path fill="#00042B" d="M197.56 192.84c.007.165.079.302.158.295.087 0 .144-.137.144-.303-.007-.165-.079-.302-.158-.295-.086 0-.151.137-.144.303zm-.986-.123c.007.166.079.302.158.295.087 0 .144-.136.144-.302-.007-.166-.079-.302-.158-.295-.087 0-.151.137-.144.302zm2.209-1.209c.231.144-.144-.533-.446-.598-.302-.064-.597.094-.662.353.007-.007.561-.108 1.108.245zm-2.296-.007a1.6 1.6 0 0 1 .547 0c-.05-.245-.287-.411-.568-.411"/><path fill="#CF5F36" d="M197.034 192.696l-.425 1.288c-.007.022.007.043.029.043l.54.022c.022 0 .036-.015.029-.036l-.123-1.31c.008-.029-.043-.036-.05-.007z"/></g></g><defs><clipPath id="clip0"><path fill="#fff" d="M0 0h510v510H0z" transform="translate(0 .5)"/></clipPath><clipPath id="clip1"><path fill="#fff" d="M0 0h510.927v329.182H0z" transform="translate(0 91.373)"/></clipPath></defs></svg>