<svg xmlns="http://www.w3.org/2000/svg" width="32" height="32" fill="none" viewBox="0 0 32 32"><path fill="#2B2323" fill-rule="evenodd" d="M9.953 1.421c1.564-.072 2.063-.088 6.047-.088 3.984 0 4.482.018 6.045.088 1.563.071 2.63.32 3.563.682a7.205 7.205 0 0 1 2.597 1.693 7.163 7.163 0 0 1 1.69 2.596c.363.933.611 2 .683 3.56.072 1.567.088 2.065.088 6.048 0 3.984-.017 4.483-.088 6.047-.07 1.56-.32 2.626-.682 3.56a7.195 7.195 0 0 1-1.691 2.598 7.192 7.192 0 0 1-2.597 1.691c-.934.363-2 .61-3.56.683-1.566.072-2.064.088-6.048.088s-4.483-.018-6.047-.088c-1.56-.071-2.627-.32-3.56-.683a7.196 7.196 0 0 1-2.599-1.69 7.19 7.19 0 0 1-1.692-2.598c-.361-.933-.609-2-.681-3.56-.072-1.567-.088-2.065-.088-6.048 0-3.984.017-4.483.088-6.045.07-1.563.32-2.63.681-3.563a7.195 7.195 0 0 1 1.694-2.597 7.19 7.19 0 0 1 2.596-1.692c.933-.362 2-.61 3.56-.682h.001zm11.973 2.64c-1.546-.07-2.01-.085-5.926-.085-3.916 0-4.38.015-5.927.085-1.43.066-2.207.304-2.724.506a4.554 4.554 0 0 0-1.687 1.096 4.55 4.55 0 0 0-1.096 1.686c-.201.518-.44 1.294-.505 2.724-.07 1.547-.085 2.011-.085 5.927 0 3.916.014 4.38.085 5.927.065 1.43.304 2.206.505 2.724a4.56 4.56 0 0 0 1.096 1.686 4.547 4.547 0 0 0 1.687 1.096c.517.202 1.293.44 2.724.506 1.547.07 2.01.085 5.927.085s4.38-.015 5.926-.085c1.431-.066 2.207-.304 2.724-.506a4.555 4.555 0 0 0 1.687-1.096 4.553 4.553 0 0 0 1.096-1.686c.201-.518.44-1.294.505-2.724.071-1.547.086-2.011.086-5.927 0-3.916-.015-4.38-.086-5.927-.065-1.43-.304-2.206-.505-2.724a4.555 4.555 0 0 0-1.096-1.686 4.55 4.55 0 0 0-1.687-1.096c-.517-.202-1.293-.44-2.724-.506zm-7.8 16.46a4.892 4.892 0 0 0 5.334-7.981 4.893 4.893 0 1 0-5.334 7.981zM10.67 10.67a7.538 7.538 0 1 1 10.66 10.66 7.538 7.538 0 0 1-10.66-10.66zm14.54-1.086a1.781 1.781 0 1 0-2.444-2.592 1.781 1.781 0 0 0 2.444 2.592z" clip-rule="evenodd"/></svg>