<svg xmlns="http://www.w3.org/2000/svg" width="32" height="32" fill="none" viewBox="0 0 32 32"><path fill="#2B2323" fill-rule="evenodd" d="M1.333 3.784a2.45 2.45 0 0 1 2.45-2.45h24.43a2.45 2.45 0 0 1 2.453 2.45v24.43a2.45 2.45 0 0 1-2.452 2.453H3.784a2.45 2.45 0 0 1-2.451-2.452V3.784zm11.61 8.733h3.973v1.995c.573-1.147 2.04-2.179 4.244-2.179 4.225 0 5.226 2.284 5.226 6.475v7.763H22.11v-6.808c0-2.387-.573-3.734-2.029-3.734-2.02 0-2.86 1.452-2.86 3.734v6.808h-4.277V12.517zM5.61 26.388h4.278V12.333H5.61v14.055zM10.5 7.749a2.751 2.751 0 1 1-5.502.121 2.751 2.751 0 0 1 5.502-.12z" clip-rule="evenodd"/></svg>