<svg xmlns="http://www.w3.org/2000/svg" width="32" height="32" fill="none" viewBox="0 0 32 32"><path fill="#2B2323" d="M31.524 6.583a12.47 12.47 0 0 1-3.567.977 6.227 6.227 0 0 0 2.73-3.437 12.4 12.4 0 0 1-3.943 1.506 6.213 6.213 0 0 0-10.584 5.667 17.638 17.638 0 0 1-12.803-6.49 6.208 6.208 0 0 0-.84 3.122 6.214 6.214 0 0 0 2.763 5.17 6.197 6.197 0 0 1-2.814-.777v.08a6.213 6.213 0 0 0 4.983 6.091 6.257 6.257 0 0 1-2.805.107 6.215 6.215 0 0 0 5.802 4.312 12.464 12.464 0 0 1-7.714 2.66c-.496 0-.99-.03-1.483-.087a17.566 17.566 0 0 0 9.52 2.79c11.427 0 17.673-9.463 17.673-17.671 0-.267-.006-.536-.018-.803a12.627 12.627 0 0 0 3.097-3.213l.003-.004z"/></svg>