<svg xmlns="http://www.w3.org/2000/svg" width="42" height="53" fill="none" viewBox="0 0 42 53"><path fill="#FF9100" d="M.75 6.625c0-1.757.711-3.442 1.977-4.685A6.815 6.815 0 0 1 7.5 0h27c1.79 0 3.507.698 4.773 1.94a6.564 6.564 0 0 1 1.977 4.685v44.719c0 .3-.083.593-.24.85a1.675 1.675 0 0 1-.651.609 1.714 1.714 0 0 1-1.731-.081L21 43.397 3.372 52.722a1.71 1.71 0 0 1-2.382-.528 1.633 1.633 0 0 1-.24-.85V6.625zM7.5 3.312a3.41 3.41 0 0 0-2.386.97 3.282 3.282 0 0 0-.989 2.343V48.25l15.94-8.222a1.711 1.711 0 0 1 1.87 0l15.94 8.222V6.625a3.28 3.28 0 0 0-.989-2.342 3.408 3.408 0 0 0-2.386-.97h-27z"/><path fill="#FF9100" d="M7.5 33v-9.367h.102L14.195 33h1.032V21.727h-1.055v9.359h-.102l-6.57-9.36H6.445V33H7.5zm13.82-7.648c1.524 0 2.532 1.132 2.555 2.867h-5.242c.094-1.735 1.156-2.867 2.687-2.867zm2.453 5.57c-.359.828-1.218 1.305-2.414 1.305-1.625 0-2.68-1.22-2.734-3.118v-.047h6.32v-.453c0-2.57-1.375-4.164-3.617-4.164-2.289 0-3.758 1.711-3.758 4.352 0 2.656 1.453 4.344 3.766 4.344 1.766 0 3.062-.852 3.477-2.22h-1.04zm13.782-6.336h-1.032l-1.882 7.14h-.094l-2.078-7.14h-1.024l-2.078 7.14h-.094l-1.867-7.14h-1.039L28.75 33h1.078l2.07-6.984H32L34.07 33h1.086l2.399-8.414z"/></svg>