<svg xmlns="http://www.w3.org/2000/svg" width="61" height="60" fill="none" viewBox="0 0 61 60"><g fill="#000" clip-path="url(#clip0)"><path fill-rule="evenodd" d="M55.367.28a1.875 1.875 0 0 1 .889 1.595v56.25A1.875 1.875 0 0 1 54.38 60H43.13a1.875 1.875 0 0 1-1.875-1.875V52.5h-3.75v5.625A1.875 1.875 0 0 1 35.63 60H1.88a1.875 1.875 0 0 1-1.875-1.875V37.5a1.875 1.875 0 0 1 1.282-1.778l21.218-7.072V16.875a1.875 1.875 0 0 1 1.035-1.677l30-15a1.875 1.875 0 0 1 1.826.083zM22.506 32.603L3.756 38.85v17.4h18.75V32.602zm3.75 23.648h7.5v-5.625a1.875 1.875 0 0 1 1.875-1.875h7.5a1.875 1.875 0 0 1 1.875 1.875v5.625h7.5V4.908l-26.25 13.125V56.25z" clip-rule="evenodd"/><path d="M7.506 41.25h3.75V45h-3.75v-3.75zm7.5 0h3.75V45h-3.75v-3.75zm-7.5 7.5h3.75v3.75h-3.75v-3.75zm7.5 0h3.75v3.75h-3.75v-3.75zm15-15h3.75v3.75h-3.75v-3.75zm7.5 0h3.75v3.75h-3.75v-3.75zm-7.5 7.5h3.75V45h-3.75v-3.75zm7.5 0h3.75V45h-3.75v-3.75zm7.5-7.5h3.75v3.75h-3.75v-3.75zm0 7.5h3.75V45h-3.75v-3.75zm-15-15h3.75V30h-3.75v-3.75zm7.5 0h3.75V30h-3.75v-3.75zm7.5 0h3.75V30h-3.75v-3.75zm-15-7.5h3.75v3.75h-3.75v-3.75zm7.5 0h3.75v3.75h-3.75v-3.75zm7.5 0h3.75v3.75h-3.75v-3.75zm0-7.5h3.75V15h-3.75v-3.75z"/></g><defs><clipPath id="clip0"><path fill="#fff" d="M0 0h60v60H0z" transform="translate(.006)"/></clipPath></defs></svg>