<svg xmlns="http://www.w3.org/2000/svg" width="56" height="70" fill="none" viewBox="0 0 56 70"><path fill="#FF9100" d="M53.164 31.656a27.147 27.147 0 0 0-6.477-9l-2.273-2.086a.632.632 0 0 0-1.016.258l-1.015 2.914c-.633 1.828-1.797 3.695-3.446 5.531a.488.488 0 0 1-.32.157.432.432 0 0 1-.336-.118.46.46 0 0 1-.156-.375c.29-4.703-1.117-10.007-4.195-15.78-2.547-4.798-6.086-8.54-10.508-11.15L20.195.11a.626.626 0 0 0-.937.57l.172 3.75c.117 2.563-.18 4.829-.883 6.711a22.28 22.28 0 0 1-3.672 6.368 23.095 23.095 0 0 1-3.71 3.601 27.546 27.546 0 0 0-7.837 9.492A27.168 27.168 0 0 0 .5 42.657c0 3.688.727 7.258 2.164 10.625a27.297 27.297 0 0 0 5.899 8.664 27.45 27.45 0 0 0 8.742 5.836A27.491 27.491 0 0 0 28 69.921c3.71 0 7.305-.718 10.695-2.132a27.234 27.234 0 0 0 8.742-5.836 27.043 27.043 0 0 0 5.899-8.664A26.89 26.89 0 0 0 55.5 42.664c0-3.813-.781-7.516-2.336-11.008zm-9.46 26.508C39.507 62.32 33.936 64.602 28 64.602c-5.938 0-11.508-2.282-15.703-6.438-4.18-4.148-6.485-9.648-6.485-15.5 0-3.398.766-6.656 2.274-9.688a22.098 22.098 0 0 1 6.312-7.648 27.307 27.307 0 0 0 4.579-4.438A27.676 27.676 0 0 0 23.523 13c.436-1.176.753-2.393.946-3.633 1.883 1.734 3.46 3.828 4.781 6.281 2.61 4.891 3.813 9.242 3.578 12.946a5.783 5.783 0 0 0 3.845 5.825 5.726 5.726 0 0 0 2.233.315 5.711 5.711 0 0 0 3.985-1.906 25.655 25.655 0 0 0 2.687-3.563 21.545 21.545 0 0 1 2.734 4.563 21.648 21.648 0 0 1 1.876 8.836c0 5.852-2.305 11.36-6.485 15.5z"/><path fill="#FF9100" d="M23.17 48V36.727h-2.36v4.546h-5.078v-4.546h-2.359V48h2.36v-4.71h5.078V48h2.359zm7.664-11.563c-3.313 0-5.43 2.266-5.43 5.922 0 3.657 2.086 5.93 5.43 5.93 3.336 0 5.414-2.273 5.414-5.93 0-3.648-2.086-5.922-5.414-5.922zm0 2.07c1.836 0 3.008 1.493 3.008 3.852 0 2.352-1.172 3.86-3.008 3.86-1.852 0-3.016-1.508-3.016-3.86 0-2.359 1.188-3.851 3.016-3.851zM43.185 48v-9.258h3.383v-2.015h-9.125v2.015h3.383V48h2.36z"/></svg>