<svg xmlns="http://www.w3.org/2000/svg" width="49" height="48" fill="none" viewBox="0 0 49 48"><g fill="#EA4E1B" clip-path="url(#clip0)"><path d="M45.085 17.791a11.834 11.834 0 0 0-.26-.251v-2.702a4.878 4.878 0 0 0-4.873-4.873h-8.547V7.516a4.747 4.747 0 0 0-4.741-4.74H18.66a4.747 4.747 0 0 0-4.741 4.74v2.45H5.373A4.878 4.878 0 0 0 .5 14.837v21.689A4.878 4.878 0 0 0 5.373 41.4h10.173a.703.703 0 1 0 0-1.407H5.373a3.47 3.47 0 0 1-3.467-3.466V22.343a8.262 8.262 0 0 0 6.236 3.63v2.56a2.655 2.655 0 0 0 2.652 2.652 2.655 2.655 0 0 0 2.651-2.652v-2.537h11.75v.034c0 2.394.718 4.678 2.05 6.606l-1.492 1.493a1.545 1.545 0 0 0-1.515.392l-5.733 5.734a2.914 2.914 0 0 0 0 4.116 2.91 2.91 0 0 0 4.116 0l5.734-5.733c.41-.41.54-.994.392-1.515l1.494-1.494a11.68 11.68 0 0 0 13.178.022v.876a3.47 3.47 0 0 1-3.467 3.466H28.846a.703.703 0 1 0 0 1.407h11.106a4.878 4.878 0 0 0 4.873-4.873V34.52c.087-.082.174-.166.26-.251 4.553-4.553 4.554-11.924 0-16.478zM15.326 7.516a3.339 3.339 0 0 1 3.335-3.335h8.003a3.339 3.339 0 0 1 3.335 3.335v2.45h-1.5v-2.45a1.837 1.837 0 0 0-1.835-1.835H18.66a1.837 1.837 0 0 0-1.835 1.835v2.45h-1.5v-2.45zm2.906 2.45v-2.45a.43.43 0 0 1 .429-.428h8.003a.43.43 0 0 1 .429.428v2.45h-8.86zM12.04 26.371H9.55v-2.367a1.246 1.246 0 0 1 2.49 0v2.367zm-1.245 3.407a1.247 1.247 0 0 1-1.245-1.246v-.755h2.49v.755c0 .687-.558 1.246-1.245 1.246zm2.651-5.189v-.585a2.655 2.655 0 0 0-2.651-2.651 2.655 2.655 0 0 0-2.652 2.651v.556c-3.49-.313-6.236-3.253-6.236-6.823v-2.9a3.47 3.47 0 0 1 3.467-3.467h34.58a3.47 3.47 0 0 1 3.466 3.467v1.568c-4.447-3.05-10.71-2.717-14.812 1.385a11.563 11.563 0 0 0-3.325 6.8H13.445zm8.182 18.787a1.504 1.504 0 1 1-2.128-2.128l3.972-3.972 2.128 2.128-3.972 3.972zm5.733-5.733l-.767.767-2.128-2.128.768-.767a.138.138 0 0 1 .195 0l1.932 1.932a.138.138 0 0 1 0 .196zm.531-1.654l-1.005-1.005 1.234-1.235a11.812 11.812 0 0 0 1.006 1.006L27.89 35.99zm1.71-2.716a10.178 10.178 0 0 1-3-7.244c0-2.737 1.066-5.31 3-7.245a10.24 10.24 0 0 1 14.49 0 10.24 10.24 0 0 1 0 14.49 10.24 10.24 0 0 1-14.49 0z"/><path d="M44.56 26.995a.703.703 0 0 0-.836.538 7.013 7.013 0 0 1-1.9 3.474 7.035 7.035 0 0 1-9.954 0 7.047 7.047 0 0 1 0-9.954 7.035 7.035 0 0 1 9.954 0 7.014 7.014 0 0 1 1.9 3.47.703.703 0 1 0 1.373-.3 8.417 8.417 0 0 0-2.279-4.164 8.44 8.44 0 0 0-11.942 0c-3.293 3.292-3.293 8.65 0 11.942 3.292 3.293 8.65 3.293 11.942 0a8.415 8.415 0 0 0 2.28-4.17.703.703 0 0 0-.538-.836z"/></g><defs><clipPath id="clip0"><path fill="#fff" d="M0 0h48v48H0z" transform="translate(.5)"/></clipPath></defs></svg>