<svg xmlns="http://www.w3.org/2000/svg" width="49" height="48" fill="none" viewBox="0 0 49 48"><g fill="#EA4E1B" clip-path="url(#clip0)"><path d="M5.73 14.788a2.42 2.42 0 0 0 2.418-2.418A2.42 2.42 0 0 0 5.73 9.952a2.42 2.42 0 0 0-2.418 2.418 2.42 2.42 0 0 0 2.418 2.418zm0-3.43a1.013 1.013 0 0 1 0 2.024 1.013 1.013 0 0 1 0-2.023zm5.451 3.43A2.42 2.42 0 0 0 13.6 12.37a2.42 2.42 0 0 0-2.418-2.418 2.42 2.42 0 0 0-2.417 2.418 2.42 2.42 0 0 0 2.418 2.418zm0-3.43a1.013 1.013 0 0 1 0 2.024 1.013 1.013 0 0 1 0-2.023zm5.452 3.43a2.42 2.42 0 0 0 2.417-2.418 2.42 2.42 0 0 0-2.417-2.418 2.42 2.42 0 0 0-2.418 2.418 2.42 2.42 0 0 0 2.418 2.418zm0-3.43a1.013 1.013 0 0 1 0 2.024 1.013 1.013 0 0 1 0-2.023z"/><path d="M47.797 7.364a.703.703 0 0 0 .703-.703V4.814a3.555 3.555 0 0 0-3.551-3.551H24.804a3.555 3.555 0 0 0-3.551 3.55v2.552H6.438A5.945 5.945 0 0 0 .5 13.303v27.495a5.945 5.945 0 0 0 5.938 5.94H38.05a5.945 5.945 0 0 0 5.938-5.94v-16.64h.96a3.555 3.555 0 0 0 3.552-3.552V9.473a.703.703 0 1 0-1.406 0v11.133a2.147 2.147 0 0 1-2.145 2.145h-9.046a.702.702 0 0 0-.39.118l-6.17 4.1a.627.627 0 0 1-.657.03.628.628 0 0 1-.34-.565v-2.98a.703.703 0 0 0-.703-.703h-2.84a2.147 2.147 0 0 1-2.144-2.145V4.814c0-1.183.962-2.145 2.145-2.145h20.145c1.183 0 2.145.962 2.145 2.145v1.847c0 .388.314.703.703.703zm-5.215 33.434c0 2.5-2.034 4.533-4.532 4.533H6.438a4.538 4.538 0 0 1-4.532-4.533V13.303a4.537 4.537 0 0 1 4.532-4.532h14.815v7.01H6.982a3.673 3.673 0 0 0-3.67 3.67V40.8a3.13 3.13 0 0 0 3.126 3.126H38.05a3.13 3.13 0 0 0 3.125-3.126V24.157h1.407v16.641zm-17.778-16.64h2.136v2.276a2.045 2.045 0 0 0 3.181 1.706l5.994-3.983h3.654V40.8c0 .948-.771 1.72-1.72 1.72H6.44c-.949 0-1.72-.772-1.72-1.72V19.451a2.266 2.266 0 0 1 2.263-2.263h14.27v3.418a3.555 3.555 0 0 0 3.552 3.551z"/><path d="M37.107 8.822h-.003a.703.703 0 0 0-.703.7l-.002.354a2.875 2.875 0 0 0-1.778-.6c-1.658 0-3.374 1.435-3.374 3.836 0 2.19 1.483 3.97 3.306 3.97.793 0 1.51-.333 2.067-.896.111.224.256.43.433.608.392.394.897.611 1.422.611 1.52 0 2.483-1.058 2.877-2.049.612-1.537.722-2.833.357-4.2a7.033 7.033 0 0 0-3.488-4.244 7.035 7.035 0 0 0-5.453-.482 7.051 7.051 0 0 0-4.049 3.34 7.042 7.042 0 0 0-.653 5.207 7.03 7.03 0 0 0 2.494 3.79 7.143 7.143 0 0 0 4.182 1.498.703.703 0 0 0 .02-1.406 5.714 5.714 0 0 1-5.336-4.24 5.642 5.642 0 0 1 .525-4.171 5.65 5.65 0 0 1 3.244-2.678 5.64 5.64 0 0 1 4.37.386 5.637 5.637 0 0 1 2.788 3.373c.282 1.067.19 2.057-.308 3.308-.139.35-.57 1.162-1.57 1.162a.623.623 0 0 1-.425-.197.968.968 0 0 1-.271-.675l.028-5.598a.703.703 0 0 0-.7-.707zm-2.554 6.855c-.913 0-1.9-.981-1.9-2.566 0-1.52 1.001-2.429 1.968-2.429 1.012 0 1.726.94 1.762 2.3v.255c-.054 1.358-.854 2.44-1.83 2.44zm-13.385 7.932a6.855 6.855 0 0 0-4.184-1.99v-.305a.703.703 0 0 0-1.407 0v.305a6.849 6.849 0 0 0-4.217 2.024.703.703 0 1 0 1.002.987 5.46 5.46 0 0 1 3.914-1.64h.009c1.47.002 2.85.574 3.889 1.613a5.467 5.467 0 0 1 1.612 3.893v3.747h-11.01v-3.747c0-.6.095-1.191.285-1.755a.703.703 0 0 0-1.333-.448 6.895 6.895 0 0 0-.36 2.203v3.83a3.034 3.034 0 0 0-2.325 2.947 3.032 3.032 0 0 0 3.029 3.028h3.034a3.257 3.257 0 0 0 3.174 2.55 3.258 3.258 0 0 0 3.176-2.55h3.033a3.032 3.032 0 0 0 3.03-3.029 3.034 3.034 0 0 0-2.327-2.945v-3.83a6.864 6.864 0 0 0-2.024-4.888zM16.28 39.445a1.848 1.848 0 0 1-1.706-1.143h3.413a1.85 1.85 0 0 1-1.707 1.143zm7.832-4.172c0 .894-.728 1.622-1.623 1.622H10.072a1.625 1.625 0 0 1-1.623-1.622c0-.895.728-1.623 1.623-1.623h12.417c.895 0 1.623.728 1.623 1.623z"/></g><defs><clipPath id="clip0"><path fill="#fff" d="M0 0h48v48H0z" transform="translate(.5)"/></clipPath></defs></svg>