<svg xmlns="http://www.w3.org/2000/svg" width="49" height="48" fill="none" viewBox="0 0 49 48"><g fill="#EA4E1B" clip-path="url(#clip0)"><path d="M43.379 9.182h1.483a.937.937 0 0 0 0-1.874h-3.56a.937.937 0 0 0-.937.937v3.56a.937.937 0 0 0 1.873 0v-1.031A22.054 22.054 0 0 1 46.626 24c0 12.2-9.925 22.126-22.126 22.126-12.2 0-22.126-9.925-22.126-22.126 0-12.2 9.925-22.126 22.126-22.126.902 0 1.81.055 2.7.163a.938.938 0 0 0 .226-1.86A24.341 24.341 0 0 0 24.5 0 23.843 23.843 0 0 0 7.53 7.03 23.843 23.843 0 0 0 .5 24c0 6.41 2.496 12.438 7.03 16.97A23.843 23.843 0 0 0 24.5 48c6.41 0 12.438-2.496 16.97-7.03A23.843 23.843 0 0 0 48.5 24a23.92 23.92 0 0 0-5.121-14.818z"/><path d="M10.662 14.148a.937.937 0 0 0-1.293.29 17.963 17.963 0 0 0-2.666 11.44 17.936 17.936 0 0 0 5.143 10.776 17.839 17.839 0 0 0 12.653 5.232c4.583 0 9.165-1.744 12.654-5.233 6.977-6.977 6.977-18.33 0-25.306a17.937 17.937 0 0 0-10.759-5.141A17.964 17.964 0 0 0 14.968 8.85a.937.937 0 0 0 1 1.586c6.364-4.012 14.531-3.093 19.86 2.236 6.246 6.246 6.246 16.41 0 22.656-6.247 6.247-16.41 6.247-22.657 0-5.255-5.254-6.188-13.618-2.219-19.887a.937.937 0 0 0-.29-1.293z"/><path d="M36.68 24.952h1.154a.937.937 0 0 0 0-1.874H36.68a.937.937 0 0 0 0 1.874zm-26.453-.967c0 .517.42.937.936.937h1.156a.937.937 0 0 0 0-1.874h-1.156a.937.937 0 0 0-.936.937zM25.452 11.82v-1.155a.937.937 0 0 0-1.874 0v1.155a.937.937 0 0 0 1.874 0zm-1.903 24.36v1.155a.937.937 0 0 0 1.874 0V36.18a.937.937 0 0 0-1.874 0zm-3.744-18.201a.937.937 0 0 0-1.325 1.325l3.175 3.175A3.208 3.208 0 0 0 21.273 24a3.231 3.231 0 0 0 3.227 3.228A3.231 3.231 0 0 0 27.729 24c0-.55-.138-1.067-.382-1.52l6.407-6.408a.937.937 0 1 0-1.325-1.325l-6.407 6.407a3.208 3.208 0 0 0-1.52-.382 3.21 3.21 0 0 0-1.521.382l-3.175-3.175zM25.855 24a1.355 1.355 0 0 1-2.708 0c0-.747.607-1.354 1.354-1.354.746 0 1.353.607 1.353 1.354zM13.171 12.671a.941.941 0 0 0 .276-.662.943.943 0 0 0-.938-.937c-.246 0-.488.1-.662.274a.944.944 0 0 0-.275.663c0 .247.1.488.275.662a.944.944 0 0 0 .662.275c.247 0 .488-.1.662-.275zM30.99 2.8a.94.94 0 0 0 .938-.938.94.94 0 0 0-.275-.662.945.945 0 0 0-.663-.275c-.247 0-.488.1-.663.275a.944.944 0 0 0-.274.662.94.94 0 0 0 .937.937z"/></g><defs><clipPath id="clip0"><path fill="#fff" d="M0 0h48v48H0z" transform="translate(.5)"/></clipPath></defs></svg>