<svg xmlns="http://www.w3.org/2000/svg" width="46" height="46" fill="none" viewBox="0 0 46 46"><path fill="#fff" d="M30.55.8h-14.5c-1.325 0-2.6.525-3.55 1.475L2.25 12.525A4.995 4.995 0 0 0 .8 16.05v14.5c0 1.325.525 2.6 1.475 3.525l10.25 10.25c.925.95 2.2 1.475 3.525 1.475h14.5c1.325 0 2.6-.525 3.525-1.475l10.25-10.25A4.915 4.915 0 0 0 45.8 30.55v-14.5c0-1.325-.525-2.6-1.475-3.525l-10.25-10.25A4.915 4.915 0 0 0 30.55.8zm1.6 31.35a2.49 2.49 0 0 1-3.525 0L23.3 26.825l-5.3 5.3a2.49 2.49 0 0 1-3.525 0 2.49 2.49 0 0 1 0-3.525l5.3-5.3L14.45 18a2.49 2.49 0 0 1 0-3.525 2.49 2.49 0 0 1 3.525 0l5.325 5.3 5.3-5.3a2.49 2.49 0 0 1 3.525 0 2.49 2.49 0 0 1 0 3.525l-5.3 5.3 5.3 5.3c1 .975 1 2.575.025 3.55z"/></svg>