<svg xmlns="http://www.w3.org/2000/svg" width="148" height="148" fill="none" viewBox="0 0 148 148"><path fill="#FEC9A3" d="M94.813 75.3v12.575H53.187V75.301L60.126 74V53.187h27.75V74l6.938 1.3z"/><path fill="#4D5E78" d="M124.875 92.45v39.362H23.125V92.454a13.875 13.875 0 0 1 11.317-13.638L60.125 74 74 78.625 87.875 74l25.683 4.816a13.862 13.862 0 0 1 11.317 13.635z"/><path fill="#44546C" d="M124.875 92.45v39.362H57.561c24.327-11.467 45.903-28.042 60.718-51.175a13.882 13.882 0 0 1 6.596 11.814z"/><path fill="#B0B0AE" d="M60.125 74L74 127.187l13.875-53.188L74 78.625 60.125 74z"/><path fill="#E0E0DE" d="M87.875 73.999L74 78.625l10.48 8.385 3.395-13.011zM74 78.625L60.125 74l3.394 13.01L74 78.625z"/><path fill="#348FD9" d="M78.625 109.458V82.325L74 78.625l-4.625 3.7v27.133L74 127.188l4.625-17.73z"/><path fill="#556A8A" d="M55.5 94.813l-2.313 9.249L74 127.188 60.125 74l-9.25 1.734L43.937 92.5 55.5 94.813zM92.5 94.813l2.313 9.249L74 127.188 87.875 74l9.25 1.734 6.937 16.766L92.5 94.813z"/><path fill="#313B4C" d="M41.625 101.75h4.625v27.75h-4.625v-27.75zM101.75 101.75h4.625v27.75h-4.625v-27.75z"/><path fill="#FEC9A3" d="M111 106.375h13.875v20.812h-11.563l-13.921 1.988-2.266-15.863L111 106.375z"/><path fill="#404F66" d="M86.377 113.982l2.657 17.275-45.097 9.805H30.063a6.938 6.938 0 0 1-6.938-6.938v-16.187l63.252-3.955z"/><path fill="#E0E0DE" d="M99.39 129.175l-2.265.325-8.091 1.758-2.657-17.275 10.748-.671 2.266 15.863z"/><path fill="#FEC9A3" d="M37 106.375H23.125v20.812h11.563l13.921 1.988 2.266-15.863L37 106.375z"/><path fill="#E0E0DE" d="M66.66 114.298l-1.31 18.35-14.475-3.148-2.267-.324 2.267-15.864 15.785.986z"/><path fill="#4D5E78" d="M61.623 113.984l-1.498 20.141 43.937 6.938h13.876a6.938 6.938 0 0 0 6.937-6.938v-16.187l-63.252-3.954z"/><path fill="#313B4C" d="M69.375 124.875H74v4.625h-4.625v-4.625zM78.625 124.875h4.625v4.625h-4.625v-4.625z"/><path fill="#FEB784" d="M87.875 66.36V53.187h-27.75v13.171a20.722 20.722 0 0027.75 0zM94.813 30.063v13.875a6.938 6.938 0 000-13.876zM53.304 30.063h-.115a6.938 6.938 0 10-.002 13.875V30.062h.117z"/><path fill="#FEC9A3" d="M94.813 27.75v18.5a20.816 20.816 0 0 1-20.686 20.813H74A20.815 20.815 0 0 1 53.187 46.25v-18.5c0-11.493 9.32-18.5 20.813-18.5h.127c5.698.026 10.852 1.775 14.59 4.94 3.766 3.188 6.096 7.813 6.096 13.56z"/><path fill="#FEC093" d="M94.812 27.75v18.5a20.815 20.815 0 0 1-20.685 20.813 24.074 24.074 0 0 0 9.955-19.518v-18.78A24.068 24.068 0 0 0 74.127 9.25c5.697.026 10.851 1.775 14.589 4.94 3.766 3.188 6.096 7.813 6.096 13.56z"/><path fill="#7A432A" d="M63.594 37a3.469 3.469 0 100-6.937 3.469 3.469 0 000 6.937zM84.406 37a3.469 3.469 0 100-6.938 3.469 3.469 0 000 6.938z"/><path fill="#F7A468" d="M71.367 50.875h-4.305V46.25h4.305c3.166 0 6.23-.727 8.405-1.996l2.33 3.992c-2.904 1.696-6.715 2.63-10.735 2.63z"/><path fill="#6E3C24" d="M94.813 34.688v-9.25c0-7.663-5.177-13.875-11.563-13.875l.407 1.464c2.267 8.161 6.086 15.578 11.156 21.66zM53.188 34.687V18.784a7.445 7.445 0 019.25-7.222V18.5s-4.181 10.104-9.25 16.187z"/><path fill="#7A432A" d="M62.438 18.5h32.374A11.564 11.564 0 0 0 83.25 6.937h-9.647a15.79 15.79 0 0 0-11.165 4.625V18.5z"/><path fill="#6E3C24" d="M75.614 6.938L66.642 18.5h5.856L81.47 6.937h-5.856zM91.872 10.864a11.533 11.533 0 00-3.737-2.81L77.505 18.5h6.597l7.77-7.636z"/></svg>