<svg xmlns="http://www.w3.org/2000/svg" width="148" height="148" fill="none" viewBox="0 0 148 148"><path fill="#762F5D" d="M111 11.563h9.25v124.875H111V11.563z"/><path fill="#F6B600" d="M23.125 6.938h90.187v129.5H23.125V6.938z"/><path fill="#fff" d="M32.375 16.188H64.75v34.687H32.375V16.187zM71.688 37h34.687v4.625H71.687V37zM71.688 48.563h34.687v4.624H71.687v-4.624zM30.063 60.125h23.125v4.625H30.061v-4.625zM57.813 60.125h37v4.625h-37v-4.625zM30.063 71.688h50.874v4.624H30.063v-4.624zM30.063 83.25h23.125v4.625H30.061V83.25zM57.813 83.25h27.75v4.625h-27.75V83.25zM85.563 94.813H92.5v4.624h-6.938v-4.624zM30.063 94.813h50.874v4.624H30.063v-4.624zM74 16.188h30.062V27.75H74V16.187zM50.875 117.938a9.25 9.25 0 00-9.25-9.25 9.25 9.25 0 109.25 9.25z"/><path fill="#999" d="M78.625 117.938a9.25 9.25 0 0 0-9.25-9.25 9.25 9.25 0 1 0 9.25 9.25z"/><path fill="#fff" d="M78.625 117.938a9.25 9.25 0 0 0-9.25-9.25 9.25 9.25 0 1 0 9.25 9.25z"/><path fill="#FFD4CF" d="M108.688 141.062v-37l-20.813-27.75 2.534-2.026a11.562 11.562 0 0 1 16.252 1.805l2.027 2.534h4.624v-37h3a8.675 8.675 0 0 1 8.227 5.93l11.899 35.695v4.625l-6.938 18.5v34.687h-20.812z"/><path fill="#fff" d="M85.563 111h18.499v4.625h-18.5V111zM85.563 120.25h4.624v4.625h-4.624v-4.625zM94.813 120.25h9.249v4.625h-9.25v-4.625z"/></svg>