<svg xmlns="http://www.w3.org/2000/svg" width="148" height="148" fill="none" viewBox="0 0 148 148"><g clip-path="url(#clip0_969_20007)"><path fill="#F6B600" d="M133.677 0h-4.774l-4.774 5.577H23.87L19.096 0h-4.774l-2.358 4.774V144.83l6.027.314L74 100.259l54.304 46.26c3.997 3.404 10.148.564 10.148-4.686V4.774A4.775 4.775 0 0 0 133.677 0z"/><path fill="#8D2669" d="M19.096 0v129.316c0 2.036 2.385 3.137 3.935 1.817L67.808 92.99a9.526 9.526 0 0 1 6.191-2.28c2.205 0 4.409.76 6.192 2.28l44.777 38.143c1.55 1.32 3.935.219 3.935-1.817V0h-4.774l-4.242 4.635h-93.42L23.87 0h-4.774z"/><path fill="#F6B600" d="M74 100.259c0-2.47-2.894-3.807-4.775-2.205L16.6 142.884c-.554.474-1.102.372-1.475.203-.366-.169-.802-.524-.802-1.255V0a4.774 4.774 0 0 0-4.775 4.774v137.058c0 5.251 6.151 8.091 10.148 4.686L74 100.259z"/><path fill="#F6B600" d="M64.712 89.356A14.331 14.331 0 0 1 74 85.936c3.4 0 6.7 1.215 9.287 3.421l29.037 24.734c4.65 3.961 11.805.656 11.805-5.452V0H23.87v108.639c0 6.108 7.156 9.412 11.805 5.452l29.037-24.735z"/></g><defs><clipPath id="clip0_969_20007"><path fill="#fff" d="M0 0h148v148H0z"/></clipPath></defs></svg>