<svg xmlns="http://www.w3.org/2000/svg" width="49" height="49" fill="none" viewBox="0 0 49 49"><path fill="#8A8A8A" d="M18.5 22c-3.04 0-5.5-2.46-5.5-5.5s2.46-5.5 5.5-5.5 5.5 2.46 5.5 5.5-2.46 5.5-5.5 5.5zm0-8a2.5 2.5 0 0 0 0 5 2.5 2.5 0 0 0 0-5z"/><path fill="#8A8A8A" d="M30.5 46h-12C7.64 46 3 41.36 3 30.5v-12C3 7.64 7.64 3 18.5 3h8c.82 0 1.5.68 1.5 1.5S27.32 6 26.5 6h-8C9.28 6 6 9.28 6 18.5v12C6 39.72 9.28 43 18.5 43h12C39.72 43 43 39.72 43 30.5v-10c0-.82.68-1.5 1.5-1.5s1.5.68 1.5 1.5v10C46 41.36 41.36 46 30.5 46z"/><path fill="#8A8A8A" d="M36.5 18c-.82 0-1.5-.68-1.5-1.5v-12c0-.6.36-1.16.92-1.38.56-.22 1.2-.1 1.64.32l4 4c.58.58.58 1.54 0 2.12-.58.58-1.54.58-2.12 0L38 8.12v8.38c0 .82-.68 1.5-1.5 1.5z"/><path fill="#8A8A8A" d="M32.5 10c-.38 0-.76-.14-1.06-.44-.58-.58-.58-1.54 0-2.12l4-4c.58-.58 1.54-.58 2.12 0 .58.58.58 1.54 0 2.12l-4 4c-.3.3-.68.44-1.06.44zM5.84 39.9c-.48 0-.96-.24-1.24-.66-.46-.68-.28-1.62.4-2.08l9.86-6.62c2.16-1.44 5.14-1.28 7.1.38l.66.58c1 .86 2.7.86 3.68 0l8.32-7.14c2.12-1.82 5.46-1.82 7.6 0l3.26 2.8c.62.54.7 1.48.16 2.12-.54.62-1.5.7-2.12.16l-3.26-2.8c-1-.86-2.68-.86-3.68 0l-8.32 7.14c-2.12 1.82-5.46 1.82-7.6 0L20 33.2c-.92-.78-2.44-.86-3.46-.16L6.7 39.66c-.28.16-.58.24-.86.24z"/></svg>