<svg xmlns="http://www.w3.org/2000/svg" width="25" height="24" fill="none" viewBox="0 0 25 24"><path fill="#000" d="M12.26 6.15a.267.267 0 0 1 .48 0l.951 1.928a.266.266 0 0 0 .201.147l2.13.309c.218.031.306.3.147.454L14.63 10.49a.266.266 0 0 0-.077.236l.363 2.121a.268.268 0 0 1-.386.281l-1.905-1.002a.267.267 0 0 0-.248 0l-1.905 1.002a.267.267 0 0 1-.386-.28l.364-2.122a.267.267 0 0 0-.075-.237l-1.546-1.5a.267.267 0 0 1 .147-.454l2.13-.31a.267.267 0 0 0 .201-.146l.953-1.928z"/><path fill="#000" d="M3.5 3a3 3 0 0 1 3-3h12a3 3 0 0 1 3 3v20.25a.75.75 0 0 1-1.166.624L12.5 19.651l-7.835 4.223A.75.75 0 0 1 3.5 23.25V3zm3-1.5A1.5 1.5 0 0 0 5 3v18.849l7.085-3.723a.75.75 0 0 1 .83 0L20 21.849V3a1.5 1.5 0 0 0-1.5-1.5h-12z"/></svg>