<svg xmlns="http://www.w3.org/2000/svg" width="36" height="36" fill="none" viewBox="0 0 36 36"><rect width="35" height="35" x=".5" y=".5" stroke="#fff" rx="3.5"/><path fill="#fff" fill-rule="evenodd" d="M26.287 11.243c.39 0 .713.323.713.734v.38a.73.73 0 0 1-.713.734H9.714A.73.73 0 0 1 9 12.357v-.38c0-.411.324-.734.714-.734h2.916c.592 0 1.107-.421 1.24-1.015l.153-.682C14.261 8.617 15.041 8 15.935 8h4.13c.884 0 1.673.617 1.902 1.497l.163.73a1.28 1.28 0 0 0 1.241 1.016h2.916zm-1.481 13.892c.304-2.837.837-9.577.837-9.645a.746.746 0 0 0-.18-.558.726.726 0 0 0-.524-.234h-13.87a.707.707 0 0 0-.524.234.79.79 0 0 0-.19.558l.052.647c.142 1.763.538 6.674.794 8.998.18 1.712 1.304 2.788 2.93 2.827 1.256.029 2.55.039 3.873.039 1.245 0 2.51-.01 3.805-.04 1.684-.028 2.806-1.085 2.997-2.826z" clip-rule="evenodd"/></svg>