<svg xmlns="http://www.w3.org/2000/svg" width="149" height="148" fill="none" viewBox="0 0 149 148"><g clip-path="url(#clip0)"><path fill="#4398D1" d="M109.033 11.1H39.966v133.2h69.067V11.1z"/><path fill="#3F8FC4" d="M39.966 107.3v37h69.067V30.56L39.966 107.3z"/><path fill="#4398D1" d="M99.167 1.233H49.833V11.1h49.334V1.233z"/><path fill="#3F8FC4" d="M99.167 6.167H49.833V11.1h49.334V6.167z"/><path fill="#87CED9" d="M59.7 23.434h-9.867V33.3H59.7v-9.866zm19.733 0h-9.866V33.3h9.867v-9.866zm19.733 0H89.3V33.3h9.866v-9.866zM59.7 43.167h-9.867v9.866H59.7v-9.866zm19.733 0h-9.866v9.866h9.867v-9.866zm19.733 0H89.3v9.866h9.866v-9.866zM59.7 62.9h-9.867v9.866H59.7V62.9zm19.733 0h-9.866v9.866h9.867V62.9zm19.733 0H89.3v9.866h9.866V62.9zM59.7 82.634h-9.867V92.5H59.7v-9.866zm19.733 0h-9.866V92.5h9.867v-9.866zm19.733 0H89.3V92.5h9.866v-9.866zM59.7 102.367h-9.867v9.866H59.7v-9.866zm19.733 0h-9.866v9.866h9.867v-9.866zm19.733 0H89.3v9.866h9.866v-9.866zm-9.866 22.2H59.7V144.3h29.6v-19.733z"/><path fill="#61ACC9" d="M76.967 124.566h-4.933V144.3h4.933v-19.734z"/><path fill="#88B337" d="M24.673 105.448a9.95 9.95 0 0 0 .19-5.575 9.775 9.775 0 0 0-7.188-7.096c-5.3-1.303-10.653 1.938-11.956 7.239a9.816 9.816 0 0 0 .06 4.933 14.252 14.252 0 0 1-1.16 10.984c-3.407 5.901-1.384 13.441 4.514 16.848 5.898 3.406 13.443 1.384 16.847-4.514a12.338 12.338 0 0 0 .203-11.971 13.874 13.874 0 0 1-1.51-10.848z"/><path fill="#79A125" d="M17.767 102.367h-4.933v44.4h4.933v-44.4z"/><path fill="#88B337" d="M143.073 105.448a9.943 9.943 0 0 0 .19-5.575 9.775 9.775 0 0 0-7.188-7.096c-5.3-1.303-10.653 1.938-11.955 7.239a9.812 9.812 0 0 0 .059 4.933 14.258 14.258 0 0 1-1.16 10.994c-3.406 5.901-1.383 13.441 4.514 16.848 5.898 3.406 13.441 1.383 16.848-4.514a12.34 12.34 0 0 0 .202-11.971 13.884 13.884 0 0 1-1.51-10.858z"/><path fill="#79A125" d="M136.167 102.367h-4.933v44.4h4.933v-44.4z"/><path fill="#E0D2C1" d="M148.5 141.833H.5v4.934h148v-4.934z"/></g><defs><clipPath id="clip0"><path fill="#fff" d="M0 0h148v148H0z" transform="translate(.5)"/></clipPath></defs></svg>