<svg xmlns="http://www.w3.org/2000/svg" width="32" height="32" fill="none" viewBox="0 0 32 32"><path fill="#2A5F9E" d="M11 30.15v-6.9l-5.15 3.8c1.45 1.35 3.2 2.4 5.15 3.1zm10 0c1.95-.7 3.7-1.75 5.15-3.1L21 23.2v6.95zM1.85 21c.15.5.35.95.6 1.45L4.4 21H1.85zm25.75 0l1.95 1.45c.2-.45.4-.95.6-1.45H27.6z"/><path fill="#fff" d="M11.75 19H1.3c.15.7.35 1.35.55 2H4.4l-1.95 1.45c.4.85.85 1.6 1.4 2.35L9 21h2v1l-5.85 4.3.7.7L11 23.25v6.9c.65.25 1.3.4 2 .55V19h-1.25zm18.95 0H19v11.7c.7-.15 1.35-.35 2-.55v-6.9L26.15 27c.7-.65 1.3-1.35 1.9-2.1L22.7 21h3.4l3.05 2.25c.15-.25.3-.55.4-.8L27.6 21h2.55c.2-.65.4-1.3.55-2z"/><path fill="#ED4C5C" d="M3.85 24.8c.4.55.8 1.05 1.25 1.55l5.9-4.3v-1H9L3.85 24.8zm18.9-3.8l5.35 3.9c.2-.25.35-.5.55-.75.05-.05.05-.1.1-.1.15-.25.35-.55.5-.8L26.1 21h-3.35z"/><path fill="#2A5F9E" d="M21 1.85v6.9l5.15-3.8c-1.45-1.35-3.2-2.4-5.15-3.1zm-10 0c-1.95.7-3.7 1.75-5.15 3.1L11 8.8V1.85zM30.15 11c-.15-.5-.35-.95-.6-1.45L27.6 11h2.55zM4.4 11L2.45 9.55c-.2.5-.4.95-.6 1.45H4.4z"/><path fill="#fff" d="M20.25 13h10.4c-.15-.7-.35-1.35-.55-2h-2.55l1.95-1.45c-.4-.85-.85-1.6-1.4-2.35L23 11h-2v-1l5.85-4.3-.7-.7L21 8.75v-6.9c-.65-.25-1.3-.4-2-.55V13h1.25zM1.3 13H13V1.3c-.7.15-1.35.35-2 .55v6.9L5.85 5c-.7.65-1.3 1.35-1.9 2.1L9.3 11H5.9L2.85 8.75c-.15.25-.3.55-.4.8L4.4 11H1.85c-.2.65-.4 1.3-.55 2z"/><path fill="#ED4C5C" d="M28.15 7.2c-.4-.55-.8-1.05-1.25-1.55L21 9.95v1h2l5.15-3.75zM9.25 11l-5.3-3.9c-.2.25-.35.5-.55.75-.05.05-.05.1-.1.1-.15.25-.35.55-.5.8L5.85 11h3.4z"/><path fill="#ED4C5C" d="M30.7 13H19V1.3c-.95-.2-1.95-.3-3-.3s-2.05.1-3 .3V13H1.3c-.2.95-.3 1.95-.3 3s.1 2.05.3 3H13v11.7c.95.2 1.95.3 3 .3s2.05-.1 3-.3V19h11.7c.2-.95.3-1.95.3-3s-.1-2.05-.3-3z"/></svg>