<svg xmlns="http://www.w3.org/2000/svg" width="25" height="20" fill="none" viewBox="0 0 25 20"><g clip-path="url(#clip0)"><path fill="#4285F4" d="M5.682 19.902V9.652L2.686 6.744 0 5.13v12.963c0 1 .764 1.809 1.705 1.809h3.977z"/><path fill="#34A853" d="M19.318 19.902h3.978c.943 0 1.704-.811 1.704-1.81V5.13l-3.042 1.85-2.64 2.673v10.25z"/><path fill="#EA4335" d="M5.681 9.652l-.408-4.005.408-3.833L12.5 7.24l6.818-5.426.456 3.626-.456 4.212-6.818 5.426-6.818-5.426z"/><path fill="#FBBC04" d="M19.318 1.814v7.838L25 5.13V2.718c0-2.237-2.406-3.512-4.09-2.17l-1.592 1.266z"/><path fill="#C5221F" d="M0 5.13l2.613 2.08 3.069 2.442V1.814L4.09.548C2.403-.794 0 .48 0 2.718V5.13z"/></g><defs><clipPath id="clip0"><path fill="#fff" d="M0 0h25v20H0z"/></clipPath></defs></svg>