<svg xmlns="http://www.w3.org/2000/svg" width="40" height="40" fill="none" viewBox="0 0 40 40"><path fill="url(#paint0_linear)" d="M36.32 3.492A10.635 10.635 0 0 0 32.87.907 9.631 9.631 0 0 0 28.802 0c-1.397 0-2.779.31-4.068.91-1.29.6-2.461 1.48-3.448 2.589L19.998 4.96 18.722 3.5l-.009-.009A10.635 10.635 0 0 0 15.266.908 9.632 9.632 0 0 0 11.2 0a9.632 9.632 0 0 0-4.067.908 10.637 10.637 0 0 0-3.447 2.584l-.574.644C1.12 6.372 0 9.405 0 12.567c0 3.162 1.12 6.195 3.112 8.431l15.14 16.988 1.71 2.01.04-.046.045.05 1.601-1.897 15.245-17.105C38.883 18.76 40 15.728 40 12.567c0-3.161-1.117-6.193-3.107-8.431l-.574-.644zM35.013 18.89L20.002 35.735 4.991 18.89c-1.495-1.677-2.335-3.951-2.335-6.323 0-2.372.84-4.646 2.335-6.323l.573-.644c1.494-1.676 3.52-2.618 5.633-2.62 2.112 0 4.139.94 5.634 2.615l3.162 3.613L23.17 5.6a7.977 7.977 0 0 1 2.586-1.939 7.224 7.224 0 0 1 3.05-.68c1.046 0 2.082.231 3.05.68A7.976 7.976 0 0 1 34.44 5.6l.573.644c1.493 1.678 2.33 3.952 2.33 6.323 0 2.37-.838 4.645-2.33 6.323z"/><defs><linearGradient id="paint0_linear" x1="20" x2="20" y1="0" y2="40" gradientUnits="userSpaceOnUse"><stop stop-color="#2F0743"/><stop offset="1" stop-color="#41295A"/></linearGradient></defs></svg>