<svg xmlns="http://www.w3.org/2000/svg" width="36" height="36" fill="none" viewBox="0 0 36 36"><path fill="#8A8A8A" d="M18 3.042c-9.941 0-18 8.06-18 18 0 4.332 1.531 8.307 4.08 11.413.394-3.15 3.54-5.813 7.95-7.075 1.612 1.502 3.694 2.413 5.97 2.413 2.222 0 4.263-.866 5.858-2.304 4.45 1.372 7.528 4.191 7.629 7.468A17.93 17.93 0 0 0 36 21.042c0-9.94-8.059-18-18-18zm0 22.619a6.43 6.43 0 0 1-3.193-.863c-2.317-1.318-3.912-4.016-3.912-7.13 0-4.408 3.187-7.994 7.105-7.994 3.918 0 7.105 3.586 7.105 7.993 0 3.163-1.645 5.894-4.02 7.19-.935.51-1.979.804-3.085.804z"/></svg>