<svg xmlns="http://www.w3.org/2000/svg" width="148" height="148" fill="none" viewBox="0 0 148 148"><g clip-path="url(#clip0_1898_20813)"><path fill="#E7ECF6" d="M127.906 103.941a10.103 10.103 0 0 1-1.088 3.873 578.133 578.133 0 0 1-87.006-.383 10.119 10.119 0 0 1-.904-3.49 619.247 619.247 0 0 1 0-92.62 10.186 10.186 0 0 1 9.029-9.354 320.687 320.687 0 0 1 70.94 0 10.184 10.184 0 0 1 9.029 9.354c.551 7.359.97 14.72 1.257 22.079a619.017 619.017 0 0 1-1.257 70.541z"/><path fill="#fff" d="M115.384 115.31a10.138 10.138 0 0 1-1.088 3.875 578.035 578.035 0 0 1-87.009-.385 10.124 10.124 0 0 1-.903-3.491 618.655 618.655 0 0 1-.37-87.337c.116-1.762.239-3.523.37-5.282.365-4.88 4.17-8.813 9.029-9.354a320.786 320.786 0 0 1 70.94 0 10.187 10.187 0 0 1 9.032 9.354c.55 7.36.969 14.72 1.256 22.08a620.077 620.077 0 0 1-1.257 70.54z"/><path fill="#E7ECF6" d="M115.384 115.31a10.138 10.138 0 0 1-1.088 3.875 578.035 578.035 0 0 1-87.009-.385 10.124 10.124 0 0 1-.903-3.491 618.655 618.655 0 0 1-1.127-73.634c15.372-2.231 29.164-2.267 42.41-.105a9.04 9.04 0 0 1 7.521 7.898c.06.52.117 1.041.174 1.562a9.048 9.048 0 0 0 9.04 8.068c10.883-.05 21.763.18 32.646.694a620.072 620.072 0 0 1-1.664 55.518z"/><path fill="#F6B600" d="M101.791 39.027H43.74a2.233 2.233 0 110-4.467h58.051a2.234 2.234 0 110 4.467zM101.792 51.854h-44.89a2.233 2.233 0 110-4.466h44.89a2.234 2.234 0 110 4.466z"/><path fill="#EA4E1B" d="M134.214 124.41l-.003.003a369.165 369.165 0 0 1-1.26 13.552c-.478 4.304-3.963 7.651-8.279 7.996a630.563 630.563 0 0 1-101.343 0 9.07 9.07 0 0 1-8.287-8.05 371.694 371.694 0 0 1 .07-83.095c.46-4.077 3.625-7.328 7.685-7.924 15.531-2.288 29.443-2.342 42.8-.16a9.038 9.038 0 0 1 7.524 7.897c.059.52.115 1.04.172 1.56a9.05 9.05 0 0 0 9.041 8.07c14.59-.069 29.18.37 43.77 1.314a9.069 9.069 0 0 1 8.46 8.504 370.834 370.834 0 0 1-.35 50.333z"/><path fill="#1D0740" d="M29.881 146.458a627.418 627.418 0 0 1-6.552-.495 9.074 9.074 0 0 1-8.286-8.051 371.628 371.628 0 0 1 .069-83.095c.46-4.076 3.625-7.329 7.685-7.925a175.43 175.43 0 0 1 7.822-.976 9.396 9.396 0 0 0-4.908 7.225 386.545 386.545 0 0 0-.072 86.431 9.442 9.442 0 0 0 4.242 6.886z"/><path fill="#fff" d="M59.516 137.463c-1.05 0-2.122-.243-3.19-.73a9.63 9.63 0 01-2.647-1.795 2.233 2.233 0 013.158-3.159c.108.104 2.025 1.913 3.872.888.952-.529 1.544-1.563 1.544-2.699v-20.926a2.233 2.233 0 014.466 0v20.926c0 2.758-1.472 5.289-3.843 6.604a6.852 6.852 0 01-3.36.891zM108.163 123.352a2.23 2.23 0 01-2.233-2.233v-12.076c0-1.233 1-2.233 2.233-2.233h7.605c4.554 0 8.258 3.704 8.258 8.258 0 4.553-3.704 8.258-8.258 8.258-1.647 0-7.595.027-7.595.027l-.01-.001zm2.234-12.075v7.599c1.872-.008 4.387-.017 5.372-.017a3.796 3.796 0 003.791-3.791 3.795 3.795 0 00-3.791-3.791h-5.372z"/><path fill="#fff" d="M108.163 137.457a2.23 2.23 0 01-2.233-2.233v-14.125c0-1.234 1-2.234 2.233-2.234h8.933c5.118 0 9.281 4.164 9.281 9.281 0 5.117-4.163 9.281-9.281 9.281-1.927 0-8.922.031-8.923.031l-.01-.001zm2.234-14.125v9.649c2.228-.009 5.484-.022 6.699-.022a4.819 4.819 0 004.814-4.813 4.819 4.819 0 00-4.814-4.814h-6.699zM86.866 137.458c-8.45 0-15.324-6.874-15.324-15.324 0-8.449 6.874-15.324 15.324-15.324s15.324 6.875 15.324 15.324c0 8.45-6.874 15.324-15.324 15.324zm0-26.181c-5.987 0-10.857 4.87-10.857 10.857 0 5.987 4.87 10.858 10.857 10.858 5.987 0 10.858-4.871 10.858-10.858s-4.87-10.857-10.858-10.857z"/></g><defs><clipPath id="clip0_1898_20813"><path fill="#fff" d="M0 0h148v148H0z"/></clipPath></defs></svg>