<svg xmlns="http://www.w3.org/2000/svg" width="21" height="24" fill="none" viewBox="0 0 21 24"><path fill="#8A8A8A" d="M10.5 0a4 4 0 0 1 3.995 3.8l.005.2h5a1 1 0 0 1 .117 1.993L19.5 6h-.849l-1.18 14.553A3.75 3.75 0 0 1 13.733 24H7.267a3.75 3.75 0 0 1-3.738-3.447L2.348 6H1.5a1 1 0 0 1-.993-.883L.5 5a1 1 0 0 1 .883-.993L1.5 4h5a4 4 0 0 1 4-4zM8.25 9.25a.75.75 0 0 0-.743.648L7.5 10v8l.007.102a.75.75 0 0 0 1.486 0L9 18v-8l-.007-.102a.75.75 0 0 0-.743-.648zm4.5 0a.75.75 0 0 0-.743.648L12 10v8l.007.102a.75.75 0 0 0 1.486 0L13.5 18v-8l-.007-.102a.75.75 0 0 0-.743-.648zM10.5 2a2 2 0 0 0-1.995 1.85L8.5 4h4l-.005-.15A2 2 0 0 0 10.5 2z"/></svg>