<svg xmlns="http://www.w3.org/2000/svg" width="36" height="36" fill="none" viewBox="0 0 36 36"><g clip-path="url(#clip0)"><path fill="#0D0229" d="M4.292 20.467a.63.63 0 0 0-.309.824l1.416 3.039a.63.63 0 0 0 .566.365.627.627 0 0 0 .264-.057l10.696-4.995-.97 10.129a.63.63 0 0 0 .208.528c.469.389 1.053.61 1.661.63.168 0 .335-.022.497-.063.869-.227 1.542-1 2.001-2.322l4.209-12.463 8.336-3.889c2.454-1.144 3.718-3.466 2.87-5.278a3.185 3.185 0 0 0-2.46-1.718 5.832 5.832 0 0 0-3.436.53l-9.62 4.51L9.878 6.192c-1.302-.491-2.334-.478-3.057.044a2.566 2.566 0 0 0-.938 2.032.63.63 0 0 0 .27.497l6.965 4.788L9.13 15.44l-6.69-1.699a.63.63 0 0 0-.698.302L.076 17.044a.627.627 0 0 0 .327.887l4.952 2.045-1.063.49zm2.88-12.514c.038-.266.172-.508.378-.68.36-.257 1.013-.22 1.888.108l9.21 3.592-4.202 1.963-7.273-4.983zm-5.661 9.085l1.094-1.944 6.436 1.598a.63.63 0 0 0 .416-.038l20.919-9.77a4.599 4.599 0 0 1 2.686-.428 1.97 1.97 0 0 1 1.535.994c.529 1.132-.51 2.787-2.265 3.605l-7.248 3.398.441-1.303a.64.64 0 1 0-1.214-.403l-5.178 15.408c-.308.875-.692 1.397-1.12 1.51a1.065 1.065 0 0 1-.768-.145l1.259-13.212a.632.632 0 1 0-1.259-.12l-.195 2.02-10.796 5.033-.887-1.887 1.774-.83a.63.63 0 0 0 0-1.152l-5.63-2.334z"/></g><defs><clipPath id="clip0"><path fill="#fff" d="M0 0h36v36H0z"/></clipPath></defs></svg>