<svg xmlns="http://www.w3.org/2000/svg" width="24" height="24" fill="none" viewBox="0 0 24 24"><path fill="#3988FF" d="M9.792 14.94a.417.417 0 0 1-.59 0l-2.067-2.064-.59.588 2.952 2.952 7.67-7.67-.59-.59-6.785 6.784z"/><path fill="#3988FF" d="M22.065 9.148l.328-3.15L19.5 4.713a.417.417 0 0 1-.212-.212l-1.287-2.893-3.15.329a.42.42 0 0 1-.287-.078L12 0 9.436 1.858a.42.42 0 0 1-.288.078l-3.15-.33L4.713 4.5a.414.414 0 0 1-.212.211L1.607 6l.328 3.149a.418.418 0 0 1-.077.288L0 12l1.858 2.564c.06.083.088.186.077.288l-.328 3.149L4.5 19.288c.094.042.17.118.212.212l1.287 2.893 3.15-.329.04-.002c.089 0 .174.028.245.08L12 24l2.564-1.858a.416.416 0 0 1 .288-.078l3.15.33 1.286-2.894a.415.415 0 0 1 .212-.211L22.393 18l-.328-3.149a.416.416 0 0 1 .077-.288L24 12l-1.858-2.564a.416.416 0 0 1-.077-.288zm-4.013-.107l-8.26 8.26a.417.417 0 0 1-.59 0L5.66 13.76a.417.417 0 0 1 0-.59l1.18-1.177a.417.417 0 0 1 .59 0l2.067 2.063 6.784-6.784a.417.417 0 0 1 .59 0l1.18 1.18a.417.417 0 0 1 0 .59z"/></svg>