<svg xmlns="http://www.w3.org/2000/svg" width="346" height="234" fill="none" viewBox="0 0 346 234"><path fill="#EA4E1B" d="M345.043 211.613V21.935a21.89 21.89 0 0 0-6.477-15.501A22.188 22.188 0 0 0 322.96 0H22.892A22.19 22.19 0 0 0 7.286 6.434 21.893 21.893 0 0 0 .809 21.936v189.677a21.894 21.894 0 0 0 6.477 15.502 22.193 22.193 0 0 0 15.606 6.434H322.96a22.19 22.19 0 0 0 15.606-6.434 21.89 21.89 0 0 0 6.477-15.502zM22.892 230.968a19.572 19.572 0 0 1-13.771-5.676 19.313 19.313 0 0 1-5.714-13.679V21.935A19.313 19.313 0 0 1 9.12 8.256a19.575 19.575 0 0 1 13.77-5.675H322.96a19.578 19.578 0 0 1 13.772 5.675 19.314 19.314 0 0 1 5.713 13.68v189.677a19.314 19.314 0 0 1-5.713 13.679 19.574 19.574 0 0 1-13.772 5.676H22.892z"/><path fill="#EA4E1B" d="M342.445 34.127H3.406c-.344 0-.675-.136-.918-.377a1.286 1.286 0 010-1.825c.243-.242.574-.378.918-.378h339.039c.345 0 .675.136.919.378a1.288 1.288 0 01-.919 2.202zM25.49 24.516c3.586 0 6.494-2.888 6.494-6.451 0-3.564-2.908-6.452-6.495-6.452s-6.495 2.888-6.495 6.451c0 3.564 2.908 6.452 6.495 6.452zM47.572 24.516c3.587 0 6.495-2.888 6.495-6.451 0-3.564-2.908-6.452-6.495-6.452s-6.495 2.888-6.495 6.451c0 3.564 2.908 6.452 6.495 6.452zM69.656 24.516c3.587 0 6.495-2.888 6.495-6.451 0-3.564-2.908-6.452-6.495-6.452s-6.495 2.888-6.495 6.451c0 3.564 2.908 6.452 6.495 6.452z"/><path fill="#0D0229" d="M118.196 172.995a.886.886 0 01-.808-.536.863.863 0 01-.066-.332c0-9.054-3.996-14.104-10.442-19.318a.86.86 0 01-.288-.923.87.87 0 01.75-.615.869.869 0 01.641.192c6.845 5.535 11.087 10.923 11.087 20.664a.864.864 0 01-.256.614.89.89 0 01-.618.254zM43.314 172.995a.892.892 0 01-.619-.254.878.878 0 01-.255-.614c0-9.741 4.241-15.129 11.086-20.664a.868.868 0 01.641-.192.873.873 0 01.782.953.86.86 0 01-.32.585c-6.446 5.214-10.441 10.265-10.441 19.318a.863.863 0 01-.54.802.892.892 0 01-.334.066zM110.708 113.489a.872.872 0 01-.842-1.102.867.867 0 01.29-.439c6.627-5.359 7.166-12.971 7.166-21.641 0-.23.092-.452.256-.614a.877.877 0 011.492.614c0 9.121-.588 17.147-7.81 22.987a.867.867 0 01-.552.195zM50.801 113.025a.877.877 0 01-.551-.195c-7.223-5.842-7.81-13.656-7.81-22.523 0-.23.092-.452.256-.614a.877.877 0 011.492.614c0 8.714.527 15.808 7.166 21.176a.868.868 0 01.271.964.868.868 0 01-.824.578zM129.428 132.115h-18.72a.876.876 0 01-.618-.254.866.866 0 01.618-1.482h18.72c.232 0 .455.091.619.254a.866.866 0 01-.619 1.482zM50.803 132.115h-18.72a.876.876 0 01-.619-.254.866.866 0 01.618-1.482h18.72c.232 0 .455.091.619.254a.866.866 0 01-.618 1.482zM80.754 169.276a.877.877 0 01-.874-.869v-59.505c0-.23.092-.451.256-.614a.88.88 0 011.236 0 .866.866 0 01.256.614v59.505a.87.87 0 01-.874.869z"/><path fill="#0D0229" d="M80.754 169.276a30.972 30.972 0 0 1-21.787-8.979 30.554 30.554 0 0 1-9.04-21.642v-22.331c0-14.3 11.813-23.183 30.827-23.183 19.879 0 30.827 8.233 30.827 23.183v22.331a30.553 30.553 0 0 1-9.039 21.642 30.973 30.973 0 0 1-21.788 8.979zm0-74.398c-14.057 0-29.078 5.634-29.078 21.446v22.331a28.715 28.715 0 0 0 2.209 11.058 28.876 28.876 0 0 0 6.302 9.376 29.08 29.08 0 0 0 9.436 6.265 29.24 29.24 0 0 0 22.263 0 29.084 29.084 0 0 0 9.436-6.265 28.875 28.875 0 0 0 6.302-9.376 28.725 28.725 0 0 0 2.209-11.058v-22.331c0-18.66-18.219-21.446-29.079-21.446z"/><path fill="#0D0229" d="M62.837 98.502a.879.879 0 0 1-.812-.547 12.167 12.167 0 0 1-.864-3.935A19.45 19.45 0 0 1 66.9 80.295a19.713 19.713 0 0 1 13.804-5.733h.1a19.706 19.706 0 0 1 13.793 5.713 19.442 19.442 0 0 1 5.753 13.7 10.558 10.558 0 0 1-.796 3.656.88.88 0 0 1-1.612.001.863.863 0 0 1-.005-.661c.4-.963.625-1.988.665-3.028a17.701 17.701 0 0 0-5.25-12.456 17.94 17.94 0 0 0-12.55-5.188h-.096a17.946 17.946 0 0 0-12.559 5.204 17.707 17.707 0 0 0-5.238 12.476c.062 1.144.312 2.27.74 3.333a.865.865 0 0 1-.402 1.088.88.88 0 0 1-.409.102z"/><path fill="#F1F1F1" d="M169.536 93.78h-10.49a6.14 6.14 0 01-4.327-1.78 6.056 6.056 0 01-1.792-4.298c0-1.612.644-3.158 1.792-4.298a6.14 6.14 0 014.327-1.78h10.49c1.622 0 3.179.64 4.326 1.78a6.056 6.056 0 011.793 4.298 6.057 6.057 0 01-1.793 4.297 6.138 6.138 0 01-4.326 1.78zM241.215 119.395h-10.49a6.138 6.138 0 01-4.326-1.78 6.057 6.057 0 01-1.793-4.298c0-1.612.645-3.158 1.793-4.298a6.138 6.138 0 014.326-1.78h10.49c1.623 0 3.18.64 4.327 1.78a6.056 6.056 0 011.792 4.298 6.056 6.056 0 01-1.792 4.298 6.138 6.138 0 01-4.327 1.78zM274.433 119.395h-10.49a6.14 6.14 0 01-4.327-1.78 6.06 6.06 0 01-1.792-4.298 6.06 6.06 0 011.792-4.298 6.14 6.14 0 014.327-1.78h10.49a6.14 6.14 0 014.327 1.78 6.06 6.06 0 011.792 4.298 6.06 6.06 0 01-1.792 4.298 6.14 6.14 0 01-4.327 1.78zM307.651 119.395h-10.49a6.14 6.14 0 01-4.327-1.78 6.06 6.06 0 01-1.792-4.298 6.06 6.06 0 011.792-4.298 6.14 6.14 0 014.327-1.78h10.49a6.14 6.14 0 014.327 1.78 6.06 6.06 0 011.792 4.298 6.06 6.06 0 01-1.792 4.298 6.14 6.14 0 01-4.327 1.78zM242.09 94.214h-48.952a6.14 6.14 0 01-4.327-1.78 6.056 6.056 0 01-1.792-4.298c0-1.612.644-3.158 1.792-4.298a6.14 6.14 0 014.327-1.78h48.952a6.14 6.14 0 014.327 1.78 6.06 6.06 0 011.792 4.298 6.06 6.06 0 01-1.792 4.298 6.14 6.14 0 01-4.327 1.78zM207.998 118.527h-48.952a6.141 6.141 0 01-4.327-1.781 6.052 6.052 0 010-8.595 6.141 6.141 0 014.327-1.781h48.952c1.623 0 3.179.641 4.327 1.781a6.06 6.06 0 011.792 4.298 6.056 6.056 0 01-1.792 4.297 6.141 6.141 0 01-4.327 1.781zM304.155 94.214h-37.589a6.14 6.14 0 01-4.327-1.78 6.06 6.06 0 01-1.792-4.298 6.06 6.06 0 011.792-4.298 6.14 6.14 0 014.327-1.78h37.589c1.623 0 3.179.64 4.326 1.78a6.057 6.057 0 011.793 4.298 6.057 6.057 0 01-1.793 4.298 6.137 6.137 0 01-4.326 1.78zM169.536 145.01h-10.49a6.14 6.14 0 01-4.327-1.78 6.056 6.056 0 01-1.792-4.298c0-1.612.644-3.158 1.792-4.298a6.14 6.14 0 014.327-1.78h10.49c1.622 0 3.179.64 4.326 1.78a6.057 6.057 0 011.793 4.298 6.057 6.057 0 01-1.793 4.298 6.138 6.138 0 01-4.326 1.78zM242.09 145.444h-48.952c-1.623 0-3.18-.64-4.327-1.78a6.056 6.056 0 01-1.792-4.298c0-1.612.644-3.158 1.792-4.298a6.138 6.138 0 014.327-1.78h48.952a6.14 6.14 0 014.327 1.78 6.06 6.06 0 011.792 4.298 6.06 6.06 0 01-1.792 4.298 6.14 6.14 0 01-4.327 1.78zM304.155 145.444h-37.589a6.14 6.14 0 01-4.327-1.78 6.06 6.06 0 01-1.792-4.298 6.06 6.06 0 011.792-4.298 6.14 6.14 0 014.327-1.78h37.589c1.623 0 3.179.64 4.326 1.78a6.057 6.057 0 011.793 4.298 6.057 6.057 0 01-1.793 4.298 6.136 6.136 0 01-4.326 1.78zM287.545 165.85a6.064 6.064 0 011.794-4.296 6.147 6.147 0 014.325-1.783h10.49c1.623 0 3.179.641 4.327 1.781a6.06 6.06 0 011.792 4.298 6.056 6.056 0 01-1.792 4.297 6.141 6.141 0 01-4.327 1.781h-10.49a6.147 6.147 0 01-4.325-1.783 6.064 6.064 0 01-1.794-4.295zM214.991 166.284a6.064 6.064 0 011.794-4.296 6.143 6.143 0 014.325-1.782h48.953c1.622 0 3.179.64 4.326 1.78a6.057 6.057 0 011.793 4.298 6.057 6.057 0 01-1.793 4.298 6.138 6.138 0 01-4.326 1.78H221.11a6.152 6.152 0 01-4.325-1.782 6.068 6.068 0 01-1.794-4.296zM152.927 166.284a6.064 6.064 0 011.794-4.296 6.14 6.14 0 014.325-1.782h37.588a6.14 6.14 0 014.327 1.78 6.056 6.056 0 011.792 4.298 6.056 6.056 0 01-1.792 4.298 6.14 6.14 0 01-4.327 1.78h-37.588a6.148 6.148 0 01-4.325-1.782 6.068 6.068 0 01-1.794-4.296z"/></svg>