<svg xmlns="http://www.w3.org/2000/svg" width="471" height="470" fill="none" viewBox="0 0 471 470"><g clip-path="url(#clip0_100_17472)"><path fill="#FCCF31" d="M289.128 440.563s-58.56-50.164-42.556-93.822c16.005-43.657-1.889-51.423 2.466-82.382 4.356-30.959 13.539-42.399 18.838-64.595 5.3-22.196 10.757-32.375 20.57-32.533 9.76-.157 24.19 9.235 25.817 35.577 1.626 26.341 21.671 23.823 29.437 58.874 7.766 35.052-25.607 65.119-19.677 106.048 5.929 40.982 13.433 71.836-34.895 72.833z"/><path fill="#FDCEA9" d="M289.076 440.51c-1.941-10.075-3.41-20.254-4.775-30.434a718.489 718.489 0 0 1-1.889-15.322c-.315-2.571-.577-5.09-.839-7.661-.263-2.571-.525-5.09-.787-7.661-1.942-20.465-3.254-41.034-3.621-61.604-.157-10.284-.157-20.569.157-30.906l.315-7.714c.105-2.571.263-5.142.42-7.713.157-2.571.262-5.142.525-7.714l.682-7.713c.577-5.142 1.049-10.232 1.836-15.375l.525-3.83.63-3.831c.472-2.518.839-5.09 1.364-7.608 2.047-10.075 4.618-20.15 8.501-29.648-2.781 9.918-4.618 19.993-5.982 30.12-.42 2.519-.63 5.09-.945 7.609l-.419 3.778-.315 3.83c-.21 2.571-.525 5.09-.63 7.609l-.525 7.661c-.21 5.09-.524 10.179-.682 15.322-.105 2.571-.21 5.09-.21 7.661l-.105 7.661-.052 7.661c-.053 2.571 0 5.09 0 7.661 0 2.571 0 5.09.052 7.661l.105 7.661c.42 20.464 1.26 40.929 2.467 61.393 1.259 20.517 2.676 40.929 4.197 61.446z"/><path fill="#FDCEA9" d="M272.495 212.988c.105 3.253.42 6.401.944 9.55a73.78 73.78 0 002.152 9.077c.42 1.47 1.049 2.886 1.521 4.356l.945 2.099c.262.734.63 1.364.997 2.046 1.312 2.729 3.096 5.195 4.88 7.661l-2.991-.839c.63-.263 1.417-.578 2.099-.892.735-.315 1.417-.683 2.151-1.05 1.417-.735 2.834-1.469 4.198-2.309a54.008 54.008 0 007.766-5.614c.63-.525 1.207-1.05 1.784-1.627.578-.577 1.155-1.102 1.679-1.732a35.188 35.188 0 003.096-3.725c1.942-2.571 3.516-5.51 4.828-8.606-.105 1.679-.315 3.411-.787 5.09-.42 1.679-1.05 3.306-1.784 4.88a32.258 32.258 0 01-1.207 2.309c-.472.735-.892 1.522-1.417 2.204-.997 1.469-2.099 2.833-3.253 4.145-2.362 2.624-5.09 4.88-7.976 6.822a48.944 48.944 0 01-4.513 2.728c-.787.42-1.574.787-2.361 1.155-.84.367-1.574.734-2.519 1.049l-.052.053c-1.102.419-2.257 0-2.886-.892-1.994-2.729-3.883-5.615-5.195-8.763-.735-1.522-1.207-3.149-1.784-4.723-.42-1.627-.892-3.253-1.155-4.88-.629-3.306-.892-6.612-.734-9.917.052-.84.105-1.627.157-2.467.105-.839.157-1.626.315-2.466.262-1.522.577-3.148 1.102-4.722zM266.302 276.532a51.666 51.666 0 002.362 6.769c.944 2.152 1.941 4.251 3.148 6.245l.945 1.469c.315.472.682.892.997 1.364.315.472.682.892 1.049 1.312.367.42.682.892 1.102 1.259l1.155 1.155c.367.367.839.682 1.259 1.049l.63.525c.209.157.472.315.682.472l1.312.892-.945-.367h1.627c.577 0 1.154-.053 1.784-.105 1.154-.105 2.361-.315 3.515-.525 2.362-.472 4.671-1.154 6.874-2.099 4.461-1.784 8.606-4.407 12.279-7.608 3.778-3.149 7.032-6.927 10.075-10.967 3.044-4.041 5.72-8.396 8.343-12.908a60.725 60.725 0 01-5.614 14.64c-2.519 4.617-5.667 9.025-9.55 12.803a41.589 41.589 0 01-13.591 8.92c-1.259.525-2.571.945-3.883 1.312a34.712 34.712 0 01-4.04.892c-1.365.21-2.729.367-4.146.42h-2.099c-.367 0-.682-.053-1.049-.053-.158 0-.368-.052-.525-.052l-.63-.105h-.105c-.314-.052-.629-.157-.839-.367-2.099-1.574-4.041-3.359-5.562-5.457a29.355 29.355 0 01-3.726-6.612c-.944-2.309-1.679-4.67-2.099-7.084a30.152 30.152 0 01-.735-7.189zM261.37 343.435a45.595 45.595 0 004.041 6.717c1.521 2.099 3.148 4.04 4.932 5.824a34.319 34.319 0 005.772 4.618l1.574.944 1.627.788c.262.104.525.262.84.367l.839.315c.577.21 1.155.419 1.679.629l-1.417-.052.735-.262.787-.315c.525-.21 1.05-.473 1.627-.735a22.698 22.698 0 001.574-.84c.525-.314 1.05-.577 1.574-.892l1.522-.944c.525-.315.997-.682 1.469-1.05.473-.367.997-.682 1.47-1.049l1.416-1.154c3.778-3.044 7.189-6.612 10.233-10.442l2.203-2.939.578-.735.524-.787.997-1.574 1.05-1.574.525-.787.472-.84 1.836-3.253c.683-1.05 1.155-2.204 1.732-3.358l1.732-3.411c1.049-2.309 1.994-4.67 3.148-6.979-.367 2.519-.84 5.09-1.364 7.609l-1.05 3.725c-.367 1.26-.734 2.519-1.207 3.726l-1.469 3.62-.367.892-.42.892-.892 1.732-.892 1.732-.472.892-.525.839-2.151 3.359c-3.044 4.302-6.612 8.343-10.81 11.701l-1.574 1.259c-.525.42-1.102.787-1.627 1.155-.577.367-1.102.787-1.679 1.102l-1.732.997c-.577.367-1.206.629-1.784.944-.577.315-1.207.63-1.836.892l-1.889.787c-.315.105-.63.263-.997.368-.368.105-.63.21-1.102.315l-.21.052c-.42.105-.84.052-1.207-.105l-2.046-.84-.997-.419c-.315-.158-.63-.368-.945-.525-.63-.367-1.207-.735-1.837-1.102l-1.679-1.259c-2.204-1.732-4.198-3.726-5.824-5.93-1.627-2.204-3.044-4.565-4.146-7.031-1.049-2.466-1.889-5.038-2.361-7.609zM266.88 384.049a604.766 604.766 0 014.827 7.609c1.575 2.519 3.201 4.985 4.828 7.451 1.627 2.466 3.358 4.775 5.142 7.031a54.251 54.251 0 002.781 3.149l1.47 1.364 1.521 1.154-2.413-.262.419-.21c.158-.052.315-.157.473-.21.315-.157.682-.315.997-.472.682-.315 1.311-.735 1.994-1.102.629-.42 1.311-.787 1.941-1.207.63-.472 1.26-.839 1.889-1.312a45.241 45.241 0 006.822-6.244c2.046-2.361 3.935-4.88 5.457-7.661.892-1.364 1.469-2.833 2.256-4.25.42-.735.63-1.469.945-2.257.315-.734.629-1.521.997-2.308-.105 1.626-.21 3.358-.472 4.985-.315 1.626-.63 3.305-1.26 4.932-.997 3.253-2.624 6.297-4.565 9.183-.525.682-.997 1.417-1.522 2.099l-1.679 1.994c-.577.629-1.207 1.207-1.836 1.836-.63.63-1.312 1.155-1.942 1.732-.682.577-1.364 1.049-2.046 1.574-.683.525-1.417.997-2.152 1.469-.734.42-1.522.892-2.309 1.312-.367.21-.787.42-1.207.577-.209.105-.419.21-.629.263-.21.105-.42.157-.682.262l-.158.053c-.787.314-1.626.157-2.204-.368l-1.994-1.626-1.731-1.732c-1.05-1.207-2.099-2.414-2.939-3.726-1.836-2.571-3.358-5.194-4.722-7.923a83.291 83.291 0 01-3.621-8.343 102.929 102.929 0 01-1.469-4.303c-.472-1.574-.892-3.043-1.207-4.513z"/><path fill="#FCCF31" d="M328.745 450.952s-32.743-70.051-.367-103.371c32.376-33.321 19.31-47.751 35.891-74.25 16.634-26.446 29.648-33.162 43.553-51.213 13.906-18.051 23.036-25.135 31.956-21.252 8.973 3.883 18.209 18.471 8.921 43.186-9.288 24.714 9.97 30.696 2.729 65.958-7.242 35.262-49.85 48.905-61.184 88.784-11.335 39.932-17.107 71.258-61.499 52.158z"/><path fill="#FDCEA9" d="M328.798 450.9c2.361-10.022 5.195-19.887 8.081-29.805a1220.49 1220.49 0 0 1 4.512-14.745c.735-2.466 1.575-4.88 2.362-7.346.787-2.466 1.626-4.88 2.414-7.346 6.559-19.52 13.8-38.778 21.828-57.773 4.041-9.445 8.239-18.89 12.751-28.178 1.102-2.309 2.309-4.617 3.464-6.926 1.154-2.309 2.308-4.618 3.515-6.874 1.207-2.256 2.362-4.565 3.621-6.822l3.778-6.769c2.624-4.46 5.142-8.92 7.976-13.275l2.046-3.254 2.152-3.2c1.469-2.152 2.833-4.303 4.355-6.402 5.982-8.396 12.436-16.529 19.888-23.613-6.612 7.923-12.384 16.372-17.736 25.082-1.417 2.151-2.677 4.355-3.988 6.559l-1.942 3.306-1.836 3.358c-1.207 2.257-2.519 4.46-3.726 6.717l-3.621 6.769c-4.617 9.13-9.183 18.26-13.433 27.601l-3.201 6.978a287.094 287.094 0 0 0-3.096 7.032c-1.049 2.361-2.099 4.67-3.096 7.031l-3.043 7.032a1538.561 1538.561 0 0 0-22.826 57.09 3954.318 3954.318 0 0 0-21.199 57.773z"/><path fill="#FDCEA9" d="M406.668 236.128a64.195 64.195 0 00-3.044 9.13c-.839 3.044-1.364 6.14-1.731 9.183-.21 1.522-.263 3.096-.368 4.618v2.309c-.052.787 0 1.521.053 2.308.105 3.044.682 6.035 1.312 8.973l-2.362-1.994c.683.053 1.522.053 2.257.053.787 0 1.574 0 2.361-.053a48.998 48.998 0 004.775-.419 56.717 56.717 0 009.34-1.889c.787-.21 1.522-.473 2.257-.735a38.66 38.66 0 002.204-.892c1.469-.63 2.938-1.312 4.302-2.099 2.834-1.574 5.458-3.568 7.924-5.877-.787 1.469-1.679 2.938-2.781 4.303-1.05 1.364-2.309 2.623-3.621 3.725-.63.578-1.364 1.102-2.046 1.627-.735.472-1.417.997-2.204 1.469-1.469.892-3.044 1.732-4.67 2.414-3.201 1.417-6.612 2.361-10.075 2.938a43.825 43.825 0 01-5.195.63c-.892.053-1.732.105-2.624.105-.892 0-1.731 0-2.728-.052h-.105a2.517 2.517 0 01-2.257-1.994c-.682-3.359-1.259-6.717-1.154-10.128-.053-1.679.157-3.358.315-5.089.262-1.68.472-3.359.944-4.933.787-3.253 1.889-6.402 3.359-9.393.367-.734.787-1.469 1.154-2.203.42-.735.84-1.417 1.312-2.099.997-1.365 1.994-2.729 3.096-3.936zM375.079 291.644a55.405 55.405 0 00-.629 7.137 50.996 50.996 0 00.314 6.979l.263 1.679c.105.577.21 1.102.367 1.679.105.577.262 1.102.42 1.627.157.524.262 1.102.472 1.626l.577 1.574c.21.525.473.997.682 1.47l.368.734c.105.263.262.473.42.682l.839 1.365-.735-.735c.158.053.42.21.683.315l.787.367c.524.21 1.102.42 1.626.63 1.102.42 2.257.735 3.411.997 2.309.525 4.723.84 7.084.944 4.775.21 9.603-.472 14.325-1.889 4.723-1.364 9.236-3.41 13.643-5.877 4.408-2.466 8.658-5.299 12.856-8.343-3.201 4.093-6.874 7.819-11.072 11.02-4.197 3.2-8.815 5.929-13.905 7.713a40.467 40.467 0 01-16.057 2.519c-1.364-.053-2.728-.21-4.093-.42-1.364-.21-2.728-.472-4.04-.892a38.305 38.305 0 01-3.936-1.312c-.629-.262-1.259-.577-1.889-.839-.315-.158-.629-.315-.944-.525-.158-.105-.315-.158-.472-.262l-.525-.315-.105-.053c-.263-.157-.472-.42-.63-.682-1.259-2.309-2.309-4.775-2.833-7.294-.525-2.518-.788-5.037-.735-7.556.105-2.518.42-4.985.944-7.346.683-2.204 1.417-4.565 2.519-6.717zM343.228 350.729c.105 2.676.42 5.247.944 7.818.525 2.519 1.207 4.985 2.099 7.347.84 2.361 2.047 4.565 3.411 6.611l1.049 1.522 1.155 1.417c.21.21.367.472.577.682l.63.63 1.312 1.259-1.26-.63.787.053h.84c.577 0 1.154 0 1.784-.053.577 0 1.207-.052 1.784-.105.577-.052 1.207-.052 1.784-.157l1.784-.262c.577-.053 1.207-.21 1.784-.315.577-.105 1.207-.21 1.784-.368l1.732-.472c4.67-1.207 9.235-3.043 13.591-5.3l3.2-1.784.788-.419.787-.525 1.574-.997 1.574-.997.787-.525.735-.577 3.043-2.204c1.05-.682 1.994-1.522 2.939-2.361l2.938-2.414c1.889-1.679 3.726-3.411 5.72-5.09a125.874 125.874 0 01-4.355 6.402l-2.519 2.991c-.84.997-1.679 1.994-2.624 2.886l-2.833 2.728-.735.683-.735.629-1.521 1.207-1.522 1.207-.787.63-.84.524-3.306 2.152c-4.512 2.676-9.445 4.88-14.587 6.244l-1.942.472c-.629.158-1.312.263-1.994.368-.682.104-1.311.262-1.994.314l-1.994.21c-.682.105-1.364.105-1.994.158-.682.052-1.364.052-2.046.052-.682 0-1.364 0-2.047-.052-.367-.053-.682-.053-1.049-.105-.367-.053-.682-.053-1.102-.158l-.21-.052c-.42-.053-.787-.315-1.102-.577l-1.417-1.575-.682-.787c-.21-.262-.419-.577-.629-.839-.42-.577-.84-1.155-1.207-1.732l-1.05-1.836c-1.312-2.519-2.309-5.143-2.886-7.819a38.632 38.632 0 01-.892-8.133c0-2.729.263-5.405.945-7.976zM331.632 390.136c.472 2.991.892 5.982 1.312 8.921.419 2.938.892 5.877 1.364 8.815.472 2.886 1.102 5.772 1.784 8.553a45.436 45.436 0 001.259 4.041l.788 1.889.892 1.679-2.047-1.26h.997c.367 0 .735 0 1.102-.052.735 0 1.522-.105 2.256-.158.735-.105 1.522-.209 2.257-.314.734-.158 1.521-.263 2.256-.42 2.991-.63 5.93-1.627 8.763-2.886 2.781-1.312 5.562-2.834 8.081-4.723 1.364-.892 2.519-1.941 3.778-2.991.682-.472 1.207-1.102 1.784-1.626.63-.578 1.207-1.102 1.837-1.679-.787 1.469-1.522 2.938-2.467 4.355-.997 1.364-1.941 2.781-3.148 3.988-2.256 2.571-4.985 4.67-7.923 6.506-2.939 1.837-6.192 3.149-9.498 4.093-1.679.42-3.358.787-5.09 1.05-.892.105-1.732.21-2.624.262-.419.053-.892.053-1.311.053h-.683c-.209 0-.472 0-.734-.053h-.158c-.839-.052-1.521-.525-1.889-1.259l-1.207-2.309a41.171 41.171 0 01-.839-2.309c-.472-1.522-.892-3.096-1.154-4.618-.63-3.095-.893-6.139-1.05-9.182a88.607 88.607 0 01.157-9.131c.105-1.521.263-3.043.473-4.512.157-1.732.367-3.254.682-4.723z"/><path fill="#FBB03B" d="M301.301 424.768s57.091-21.723 57.039-58.927c-.105-37.203 15.322-38.148 20.412-62.652 5.09-24.505 1.364-35.63 3.411-53.733 2.046-18.103.734-27.286-6.507-30.119-7.241-2.781-20.517.315-28.808 19.677-8.291 19.363-22.563 11.964-37.833 36.206-15.27 24.243 1.417 55.989-14.063 85.164-15.427 29.227-29.332 50.427 6.349 64.384z"/><path fill="#FDCEA9" d="M301.354 424.716c6.506-15.112 12.96-30.172 19.31-45.232a1617.968 1617.968 0 0 0 18.313-45.546c1.417-3.831 2.886-7.661 4.25-11.492 1.417-3.83 2.781-7.713 4.146-11.544 1.311-3.883 2.676-7.713 3.935-11.596s2.466-7.766 3.673-11.649l1.679-5.877c.578-1.942 1.05-3.936 1.627-5.877l.787-2.939.735-2.991c.472-1.994.997-3.935 1.417-5.982 1.836-7.976 3.253-16.004 3.935-24.19.472 8.239-.315 16.477-1.417 24.663-.262 2.046-.629 4.092-.997 6.139l-.524 3.043-.63 3.044c-.787 4.04-1.784 8.081-2.729 12.069l-1.574 5.981a197.227 197.227 0 0 1-1.679 5.93c-1.102 3.988-2.361 7.871-3.621 11.806-2.518 7.819-5.3 15.585-8.186 23.298a616.762 616.762 0 0 1-19.467 45.337l-2.676 5.562c-.892 1.837-1.784 3.726-2.729 5.51a709.296 709.296 0 0 1-5.615 10.966c-3.778 7.294-7.713 14.536-11.963 21.567z"/><path fill="#FDCEA9" d="M375.131 258.114c.053 1.312-.105 2.624-.315 3.936-.105.629-.262 1.312-.367 1.941-.158.63-.315 1.26-.472 1.942-.735 2.571-1.784 5.037-3.096 7.399-.63 1.206-1.417 2.308-2.204 3.41-.84 1.05-1.627 2.152-2.624 3.149-1.836 2.046-4.04 3.725-6.297 5.299-.944.63-2.203.578-3.043-.157l-.053-.053c-.629-.524-1.101-.996-1.626-1.521-.525-.525-.997-1.05-1.469-1.574-.945-1.05-1.785-2.204-2.624-3.306a36.58 36.58 0 01-4.041-7.451c-1.101-2.624-1.679-5.458-1.889-8.239l-.052-2.099c.052-.682.105-1.416.21-2.098l.105-1.05.262-.997c.158-.682.367-1.312.525-1.994.367 2.729.682 5.3 1.574 7.766.84 2.414 1.784 4.775 3.096 6.927 1.259 2.151 2.676 4.25 4.303 6.244a43.191 43.191 0 002.466 2.833c.42.473.84.892 1.312 1.365.42.419.944.892 1.312 1.207l-3.096-.21c1.941-1.312 3.883-2.676 5.614-4.356.473-.419.892-.787 1.312-1.259l1.26-1.259c.787-.945 1.626-1.784 2.308-2.781a46.767 46.767 0 004.198-6.14c1.207-2.256 2.362-4.512 3.411-6.874zM362.59 307.596c-.525 1.889-1.364 3.673-2.256 5.353-.945 1.731-2.099 3.358-3.411 4.88-1.312 1.521-2.886 2.886-4.565 4.04-1.732 1.154-3.674 2.046-5.72 2.676-.315.105-.63.105-.892.053l-.157-.053-.525-.105-.42-.105c-.315-.052-.577-.157-.84-.262a20.797 20.797 0 01-1.626-.577 23.07 23.07 0 01-3.044-1.47c-.997-.524-1.941-1.154-2.833-1.784-.892-.682-1.784-1.364-2.571-2.099-3.306-2.991-5.93-6.664-7.766-10.652-1.89-3.935-2.939-8.185-3.516-12.383a48.169 48.169 0 01.105-12.594c.892 4.093 1.836 8.081 3.043 11.859 1.26 3.831 2.676 7.504 4.618 10.862 1.889 3.358 4.25 6.402 7.031 8.973a31.377 31.377 0 004.461 3.411 56.58 56.58 0 002.413 1.364c.42.21.84.367 1.26.577l.629.262.525.21h-1.049c1.626-.367 3.253-.839 4.775-1.626.419-.158.787-.42 1.154-.63.367-.21.787-.42 1.155-.682.367-.262.734-.472 1.101-.735l1.102-.787c1.417-1.102 2.781-2.361 4.093-3.673a42.206 42.206 0 003.726-4.303zM348.212 359.282c-.944 1.889-2.256 3.621-3.673 5.195-1.469 1.574-3.096 3.043-4.932 4.303a24.592 24.592 0 01-5.982 2.991l-1.627.524c-.577.105-1.102.21-1.679.315l-.84.158-.839.052-1.732.105c-.42.053-.84-.105-1.154-.315l-.21-.105a4.482 4.482 0 01-.735-.577c-.262-.157-.42-.367-.682-.525l-1.259-1.102c-.42-.367-.787-.787-1.155-1.154-.367-.42-.734-.787-1.102-1.207l-1.049-1.259c-.315-.42-.63-.892-.945-1.312-.315-.472-.629-.892-.944-1.364l-.84-1.365c-2.204-3.725-3.778-7.766-4.88-11.911l-.682-3.148-.157-.787-.105-.787-.21-1.575-.158-1.574-.052-.787v-.787c-.053-1.049-.053-2.099-.053-3.148-.052-1.05.053-2.099.158-3.149.105-1.049.157-2.099.262-3.096a78.244 78.244 0 011.207-6.087c.262 2.047.42 4.093.63 6.14l.42 2.991c.157.997.209 1.994.472 2.991.367 1.941.682 3.935 1.207 5.824.419 1.942 1.049 3.778 1.626 5.667 1.26 3.673 2.834 7.242 4.775 10.547l.735 1.26c.262.419.525.787.787 1.207a37.093 37.093 0 001.679 2.308c.263.368.577.735.892 1.102.315.368.63.735.945 1.05.315.367.63.682.944.997l.473.472.419.367-1.364-.472h2.047l.682-.052c.472-.053.944-.105 1.417-.105l1.416-.263c1.837-.367 3.726-.944 5.51-1.784 1.784-.787 3.568-1.784 5.247-2.886 1.837-1.207 3.516-2.466 5.09-3.883zM333.1 388.352c-.577 1.05-1.259 2.099-1.941 3.096-.683.997-1.417 1.942-2.152 2.939-1.522 1.889-3.096 3.725-4.827 5.404-1.732 1.732-3.569 3.359-5.615 4.775a28.574 28.574 0 01-3.253 2.047c-.578.315-1.207.577-1.784.892l-1.994.682c-.788.262-1.627.052-2.204-.42l-.158-.105c-.21-.157-.315-.315-.472-.42a2.607 2.607 0 00-.42-.367c-.262-.262-.525-.525-.734-.787a37.03 37.03 0 01-1.365-1.627c-.892-1.102-1.626-2.308-2.361-3.515a30.52 30.52 0 01-3.148-7.819c-.63-2.728-.997-5.509-.788-8.238.105-2.729.735-5.405 1.68-7.923.105.682.157 1.311.21 1.993.052.63.052 1.312.209 1.942.21 1.312.315 2.571.63 3.778.472 2.466 1.259 4.88 2.151 7.136.893 2.257 2.047 4.408 3.411 6.455.315.524.682.997 1.05 1.469l1.102 1.417c.367.472.787.944 1.154 1.364.21.21.42.42.577.63l.315.314.262.263-2.361-.577c.472-.158.892-.315 1.365-.42l1.416-.63a38.887 38.887 0 002.886-1.574 76.967 76.967 0 005.72-3.778c1.889-1.364 3.778-2.729 5.719-4.146 1.785-1.469 3.726-2.886 5.72-4.25z"/><path fill="#D1D4E5" d="M179.196 470c98.968 0 179.196-3.829 179.196-8.553s-80.228-8.553-179.196-8.553C80.229 452.894 0 456.723 0 461.447S80.229 470 179.196 470z"/><path fill="#CABADD" d="M295.844 374.289l-29.228-50.636a25.584 25.584 0 0 0-22.196-12.804h-58.455c-9.13 0-17.579 4.88-22.196 12.804l-29.228 50.636a25.652 25.652 0 0 0 0 25.607l29.228 50.636a25.584 25.584 0 0 0 22.196 12.804h58.455c9.13 0 17.579-4.88 22.196-12.804l29.228-50.636a25.652 25.652 0 0 0 0-25.607zm-80.652 43.972c-17.945 0-32.533-14.535-32.533-32.533s14.535-32.533 32.533-32.533c17.946 0 32.534 14.535 32.534 32.533s-14.588 32.533-32.534 32.533z"/><path fill="#BAAECC" d="M185.965 310.85c-9.13 0-17.579 4.88-22.196 12.803l-29.228 50.636a25.652 25.652 0 0 0 0 25.607l3.253 5.615s9.236-4.67 8.711-14.168c-.525-9.498 3.096-18.89 20.517-21.042 6.349-.787 12.069.892 17.893 3.359 4.775-12.017 16.529-20.517 30.225-20.517 9.97 0 18.943 4.512 24.872 11.596 6.455-17.84 8.291-42.398 4.933-53.942h-58.98v.053z"/><path fill="#DDDFF3" d="M333.625 374.289l-29.228-50.636a25.585 25.585 0 0 0-22.196-12.803h-58.455c-9.13 0-17.578 4.88-22.196 12.803l-29.228 50.636a25.652 25.652 0 0 0 0 25.607l29.228 50.637a25.585 25.585 0 0 0 22.196 12.803h58.455c9.131 0 17.579-4.88 22.196-12.803l29.228-50.637a25.652 25.652 0 0 0 0-25.607zm-80.651 43.973c-17.946 0-32.534-14.535-32.534-32.534 0-17.998 14.535-32.533 32.534-32.533 17.946 0 32.533 14.535 32.533 32.533 0 17.999-14.587 32.534-32.533 32.534z"/><path fill="#D1D4E5" d="M243.056 354.77c3.936-16.162 4.67-34.423 1.942-43.92h-21.252c-9.13 0-17.579 4.88-22.196 12.803l-27.076 46.858c13.958 2.204 26.184 14.168 45.966 15.218 0-14.483 9.498-26.814 22.616-30.959zM364.636 449.798s72.991 2.676 48.905 12.331c-24.085 9.655-81.648 6.979-100.381 7.818-18.733.788 7.294-10.547 7.294-10.547l44.182-9.602z"/><path fill="#F4F0E5" d="M14.115 154.428s67.113-27.916 191.37-22.196c0 0-41.139-11.754-62.338-10.705 0 0-11.807-19.362-31.589-16.424 0 0-15.427-18.575-48.17-10.704-32.744 7.871-32.534 31.693-32.534 31.693s-20.255 18.366-16.739 28.336z"/><path fill="url(#paint0_linear_100_17472)" d="M205.485 132.232s-41.139-11.754-62.338-10.705c0 0-11.807-19.362-31.589-16.424 0 0-15.427-18.575-48.17-10.704-6.77 1.626-12.122 3.935-16.372 6.611 0 0 31.431-8.185 45.809 12.804 0 0 26.866-12.226 41.559 15.899l7.398 2.466c19.101-.944 40.405-1.049 63.703.053z"/><path fill="#F4F0E5" d="M274.645 36.836S187.382 24.19 118.59 46.124c0 0 15.847-9.97 27.653-14.063 0 0 5.405-12.594 16.634-14.378 0 0 5.248-16.791 20.412-17.526 0 0 25.397-3.778 40.615 21.567-.053.052 27.023 5.51 50.741 15.112z"/><path fill="url(#paint1_linear_100_17472)" d="M183.237.21c-3.149.157-5.877.997-8.186 2.256 0 0 17.631 5.51 23.14 15.06 0 0 16.005.735 21.777 15.742 31.694.262 54.677 3.62 54.677 3.62-23.718-9.602-50.794-15.06-50.794-15.06C208.581-3.567 183.237.21 183.237.21z"/><path fill="#F4F0E5" d="M471 144.091s-70.314-37.466-193.469-49.01c0 0 25.765-10.81 59.767-4.46 0 0 14.64-14.588 39.04-9.655 0 0 15.428-24.558 48.433-12.961 33.006 11.596 31.222 45.232 31.222 45.232s14.535 10.284 15.007 30.854z"/><path fill="url(#paint2_linear_100_17472)" d="M455.94 113.237s1.784-33.688-31.222-45.232a55.946 55.946 0 0 0-6.769-1.942c.577.368 20.727 12.332 21.619 38.411 0 0 10.023 14.43 7.556 29.07 15.69 6.191 23.876 10.547 23.876 10.547-.473-20.57-15.06-30.854-15.06-30.854z"/><path fill="#27363B" d="M371.511 428.441s4.617-1.206 6.664-2.413c2.046-1.207 7.399-.997 10.494-1.102 3.096-.105 7.294 9.865 7.294 9.865s0 8.92 1.312 12.173c1.312 3.254 4.198 7.504 5.195 10.075 0 0-19.94 1.417-27.863.525l-3.096-29.123z"/><path fill="#0D0229" d="M402.47 457.039c-.997-2.571-3.883-6.821-5.195-10.075-1.312-3.253-1.312-12.173-1.312-12.173s-4.198-9.918-7.293-9.865c-5.877 3.988-6.665 7.451-6.665 7.451l-1.311 5.562-7.609 5.825 1.469 13.748c7.924.892 27.916-.473 27.916-.473zM381.271 427.34s-1.049.996-2.624 1.364c-1.574.367-1.469-.315-1.469-.997 0-.682 2.309-.997 2.939-1.522.629-.525 2.099.42 1.154 1.155zM373.033 432.534s2.099-1.416 2.623-2.308c.525-.893 2.152-.42 2.204.839.053 1.207-5.037 2.414-4.827 1.469zM381.586 427.444s1.049-1.521 2.518-.577c1.365.945-3.253 1.207-2.518.577z"/><path fill="#27363B" d="M329.479 450.532l-5.299-10.389-7.137-7.241s-2.256-2.991-9.078-1.994c-6.769.997-14.272 6.979-14.272 6.979l-2.204 5.509-6.927 5.982-4.932 9.55 49.482 1.207.367-9.603z"/><path fill="#0D0229" d="M329.164 460.24l.315-9.707-5.3-10.39-2.991-2.991-2.046 6.979-6.874 2.938-15.48.997s-5.772-.629-12.909 2.834l-4.197 8.133 49.482 1.207zM309.172 434.686s-1.732 1.312-4.041 1.469c-2.308.157-2.098-.735-1.941-1.679.157-.945 3.568-.997 4.565-1.679.945-.735 2.939 1.049 1.417 1.889zM296.159 440.668s3.305-1.68 4.302-2.886c.997-1.207 3.254-.21 3.044 1.626-.21 1.889-7.871 2.676-7.346 1.26zM309.591 434.896s1.837-1.994 3.778-.368c1.837 1.679-4.932 1.155-3.778.368z"/><path fill="#0D0229" d="M279.682 459.033s-3.62 4.198 26.447 2.519c0 0 22.983.944 23.088-1.26.052-2.203-25.45-4.985-25.45-4.985l-24.085 3.726z"/><path fill="#0E296A" d="M345.852 450.795s21.304-53.995 65.224-70.786c0 0-2.571 20.307-9.918 26.709l-6.769 3.41 7.242-1.521s-14.378 19.782-47.751 41.768l-8.028.42z"/><path fill="#FCCF31" d="M346.009 460.502s30.014-45.599 87.84-45.074c0 0-53.785 13.643-82.016 48.538l-5.824-3.464zM348.108 449.798s-27.444-45.599 7.714-100.801c0 0-43.134 32.796-20.255 100.539l12.541.262z"/><path fill="#094492" d="M338.19 444.76s-18.05-59.346 55.464-92.089c0 0 .525 24.137-3.83 30.276l-2.834 2.886 3.883-1.836s-2.728 25.502-35.996 61.708l-16.687-.945z"/><path fill="#0B224F" d="M347.53 446.335c.105-3.569.472-7.032 1.05-10.495.577-3.463 1.259-6.821 2.151-10.18 1.732-6.664 4.198-13.118 7.084-19.362.735-1.574 1.469-3.096 2.309-4.618.734-1.574 1.626-3.043 2.466-4.565 1.732-2.991 3.516-5.982 5.457-8.868 3.831-5.824 8.029-11.439 12.331-17.158-5.824 4.145-11.019 9.13-15.637 14.692-2.308 2.729-4.407 5.719-6.401 8.763-1.942 3.043-3.673 6.244-5.248 9.497-3.043 6.56-5.299 13.591-6.349 20.78-.525 3.568-.787 7.241-.682 10.809.052 1.784.157 3.621.42 5.405.105.892.262 1.784.419 2.676.158.892.315 1.732.63 2.624z"/><path fill="#094492" d="M341.601 459.296s0-59.872-48.275-93.822c0 0-.577 68.53 34.317 94.451l13.958-.629z"/><path fill="#0B224F" d="M336.354 459.505c-1.522-6.349-3.621-12.488-5.825-18.523a329.613 329.613 0 0 0-7.293-17.945 281.014 281.014 0 0 0-8.501-17.421c-1.522-2.834-3.096-5.667-4.828-8.448-1.679-2.781-3.463-5.51-5.457-8.081 1.994 6.192 4.198 12.226 6.507 18.26 2.309 5.982 4.827 11.912 7.451 17.789 2.624 5.877 5.352 11.701 8.291 17.421 3.043 5.772 6.087 11.491 9.655 16.948z"/><path fill="#0D0229" d="M324.074 458.403l6.402-8.71 2.414-10.547s2.781-4.565 9.34-5.51c6.559-.944 19.625-3.883 19.625-3.883s8.868 4.46 13.013 7.556c4.146 3.096 2.991 12.174 7.084 16.372s4.775 6.664 4.775 6.664-32.481 5.719-52.945 4.67c-20.412-.997-10.757-5.195-9.708-6.612z"/><path fill="#27363B" d="M346.848 441.927c-1.889 3.148-.945 4.88-3.253 7.818-2.309 2.939-17.212 5.562-17.212 5.562l-2.308 3.149c-1.05 1.416-10.705 5.562 9.76 6.611 20.464 1.05 52.945-4.67 52.945-4.67s-.682-2.466-4.775-6.664c-4.093-4.198-2.991-13.328-7.084-16.371-4.145-3.096-13.013-7.557-13.013-7.557-11.807 3.988-13.171 9.026-15.06 12.122z"/><path fill="#0D0229" d="M372.402 447.594s-2.624-1.469-4.198-4.408c-1.574-2.938-.262-3.148 1.102-3.463 1.364-.315 3.253 4.041 4.775 4.933 1.469.892.315 4.46-1.679 2.938zM357.342 434.266s4.04 3.306 6.087 3.883c2.099.577 2.099 4.04-.368 4.88-2.466.787-7.818-8.658-5.719-8.763zM372.349 448.276s3.62 1.26 2.571 4.618c-1.05 3.358-4.198-5.615-2.571-4.618z"/><path fill="#FAD3DB" d="M212.779 191.631l-3.778-17.316-22.878 4.04-2.781 16.844 9.235 6.192 15.585-2.571 4.617-7.189z"/><path fill="#F8ADB0" d="M175.681 160.725s-8.133 1.626-10.442-2.834c-2.309-4.46-3.883-11.596-3.411-13.853.472-2.256 1.627-2.361 5.195-2.676 3.516-.315 8.133 5.667 8.133 5.667l.525 13.696z"/><path fill="#FAD3DB" d="M162.248 142.884a4.846 4.846 0 0 0-.42 1.154c-.472 2.256 1.102 9.445 3.411 13.853.157.315.367.63.577.892.052 0 3.516.158 4.88.472 1.364.315-2.361-2.623-3.201-15.532.053 0-3.096-1.469-5.247-.839z"/><path fill="#F8ADB0" d="M214.092 160.2s8.186 1.364 10.337-3.149c2.151-4.512 3.568-11.701 3.043-13.957-.524-2.204-1.679-2.309-5.247-2.519-3.568-.21-7.976 5.929-7.976 5.929l-.157 13.696z"/><path fill="#FAD3DB" d="M227.525 143.146s-3.936-1.679-4.303-1.102-2.099 14.64-2.099 14.64.577 2.676 3.411.42c2.099-4.513 3.516-11.754 2.991-13.958z"/><path fill="#F8ADB0" d="M173.477 141.257s-1.784 28.073.472 32.953c2.257 4.88 10.81 12.961 13.171 14.273 2.362 1.364 15.847.892 17.894-.263 2.046-1.154 12.751-9.235 13.223-15.951.472-6.717 2.046-26.342-.472-34.79-2.519-8.448-18.523-14.64-18.523-14.64l-25.975 4.25.21 14.168z"/><path fill="#FAD3DB" d="M213.986 150.597l-4.093 2.991s2.152-11.491 1.47-12.803c-.682-1.312-8.396-2.991-10.128-2.939-1.731 0-9.917.158-9.917.158l-8.028-8.343-.945 4.985s-4.355 8.5-4.513 9.34c-.157.839-2.886 17.106-2.886 17.106s.997 11.177 2.152 12.961c1.207 1.784 11.072 10.074 12.226 10.547 1.154.472 12.069 0 13.905-.21 1.837-.21 10.705-9.76 11.807-11.754 1.102-1.994 2.151-10.81 1.941-12.384-.21-1.679-2.991-9.655-2.991-9.655z"/><path fill="#381427" d="M168.178 136.692s2.413 22.144 4.617 24.085c0 0 3.621-20.15 3.621-22.878 0-2.729-3.096-12.856-3.096-12.856l6.507-1.837 19.52-.262 20.045 9.183s3.725 9.865-.315 28.073c0 0-3.883-19.835-4.513-22.773-.63-2.991-7.923-7.347-7.923-7.347l-11.807-10.494-24.138 9.655-2.518 7.451z"/><path fill="#521C36" d="M211.888 149.548s13.538-11.019 14.797-14.85c1.312-3.778-2.939-16.267-6.454-16.634-3.516-.42-20.202-8.868-24.873-9.078-4.67-.157-12.121.577-13.38 2.257-1.26 1.679-3.359 7.346-3.359 7.346s-2.938-3.149-5.457-2.466c-2.518.682-13.118 8.028-12.593 9.969.524 1.994 4.25 9.813 6.139 11.859 1.889 1.994 6.717 5.248 8.711 4.67 1.994-.577 6.349-9.917 6.296-12.383-.052-2.466-1.941-4.408-1.941-4.408s4.618 1.364 6.507 3.621c1.889 2.256 4.145 6.087 6.034 5.719 1.889-.42 11.387-1.626 15.48-.21 4.093 1.417 5.247 2.991 6.401 4.723 1.155 1.784-3.515 8.658-2.308 9.865z"/><path fill="#42172E" d="M220.808 135.957c-.105-3.096-4.251-6.139-4.251-6.139s-5.982-1.837-11.754.157c-5.772 1.994-11.701 2.939-13.38 2.099-1.68-.787-4.723-6.874-12.332-7.293 0 0 1.05 5.457.892 6.454-.157.997-2.728 8.815-4.512 11.386 1.994-.577 6.349-9.917 6.296-12.383-.052-2.466-1.941-4.408-1.941-4.408s4.618 1.364 6.507 3.621c1.889 2.256 4.145 6.087 6.034 5.719 1.889-.42 11.387-1.626 15.48-.21 4.093 1.417 5.247 2.991 6.401 4.723 1.155 1.732-3.515 8.605-2.308 9.865 0 0 5.142-4.198 9.392-8.343h-1.784c-.105.052 1.365-2.152 1.26-5.248z"/><path fill="#003F88" d="M224.533 119.743s4.933-37.413-27.601-36.73h-1.259c-32.533-.683-27.601 36.73-27.601 36.73-5.3 1.574-4.198 3.831-4.198 3.831.945 4.512 31.747 6.244 31.747 6.244h1.259s30.802-1.732 31.746-6.244c.105 0 1.26-2.257-4.093-3.831z"/><path fill="#00296B" d="M196.985 129.818s30.802-1.732 31.746-6.244c0 0 1.155-2.257-4.198-3.831 0 0 4.933-37.413-27.601-36.73h-1.259c-32.533-.683-27.601 36.73-27.601 36.73-5.3 1.574-4.198 3.831-4.198 3.831.945 4.512 31.747 6.244 31.747 6.244s-46.649-8.553-13.748-7.923l-10.915-4.723s-.577-20.464 7.294-24.82c7.871-4.303 23.298-5.877 36.049 0 12.699 5.877 6.927 24.925 6.927 24.925l-10.548 4.565s14.063-.525 11.859 1.312c-2.098 1.941-25.554 6.664-25.554 6.664z"/><path fill="#fff" d="M209.789 111.4c-1.365 0-2.467-.997-2.519-2.256l-.892-23.666c0-.524.157-1.05.525-1.521l.315-.368.419.158c2.624.84 5.038 2.046 7.137 3.673l.472.367-.315.525c-.052.105-.105.21-.105.367l-2.519 20.727c-.157 1.102-1.259 1.994-2.518 1.994zm-2.047-26.184v.21l.892 23.665c0 .525.525.997 1.155.997.577 0 1.102-.367 1.154-.892l2.519-20.727c0-.105.052-.21.052-.262-1.731-1.26-3.673-2.256-5.772-2.991zM210.891 123.259l-.158-1.312c2.834-.315 13.591-2.781 13.696-2.833l.315 1.311c-.472.053-11.02 2.467-13.853 2.834zM182.87 111.4c-1.259 0-2.361-.892-2.518-2.099l-2.519-20.727c0-.105-.053-.21-.105-.367l-.315-.525.472-.367a23.58 23.58 0 017.137-3.673l.419-.158.315.368c.368.42.525.944.525 1.521l-.892 23.666c-.052 1.364-1.154 2.361-2.519 2.361zm-3.725-23.246c0 .105.052.21.052.263l2.519 20.727c.052.524.577.892 1.154.892.63 0 1.155-.42 1.155-.997l.892-23.666v-.21a24.966 24.966 0 00-5.772 2.992zM181.768 123.259c-2.886-.315-13.381-2.729-13.853-2.834l.315-1.311c.105 0 10.914 2.466 13.695 2.833l-.157 1.312z"/><path fill="#2C2632" d="M108.201 429.648l-7.976 29.385s-1.26 5.457-5.352 5.405c-4.094 0-17.527-2.729-17.527-2.729s-1.469-3.62-3.096-5.457c-1.626-1.836-5.404-1.836-5.404-1.836l-5.248 4.25-32.795-5.038s-2.414-18.523 8.658-19.152c11.072-.63 29.857 1.154 36.574-10.6 6.664-11.806 32.166 5.772 32.166 5.772z"/><path fill="#251F2D" d="M102.06 429.911l-9.445 29.384s-12.541.84-14.01-3.358c-1.417-4.198-9.498-5.037-9.498-5.037l-7.713 1.784-30.802-4.355c-.105 2.991.21 5.299.21 5.299l32.795 5.038 5.248-4.25s3.778 0 5.404 1.836c1.627 1.889 3.096 5.457 3.096 5.457s13.486 2.729 17.526 2.729c4.093 0 5.353-5.405 5.353-5.405l7.766-28.65-5.93-.472z"/><path fill="#2C2632" d="M128.769 359.492l10.18 28.65s2.046 5.195-1.312 7.504c-3.358 2.309-15.952 7.766-15.952 7.766s-3.253-2.099-5.667-2.729c-2.361-.629-5.457 1.574-5.457 1.574l-1.889 6.507-29.805 14.535s-12.54-13.8-3.778-20.674c8.763-6.874 25.187-16.057 23.98-29.543-1.259-13.538 29.7-13.59 29.7-13.59z"/><path fill="#251F2D" d="M123.889 363.218l9.025 29.542s-9.865 7.818-13.433 5.247c-3.568-2.624-10.704 1.259-10.704 1.259l-5.3 5.825-27.811 13.958c1.627 2.518 3.2 4.25 3.2 4.25l29.806-14.535 1.889-6.507s3.096-2.151 5.457-1.574c2.361.63 5.667 2.729 5.667 2.729s12.646-5.405 15.952-7.766c3.358-2.309 1.312-7.504 1.312-7.504l-9.918-27.968-5.142 3.044z"/><path fill="#fff" d="M128.087 251.503s25.554-38.935 28.545-44.602c3.044-5.615 17.946-8.343 21.514-9.131h13.958l26.394-2.571s18.628 5.615 25.083 12.122c6.454 6.506 15.164 49.324 22.93 61.918 7.766 12.593-29.017 18.627-42.398 15.584l-3.463-22.144-44.603-2.833-21.409 10.547-26.551-18.89z"/><path fill="#F1F1F1" d="M243.634 207.373c-3.464-3.463-10.495-6.717-16.215-8.973-1.416.367-2.781.577-3.935.525-6.035-.315-9.288 16.004-10.757 21.409-1.417 5.405-8.186 12.541-8.186 12.541s-11.072-2.256-16.004-6.035c-4.88-3.725-7.609-25.449-7.609-25.449l11.964 4.093 2.886-1.679 3.673 1.679s13.643-6.139 14.378-6.979c.734-.839 6.821-.787 6.821-.787h4.985c-4.093-1.522-7.136-2.466-7.136-2.466l-26.394 2.571h-13.958c-.945.21-2.729.577-4.828 1.049l7.609 37.938 35.997 7.137s12.173 14.272 18.47 14.377c6.297.105 18.628 2.939 17.316.682-1.311-2.256-11.281-2.938-14.062-3.568-2.834-.629-1.312-2.833-2.572-7.136-1.311-4.303.42-16.004 1.522-18.156 1.102-2.151-2.886-.262-7.084-1.941-4.198-1.679-3.778 2.571-2.466 5.195 1.312 2.571-1.102 5.824-2.834 3.883-1.731-1.942-2.361-8.239-2.361-11.02 0-2.833 6.927-20.989 7.661-23.14.735-2.152 4.041 1.049 7.504 2.413 3.463 1.365 2.833 6.874 4.827 5.563 1.994-1.312 9.918 25.606 11.492 31.798 1.574 6.192 9.813 21.514 6.927 20.15-2.886-1.417.997 4.985 1.889 5.562.839.577 5.194 2.886-.997 7.189-6.192 4.302-27.129 6.926-30.12 6.192-2.991-.735-5.09-17.736-4.67-18.943.42-1.207 4.67-2.099 4.67-2.099l-10.127-1.574-.42 8.238 2.728 17.316c13.434 3.043 50.217-3.043 42.399-15.584-7.819-12.646-16.477-55.517-22.983-61.971zM153.641 269.658l24.505-18.575-7.031-51.686c-5.615 1.469-12.541 3.883-14.483 7.504-3.043 5.614-28.545 44.602-28.545 44.602l25.554 18.155zm-17.945-27.233c1.731-5.3 23.14-33.478 24.819-34.895 1.732-1.416 7.661-6.296 8.134-3.725.472 2.571 3.253 20.149 0 26.236-3.254 6.035-4.46 1.207-6.979 1.784-2.519.578-3.883-2.256-4.093-3.725-.21-1.469-2.047-.472-1.417 2.099.63 2.571-.944 17.316-3.621 20.464-2.676 3.149-3.883 5.615-5.614 4.565-1.732-1.049-9.288-6.821-9.288-4.565 0 2.257 5.405 8.553 5.405 8.553l1.574 4.093-11.334-8.028 2.361-2.152c.053-.052-1.679-5.404.053-10.704z"/><path fill="#FBFBFB" d="M224.375 214.404s-5.929 16.215-3.41 20.255c2.466 4.04 8.815 12.121 9.55 10.39.734-1.732-.997-12.804-2.467-15.218-1.469-2.413 3.464.945 6.612 0 3.148-.944-3.463 6.245 0 24.138 0 0 .262 2.571 4.303 2.886 4.04.262 12.121 2.256 12.121 2.256s-10.757-.682-19.205 1.207c-8.448 1.889-15.742-17.421-15.742-17.421l-61.918 19.31-3.569-2.623s1.365-6.402 3.569-9.026c2.203-2.571 4.775-13.275 3.358-19.047-1.417-5.772 1.522 3.725 4.093 1.889 2.571-1.837-3.201 10.809-1.469 10.547 1.731-.263 12.068-6.664 12.121-22.249 0-15.584 10.232-.262 10.232-.262s8.816 15.532 30.172 1.994l11.597-21.934.052 12.908z"/><path fill="#00296B" d="M169.856 197.613s4.828 36.993 2.257 41.034c-2.571 4.04-15.27 12.383-16.739 17.316-1.417 4.88 0 52.578 0 52.578l66.064 21.619 12.069-13.066s.052-59.399-2.834-64.279c-2.886-4.88-15.585-12.961-13.853-19.888 1.732-6.926 15.007-32.166 12.384-35.261 0 0-3.726-3.096-6.035-2.257-2.309.84-10.075 32.586-14.115 34.317-4.04 1.732-23.928 1.155-25.082-.839-1.155-1.994-3.726-34.055-7.766-33.635-4.146.42-6.612.367-6.35 2.361z"/><path fill="#CB551E" d="M192 294.058s5.195-3.725 7.504-4.302c2.308-.578 13.852-1.155 15.584 0 1.732 1.154 2.204 1.521 5.877 1.836 3.673.315 12.331 2.519 12.331 2.519l-.367-15.69-43.553 4.723-6.034 10.967H192v-.053z"/><path fill="#00296B" d="M101.693 368.36s-5.825-77.922 8.448-90.883c14.273-12.961 55.832 18.838 55.832 18.838l35.052 25.082-39.618 11.281-29.227-15.584v23.35l-16.897 42.871-13.59-14.955z"/><path fill="#003F88" d="M180.928 327.116l-6.506-19.52-13.171-14.64c-11.282-7.818-39.775-25.764-51.109-15.427-.63.577-1.26 1.312-1.837 2.152 6.192.892 15.27-1.942 17.841-1.26 2.624.682 35.734 34.16 36.889 36.679 1.154 2.519-4.828 1.574-8.711 2.204-3.83.629-15.217-2.571-18.89-4.303-3.673-1.732-7.766-12.331-8.238-7.766-.42 4.565-6.507 32.901-6.507 32.901l-12.489 5.562-7.241 11.281c.157 3.673.315 6.769.472 9.026l6.559 1.731 9.078-5.877 9.131-4.145 6.034-15.322v-23.351l29.228 15.585 19.467-5.51z"/><path fill="#00296B" d="M123.627 339.657s4.565-24.819 4.408-28.283c-.158-3.463 8.238 6.35 14.01 8.081 5.772 1.732 16.319 1.627 20.937-.734 4.618-2.362 14.168 9.445 14.168 9.445l-15.742 4.512-29.228-15.584v23.35l-8.553-.787zM75.037 428.756s24.662-72.727 35.734-81.175c11.02-8.448 72.309-39.04 72.309-39.04l50.374 8.553s3.883 30.539-37.676 38.305c-41.559 7.766-56.514 12.331-61.026 21.409-4.565 9.078-28.546 61.656-28.546 61.656l-31.169-9.708z"/><path fill="#003F88" d="M233.453 317.094s0-20.727-.525-38.725h-24.609l-41.14 10.862s-10.966-15.06-10.966-17.684c0-2.623.892-10.389 1.731-13.223.84-2.833 11.544-13.59 15.375-17.893 3.83-4.303-2.519-34.947-2.519-34.947 1.155-4.723.367-6.087 2.519-7.766 2.204-1.732 6.769 7.766 6.769 7.766-1.102-5.825-2.466-10.442-3.988-10.232-4.041.42-6.507.42-6.297 2.414 0 0 4.828 36.993 2.256 41.033-2.571 4.041-15.269 12.384-16.738 17.316-.788 2.677-.735 18.261-.473 31.747 4.723 5.719 9.078 10.652 11.072 12.908 5.195 5.824 26.814-1.522 30.382-3.253 3.516-1.732 8.606-3.883 10.757-4.985 2.152-1.102 5.825-.63 9.97 1.679 4.093 2.309-14.692 16.581-14.692 16.581l-25.293-6.402s-5.299 4.776-8.605 8.606l3.778 1.207a361.32 361.32 0 00-6.192 3.148c1.574 1.627 4.513 5.72 8.816 11.649 4.355 5.93.839 13.591 1.049 16.582.21 3.043-20.989 9.078-30.277 12.751s-12.226-2.152-12.226-2.152c-1.627 14.955-32.849 69.055-32.849 69.055l-22.353-5.353c-.577 1.627-1.102 3.044-1.522 4.251l12.594 9.13 18.575 1.732c5.457-11.964 23.088-50.479 26.919-58.088 4.565-9.078 19.468-13.643 61.026-21.409 41.559-7.766 37.676-38.305 37.676-38.305zM229.203 197.613s-3.726-3.096-6.034-2.256c-.787.315-2.257 4.302-3.988 9.445 1.049-3.201 3.988-9.445 8.29-6.454.997.734 1.312 2.676 1.102 5.194.945-2.938 1.312-5.142.63-5.929z"/><path fill="#F1F1F1" d="M232.614 270.655c-.42-9.077-1.05-16.266-1.942-17.84-1.784-3.044-7.398-7.347-10.914-11.807 2.781 4.828 6.874 11.754 8.343 13.696 2.151 2.886-.315 10.809 4.513 15.951z"/><path fill="#00296B" d="M167.652 316.359l12.384 12.489c.84 12.488 5.195 16.371 2.151 19.625-3.043 3.253-22.511 5.614-33.32 11.439-10.81 5.772-13.853-2.781-14.273 3.725-.42 6.507-34.055 71.154-34.055 71.154l3.463 2.991 2.257.734s24.032-52.578 28.545-61.655c4.565-9.078 19.468-13.643 61.027-21.409 41.558-7.766 37.675-38.306 37.675-38.306l-50.374-8.553-15.48 7.766z"/><path fill="#CABADD" d="M75.036 193.048v13.433l12.331 9.97v13.38l28.178 3.516-5.194-25.974-35.315-14.325zM280.522 322.079s2.939 15.164-4.46 19.887l-33.74-19.887-17.421 4.303-2.099 29.699-18.261-2.781 6.192-44.654 46.334-3.359 23.455 16.792z"/><path fill="#CABADD" d="M244.158 371.823l-1.364 11.492s-31.379 11.596-44.97-16.005c-13.59-27.653 30.172 0 30.172 0l16.162 4.513zM54.414 246.675s19.573 25.45 57.668 16.004l72.781 67.953 11.491 7.451 1.522-29.542-87.525-60.082-55.937-1.784z"/><path fill="#DDDFF3" d="M125.044 240.431l83.117 61.761s19.888-22.511 51.949-6.927c32.008 15.585 16.896 39.407 16.896 39.407l-32.796-22.091-28.23 6.927-2.047 29.962 30.33 22.406s-22.616 19.047-48.381-6.507c0 0-20.149-22.931-7.556-42.87l-77.555-67.953s-30.277 16.896-59.715-10.809c0 0-12.54-12.122 0-31.169l20.36 19.047 23.823-2.571-1.732-19.152L75.09 193.1s17.946-20.359 42.189 4.303c0 0 18.575 16.791 7.766 43.028z"/><path fill="#CABADD" d="M190.11 288.758l-10.967-2.518s-18.837 9.445-9.235 12.908c9.603 3.463 15.532.21 19.205-2.833 2.729-2.204 4.723-3.569 5.615-4.093l-4.618-3.464z"/><path fill="#FAD3DB" d="M218.236 262.679s-23.35 9.183-33.163 11.335c-9.812 2.151-18.156 4.145-21.934 13.118-3.725 8.92 3.936 9.97 6.769 12.016 2.834 1.994 11.964-.157 15.165-4.775 3.201-4.618 7.714-8.868 12.804-8.763 5.09.105 19.677-.63 28.703-.367 9.025.315.209-12.909-2.834-17.736-3.043-4.828-5.51-4.828-5.51-4.828z"/><path fill="#F8ADB0" d="M213.881 264.359l.787 17.578s-18.733 1.259-23.508 3.673c0 0 1.155-1.469 2.939-2.361 1.784-.84-4.408.577-7.714 5.352s-7.713 8.238-9.183 8.658c-1.469.42 2.572-3.725 4.566-6.349 1.994-2.571-6.192 7.084-8.344 7.189-2.151.157-2.728-.735-1.994-1.994.735-1.312 3.726-3.044 4.618-4.618.84-1.574.577-3.043.577-3.043s-.524 1.889-2.046 3.41c-1.522 1.522-4.67 4.775-6.035 4.198-1.416-.524-.734-2.204.84-3.725 1.627-1.47 5.3-3.883 5.615-5.143.314-1.312-6.927 6.035-7.766 6.192-.788.158-2.204-.472-2.624-1.679-.42-1.207 6.507-4.513 7.451-6.139.997-1.627-7.084 4.722-8.343 4.145-.945-.472-.63-2.361.105-3.935-.21.419-.42.839-.63 1.311-3.726 8.921 3.936 9.97 6.769 12.017 2.834 1.994 11.964-.158 15.165-4.775 3.148-4.618 7.713-8.868 12.803-8.763 4.146.052 14.588-.42 23.194-.42l.839-18.838-2.938-3.358-5.143 1.417z"/><path fill="#fff" d="M220.702 262.679l3.463 22.144c13.434 3.043 50.217-3.043 42.399-15.584-1.574-2.572-3.201-6.402-4.88-10.915l-20.937 1.574c0-.052-9.498.84-20.045 2.781z"/><path fill="#F1F1F1" d="M252.764 259.006l-6.454.473c3.988.472 7.136.682 6.454-.473z"/><path fill="#F1F1F1" d="M266.564 269.239c-.158-.263-.368-.578-.525-.892-.052-.053-.052-.105-.105-.21-.157-.315-.367-.63-.525-.997-.052-.053-.052-.105-.105-.158-.157-.367-.367-.682-.524-1.049 0-.053 0-.053-.053-.053-.157-.367-.367-.787-.525-1.207-.052-.052-.052-.157-.104-.209-.158-.42-.368-.84-.525-1.312 0-.053-.053-.105-.053-.105-.157-.42-.367-.892-.524-1.365 0-.052-.053-.052-.053-.105-.21-.472-.367-.944-.577-1.469 0-.052-.053-.105-.053-.21-.209-.524-.367-1.049-.577-1.574l-1.154.105c1.207 3.096 1.836 5.142.682 4.565-2.886-1.417.997 4.985 1.889 5.562.84.578 5.195 2.886-.997 7.189s-27.129 6.927-30.12 6.192c-2.991-.735-5.09-17.736-4.67-18.943.42-1.207 4.67-2.099 4.67-2.099-2.991.42-6.559.945-10.284 1.627l-.263 5.037 2.729 17.317c13.381 2.99 50.164-3.044 42.346-15.637z"/><path fill="#fff" d="M224.585 258.324l-10.704 3.936 4.093 27.495 10.075-1.469-3.464-29.962z"/><path fill="#0E296A" d="M178.146 197.77l5.458-7.87 12.331 6.349-2.991 9.235-14.798-7.714z"/><path fill="#0E296A" d="M199.503 205.484l-5.404-9.235 21.251-9.236 3.201 8.186-10.39 3.621-8.658 6.664z"/><path fill="#FAD3DB" d="M117.96 276.847s-10.967 3.463-12.698 0c-1.732-3.463.629-10.757 6.349-11.806 5.72-1.05 9.235.524 11.544 4.407 2.256 3.831-3.988 7.032-5.195 7.399z"/><path fill="#F8ADB0" d="M123.155 269.396c-1.731-2.886-4.093-4.513-7.608-4.67h-1.365s5.405 1.049 5.353 4.932c-.053 3.883-5.563 5.405-9.236 5.877-3.62.42-5.562-1.102-5.614-1.154 0 .944.209 1.784.524 2.466 1.732 3.463 12.699 0 12.699 0 1.259-.367 7.504-3.568 5.247-7.451z"/><path fill="#00296B" d="M106.311 444.97l-39.565-15.059 4.04-10.128 41.559 12.594-6.034 12.593z"/></g><defs><linearGradient id="paint0_linear_100_17472" x1="47.115" x2="205.155" y1="113.789" y2="111.367" gradientUnits="userSpaceOnUse"><stop stop-color="#F4F0E5" stop-opacity="0"/><stop offset=".158" stop-color="#E4E1D9" stop-opacity=".158"/><stop offset=".487" stop-color="#C9C8C4" stop-opacity=".487"/><stop offset=".778" stop-color="#B9B8B7" stop-opacity=".778"/><stop offset="1" stop-color="#B3B3B3"/></linearGradient><linearGradient id="paint1_linear_100_17472" x1="174.176" x2="275.677" y1="14.517" y2="21.651" gradientUnits="userSpaceOnUse"><stop stop-color="#F4F0E5" stop-opacity="0"/><stop offset=".158" stop-color="#E4E1D9" stop-opacity=".158"/><stop offset=".487" stop-color="#C9C8C4" stop-opacity=".487"/><stop offset=".778" stop-color="#B9B8B7" stop-opacity=".778"/><stop offset="1" stop-color="#B3B3B3"/></linearGradient><linearGradient id="paint2_linear_100_17472" x1="413.958" x2="475.011" y1="101.62" y2="108.513" gradientUnits="userSpaceOnUse"><stop stop-color="#F4F0E5" stop-opacity="0"/><stop offset=".158" stop-color="#E4E1D9" stop-opacity=".158"/><stop offset=".487" stop-color="#C9C8C4" stop-opacity=".487"/><stop offset=".778" stop-color="#B9B8B7" stop-opacity=".778"/><stop offset="1" stop-color="#B3B3B3"/></linearGradient><clipPath id="clip0_100_17472"><path fill="#fff" d="M0 0h471v470H0z"/></clipPath></defs></svg>