<svg xmlns="http://www.w3.org/2000/svg" width="544" height="330" fill="none" viewBox="0 0 544 330"><g clip-path="url(#clip0)"><path fill="#F7F8FB" d="M68.953 22.28C34.447 47.226 13.205 86.982 4.493 123.493c-8.674 37.038-4.804 70.837 11.847 96.056 16.784 25.46 43.989 39.829 75.75 49.766 31.692 9.419 67.946 14.409 101.198 9.118 66.001-7.949 97.559-75.611 66.83-168.649-30.374-92.649-121.902-141.06-191.165-87.506z"/><path fill="#281617" d="M138.014 17.802c-5.193 2.495-19.785 10.005-29.989 21.845-10.204 11.84-15.387 17.605-6.758 30.426 8.629 12.822-16.843 13.768-3.544 20.376 15.402 7.654 19.252 13.699 29.949 11.377 18.863-4.088 25.497-19.09 19.44-33.987-6.057-14.897-6.842-15.646-1.974-24.577 4.867-8.93-2.029-27.926-7.124-25.46z"/><path fill="#F7B68B" d="M102.165 51.305s-3.855 26.234-17.51 27.072c-3.97.275-7.957.235-11.921-.118 0 0 40.889 36.827 49.113 25.687 3.91-5.291-11.936-12.013-6.768-25.406 9.794-25.361 7.38-57.405-12.914-27.235z"/><path fill="#F7B68B" d="M116.763 39.889c-3.702 2.466-7.37 4.438-11.423 4.754 8.851 17.594 28.449 17.432 29.041 17.303a2.298 2.298 0 0 0 1.827-1.326c.482-.813.67-1.767.533-2.702-.163-.533-.721-1.07-.548-1.174l1.639-.986c.291-.178.37-1.1.37-1.1a7.926 7.926 0 0 1-.859-.912c1.52-.903 1.678-1.706 1.733-2.14.054-.434-.528-1.07-1.032-1.598-.503-.528-.385-1.84-.207-2.342.177-.503 1.708-1.248 1.974-1.731.267-.484.494-1.406.311-1.603-.182-.197-.957-.725-2.419-1.755-1.461-1.031-3.376-3.694-3.366-8.453.01-4.758-1.131-4.507-2.054-6.657-2.355-5.488-7.133 6.86-15.52 12.422z"/><path fill="#190444" d="M124.281 181.209l64.337-11.623s20.536-5.474 24.643 13.674c4.783 22.314 15.056 121.704 15.056 121.704l.686 4.788 31.485 17.092h-47.913l3.421-15.04-28.745-101.19s-49.281 14.36-65.71 14.36c-16.429 0-28.75-6.154-28.75-8.876 0-2.722 19.85-36.26 31.49-34.889z"/><path fill="#EA4E1B" d="M66.312 247.495a16.244 16.244 0 0 1-10.732-3.876c-5.396-4.685-7.726-13.023-6.94-24.765.527-7.924 3.652-15.947 6.955-24.449 5.573-14.301 11.877-30.5 8.58-51.931l6.125-.942c3.55 23.074-3.366 40.841-8.92 55.117-3.268 8.383-6.091 15.642-6.555 22.615-.632 9.527.987 16.312 4.768 19.626 3.56 3.146 8.007 2.337 8.195 2.303l1.244 6.07a14.68 14.68 0 0 1-2.72.232z"/><path fill="#F7F8FB" d="M113.85 296.63l6.038 9.202-50.718 16.229s-3.386-3.235 9.059-9.735c14.488-7.574 35.621-15.696 35.621-15.696z"/><path fill="#F7F8FB" d="M122.854 296.63l-6.037 9.202 50.717 16.229s3.387-3.235-9.058-9.735c-14.489-7.574-35.622-15.696-35.622-15.696z"/><path fill="#EA4E1B" d="M123.649 269.272H113.05v37.689h10.599v-37.689z"/><path fill="#C05299" d="M113.174 298.573l5.164 8.778-43.412 15.484s-2.897-3.087 7.75-9.291c12.406-7.229 30.498-14.971 30.498-14.971zm10.366 0l-5.163 8.778 43.411 15.484s2.898-3.087-7.75-9.291c-12.415-7.229-30.498-14.971-30.498-14.971z"/><path fill="#EA4E1B" d="M79.843 326.326a3.674 3.674 0 0 1-2.28 3.392 3.686 3.686 0 0 1-5.015-2.688 3.675 3.675 0 0 1 1.567-3.773 3.684 3.684 0 0 1 5.728 3.069z"/><path fill="#001F46" d="M163.96 326.326a3.682 3.682 0 0 1-4.41 3.608 3.691 3.691 0 0 1-2.895-2.896 3.687 3.687 0 1 1 7.305-.712z"/><path fill="#C05299" d="M70.928 326.326a3.674 3.674 0 0 1-2.28 3.392 3.686 3.686 0 0 1-5.015-2.688 3.675 3.675 0 0 1 1.567-3.773 3.684 3.684 0 0 1 5.728 3.069z"/><path fill="#367082" d="M172.871 326.326a3.67 3.67 0 0 1-2.279 3.383 3.681 3.681 0 0 1-5.006-2.683 3.672 3.672 0 0 1 1.562-3.768 3.686 3.686 0 0 1 3.452-.339 3.673 3.673 0 0 1 2.271 3.407z"/><path fill="#EA4E1B" d="M122.089 255.459h-7.75v13.556h7.75v-13.556z"/><path fill="#EA4E1B" d="M127.904 248.299c0 2.001-.795 3.92-2.212 5.335a7.555 7.555 0 0 1-5.34 2.21h-4.265a7.562 7.562 0 0 1-5.343-2.21 7.545 7.545 0 0 1 2.449-12.315 7.58 7.58 0 0 1 2.894-.575h4.265a7.574 7.574 0 0 1 5.344 2.213 7.553 7.553 0 0 1 2.208 5.342z"/><path fill="#FF7C90" d="M175.833 241.39c.182-.887.286-6.46.286-7.397 0-6.1-3.949-11.041-8.812-11.041H69.121c-4.863 0-8.812 4.931-8.812 11.041 0 .957.109 6.529.296 7.397h115.228z"/><path fill="#EA4E1B" d="M59.406 244.378c0 1.869 1.086 3.383 2.438 3.383H174.59c1.352 0 2.438-1.514 2.438-3.383 0-1.864-1.086-3.377-2.438-3.377H61.835c-1.353 0-2.439 1.513-2.439 3.377h.01z"/><path fill="#FF7C90" d="M64.9 184.755c2.424.177 17.816.448 20.467.493 16.848.202 31.356-2.959 32.166-7.101a143.438 143.438 0 0 0 .434-52.124c-.721-4.142-15.446-7.298-32.65-7.091-2.7.035-18.413.306-20.881.493a140.89 140.89 0 0 1 .464 65.33z"/><path fill="#37078C" d="M62.585 119.41c-1.886 0-3.2.918-2.962 1.998a140.703 140.703 0 0 1 .528 61.359c-.242 1.085 1.066 1.973 2.908 1.997 1.846.03 3.554-.838 3.786-1.923a140.842 140.842 0 0 0-.4-61.507c-.252-1.09-1.975-1.948-3.885-1.924h.025z"/><path fill="#FF556F" d="M61.835 184.725c1.474.174 2.957.272 4.442.291 3.673.044 7.454-3.191 8.185-7.264a141.073 141.073 0 0 0-.242-51.334c-.76-4.078-4.635-7.308-8.392-7.264a42.791 42.791 0 0 0-4.497.301 140.766 140.766 0 0 1 .504 65.27z"/><path fill="#EC9568" d="M114.062 169.985l49.365-40.031s9.439 1.035 5.006 7.056-33.702 41.373-33.702 41.373-29.865 13.552-20.669-8.398z"/><path fill="#C05299" d="M175.176 309.92s-.686 6.667-.686 8.718c0 2.052 4.442 7.89 4.793 9.572l.341 1.711h-33.539s-.686-3.417 4.793-7.86c5.48-4.443 7.183-7.525 7.869-13.167.686-5.641 16.429 1.026 16.429 1.026z"/><path fill="#EA4E1B" d="M115.445 77.11s19.509 3.077 22.076 10.765c2.567 7.688 1.54 12.328 1.54 15.898 0 3.571-24.643-12.82-23.616-26.663z"/><path fill="#C05299" d="M94.415 74.546l21.045 2.564s23.616 24.612 28.75 25.643c5.134 1.03-1.782 57.202-.494 64.787.681 4.102-18.482 5.981-28.75 7.52-10.268 1.538-24.638 0-24.638 0s5.134-16.411 1.54-33.331c-3.594-16.919-19.509-29.745-15.915-41.541 3.594-11.795-6.714-11.8 18.462-25.642z"/><path fill="#EA4E1B" d="M79.512 88.388s5.647 15.898 4.62 26.136c-1.026 10.237-4.107 35.381-4.107 35.381s-6.16 29.233-17.969 25.643c-11.808-3.59-10.78-36.92-2.566-57.947 8.214-21.027 16.428-34.337 20.022-29.213z"/><path fill="#F7B68B" d="M56.143 165.395s.493 5.892.493 7.175c0 1.282 5.643 2.82 11.547 2.82 5.904 0 49.537-25.125 53.644-26.92 4.108-1.795 13.605-4.359 15.916-4.615 2.31-.257 4.107-6.667 2.823-10.77-.849-2.712-1.698-5.094-2.991-5.868-.667-.4-1.442-.38-2.399.227-2.824 1.795-14.119 11.539-14.119 11.539s-26.435 4.872-36.96 9.487c-10.524 4.616-22.825 10.257-27.954 16.925z"/><path fill="#EC9568" d="M151.111 128.982l-13.516-1.765 2.991 5.868-1.797 8.975 7.445 1.282s1.026-1.282-.257-1.795c-1.284-.513-3.081-1.282-3.081-1.282s3.594-.493 5.134-.769c1.541-.277 1.797-.77 1.797-1.539 0-.769-1.54-1.282-1.54-1.282s2.824-1.026 3.08-1.795c.257-.769.771-1.795.257-2.564-.513-.77.257-2.821-.513-3.334z"/><path fill="#EA4E1B" d="M90.293 175.055h24.639l71.633-15.726s28.75-7.52 21.227 12.989c-7.524 20.509-33.302 132.651-33.302 132.651l-15.742-1.366s2.739-74.526 10.268-87.52c7.528-12.994 8.214-17.092 8.214-17.092s-49.967 26.664-70.503 25.298c-20.536-1.366-37.655-17.097-16.434-49.234z"/><path stroke="#F7F8FB" stroke-miterlimit="10" stroke-width=".73" d="M96.883 177.106s-13.689 23.932-.681 26.664c13.008 2.731 95.822-28.03 95.822-28.03s-21.429 34.184-33.302 127.858"/><path fill="#0D0229" d="M412.201 330h11.591l-19.124-185.642h-16.804L412.201 330z"/><path fill="#EA4E1B" d="M388.985 152.884l7.37 56.024 8.743-60.378-.43-4.172h-14.686l-.997 8.526z"/><path fill="#0D0229" d="M256.939 330h11.586l-19.124-185.642h-16.799L256.939 330z"/><path fill="#EA4E1B" d="M233.723 152.884l7.365 56.024 8.747-60.378-.434-4.172h-14.686l-.992 8.526z"/><path fill="#0D0229" d="M135.265 330h-11.591l19.118-185.642h16.804L135.265 330z"/><path fill="#EA4E1B" d="M158.476 152.884l-22.491 57.089 6.378-61.443.43-4.172h14.686l.997 8.526z"/><path fill="#EA4E1B" d="M266.293 138.351H126.571v10.81h139.722v-10.81z"/><path fill="#755FAA" d="M418.485 138.351H259.832v10.81h158.653v-10.81z"/><path fill="#EA4E1B" d="M139.831 18.537c-.563-2.397-28.982-9.996-43.362-2.431-24.14 12.707-20.343 29.587-18.65 32.206 16.157 25.149-7.217 27.767-14.642 32.945-8.392 5.844-.39 22.462 10.268 24.617 18.759 3.802 37.74-21.564 36.96-37.226-.864-17.392-17.125-21.786 15.056-30.342 10.421-2.752 15.53-14.818 14.37-19.77z"/><path fill="#fff" d="M102.393 43.642a7.563 7.563 0 0 0 8.092 8.453 7.558 7.558 0 0 0 .3-15.046 7.574 7.574 0 0 0-5.559 1.566 7.559 7.559 0 0 0-2.833 5.027z"/><path stroke="#fff" stroke-miterlimit="10" stroke-width=".9" d="M131.399 52.32s-22.071 5.874-23.942-10.848c-4.981-44.569 20.733-27.28 20.733-27.28"/><path fill="#fff" d="M126.404 55.427l3.495-.458a1.91 1.91 0 0 0 1.643-2.136 1.916 1.916 0 0 0-2.142-1.642l-3.495.459a1.91 1.91 0 0 0-1.644 2.135 1.91 1.91 0 0 0 2.143 1.642z"/><path fill="#F7F8FB" d="M105.567 44.026a4.355 4.355 0 0 0 2.191 4.319 4.371 4.371 0 0 0 4.833-.368 4.35 4.35 0 0 0 1.512-4.6 4.354 4.354 0 0 0-3.674-3.158 4.37 4.37 0 0 0-4.332 2.189 4.34 4.34 0 0 0-.53 1.618zm204.785 219.037c-8.091-8.551-18.364-13.768-26.954-15.869-8.708-2.086-15.732-1.06-19.904 3.137-4.171 4.196-5.217 11.036-4.901 18.97.424 7.89 2.162 16.959 5.894 25.238 6.856 16.431 23.976 24.163 41.762 16.323 17.712-7.742 21.094-30.643 4.103-47.799zm231.801-125.136c6.418 30.209-4.442 63.9-21.078 90.218-17.002 26.629-39.843 45.885-65.443 54.372-25.853 8.565-51.473 5.809-77.246-1.637-25.428-7.742-51.009-20.174-68.519-37.69-36.273-33.173-15.001-88.546 60.398-132.966 74.897-44.313 161.142-35.081 171.888 27.703z"/><path fill="#EA4E1B" d="M466.685 159.876s2.251-18.556 16.606-18.556c15.205 0 24.495-.646 32.65.567 7.045 1.041 16.606 7.308 14.074 24.74-3.658 25.15-14.637 68.604-14.637 68.604h-64.455L464.715 170l1.97-10.124z"/><path fill="#C05299" d="M465.012 159.876s2.014-18.556 14.844-18.556c13.585 0 21.888-.646 29.179.567 6.299 1.041 14.844 7.308 12.578 24.74-3.268 25.15-13.081 68.604-13.081 68.604h-57.609L463.264 170l1.748-10.124z"/><path fill="#E9AB86" d="M399.406 126.64l1.663-9.72 6.862-2.766a4.886 4.886 0 0 1-1.594 3.6l-1.664 1.385-1.664 5.819-3.603 1.682z"/><path fill="#EA4E1B" d="M451.263 130.235s11.646.552 25.236 7.48c13.59 6.929 10.816 7.476 13.866 12.743 3.051 5.266 9.152 33.799 9.152 33.799l-24.406 1.938 9.706 41.827-67.941 3.323-1.111-41.274s-13.585-15.238-16.917-14.405c-3.332.834-2.77-41.274 26.069-42.384 28.839-1.109 26.346-3.047 26.346-3.047z"/><path fill="#EA4E1B" d="M397.944 133.701l9.602 10.415 13.985-25.144-12.282-6.815-11.305 21.544z"/><path fill="#E9AB86" d="M413.129 183.985s-14.281 41.137-33.691 48.618c-19.411 7.48 11.092-60.803 17.193-64.131 6.102-3.329 16.498 15.513 16.498 15.513zm61.775.622s3.258 23.754 7.696 35.11c4.438 11.357 5.667 16.683 11.438 11.633 4.99-4.359 7.972-16.066 7.972-20.218 0-4.152-4.226-26.944-4.226-26.944l-22.88.419z"/><path fill="#E9AB86" d="M485.384 210.022s-58.517 14.957-64.337 14.128c-5.82-.828-18.857-5.818-18.857-5.818s-9.987 8.59-11.651 10.252c-1.663 1.661 3.328 4.985 7.213 5.814 3.885.828 87.074 0 87.074 0s16.088 0 9.429-13.019c-6.659-13.018-8.871-11.357-8.871-11.357z"/><path fill="#EA4E1B" d="M441.558 106.969s-.281-9.971-1.11-14.128c-.83-4.157-4.715-6.095-10.54-8.033-5.825-1.938-4.99-1.386-3.603-2.495 1.387-1.11-3.604-2.215-9.705.276-6.102 2.49-15.797 8.876-8.886 19.118 6.911 10.242 33.01 16.066 33.844 5.262z"/><path fill="#F0BF97" d="M453.895 130.378s-4.572-.138-7.622-3.738c-3.051-3.6-5.272-8.038-4.443-11.086.829-3.047 2.468-13.314-1.387-11.08-3.856 2.234-2.775 1.943-3.604 3.881-.829 1.938-1.111.552-1.945-1.662-.834-2.214-3.604-6.095-5.82-6.648-2.216-.552-2.221-8.033-.834-9.7 1.387-1.666-6.102 1.667-11.354 2.496-5.253.828-7.489.552-9.705 5.262-2.217 4.709-1.945 9.699-.558 14.685 1.387 4.985 7.489 15.78 8.323 18.28.834 2.5.276 3.048 4.714 3.048 4.438 0 2.468.281 2.217 3.604-.252 3.324-1.388 15.514 9.428 16.066 10.816.553 20.373-3.461 22.59-23.408z"/><path fill="#F0BF97" d="M415.78 129.963c0 2.767-26.539 88.793-35.493 101.806-4.577 6.648-11.512-7.204-12.065-16.623-.553-9.419 30.088-68.288 30.088-68.288l-3.604-12.185s-2.222-.276 2.769-6.929c4.991-6.652 6.383-6.647 6.383-6.647l4.157 1.938 2.498 4.438s-3.11 7.185-4.991 6.647c-1.881-.537.829-2.49-1.387-3.047a4.708 4.708 0 0 0-3.885.833l5.272 9.419s2.468 2.214 4.443-1.386c1.974-3.599 5.815-12.17 5.815-9.976z"/><path fill="#E9AB86" d="M405.507 134.115c-1.945-.552.829-2.49-1.387-3.047a4.704 4.704 0 0 0-3.885.833l5.272 9.419s2.468 2.214 4.443-1.386c1.974-3.599 4.852-11.342 4.852-9.142 0 1.178-3.835 16.589-10.109 35.825-.06-5.858.187-13.265 1.1-16.154 1.664-5.267-.834-4.157-2.774-5.819s-6.378-12.19-6.378-12.19l4.162-3.6a17.843 17.843 0 0 0 3.88-.552c2.216-.558 3.327-5.267 3.327-5.267l2.498 4.438s-3.12 7.2-5.001 6.642z"/><path fill="#E0E0E0" d="M299.333 173.96h58.641a4.133 4.133 0 0 1 3.574 2.619l19.795 54.327H317.46l-19.795-54.318c-.528-1.454.217-2.628 1.668-2.628z"/><path fill="#F7F8FB" d="M432.268 230.586v1.607a2.576 2.576 0 0 1-2.577 2.574H319.543a2.576 2.576 0 0 1-2.577-2.574v-1.607h115.302z"/><path fill="#E0E0E0" d="M381.377 232.193v-1.607h50.891v1.607a2.576 2.576 0 0 1-2.577 2.574h-45.737a2.576 2.576 0 0 1-2.577-2.574z"/><path fill="#8A8A8A" d="M339.812 204.84c1.146 2.598.425 5.424-1.609 6.331-2.034.908-4.616-.493-5.761-3.096-1.145-2.604-.424-5.425 1.614-6.332 2.039-.908 4.611.488 5.756 3.097z"/><path fill="#E9AB86" d="M438.784 119.435s-2.775 7.205-4.991 9.419c-2.217 2.214-11.092 4.438-14.143 5.262-3.051.823.829-.829 8.041 1.385 7.212 2.214 16.636 6.929 16.636 3.6s-.138-9.414-1.244-11.633c-1.106-2.219-4.299-8.033-4.299-8.033z"/><path fill="#C05299" d="M382.306 137.73c0 1.894-.753 3.71-2.094 5.049a7.152 7.152 0 0 1-5.054 2.092h-76.249a7.16 7.16 0 0 1-5.058-2.09 7.147 7.147 0 0 1-2.095-5.051V78.22a7.141 7.141 0 0 1 7.153-7.16h76.249c1.895 0 3.714.752 5.054 2.09a7.135 7.135 0 0 1 2.094 5.05v15.888l14.715 20.948h-14.715v22.694z"/><path fill="#fff" d="M368.005 92.5h-61.953v4.764h61.953v-4.763zm0 11.905h-61.953v4.758h61.953v-4.758zm0 11.899h-61.953v4.763h61.953v-4.763z"/><path stroke="#C05299" stroke-miterlimit="10" stroke-width="1.91" d="M163.852 75.99a4.895 4.895 0 0 0 4.902 4.892h52.277a4.903 4.903 0 0 0 3.466-1.43 4.895 4.895 0 0 0 1.436-3.46V35.198a4.883 4.883 0 0 0-1.434-3.464 4.905 4.905 0 0 0-3.468-1.432h-52.277a4.905 4.905 0 0 0-3.468 1.432 4.893 4.893 0 0 0-1.434 3.464v10.894l-10.09 14.35h10.09V75.99zm13.387-28.58h33.519m-33.519 8.037h33.519m-33.519 8.033h33.519"/><path fill="#F7F8FB" d="M147.028 135.121l-.049-.083.049-2.732h113.223v2.815l-.286.494c-1.457 2.372-4.068 2.796-7.059 2.796h-98.533c-2.991 0-5.598-.424-7.054-2.796l-.291-.494z"/><path fill="#E0E0E0" d="M174.312 135.585a.095.095 0 0 1 .008.037.095.095 0 0 1-.008.037l-.281.414a4.633 4.633 0 0 1-1.654 1.391h-17.219c-2.873 0-5.385-.345-6.782-2.259l-.272-.419a.912.912 0 0 1-.054-.069l.029-1.341h26.233v2.209zm71.861-2.653h-56.577v1.933h56.577v-1.933zm-71.229-.725l14.676-55.58a3.704 3.704 0 0 1 3.362-2.658h79.433c1.481 0 2.344 1.188 1.974 2.658l-14.696 55.58h-84.749z"/><path fill="#8A8A8A" d="M219.861 103.113c-.745 2.835.953 5.138 3.786 5.138 2.834 0 5.751-2.328 6.521-5.138.771-2.811-.947-5.144-3.791-5.144-2.843 0-5.766 2.279-6.516 5.144z"/></g><defs><clipPath id="clip0"><path fill="#fff" d="M0 0h544v330H0z"/></clipPath></defs></svg>