<svg xmlns="http://www.w3.org/2000/svg" width="149" height="148" fill="none" viewBox="0 0 149 148"><g clip-path="url(#clip0)"><path fill="#E7ECF6" d="M128.406 103.941a10.104 10.104 0 0 1-1.089 3.873 578.13 578.13 0 0 1-87.006-.383 10.119 10.119 0 0 1-.904-3.49 619.232 619.232 0 0 1 0-92.62 10.186 10.186 0 0 1 9.03-9.354 320.681 320.681 0 0 1 70.939 0 10.185 10.185 0 0 1 9.03 9.354c.551 7.359.969 14.72 1.256 22.079a619.016 619.016 0 0 1-1.256 70.541z"/><path fill="#fff" d="M115.884 115.31a10.138 10.138 0 0 1-1.088 3.875 578.035 578.035 0 0 1-87.009-.385 10.124 10.124 0 0 1-.903-3.491 618.655 618.655 0 0 1-.37-87.337c.116-1.762.239-3.523.37-5.282.365-4.88 4.17-8.813 9.029-9.354a320.786 320.786 0 0 1 70.94 0 10.187 10.187 0 0 1 9.032 9.354c.55 7.36.969 14.72 1.256 22.08a620.077 620.077 0 0 1-1.257 70.54z"/><path fill="#E7ECF6" d="M115.884 115.31a10.138 10.138 0 0 1-1.088 3.875 578.035 578.035 0 0 1-87.009-.385 10.124 10.124 0 0 1-.903-3.491 618.655 618.655 0 0 1-1.127-73.634c15.372-2.231 29.164-2.267 42.41-.105a9.04 9.04 0 0 1 7.521 7.898c.06.52.117 1.041.174 1.562a9.048 9.048 0 0 0 9.04 8.068c10.883-.05 21.763.18 32.646.694a620.072 620.072 0 0 1-1.664 55.518z"/><path fill="#C05299" d="M102.292 39.027H44.24a2.233 2.233 0 1 1 0-4.467h58.052a2.233 2.233 0 1 1 0 4.467zm0 12.827h-44.89a2.233 2.233 0 1 1 0-4.466h44.89a2.233 2.233 0 1 1 0 4.466z"/><path fill="#EA4E1B" d="M134.714 124.41l-.003.003a369.165 369.165 0 0 1-1.26 13.552c-.478 4.304-3.963 7.651-8.279 7.996a630.563 630.563 0 0 1-101.343 0 9.07 9.07 0 0 1-8.287-8.05 371.696 371.696 0 0 1 .07-83.095c.46-4.077 3.625-7.328 7.685-7.925 15.531-2.287 29.443-2.341 42.8-.16a9.038 9.038 0 0 1 7.524 7.898c.059.52.115 1.04.172 1.56a9.05 9.05 0 0 0 9.041 8.07c14.59-.069 29.18.37 43.77 1.314a9.069 9.069 0 0 1 8.46 8.504 370.837 370.837 0 0 1-.35 50.333z"/><path fill="#1D0740" d="M30.382 146.458a627.418 627.418 0 0 1-6.552-.495 9.074 9.074 0 0 1-8.286-8.051 371.634 371.634 0 0 1 .068-83.095c.461-4.076 3.625-7.329 7.685-7.925a175.43 175.43 0 0 1 7.823-.976 9.396 9.396 0 0 0-4.909 7.225 386.545 386.545 0 0 0-.071 86.431 9.442 9.442 0 0 0 4.242 6.886z"/><path fill="#fff" d="M60.016 137.463c-1.05 0-2.122-.243-3.19-.73a9.63 9.63 0 0 1-2.647-1.795 2.234 2.234 0 0 1 3.158-3.16c.108.104 2.025 1.914 3.872.889.952-.529 1.544-1.563 1.544-2.7v-20.925a2.233 2.233 0 0 1 4.466 0v20.925c0 2.759-1.472 5.289-3.843 6.605a6.852 6.852 0 0 1-3.36.891zm48.647-14.111a2.23 2.23 0 0 1-2.233-2.234v-12.075c0-1.233 1-2.233 2.233-2.233h7.605c4.554 0 8.258 3.704 8.258 8.258 0 4.553-3.704 8.258-8.258 8.258-1.647 0-7.595.026-7.595.026h-.01zm2.234-12.076v7.6c1.872-.008 4.387-.017 5.372-.017a3.796 3.796 0 0 0 3.791-3.792 3.796 3.796 0 0 0-3.791-3.791h-5.372z"/><path fill="#fff" d="M108.663 137.457a2.234 2.234 0 0 1-2.233-2.233v-14.126c0-1.233 1-2.233 2.233-2.233h8.933c5.118 0 9.281 4.163 9.281 9.281 0 5.117-4.163 9.28-9.281 9.28-1.927 0-8.922.031-8.923.031h-.01zm2.234-14.125v9.649c2.228-.009 5.484-.022 6.699-.022a4.819 4.819 0 0 0 4.814-4.814 4.82 4.82 0 0 0-4.814-4.814h-6.699v.001zm-23.531 14.126c-8.45 0-15.324-6.875-15.324-15.324 0-8.45 6.874-15.324 15.324-15.324s15.324 6.874 15.324 15.324c0 8.449-6.874 15.324-15.324 15.324zm0-26.182c-5.987 0-10.857 4.871-10.857 10.858s4.87 10.857 10.857 10.857c5.987 0 10.858-4.87 10.858-10.857 0-5.987-4.87-10.858-10.858-10.858z"/></g><defs><clipPath id="clip0"><path fill="#fff" d="M0 0h148v148H0z" transform="translate(.5)"/></clipPath></defs></svg>