<svg xmlns="http://www.w3.org/2000/svg" width="18" height="20" fill="none" viewBox="0 0 18 20"><path fill="#2B2323" fill-rule="evenodd" d="M5.923 14.39h5.386c.406 0 .742-.34.742-.75s-.336-.74-.742-.74H5.923a.743.743 0 0 0-.743.74c0 .41.337.75.743.75zM9.269 7.9H5.923a.752.752 0 0 0-.743.75c0 .41.337.74.743.74h3.346c.406 0 .743-.33.743-.74s-.337-.75-.743-.75zm7.066-.874c.233-.003.486-.006.716-.006.248 0 .446.2.446.45v8.04c0 2.48-1.99 4.49-4.445 4.49H5.17C2.596 20 .497 17.89.497 15.29V4.51c0-2.48 2-4.51 4.465-4.51h5.287c.258 0 .456.21.456.46v3.22c0 1.83 1.495 3.33 3.307 3.34.423 0 .796.003 1.123.006.254.002.48.004.679.004.14 0 .323-.002.521-.004zm.273-1.46c-.813.003-1.773 0-2.463-.007-1.095 0-1.997-.911-1.997-2.017V.906c0-.431.518-.645.814-.334l2.006 2.107 1.98 2.08a.477.477 0 0 1-.34.807z" clip-rule="evenodd"/></svg>