<svg xmlns="http://www.w3.org/2000/svg" width="750" height="500" fill="none" viewBox="0 0 750 500"><path fill="#FFC557" d="M482.589 76.287a5.986 5.986 0 1 0 0-11.972 5.986 5.986 0 0 0 0 11.972z"/><path stroke="#FFC557" stroke-miterlimit="10" d="M511.021 103.222a4.49 4.49 0 1 0 0-8.979 4.49 4.49 0 0 0 0 8.979z"/><path stroke="#648AC9" stroke-miterlimit="10" stroke-width=".81" d="M617.652 170.772a2.296 2.296 0 1 0 0-4.592 2.296 2.296 0 0 0 0 4.592z"/><path fill="#FFC557" d="M87.372 334.173a8.322 8.322 0 1 0 0-16.644 8.322 8.322 0 0 0 0 16.644zm44.552-247.911a4.49 4.49 0 1 0 0-8.978 4.49 4.49 0 0 0 0 8.978zm508.289 192.541a3.99 3.99 0 1 0 .001-7.979 3.99 3.99 0 0 0-.001 7.979z"/><path stroke="#95B1DB" stroke-miterlimit="10" d="M77.554 390.538H713.04"/><path stroke="#95B1DB" stroke-miterlimit="10" stroke-width="2" d="M115.463 171.061a3.492 3.492 0 1 0 0-6.984 3.492 3.492 0 0 0 0 6.984z"/><path fill="#839DC9" d="M673.135 324.704a4 4 0 1 0 0-8 4 4 0 0 0 0 8zm20.95-83.588a2.106 2.106 0 1 0 0-4.212 2.106 2.106 0 0 0 0 4.212z"/><path fill="#95B1DB" d="M405.292 392.841H171.184V112.238c0-14.36 11.055-26.585 25.415-26.585l208.694.585V392.84h-.001z"/><path fill="#849CC7" d="M175.507 392.841h229.785v-278.73L212.419 88.566 175.507 392.84z" opacity=".65"/><path fill="#E0EBFB" d="M502.666 110.308c0-13.807-11.193-25-25-25H218.912v.169l-24.671-.125c15.075 0 24.612 10.644 24.612 23.499l.06-.071v292.825c0 19.33 15.67 35 35 35h189.754l60.028-.834-1.029-325.463z"/><path fill="#CBD9EC" d="M275.578 183.496c20.069 0 36.337-16.269 36.337-36.337 0-20.069-16.268-36.337-36.337-36.337-20.068 0-36.337 16.268-36.337 36.337 0 20.068 16.269 36.337 36.337 36.337z"/><path fill="#F38C84" d="M364.497 158.647c.371-2.249.559-3.607.559-3.607s1.436-13.025-4.259-21.49c-.835-1.24 1.793 2.613 1.793 2.613s-3.73-5.435-4.632-5.873c-.902-.439 2.493 5.625 2.493 5.625s-3.755-6.475-4.847-6.391c-1.092.084 1.875 7.574 1.875 7.574s-2.279-8.242-3.373-8.245c-1.218-.005.726 19.405-1.397 17.114-.707-.763-3.799-6.065-5.367-5.743-1.568.322 5.767 12.254 5.767 12.254.15.37 0 .944-.153 1.326l11.541 4.843z"/><path fill="#FF768F" d="M351.935 153.409l-5.312 13.978c-3.619 9.027-12.706 18.339-21.104 15.292l-26.828-9.731c-3.039-1.469-6.198-2.515-9.179-2.794-.188-.067-.298-.103-.298-.103l-7.346-3.599-16.039 3.031-5.686 4.238c-14.276 2.733-44.6 12.336-44.6 12.336 6.268 4.436 11.677 12.514 11.677 12.514s-1.177 1.929-2.817 4.626c4.291 5.405 9.047 10.966 16.63 14.289 1.735.761 5.272 1.597 7.433 2.254l-5.443 56.422 59.103.953s9.01-40.145 10.735-65.815l1.053.397c13.794 4.841 28.981-.075 39.418-11.881 8.517-9.634 12.72-40.537 12.72-40.537l-14.117-5.87z"/><path fill="#FF768F" d="M248.466 219.74c-2.161-.657-5.697-1.493-7.433-2.254-7.583-3.323-12.339-8.884-16.63-14.289 1.64-2.697 2.817-4.626 2.817-4.626l21.246 21.169zm64.402-8.383l-38.29 65.505 27.548.253s9.393-43.536 10.742-65.758z" opacity=".2"/><path fill="#F38C84" d="M281.041 152.448l2.402 17.455s-23.064 18.59-21.707 3.642l2.92-20.484 16.385-.613z"/><path fill="#05093D" d="M279.51 134.382l2.021 19.283s-19.195 23.786-17.508.539l4.079-20.375 11.408.553z"/><path fill="#F38C84" stroke="#F38C84" stroke-miterlimit="10" stroke-width="1.13" d="M259.463 142.786l3.332-.938.776 3.97-3.332.938c-1.026.289-2.031-.365-2.245-1.462-.215-1.096.443-2.219 1.469-2.508z"/><path fill="#CA5C3B" d="M259.761 143.79l1.375-.388.32 1.639-1.375.388c-.423.119-.838-.15-.927-.604-.088-.453.184-.916.607-1.035z"/><path fill="#F38C84" stroke="#F38C84" stroke-miterlimit="10" stroke-width="1.13" d="M285.775 141.727l-3.394.462-.28-4.073 3.394-.462c1.045-.143 1.955.654 2.032 1.779.077 1.125-.707 2.152-1.752 2.294z"/><path fill="#CA5C3B" d="M285.635 138.956l-1.403.165.089 1.685 1.403-.165c.432-.051.762-.469.738-.935-.024-.465-.395-.801-.827-.75z"/><path fill="#F38C84" stroke="#F38C84" stroke-miterlimit="10" stroke-width="1.13" d="M272.893 156.775l-.073.019c-8.006.337-11.407-5.053-11.54-11.873l-.01-.521c-.132-6.82 3.569-17.726 9.888-18.223l-.018-.072c6.319-.497 12.883 9.676 13.015 16.496l.01.521c.133 6.82-2.285 13.076-11.272 13.653z"/><path fill="#fff" d="M273.481 152.325h-.009c-2.782.25-5.089-1.494-5.154-3.896l-.009-.328 10.083-.904.009.329c.064 2.401-2.138 4.549-4.92 4.799z"/><path fill="#05093D" d="M269.793 143.078c.364 0 .66-.404.66-.902s-.296-.902-.66-.902c-.365 0-.66.404-.66.902s.295.902.66.902zm5.937-.636c.365 0 .661-.405.661-.905s-.296-.905-.661-.905c-.365 0-.661.405-.661.905s.296.905.661.905z"/><path fill="#CA5C3B" d="M274.24 145.853l-2.343.124c-.289.016-.5-.339-.397-.667l.913-2.925c.116-.372.533-.412.708-.069l1.43 2.801c.16.316-.01.72-.311.736z"/><path fill="#05093D" d="M266.687 139.644c-.65.562.203-1.74 1.132-2.094.931-.352 1.931.014 2.236.816 0 0-1.808-.073-3.368 1.278zm10.863-1.778c.76.4-.593-1.648-1.579-1.779-.986-.133-1.877.451-1.991 1.303-.001 0 1.743-.483 3.57.476z"/><path fill="#05093D" d="M282.406 129.803c-.076-.177-.158-.345-.239-.511.813-.369 1.296-.616 1.296-.616s-.954-13.587-2.502-13.796c-.608-.082-17.262 3.836-21.463 14.886-.114.3-.092.587.03.858a7.845 7.845 0 0 0-.286.675c-.626 1.7-.712 3.566-.462 5.329.119.838 1.64 5.633 2.422 5.709.353.035 2.261-6.167 3.406-9.576 1.909.246 4.152.263 6.406-.039 2.56-.342 5.121-1.092 7.253-1.854 1.607 2.167 5 6.498 5.567 6.52.545.021-.922-6.411-1.428-7.585z"/><path fill="#3A5785" d="M330.457 120.625l.651 2.004c.09.278.35.468.643.468h2.107c.655 0 .928.838.397 1.224l-1.704 1.238a.677.677 0 0 0-.246.756l.651 2.004c.203.623-.511 1.142-1.041.757l-1.705-1.238a.674.674 0 0 0-.795 0l-1.704 1.238c-.53.385-1.244-.134-1.041-.757l.651-2.004a.674.674 0 0 0-.246-.756l-1.705-1.238c-.53-.386-.257-1.224.398-1.224h2.106a.678.678 0 0 0 .644-.468l.651-2.004c.204-.623 1.085-.623 1.288 0zm13.797 0l.651 2.004c.09.278.35.468.643.468h2.107c.655 0 .928.838.397 1.224l-1.704 1.238a.677.677 0 0 0-.246.756l.651 2.004c.203.623-.511 1.142-1.041.757l-1.705-1.238a.674.674 0 0 0-.795 0l-1.705 1.238c-.53.385-1.244-.134-1.041-.757l.651-2.004a.674.674 0 0 0-.246-.756l-1.705-1.238c-.53-.386-.257-1.224.398-1.224h2.106a.678.678 0 0 0 .644-.468l.651-2.004c.205-.623 1.087-.623 1.289 0zm13.798 0l.651 2.004c.09.278.35.468.644.468h2.106c.655 0 .928.838.397 1.224l-1.704 1.238a.677.677 0 0 0-.246.756l.651 2.004c.203.623-.511 1.142-1.041.757l-1.705-1.238a.674.674 0 0 0-.795 0l-1.705 1.238c-.53.385-1.244-.134-1.041-.757l.651-2.004a.677.677 0 0 0-.246-.756l-1.704-1.238c-.53-.386-.258-1.224.397-1.224h2.106a.678.678 0 0 0 .644-.468l.651-2.004c.204-.623 1.086-.623 1.289 0zm13.797 0l.651 2.004c.09.278.35.468.644.468h2.106c.655 0 .928.838.398 1.224l-1.705 1.238a.677.677 0 0 0-.246.756l.651 2.004c.203.623-.511 1.142-1.041.757l-1.705-1.238a.674.674 0 0 0-.795 0l-1.705 1.238c-.53.385-1.244-.134-1.041-.757l.651-2.004a.677.677 0 0 0-.246-.756l-1.704-1.238c-.53-.386-.258-1.224.397-1.224h2.107a.676.676 0 0 0 .643-.468l.651-2.004c.205-.623 1.086-.623 1.289 0z"/><path fill="#CBD9EC" d="M385.645 120.625l.651 2.004a.68.68 0 0 0 .644.468h2.106c.655 0 .928.838.397 1.224l-1.704 1.238a.677.677 0 0 0-.246.756l.651 2.004c.202.623-.511 1.142-1.041.757l-1.704-1.238a.675.675 0 0 0-.796 0l-1.704 1.238c-.53.385-1.243-.134-1.041-.757l.651-2.004a.676.676 0 0 0-.246-.756l-1.704-1.238c-.53-.386-.258-1.224.397-1.224h2.106a.678.678 0 0 0 .644-.468l.651-2.004c.204-.623 1.086-.623 1.288 0z"/><path fill="#fff" d="M397.224 143.168h-74.002a3.524 3.524 0 0 1-3.524-3.524v-1.594a3.525 3.525 0 0 1 3.524-3.525h74.002a3.525 3.525 0 0 1 3.524 3.525v1.594a3.524 3.524 0 0 1-3.524 3.524z"/><path stroke="#fff" stroke-miterlimit="10" stroke-width="3" d="M474.467 152.082h-27.269v27.269h27.269v-27.269z"/><path stroke="#fff" stroke-miterlimit="10" d="M233.037 197.308h239.429"/><path stroke="#fff" stroke-miterlimit="10" stroke-width="3" d="M320.162 154.077h107.744m-107.744 11.971h107.744M320.162 178.02h107.744"/><path fill="#CBD9EC" d="M275.578 287.249c20.069 0 36.337-16.269 36.337-36.337 0-20.068-16.268-36.337-36.337-36.337-20.068 0-36.337 16.269-36.337 36.337 0 20.068 16.269 36.337 36.337 36.337z"/><path fill="#05093D" d="M263.118 232.268c.701-3.44 2.773-9.892 8.336-11.304 5.383-1.367 10.119-1.021 15.356 2.616 10.122 7.029 3.937 43.3 3.937 43.3s-3.816 8.265-31.772-2.53c-.001 0 3.215-27.532 4.143-32.082z"/><path fill="#FBB78B" stroke="#FBB78B" stroke-linecap="round" stroke-linejoin="round" stroke-miterlimit="10" stroke-width="1.204" d="M267.685 245.302s-2.671 20.81-2.935 22.482c0 0 9.019 10.756 18.246 1.506 0 0-1.56-5.046-4.398-18.039l-10.913-5.949z"/><path fill="#05093D" d="M274.976 274.13s-.878 4.412 8.349-4.838c0 0-.758-4.179-1.375-6.533l-6.974 11.371zm4.329-22.693c-.75 2.722-5.401 4.992-7.973 4.447-3.132-.665-4.521-6.247-4.226-8.552.248-1.938 5.612-2.98 8.146-2.281 2.536.699 4.804 3.665 4.053 6.386z"/><path fill="#FBB78B" stroke="#FBB78B" stroke-miterlimit="10" stroke-width="1.171" d="M263.667 234.93l3.611.63-.703 4.027-3.612-.63a2.045 2.045 0 0 1 .704-4.027z"/><path fill="#E6795C" stroke="#E6795C" stroke-miterlimit="10" stroke-width="1.159" d="M263.336 235.976l1.491.26-.29 1.663-1.491-.261a.844.844 0 0 1 .29-1.662z"/><path fill="#FBB78B" stroke="#FBB78B" stroke-miterlimit="10" stroke-width="1.171" d="M287.207 243.38l-3.498-1.101 1.227-3.899 3.498 1.101a2.043 2.043 0 1 1-1.227 3.899z"/><path fill="#E6795C" stroke="#E6795C" stroke-miterlimit="10" stroke-width="1.159" d="M288.14 240.591l-1.436-.479-.534 1.601 1.436.479a.843.843 0 1 0 .534-1.601z"/><path fill="#FBB78B" stroke="#FBB78B" stroke-miterlimit="10" stroke-width="1.171" d="M279.877 226.844c6.492 2.06 9.045 8.818 6.986 15.31l-.157.496c-2.059 6.49-9.034 10.658-14.456 8.843l-.043-.026c-4.23-1.641-9.878-9.59-7.82-16.08l.157-.496c2.06-6.493 8.843-10.106 15.333-8.047z"/><path fill="#fff" d="M273.523 246.761l.476.113c1.68.4 3.367-.637 3.768-2.316l-6.56-1.565a3.128 3.128 0 0 0 2.316 3.768z"/><path fill="#05093D" d="M278.267 239.582c-.361-.086-.746.229-.86.704-.114.475.086.931.447 1.017.361.087.746-.228.86-.703.114-.476-.086-.931-.447-1.018zm-5.024-1.163c-.354-.114-.761.172-.911.638-.15.466.015.935.369 1.049.353.113.761-.172.91-.638.15-.466-.015-.935-.368-1.049z"/><path fill="#EB8383" d="M273.914 242.331l1.708.465c.21.058.425-.178.403-.442l-.192-2.36c-.024-.3-.325-.396-.511-.164l-1.517 1.895c-.17.213-.111.546.109.606z"/><path fill="#05093D" d="M271.244 236.709c-.548.174.585-1.016 1.25-.986.665.03 1.184.52 1.158 1.094.001-.001-1.091-.525-2.408-.108zm9.439 2.213c.407.405-.054-1.172-.659-1.45-.604-.279-1.29-.082-1.53.44 0 0 1.21.035 2.189 1.01zm-8.362-12.796c-4.912 8.139 16.098 13.073 16.098 13.073s3.342-15.803-14.151-16.263c-11.3-.295-1.464 2.39-1.947 3.19z"/><path fill="#05093D" d="M273.815 225.918s-5.078 7.212-6.367 8.442c-1.472 1.405-3.772-.223-3.772-.223s.733-11.263 10.139-8.219z"/><path fill="#FCCC4F" d="M288.654 253.163a4.264 4.264 0 1 0 0-8.528 4.264 4.264 0 0 0 0 8.528z"/><path fill="#FCCC4F" d="M287.998 244.927a.854.854 0 1 0 0-1.708.854.854 0 0 0 0 1.708zm-27.385 3.036a4.265 4.265 0 1 0 0-8.53 4.265 4.265 0 0 0 0 8.53z"/><path fill="#FCCC4F" d="M262.364 240.006a.854.854 0 1 0 0-1.708.854.854 0 0 0 0 1.708zm48.92 51.361l-9.173-22.571c-3.166-4.927-6.07-6.346-10.008-5.8-1.259.175-2.313.536-3.221 1.024l-6.336 1.249c-9.164 6.212-17.311-2.86-17.311-2.86-7.012-5.536-22.006 5.033-22.006 5.033l1.708 9.729s6.458 24.174 6.501 24.99c.399 7.585-.087 20.774.017 20.574.104-.202 40.779 5.231 41.091 4.628.313-.604.368-5.167 1.106-21.774.097-2.183.137-4.343.134-6.467l17.498-7.755z"/><path fill="#fff" d="M271.977 324.348c-7.036-5.676-14.087-11.661-19.128-19.263-2.353-3.547-4.291-7.391-5.49-11.483-.231-.791-1.799-5.533-1.208-6.151 1.114-1.163 4.265 1.053 5.485 1.623 8.439 3.945 15.507 9.04 20.973 16.678 5.425 7.581 10.217 15.947 12.255 25.108.137.616 1.084.355.947-.261-2.283-10.263-7.942-19.936-14.43-28.121-6.68-8.429-15.909-12.879-25.583-17.055-.31-.134-.767.013-.739.425 1.166 17.065 13.663 29.063 26.223 39.194.488.394 1.187-.297.695-.694zm-31.548-69.008c13.039 21.479 28.367 44.494 54.232 51.054.443.112.73-.342.555-.722-5.486-11.863-12.446-22.962-20.861-32.972-8.001-9.518-17.902-20.347-29.433-25.532-.572-.257-1.072.589-.496.849 10.964 4.93 20.417 15.116 28.159 24.113a143.19 143.19 0 0 1 11.387 15.149c3.176 4.869 7.073 10.358 8.984 15.884.538 1.553 1.158 1.438-.332 1.675-1.008.16-2.749-.858-3.754-1.232-3.172-1.182-6.218-2.68-9.13-4.402-5.22-3.088-9.984-6.911-14.286-11.18-9.771-9.696-17.078-21.481-24.178-33.179-.327-.54-1.177-.047-.847.495zm45.332 9.38c3.432 15.464 16.184 28.136 32.857 26.125.62-.074.627-1.058 0-.982-16.262 1.961-28.568-10.347-31.91-25.404-.136-.618-1.083-.356-.947.261z"/><path fill="#3A5785" d="M330.457 224.378l.651 2.004c.09.278.35.467.643.467h2.107c.655 0 .928.839.397 1.225l-1.704 1.238a.677.677 0 0 0-.246.756l.651 2.004c.203.623-.511 1.142-1.041.756l-1.705-1.238a.677.677 0 0 0-.795 0l-1.704 1.238c-.53.386-1.244-.133-1.041-.756l.651-2.004a.674.674 0 0 0-.246-.756l-1.705-1.238c-.53-.386-.257-1.225.398-1.225h2.106a.677.677 0 0 0 .644-.467l.651-2.004c.204-.623 1.085-.623 1.288 0zm13.797 0l.651 2.004c.09.278.35.467.643.467h2.107c.655 0 .928.839.397 1.225l-1.704 1.238a.677.677 0 0 0-.246.756l.651 2.004c.203.623-.511 1.142-1.041.756l-1.705-1.238a.677.677 0 0 0-.795 0l-1.705 1.238c-.53.386-1.244-.133-1.041-.756l.651-2.004a.674.674 0 0 0-.246-.756l-1.705-1.238c-.53-.386-.257-1.225.398-1.225h2.106a.677.677 0 0 0 .644-.467l.651-2.004c.205-.623 1.087-.623 1.289 0zm13.798 0l.651 2.004c.09.278.35.467.644.467h2.106c.655 0 .928.839.397 1.225l-1.704 1.238a.677.677 0 0 0-.246.756l.651 2.004c.203.623-.511 1.142-1.041.756l-1.705-1.238a.677.677 0 0 0-.795 0l-1.705 1.238c-.53.386-1.244-.133-1.041-.756l.651-2.004a.677.677 0 0 0-.246-.756l-1.704-1.238c-.53-.386-.258-1.225.397-1.225h2.106a.677.677 0 0 0 .644-.467l.651-2.004c.204-.623 1.086-.623 1.289 0zm13.797 0l.651 2.004c.09.278.35.467.644.467h2.106c.655 0 .928.839.398 1.225l-1.705 1.238a.677.677 0 0 0-.246.756l.651 2.004c.203.623-.511 1.142-1.041.756l-1.705-1.238a.677.677 0 0 0-.795 0l-1.705 1.238c-.53.386-1.244-.133-1.041-.756l.651-2.004a.677.677 0 0 0-.246-.756l-1.704-1.238c-.53-.386-.258-1.225.397-1.225h2.107a.675.675 0 0 0 .643-.467l.651-2.004c.205-.623 1.086-.623 1.289 0zm13.797 0l.651 2.004a.678.678 0 0 0 .644.467h2.106c.655 0 .928.839.397 1.225l-1.704 1.238a.677.677 0 0 0-.246.756l.651 2.004c.202.623-.511 1.142-1.041.756l-1.704-1.238a.678.678 0 0 0-.796 0l-1.704 1.238c-.53.386-1.243-.133-1.041-.756l.651-2.004a.676.676 0 0 0-.246-.756l-1.704-1.238c-.53-.386-.258-1.225.397-1.225h2.106a.677.677 0 0 0 .644-.467l.651-2.004c.204-.623 1.086-.623 1.288 0z"/><path fill="#fff" d="M397.224 246.921h-74.002a3.524 3.524 0 0 1-3.524-3.525v-1.594a3.524 3.524 0 0 1 3.524-3.524h74.002a3.524 3.524 0 0 1 3.524 3.524v1.594a3.524 3.524 0 0 1-3.524 3.525z"/><path stroke="#fff" stroke-miterlimit="10" stroke-width="3" d="M474.467 255.835h-27.269v27.268h27.269v-27.268z"/><path stroke="#fff" stroke-miterlimit="10" d="M233.037 301.061h239.429"/><path stroke="#fff" stroke-miterlimit="10" stroke-width="3" d="M320.162 257.829h107.744m-107.744 11.973h107.744m-107.744 11.97h107.744"/><path fill="#FCFCFC" d="M275.578 391.667c20.069 0 36.337-16.269 36.337-36.337 0-20.068-16.268-36.337-36.337-36.337-20.068 0-36.337 16.269-36.337 36.337 0 20.068 16.269 36.337 36.337 36.337z"/><path fill="#A34E65" d="M270.375 328.764s-14.481 5.655-18.936 21.342c-4.455 15.687-10.661 29.915-22.141 30.762-11.48.847-23.543 8.95-24.231 11.448-.689 2.497 37.003 56.643 68.422 43.293l4.042-28.538.538 22.199s.992 4.157 12.098-3.143c11.104-7.3 14.524-107.011-19.792-97.363z"/><path fill="#A34E65" d="M278.366 328.529c-7.385-1.646-15.097.007-20.969 4.882-7.038 5.845-8.72 14.941-10.136 23.496-.762 4.604-1.484 9.293-3.22 13.653-2.89 7.258-8.563 10.033-16.158 10.201-9.667.214-18.361-.577-25.164 7.5-.839.997.595 2.445 1.441 1.44 7.709-9.153 17.704-5.683 27.985-7.218 7.577-1.132 11.966-5.794 14.393-12.835 2.865-8.312 2.604-17.393 5.85-25.592 4.062-10.261 14.599-15.979 25.436-13.564 1.278.286 1.823-1.678.542-1.963z"/><path fill="#FBA" stroke="#FBA" stroke-linecap="round" stroke-linejoin="round" stroke-miterlimit="10" stroke-width="1.212" d="M282.258 352.181s2.516 21.711 2.931 23.366c0 0-6.587 7.393-16.144 2.068 0 0 1.046-6.441 2.731-19.729l10.482-5.705z"/><path fill="#05093D" d="M273.133 338.265c-4.183.92-5.66 7.313-4.132 14.261l.117.53c1.524 6.936 5.865 10.479 9.422 10.699 2.857.178 6.013-6.561 4.485-13.509l.351-1.069c-1.528-6.948-6.061-11.831-10.243-10.912z"/><path fill="#FBA" stroke="#FBA" stroke-miterlimit="10" stroke-width="1.179" d="M264.633 350.405l3.497-1.188-1.324-3.898-3.497 1.188a2.058 2.058 0 1 0 1.324 3.898zm23.958-9.687l-3.552 1.01 1.127 3.961 3.552-1.011a2.058 2.058 0 1 0-1.127-3.96z"/><path fill="#F08992" stroke="#F08992" stroke-linecap="round" stroke-linejoin="round" stroke-miterlimit="10" stroke-width="1.175" d="M289.032 341.73l-1.466.417.465 1.635 1.466-.417a.85.85 0 1 0-.465-1.635zm-25.402 5.888l1.435-.515.574 1.601-1.435.514a.85.85 0 1 1-.574-1.6z"/><path fill="#FBA" stroke="#FBA" stroke-miterlimit="10" stroke-width="1.163" d="M273.175 334.062c-6.675 1.575-9.788 8.016-8.256 14.503l.117.496c1.532 6.488 9.713 11.633 14.014 10.467 4.41-1.196 10.482-9.578 8.951-16.065l-.117-.496c-1.532-6.489-8.035-10.482-14.709-8.905z"/><path fill="#fff" d="M277.787 354.036l.491-.131a3.242 3.242 0 0 0 2.302-3.967l-6.76 1.795a3.242 3.242 0 0 0 3.967 2.303z"/><path fill="#05093D" d="M278.612 345.15c-.372.098-.569.575-.44 1.065.129.49.536.808.908.71.372-.098.569-.575.44-1.066-.129-.49-.536-.808-.908-.709zm-5.192 1.403c-.379.07-.611.531-.519 1.029.092.499.474.846.852.776.379-.069.611-.53.519-1.029-.092-.498-.474-.846-.852-.776z"/><path fill="#F08992" d="M275.967 349.8l1.789-.416c.22-.051.3-.371.151-.602l-1.335-2.061c-.17-.262-.493-.202-.548.102l-.452 2.476c-.053.279.165.555.395.501z"/><path fill="#05093D" d="M270.766 345.978c-.416.428.035-1.215.657-1.516.622-.3 1.336-.107 1.595.43 0 0-1.255.058-2.252 1.086zm9.705-2.62c.572.171-.625-1.043-1.314-1-.689.042-1.218.56-1.181 1.154 0 .001 1.123-.562 2.495-.154z"/><path fill="#FF768F" d="M285.409 374.32c-2.198 3.527-9.262 6.419-16.143-3.975 0 0-11.136-7.135-19.188 6.082-7.268 11.929-7.35 12.3-7.35 12.3l15.08 12.918 1.046 28.024 43.237 1.41s-4.604-20.009-3.794-23.247c.135-.542 13.28-22.088 13.28-22.088s-17.242-25.753-26.168-11.424z"/><path fill="#A34E65" d="M263.741 345.385s7.641-2.382 9.434-11.323c0 0 8.135 7.678 14.55 6.293 0 0-6.415-11.81-15.236-8.165-8.821 3.645-8.675 9.039-8.748 13.195z"/><path fill="#3A5785" d="M330.457 328.796l.651 2.004c.09.278.35.467.643.467h2.107c.655 0 .928.839.397 1.225l-1.704 1.238a.677.677 0 0 0-.246.756l.651 2.004c.203.623-.511 1.142-1.041.756l-1.705-1.238a.677.677 0 0 0-.795 0l-1.704 1.238c-.53.386-1.244-.133-1.041-.756l.651-2.004a.674.674 0 0 0-.246-.756l-1.705-1.238c-.53-.386-.257-1.225.398-1.225h2.106a.677.677 0 0 0 .644-.467l.651-2.004c.204-.623 1.085-.623 1.288 0zm13.797 0l.651 2.004c.09.278.35.467.643.467h2.107c.655 0 .928.839.397 1.225l-1.704 1.238a.677.677 0 0 0-.246.756l.651 2.004c.203.623-.511 1.142-1.041.756l-1.705-1.238a.677.677 0 0 0-.795 0l-1.705 1.238c-.53.386-1.244-.133-1.041-.756l.651-2.004a.674.674 0 0 0-.246-.756l-1.705-1.238c-.53-.386-.257-1.225.398-1.225h2.106a.677.677 0 0 0 .644-.467l.651-2.004c.205-.623 1.087-.623 1.289 0zm13.798 0l.651 2.004c.09.278.35.467.644.467h2.106c.655 0 .928.839.397 1.225l-1.704 1.238a.677.677 0 0 0-.246.756l.651 2.004c.203.623-.511 1.142-1.041.756l-1.705-1.238a.677.677 0 0 0-.795 0l-1.705 1.238c-.53.386-1.244-.133-1.041-.756l.651-2.004a.677.677 0 0 0-.246-.756l-1.704-1.238c-.53-.386-.258-1.225.397-1.225h2.106a.677.677 0 0 0 .644-.467l.651-2.004c.204-.623 1.086-.623 1.289 0z"/><path fill="#CBD9EC" d="M371.849 328.796l.651 2.004c.09.278.35.467.644.467h2.106c.655 0 .928.839.398 1.225l-1.705 1.238a.677.677 0 0 0-.246.756l.651 2.004c.203.623-.511 1.142-1.041.756l-1.705-1.238a.677.677 0 0 0-.795 0l-1.705 1.238c-.53.386-1.244-.133-1.041-.756l.651-2.004a.677.677 0 0 0-.246-.756l-1.704-1.238c-.53-.386-.258-1.225.397-1.225h2.107a.675.675 0 0 0 .643-.467l.651-2.004c.205-.623 1.086-.623 1.289 0zm13.797 0l.651 2.004a.678.678 0 0 0 .644.467h2.106c.655 0 .928.839.397 1.225l-1.704 1.238a.677.677 0 0 0-.246.756l.651 2.004c.202.623-.511 1.142-1.041.756l-1.704-1.238a.678.678 0 0 0-.796 0l-1.704 1.238c-.53.386-1.243-.133-1.041-.756l.651-2.004a.676.676 0 0 0-.246-.756l-1.704-1.238c-.53-.386-.258-1.225.397-1.225h2.106a.677.677 0 0 0 .644-.467l.651-2.004c.204-.623 1.086-.623 1.288 0z"/><path fill="#fff" d="M397.224 351.339h-74.002a3.524 3.524 0 0 1-3.524-3.525v-1.594a3.524 3.524 0 0 1 3.524-3.524h74.002a3.524 3.524 0 0 1 3.524 3.524v1.594a3.524 3.524 0 0 1-3.524 3.525z"/><path stroke="#fff" stroke-miterlimit="10" stroke-width="3" d="M474.467 360.253h-27.269v27.268h27.269v-27.268z"/><path stroke="#fff" stroke-miterlimit="10" d="M233.037 405.478h239.429"/><path stroke="#fff" stroke-miterlimit="10" stroke-width="3" d="M320.162 362.247h107.744M320.162 374.22h107.744m-107.744 11.97h107.744"/><path fill="#CEDDF4" d="M249.331 436.737c9.367 0 22.945-12.582 22.945-21.948H530.66s-.998 21.948-25.938 21.948H249.331z"/><path fill="#020F2B" d="M584.694 255.655l-18.486-79.618c-.26-2.079 3.503-7.058 5.326-8.102 4.992-2.86 11.157-3.271 16.791-2.101 18.364 3.814 33.972 77.231 30.905 75.463 0 0-27.56 14.393-36.477 8.537"/><path fill="#F1ABA5" d="M586.161 182.94a.487.487 0 0 0 .488.504c1.158-.005 3.831-.252 4.208 2.777.382 3.063-2.536 4.786-4.292 4.883-.507.027-1.677.131-2.021.504-1.056 1.149-1.552 3.66-2.365 6.789-1.795 6.911 3.634 10.067 3.634 10.067s-18.103 8.9-17.935-.021c0 0 1.432-16.413 1.347-16.498-1.413-1.413-6.901-2.02-3.45-13.72 3.196-10.838 11.148-10.066 13.169-9.708 1.706.302 7.627.673 7.217 14.423z"/><path fill="#020F2B" d="M573.35 167.452s11.11 14.689 13.046 15.908c0 0 7.575-17.928-13.046-15.908z"/><path fill="#EC7165" d="M589.542 187.101s-1.82-3.84-4.13 1.305l4.13-1.305z"/><path fill="#F79288" d="M576.036 188.392a2.72 2.72 0 1 0 0-5.44 2.72 2.72 0 0 0 0 5.44zm-11.272-4.424a2.72 2.72 0 0 0 .91-5.01s-1.162 3.009-.91 5.01z"/><path fill="#fff" d="M567.053 182.566l4.146 2.065s-2.029 1.476-3.125.668c-1.095-.806-1.021-2.733-1.021-2.733z"/><path fill="#EC7165" d="M570.227 179.556l-.655 2.96-1.44-.637a.382.382 0 0 1-.079-.653l2.174-1.67z"/><path fill="#000" d="M575.548 178.446c.359.502.151-1.252-.44-1.655s-1.353-.316-1.7.194c0 0 1.276.253 2.14 1.461zm-7.82-2.96c-.595.167.665-1.071 1.378-1.016.714.056 1.254.6 1.206 1.216 0 .001-1.154-.601-2.584-.2zm4.613 5.84c.24.096.597-.227.797-.723.199-.496.167-.976-.074-1.073-.24-.097-.597.227-.796.723-.2.495-.167.976.073 1.073zm-3.778-1.861c.229.093.57-.216.761-.689.19-.474.159-.932-.071-1.025-.229-.092-.57.216-.761.69-.19.473-.159.932.071 1.024zm.662 12.48s5.168.987 7.777.819c2.609-.168-10.453 14.834-7.777-.819z"/><path fill="#839DC9" d="M605.688 456.883c29.803 0 53.963-1.39 53.963-3.104 0-1.714-24.16-3.104-53.963-3.104s-53.963 1.39-53.963 3.104c0 1.714 24.16 3.104 53.963 3.104z"/><path fill="#F1A9A5" d="M572.061 430.809l-1.88 13.351s-3.016 8.854-5.815 5.426c-2.799-3.428-5.571-5.238-5.571-5.238l-.919-13.88 14.185.341z"/><path fill="#F79288" d="M564.733 431.309l-.484 18.157s8.861 1.331 5.568-4.6l1.938-12.59-7.022-.967z"/><path fill="#F1A9A5" d="M616.681 429.783l4.154 13.317s3.161 2.771 4.303 2.701c2.076-.131 3.165-3.713 3.165-3.713l.342-12.306h-11.964v.001z"/><path fill="#F79288" d="M622.666 426.224l2.905 22.031s5.956 1.573 2.663-4.357l.727-16.947-6.295-.727z"/><path fill="#FF6E95" d="M557.872 444.277l-11.181 9.063c-.571.425-.163 1.14.654 1.146l16.504.134c.398.004.754-.178.887-.449l1.244-2.553c.36-.736 1.076-.797 1.011-.016l.609 2.464c-.032.389 3.913.282 3.948-.071.217-2.19-.24-9.354-.633-11.35-.057-.286-.35-.515-.739-.571l-.002-.001c-.351-.051-.709.047-.923.254-1.113 1.078-4.676 4.321-6.574 3.665-1.272-.44-2.92-1.228-3.435-1.682-.347-.305-.989-.317-1.37-.033zm70.585-2.65l6.349 10.635c.679 1.034.301 2.269-.924 2.997-1.985 1.182-3.607 3.539-4.856 3.573-2.258.063-5.766-2.313-7.811-3.206-1.372-.598-2.447-1.475-2.277-2.622l1.578-10.667c.02-.132.252-.18.367-.076l2.431 2.203c.797.723 2.958.625 3.494-.238.384-.617 1.282-2.607 1.282-2.607.08-.106.295-.101.367.008z"/><path fill="#2D4773" d="M594.783 254.357c5.126 9.062 7.835 15.699 10.78 27.22 3.416 13.361 40.384 126.377 41.995 150.68-4.21 1.015-32.171.867-34.831.72-8.464-24.255-29.877-103.028-33.506-118.308-.559-2.35-4.188-1.834-3.904.564 2.061 17.449 13.158 90.944 18.689 117.786-2.208 1.124-34.265.874-36.814.555-2.773-29.929-17.493-143.228 4.728-179.953 10.161-1.401 22.56.43 32.863.736z"/><path stroke="#fff" stroke-miterlimit="10" stroke-width=".396" d="M563.246 257.6s-9.051 22.397-9.051 54.009c0 31.612 10.361 111.691 10.361 111.691m61.362 0l-36.147-166.732m-6.335.884s.307 28.955 13.303 26.672"/><path fill="#000" d="M562.066 258.189L603.9 289.69s1.747-17-5.686-30.953l-36.148-.548z" opacity=".21"/><path stroke="#fff" stroke-miterlimit="10" stroke-width=".396" d="M556.467 285.452c12.995 2.283 10.905-26.525 10.905-26.525"/><path fill="#C20034" d="M581.513 204.916s2.651-.766 2.212-.202c-.438.564-1.38 1.191-2.321 1.818l.109-1.616z"/><path stroke="#fff" stroke-miterlimit="10" stroke-width=".396" d="M592.067 423.471l-36.115.005m90.442-.318l-37.313.318"/><path fill="#D15449" d="M607.22 308.673c0-.223.222-2.587.222-2.587l-1.071 3.399.849-.812zm-6.706 3.362l-.748.581s.775 1.414 1.108 1.303c.001 0-.554-.665-.36-1.884z"/><path fill="#F1ABA5" d="M521.807 229.339s27.345 37.92 33.753 33.399c0 0 7.351-5.188 3.654-26.374-.007-2.058-.018-3.484.056-3.807 0 0 1.589-20.916 5.027-25.248.377-.475 1.517-1.359 1.365-1.397-10.501-2.625-14.518 23.772-17.413 35.984-.12.506-20.163-19.013-20.163-19.013S517.587 209 516.855 209.794c-1.061 1.149 3.007 7.34 3.007 7.34s-.265.708-1.061 1.062c-.797.354-1.238.885-1.504 1.945-.266 1.062-1.326 1.681-1.503 2.299-.177.62 3.773 5.278 6.013 6.899z"/><path fill="#F1ABA5" d="M527.733 222.795s-2.123-6.014-3.007-5.837c-.885.177-4.775 1.857-4.688 3.36.089 1.504 3.449.266 3.449.266s-.619 3.36 1.062 3.803c1.68.442 3.184-1.592 3.184-1.592z"/><path fill="#F79288" d="M522.515 220.318s.089 1.504-1.149 1.769c0 0-.266 1.592-1.857 1.238 0 0 .442.707-.53.885-.001 0 4.155 4.51 3.536-3.892z"/><path fill="#EC7165" d="M523.323 217.423c-.729.53-1.483.989-2.242 1.438-.355.241-.813.417-1.092.653-.145.115-.253.255-.271.349-.016.091.002.155.106.256.209.214.627.396 1.005.479.396.098.82.108 1.254.147.206.046.438-.066.802.193.18.17.145.422.113.521l-.086.323c-.138.425-.252.854-.409 1.274l-.039-.007.241-1.307c.017-.207.151-.463.005-.611-.164-.125-.41-.067-.626-.077-.869.002-1.831-.053-2.542-.654-.169-.155-.263-.413-.191-.642.068-.229.24-.396.415-.533.363-.271.779-.426 1.169-.639l2.37-1.2.018.037zm-3.534-.479c.218.02.38.091.533.169.154.079.266.195.399.293.093.134.21.245.283.397.073.152.139.311.149.521l-.029.026a27.307 27.307 0 0 1-1.365-1.379l.03-.027z"/><path fill="#EC7165" d="M517.993 219.178c.409.259.77.544 1.137.818.367.273.708.57 1.082.826.336.293.725.567 1.061.827.165.126.34.224.524.255.19.051.401.026.596-.105l.032.023c-.313.409-.916.333-1.301.099a11.218 11.218 0 0 1-1.156-.783 13.89 13.89 0 0 1-2.005-1.934l.03-.026zm3.464 2.913c.025.527.005 1.184-.594 1.625-.287.217-.692.223-1.002.146a2.575 2.575 0 0 1-.836-.39 6.884 6.884 0 0 1-1.155-1.213c-.323-.438-.626-.891-.854-1.397l.031-.024c.338.416.689.819 1.052 1.213.365.39.729.787 1.159 1.099.408.304.975.564 1.452.296.468-.27.604-.854.707-1.361l.04.006z"/><path fill="#EC7165" d="M519.617 223.06c.098.343.07.703-.029 1.047-.056.172-.106.354-.265.537-.065.087-.266.189-.34.207-.099.034-.2.057-.301.071-.4.087-.804-.111-1.075-.214-.136-.078-.3-.145-.471-.27a.96.96 0 0 1-.296-.48l.03-.027c.205.268.507.386.832.453.313.104.627.184.948.162.156-.017.328-.036.435-.146.11-.11.189-.255.256-.401.128-.296.227-.616.235-.938l.041-.001z"/><path fill="#FF6B82" d="M565.663 205.912s-6.801-.952-9.513 4.59c-2.712 5.542-8.726 30.304-8.726 30.304L530.68 224.77l-6.484 11.792s23.818 30.067 30.657 27.945c6.839-2.123 10.888-51.039 10.81-58.595z"/><path fill="#FF6B82" d="M564.57 207.081c.296.717-8.427 21.507-8.074 28.542.354 7.089 5.195 19.014 4.818 20.08 0 0 5.5 4.338 35.838-.439 9.326-8.159 1.132-35.894-2.001-44.675 0 0-5.971-2.987-8.542-3.177 0 0-10.073 3.22-22.039-.331z"/><path fill="#FFEBF1" d="M586.685 207.38l-4.297-5.62s-5.12 3.639-12.806 6.324l.133 2.013c.26 3.962 4.598 6.268 8.023 4.262 3.573-2.09 7.399-4.691 8.947-6.979z"/><path fill="#FFEBF1" d="M568.551 201.452s-1.283 4.869 1.135 6.728l-.693 1.687c-.804 2.323-4.234 1.921-4.441-.528-.081-.962-.077-1.842.063-2.528l3.936-5.359z"/><path fill="#FFC557" d="M590.174 318.709l39.198-25.116-16.266-25.386-33.862 21.697a6.337 6.337 0 0 0-1.917 8.755l12.847 20.05z"/><path fill="#4E7A8F" d="M604.073 273.201s6.319 2.934 1.436 20.849c-.258.948-.48 2.028-.289 2.992l1.098 7.699c.163.824.275 1.931-.424 2.396-.876.583-5.865 5.168-6.472 5.37-1.232.411.111-5.675-.089-8.882-.036-.57-.173 2.03-.249 3.168l-.151 2.503c-1.491-.683-1.461-3.558-1.693-4.525-.313-1.298-.059-2.13.092-2.444.682-1.418 1.979-4.238 2.182-6.77.119-1.49-.924-7.021-1.788-17.322l6.347-5.034z" opacity=".6"/><path fill="#F1ABA5" d="M604.877 229.6c11.716 65.432 4.105 77.857 3.339 78.368-.96.639-6.428 5.664-7.093 5.886-1.351.45.122-6.22-.098-9.734-.039-.626-.188 2.225-.272 3.472l-.166 2.743c-1.635-.748-1.602-3.898-1.856-4.96-.342-1.423-.063-2.335.102-2.679.746-1.556 2.169-4.646 2.391-7.42.13-1.633-10.973-54.772-12.925-62.581-2.652-10.61.687-22.798 4.421-23.211 4.635-.512 11.188 14.697 12.157 20.116z"/><path fill="#FF6B82" d="M613.102 291.509c-.471-2.004 2.05-40.176-6.463-65.148-3.806-11.162-9.284-17.389-13.92-16.877-3.734.413-7.073 12.601-4.421 23.211 1.952 7.809 6.056 42.66 9.476 60.466l15.328-1.652z"/><path fill="#FFC557" d="M597.618 157.288l7.803-7.803h29.384c5.98 0 10.829-4.848 10.829-10.828v-2.35c0-5.98-4.849-10.829-10.829-10.829h-26.357c-5.98 0-10.829 4.849-10.829 10.829v20.981h-.001z"/><path fill="#FAFAFA" d="M632.729 139.884a2.7 2.7 0 1 0 0-5.401 2.7 2.7 0 0 0 0 5.401zm-9.903 0a2.7 2.7 0 1 0 0-5.4 2.7 2.7 0 0 0 0 5.4zm-9.903 0a2.701 2.701 0 1 0 0-5.403 2.701 2.701 0 0 0 0 5.403z"/><path fill="#839DC9" d="M127.571 439.454c34.719 0 62.864-1.619 62.864-3.617s-28.145-3.617-62.864-3.617c-34.719 0-62.864 1.619-62.864 3.617s28.145 3.617 62.864 3.617z"/><path fill="#F0A5A9" d="M182.837 425.764l-1.925-3.806-11.473.414-.257 3.392 5.39 9.352 9.703-7.482-1.438-1.87z"/><path fill="#E6777D" d="M175.839 422.34l-.482 8.835s-2.98-1.691-6.464-4.813l.479-5.003 6.467.981z"/><path fill="#2D4773" d="M183.53 425.633s-3.37-.065-7.292 2.91c-2.334 1.771-5.861-1.882-6.942-2.825-.22-.192-.519-.021-.556.32l-1.356 12.351h34.14c.397 0 .719-.419.719-.935v-2.6c0-.402-.198-.76-.491-.887l-18.222-8.334z"/><path stroke="#fff" stroke-miterlimit="10" stroke-width=".485" d="M185.449 426.28l-5.496 3.18m7.891-1.953l-5.496 3.18"/><path fill="#F0A5A9" d="M127.214 425.764l-1.926-3.806-10.528-1.58-1.202 5.386 5.391 9.352 9.702-7.482-1.437-1.87z"/><path fill="#E6777D" d="M119.071 422.095l.956 8.345s-2.98-1.691-6.464-4.813l.958-4.268 4.55.736z"/><path fill="#2D4773" d="M127.907 425.633s-3.37-.065-7.292 2.91c-2.334 1.771-5.861-1.882-6.942-2.825-.22-.192-.519-.021-.556.32l-1.356 12.351h34.14c.397 0 .719-.419.719-.935v-2.6c0-.402-.198-.76-.491-.887l-18.222-8.334z"/><path stroke="#fff" stroke-miterlimit="10" stroke-width=".485" d="M130.597 426.526l-5.496 3.179m7.892-1.953l-5.496 3.179"/><path fill="#020F2B" d="M168.727 147.138c2.371-3.778 3.151-9.424-.995-11.941-2.16-1.312-4.965-1.01-6.894.589-.894.741-1.563 1.677-2.106 2.698-.844-1.185-2.084-1.997-3.629-1.965-1.321.027-2.86 1.043-3.835 2.366-1.325-.415-2.846-.454-3.981-.169-2.932.738-3.454 4.588-1.834 6.847-2.088 2.796-2.683 6.71.284 16.468l.031.104 4.037 2.174.119-.23.118-.23-.314-.168 4.023-13.009c.52-.361 3.859-2.574 5.61-1.216 1.78 1.381 3.815 2.707 5.407 2.073.708-.281 1.347-.985 1.815-1.63 1.014-.621 1.703-1.611 2.144-2.761zm-1.765-10.593c1.547.932 2.174 2.435 2.212 4.084-.696-3.247-3.763-4.822-6.844-3.992 1.398-.854 3.147-.988 4.632-.092zm-19.874 25.577a4.284 4.284 0 0 1 1.766 1.086l-.876-.473-.89-.613z"/><path fill="#D15868" d="M180.706 276.277s4.391 52.52 4.803 67.03c.413 14.51-2.5 79.201-2.5 79.201l-18.264.322s-12.759-108.525-30.499-143.522l46.46-3.031z"/><path stroke="#fff" stroke-miterlimit="10" stroke-width=".485" d="M158.555 279.05s12.493 60.672 12.493 69.988c0 9.315 1.844 73.331 1.844 73.331m-9.08-6.603h19.355"/><path fill="#FF6B82" d="M180.744 276.277s-10.152 43.779-20.463 74.752c-8.333 25.029-26.788 72.959-26.788 72.959l-20.481-.51 17.788-71.705a62.39 62.39 0 0 0 1.787-11.407c.915-14.544-2.075-43.934-3.325-62.765l51.482-1.324z"/><path stroke="#020F2B" stroke-miterlimit="10" stroke-width=".485" d="M145.173 277.093s4.797 56.746.485 65.571c-4.311 8.825-25.336 80.684-25.336 80.684m-5.258-6.359h20.551m26.763-140.385l-15.294 20.055"/><path fill="#F0A5A9" d="M156.197 193.648s-.581-4.712 3.776-5.397c4.357-.685 16.102-3.799 45.96 6.397 0 0 5.172-28.911 5.223-31.25.131-6.086 2.061-13.987 6.771-18.159.386-.342.666 15.094.835 23.33 0 0 3.975 41.473-.873 45.641-4.847 4.169-66.513-6.353-61.692-20.562z"/><path fill="#2D4773" d="M165.025 186.476s-16.853-2.797-16.362 10.345c.49 13.142 33.327 22.059 42.251 19.925l-2.764-29.191-23.125-1.079z"/><path fill="#020F2B" stroke="#020F2B" stroke-miterlimit="10" stroke-width=".514" d="M190.785 216.32c-2.62 3.144-28.26-3.455-31.072-7.736 0 0-.438-14.352.654-14.647 11.132-3.018 30.418 22.383 30.418 22.383z"/><path fill="#2D4773" d="M141.053 184.99s-22.934 2.342-24.378 21.334c-1.444 18.991 10.417 71.591 10.417 71.591l57.446-1.828-3.139-65.273a27.67 27.67 0 0 0-4.322-13.585c-2.398-3.743-5.206-7.988-6.801-8.188l-25.717-6.612-3.506 2.561z"/><path fill="#263C61" d="M136.317 192.138c-13.934-5.589-18.92 4.69-19.642 14.187-1.444 18.991 10.417 71.591 10.417 71.591l57.446-1.828"/><path fill="#fff" d="M166.674 251.179c.13 1.001-.029 1.848-.355 1.893-.326.044-.695-.731-.825-1.732s.03-1.848.356-1.893c.326-.045.695.732.824 1.732z"/><path fill="#F0A5A9" d="M148.273 167.812l-1.341 12.91 13.305 11.097 1.96-5.762-1.032-10.669-10.726-9.71s-1.65 1.174-1.856 1.601c-.207.426-.31.533-.31.533z"/><path fill="#020F2B" d="M150.439 165.678l10.726 9.71.758 6.347s-9.737-2.682-10.076-10.729"/><path fill="#fff" d="M162.21 200.151c.129 1-.03 1.848-.355 1.892-.326.044-.695-.731-.825-1.731-.13-1.001.029-1.848.355-1.893.326-.044.695.731.825 1.732zm.893 10.205c.13 1.001-.029 1.848-.355 1.893-.326.044-.695-.731-.825-1.732-.129-1.001.03-1.848.355-1.892.326-.044.695.731.825 1.731zm.893 10.207c.13 1.001-.029 1.848-.355 1.892-.326.045-.695-.73-.825-1.732-.129-1 .03-1.848.355-1.892.326-.045.695.731.825 1.732zm.893 10.205c.129 1.001-.03 1.849-.355 1.892-.326.045-.695-.73-.825-1.731-.13-1.001.03-1.848.355-1.892.326-.046.695.73.825 1.731zm.893 10.206c.129 1-.03 1.848-.356 1.892-.326.044-.695-.731-.825-1.731-.129-1.001.03-1.849.356-1.893.326-.045.695.731.825 1.732zm1.785 20.41c.129 1.002-.03 1.849-.355 1.893-.326.044-.695-.731-.825-1.732-.129-1 .03-1.848.355-1.892.327-.045.696.731.825 1.731zm.893 10.206c.129 1.001-.03 1.848-.355 1.892-.326.045-.695-.73-.825-1.731-.13-1.001.029-1.848.355-1.892.326-.046.696.73.825 1.731zm-21.94-91.828l-7.089 3.305 17.712 15.046 3.094-6.295-13.717-12.056zm15.677 4.908c.309.106 3.094 2.027 3.094 2.027l.104 9.495-5.157-4.374 1.959-7.148z"/><path fill="#2D4773" d="M177.765 250.546l12.784-40.117c.708-2.223 2.316-4.019 4.404-4.921l26.177-11.307c.775-.335 1.569.434 1.299 1.256l-12.917 39.302c-.695 2.116-2.207 3.838-4.175 4.758l-26.244 12.264c-.774.362-1.594-.401-1.328-1.235z"/><path fill="#fff" d="M179.962 252.895l12.784-40.116c.709-2.224 2.316-4.02 4.404-4.922l26.176-11.306c.775-.335 1.57.433 1.299 1.256l-12.917 39.302c-.695 2.115-2.207 3.838-4.175 4.758L181.29 254.13c-.773.361-1.593-.401-1.328-1.235z"/><path fill="#020F2B" d="M186.511 223.53l9.638 2.856-12.174 4.932 2.536-7.788z"/><path stroke="#1D254A" stroke-miterlimit="10" stroke-width=".514" d="M197.84 214.964l22.658-9.692m-22.658 13.961l18.713-7.73"/><path fill="#FFC557" d="M187.694 243.347l24.237-10.615-1.578 5.077-24.687 11.076 2.028-5.538z"/><path fill="#F0A5A9" d="M196.253 230.593c-1.415 1.27-26.821 27.328-39.002 39.068-3.285 3.166-8.55 2.391-10.856-1.595L125 232.209l20.273-15.729c.144.223 10.738 18.23 13.178 27.264.803 2.972 2.193 2.744 4.604 1.268l18.5-11.404s-.031-3.233.38-4.456c.782-2.325 4.491-5.446 4.491-5.446l-1.606 4.932c-.289.832-1.237 1.432.258 1.611l11.748-8.707s1.071-.086.056 1.067c-1.015 1.154-2.114 2.365-1.973 2.452.141.086 3.354-2.163 3.494-1.298.141.865-2.621 2.942-2.508 3.028.113.087 3.128-2.394 3.297-1.586.169.808-2.114 2.365-2.227 2.682-.113.317 2.48-1.672 2.593-1.24.114.432-2.495 3.218-3.305 3.946z"/><path fill="#2D4773" d="M139.907 200.538s-5.775-16.218-16.915-9.39c-11.139 6.829-2.888 40.118 3.3 46.946l23.928-16.645-10.313-20.911z"/><path fill="#F0A5A9" d="M149.397 162.08a.49.49 0 0 1-.807.189c-.874-.857-2.612-2.033-3.235 1.381-.848 4.636 3.99 3.839 4.376 4.463.782 1.266 3.289 5.518 7.027 7.168 2.278 1.006 5.652 1.165 8.14-1.224 2.488-2.389 3.602-.754 2.558-26.293 0 0-1.14 2.199-2.778 2.767-1.639.566-4.266-1.706-6.132-2.228-1.516-.423-4.455-1.534-6.25 3.739-.826 2.423-2.139 8.029-2.899 10.038z"/><path stroke="#1D254A" stroke-miterlimit="10" stroke-width=".328" d="M166.603 160.546s-.411-2.146-1.313.076m-5.996.055l-11.573.309s-2.225-.222-2.775 1.737"/><path stroke="#1D254A" stroke-miterlimit="10" stroke-width=".336" d="M168.334 163.635c.99 0 1.792-1.841 1.792-4.113 0-2.271-.802-4.113-1.792-4.113s-1.792 1.842-1.792 4.113c0 2.272.802 4.113 1.792 4.113z"/><path stroke="#1D254A" stroke-miterlimit="10" stroke-width=".328" d="M162.241 164.941c1.672 0 3.027-2.208 3.027-4.932s-1.355-4.932-3.027-4.932c-1.672 0-3.027 2.208-3.027 4.932s1.355 4.932 3.027 4.932z"/><path fill="#fff" d="M167.371 166.142s-1.5.747-5.167.402c0 0 1.973 2.673 3.417 2.155 1.444-.516 1.75-2.557 1.75-2.557z"/><path fill="#E6777D" d="M146.08 163.306l2.555 1.926c0-.001-.953-4.66-2.555-1.926z"/><path fill="#020F2B" d="M163.882 161.737c.272 0 .493-.453.493-1.011 0-.558-.221-1.011-.493-1.011-.273 0-.493.453-.493 1.011 0 .558.22 1.011.493 1.011zm3.212-.496c.272 0 .493-.452.493-1.01s-.221-1.01-.493-1.01c-.273 0-.493.452-.493 1.01s.22 1.01.493 1.01zm-6.87-4.869c-.731.512.413-1.799 1.407-2.057.994-.257 1.976.247 2.193 1.126-.001 0-1.844-.295-3.6.931zm7.514-.245c-1.048-.137-1.8.05-1.8.05.136-.832.909-1.415 1.819-1.438"/><path fill="#E6777D" d="M166.076 160.202l1.504 4.279c.024.07-.02.146-.088.15l-1.776.135c-.062.005-.113-.051-.108-.118l.271-4.413c.007-.119.158-.143.197-.033z"/><path fill="#FF6B82" d="M135.259 132.65l-7.816-7.815H98.008c-5.99 0-10.848-4.857-10.848-10.849v-2.353c0-5.992 4.856-10.849 10.848-10.849h26.402c5.991 0 10.848 4.856 10.848 10.849v21.017h.001z"/><path fill="#FAFAFA" d="M100.087 115.215a2.706 2.706 0 1 0 0-5.412 2.706 2.706 0 0 0 0 5.412zm9.92 0a2.706 2.706 0 1 0 0-5.412 2.706 2.706 0 0 0 0 5.412zm9.92 0a2.706 2.706 0 1 0 0-5.412 2.706 2.706 0 0 0 0 5.412z"/><path fill="#DAE5F7" d="M674.718 292.434c12.792 0 23.163-10.371 23.163-23.163 0-12.793-10.371-23.163-23.163-23.163-12.793 0-23.163 10.37-23.163 23.163 0 12.792 10.37 23.163 23.163 23.163z"/><path fill="#839DC9" d="M682.646 292.374H651.36a3.72 3.72 0 0 1-3.721-3.722v-40.505a3.72 3.72 0 0 1 3.721-3.721h31.286a3.721 3.721 0 0 1 3.721 3.721v40.505a3.721 3.721 0 0 1-3.721 3.722z"/><path fill="#fff" stroke="#fff" stroke-miterlimit="10" stroke-width=".161" d="M677.34 288.439h-23.361c-.854 0-1.545-.67-1.545-1.496v-37.251c0-.826.691-1.496 1.545-1.496h26.708c.854 0 1.545.67 1.545 1.496v34.011l-4.892 4.736z"/><path fill="#D8CFCE" d="M681.675 283.491l-4.819 4.819-.115-3.064a1.803 1.803 0 0 1 1.87-1.87l3.064.115z"/><path fill="#839DC9" d="M656.506 249.292a1.509 1.509 0 0 1-1.509-1.508v-4.627a1.51 1.51 0 0 1 3.018 0v4.627c0 .833-.676 1.508-1.509 1.508z"/><path fill="#839DC9" d="M656.506 251.304a1.509 1.509 0 0 1-1.509-1.508v-4.627a1.51 1.51 0 0 1 3.018 0v4.627c0 .833-.676 1.508-1.509 1.508z" opacity=".37"/><path fill="#839DC9" d="M666.161 249.292a1.509 1.509 0 0 1-1.509-1.508v-4.627a1.51 1.51 0 0 1 3.018 0v4.627a1.51 1.51 0 0 1-1.509 1.508z"/><path fill="#839DC9" d="M666.161 251.304a1.509 1.509 0 0 1-1.509-1.508v-4.627a1.51 1.51 0 0 1 3.018 0v4.627a1.51 1.51 0 0 1-1.509 1.508z" opacity=".37"/><path fill="#839DC9" d="M675.817 249.292a1.509 1.509 0 0 1-1.509-1.508v-4.627a1.51 1.51 0 0 1 3.018 0v4.627c0 .833-.676 1.508-1.509 1.508z"/><path fill="#839DC9" d="M675.817 251.304a1.509 1.509 0 0 1-1.509-1.508v-4.627a1.51 1.51 0 0 1 3.018 0v4.627c0 .833-.676 1.508-1.509 1.508z" opacity=".37"/><path stroke="#7289B5" stroke-miterlimit="10" stroke-width="1.03" d="M656.997 269.746a1.597 1.597 0 1 0 .001-3.195 1.597 1.597 0 0 0-.001 3.195zm0 6.851a1.597 1.597 0 1 0 .001-3.195 1.597 1.597 0 0 0-.001 3.195zm0 6.85a1.597 1.597 0 1 0 .001-3.195 1.597 1.597 0 0 0-.001 3.195z"/><path fill="#7289B5" d="M675.468 268.661h-12.874a.652.652 0 0 1-.653-.652v-.002c0-.36.292-.653.653-.653h12.874c.361 0 .653.293.653.653v.002a.651.651 0 0 1-.653.652zm0 7.041h-12.874a.653.653 0 0 1 0-1.307h12.874a.653.653 0 1 1 0 1.307zm0 7.04h-12.874a.653.653 0 0 1-.653-.653v-.001c0-.361.292-.653.653-.653h12.874c.361 0 .653.292.653.653v.001a.652.652 0 0 1-.653.653z"/><path fill="#1B1A4D" stroke="#1B1A4D" stroke-linecap="round" stroke-linejoin="round" stroke-miterlimit="10" stroke-width=".772" d="M657.062 268.801a.361.361 0 0 1-.274-.131l-1.679-1.93a.495.495 0 0 1 0-.63.353.353 0 0 1 .548 0l1.405 1.615 2.438-2.804a.353.353 0 0 1 .548 0 .495.495 0 0 1 0 .63l-2.713 3.118a.357.357 0 0 1-.273.132zm0 6.87a.361.361 0 0 1-.274-.131l-1.679-1.93a.495.495 0 0 1 0-.63.353.353 0 0 1 .548 0l1.405 1.615 2.438-2.804a.353.353 0 0 1 .548 0 .495.495 0 0 1 0 .631l-2.713 3.117a.357.357 0 0 1-.273.132z"/><path fill="#fff" d="M679.14 279.799c6.176 0 11.184-5.007 11.184-11.184s-5.008-11.184-11.184-11.184c-6.177 0-11.184 5.007-11.184 11.184s5.007 11.184 11.184 11.184z" opacity=".74"/><path stroke="#FFD375" stroke-miterlimit="10" stroke-width="2.783" d="M679.14 279.799c6.176 0 11.184-5.007 11.184-11.184s-5.008-11.184-11.184-11.184c-6.177 0-11.184 5.007-11.184 11.184s5.007 11.184 11.184 11.184z"/><path stroke="#FFD375" stroke-linecap="round" stroke-miterlimit="10" stroke-width="3.738" d="M687.323 277.005l8.7 7.873"/><path fill="#B4CEF7" d="M639.542 199.524c9.615 0 17.41-7.795 17.41-17.41s-7.795-17.41-17.41-17.41-17.41 7.795-17.41 17.41 7.795 17.41 17.41 17.41z"/><path stroke="#fff" stroke-miterlimit="10" stroke-width=".7" d="M637.681 185.438h-6.296v6.295h6.296v-6.295z"/><path stroke="#fff" stroke-linecap="round" stroke-miterlimit="10" stroke-width=".7" d="M632.685 187.764l1.13 2.053 6.058-6.777"/><path stroke="#fff" stroke-miterlimit="10" stroke-width=".7" d="M637.681 172.86h-6.296v6.295h6.296v-6.295z"/><path stroke="#fff" stroke-linecap="round" stroke-miterlimit="10" stroke-width=".7" d="M632.685 175.187l1.13 2.052 6.058-6.776"/><path fill="#fff" stroke="#fff" stroke-miterlimit="10" stroke-width=".662" d="M657.586 176.935h-14.685a1.165 1.165 0 1 1 0-2.331h14.685a1.164 1.164 0 1 1 0 2.331zm1.147 12.493h-15.796a1.201 1.201 0 0 1 0-2.402h15.796a1.2 1.2 0 1 1 0 2.402z" opacity=".57"/></svg>