<svg xmlns="http://www.w3.org/2000/svg" width="500" height="500" fill="none" viewBox="0 0 500 500"><path fill="#EBEBEB" d="M448.31 439.23c0 11.28-88.78 20.42-198.31 20.42s-198.31-9.14-198.31-20.42c0-11.28 88.78-20.42 198.31-20.42s198.31 9.19 198.31 20.42z"/><path fill="#263238" d="M46.98 406.44l50.76-.24 50.75-.09 101.51-.16 101.51.16 50.75.09 50.75.24-50.75.25-50.75.09-101.51.16-101.51-.16-50.75-.09-50.76-.25z"/><path fill="#37474F" d="M334.52 61.92H165.46a17.257 17.257 0 0 0-17.1 17.42v348a17.273 17.273 0 0 0 17.1 17.42h169.06a17.288 17.288 0 0 0 17.12-17.42v-348a17.282 17.282 0 0 0-17.12-17.42zm6.42 354.67c0 9.16-6.86 16.57-15.32 16.57H174.38c-8.48 0-15.34-7.41-15.34-16.57V92.53C159 73.87 165.9 73 174.38 73h30.3c1.76 0 3.2 2 3.2 4.48v1.07c0 5.81 3.18 5.83 7.08 5.83H285c3.94 0 7.1 0 7.1-5.83v-1.11c0-2.48 1.42-4.48 3.21-4.48h30.29c8.46 0 15.32 2.48 15.32 19.57l.02 324.06z"/><path fill="#EBEBEB" d="M340.94 92.53v324.06c0 9.16-6.86 16.57-15.32 16.57H174.38c-8.48 0-15.34-7.41-15.34-16.57V92.53C159 73.87 165.9 73 174.38 73h30.3c1.76 0 3.2 2 3.2 4.48v1.07c0 5.81 3.18 5.83 7.08 5.83H285c3.94 0 7.1 0 7.1-5.83v-1.11c0-2.48 1.42-4.48 3.21-4.48h30.29c8.48.04 15.34 2.48 15.34 19.57z"/><path fill="#240046" d="M340.94 92.53v136.22H159V92.53C159 73.87 165.9 73 174.38 73h30.3c1.76 0 3.2 2 3.2 4.48v1.07c0 5.81 3.18 5.83 7.08 5.83H285c3.94 0 7.1 0 7.1-5.83v-1.11c0-2.48 1.42-4.48 3.21-4.48h30.29c8.48.04 15.34 2.48 15.34 19.57z"/><path fill="#fff" d="M199.45 80.24l-.29.29c-.06 0-.11.11-.17.17a3.9 3.9 0 0 0-2.82-1.17 3.858 3.858 0 0 0-2.82 1.17l-.16-.17-.29-.29.37-.32c.263-.219.552-.404.86-.55.357-.18.738-.308 1.13-.38.19 0 .38 0 .57-.08h.88a4.5 4.5 0 0 1 1 .25 4.524 4.524 0 0 1 1.38.8l.31.28h.05z"/><path fill="#fff" d="M194.271 81.62c-.15-.16-.3-.31-.46-.46a3.314 3.314 0 0 1 3.63-.725c.404.168.771.415 1.08.725l-.46.46a2.682 2.682 0 0 0-3.79 0z"/><path fill="#fff" d="M197.601 82.08l-.46.46a1.314 1.314 0 0 0-1-.4 1.35 1.35 0 0 0-1 .4l-.46-.46a2 2 0 0 1 2.92 0zm-1.021.92a.41.41 0 0 1-.41.41.42.42 0 1 1 0-.83.405.405 0 0 1 .294.124.414.414 0 0 1 .116.296zm-25.68-1.88a1.21 1.21 0 1 1 2.42 0 1.21 1.21 0 0 1-2.42 0zm3.8 0a1.21 1.21 0 1 1 2.42 0 1.21 1.21 0 0 1-2.42 0zm3.8 0a1.206 1.206 0 0 1 .749-1.119 1.212 1.212 0 0 1 1.649.889 1.207 1.207 0 0 1-.523 1.24 1.2 1.2 0 0 1-.675.2 1.199 1.199 0 0 1-1.2-1.21zm3.8 0a1.213 1.213 0 0 1 .749-1.119 1.212 1.212 0 0 1 1.649.889 1.216 1.216 0 0 1-.523 1.24 1.21 1.21 0 0 1-.675.2 1.204 1.204 0 0 1-1.112-.748 1.22 1.22 0 0 1-.088-.462zm3.79 0a1.21 1.21 0 1 1 2.42 0 1.21 1.21 0 0 1-2.42 0zm141.21 2.63h-9.82v-4.54h9.82v4.54zm-9.32-.5h8.82v-3.54H318l-.02 3.54z"/><path fill="#fff" d="M324.63 79.98h-6.33v3h6.33v-3zm3.54.29h-.87v2.43h.87v-2.43zM176.28 110.7l-5.37-5.03 5.37-5.03.83.88-4.42 4.15 4.42 4.15-.83.88zM271 190.94a39.297 39.297 0 0 1-11.55 4.84 40.078 40.078 0 0 1-47.591-26.385A40.081 40.081 0 1 1 271 190.94z"/><path fill="#240046" d="M262.17 152.29a12.187 12.187 0 0 1-20.817 8.612 12.183 12.183 0 0 1-2.629-13.291A12.185 12.185 0 0 1 250 140.1a12.19 12.19 0 0 1 12.17 12.19z"/><path fill="#240046" d="M271 185.92v5a39.323 39.323 0 0 1-11.55 4.84 39.873 39.873 0 0 1-30.57-4.85v-5a21.063 21.063 0 0 1 21.06-21.06A21.063 21.063 0 0 1 271 185.91v.01z"/><path fill="#fff" d="M321.481 214.87h-142.96v138.8h142.96v-138.8z"/><path fill="#263238" d="M229.19 239.81V231a.822.822 0 0 1 .234-.589.8.8 0 0 1 .586-.241h4.9a.826.826 0 0 1 .83.83.848.848 0 0 1-.83.84h-4.06v2.74h3.49a.841.841 0 0 1 0 1.67h-3.49V239h4.06a.826.826 0 0 1 .83.83.83.83 0 0 1-.83.83H230a.816.816 0 0 1-.587-.251.824.824 0 0 1-.223-.599zm8.89 0V231a.83.83 0 0 1 .82-.83.851.851 0 0 1 .85.83v8h4.06a.83.83 0 1 1 0 1.66h-4.91a.819.819 0 0 1-.82-.85zm7.38-4.58a5.5 5.5 0 0 1 5.5-5.4 5.667 5.667 0 0 1 3.47 1.17.888.888 0 0 1 .15 1.2.878.878 0 0 1-1.2.17 3.759 3.759 0 0 0-2.42-.83 3.997 3.997 0 0 0-2.7 1.08 3.715 3.715 0 0 0-1.09 2.61 3.654 3.654 0 0 0 1.09 2.61 4.002 4.002 0 0 0 2.7 1.08 3.791 3.791 0 0 0 2.42-.82.9.9 0 0 1 1.2.16.88.88 0 0 1-.15 1.2 5.611 5.611 0 0 1-3.47 1.17 5.483 5.483 0 0 1-5.5-5.4zm20.01-3.79a5.517 5.517 0 0 1 0 7.59 5 5 0 0 1-3.59 1.6 5.063 5.063 0 0 1-3.67-1.6 5.582 5.582 0 0 1 0-7.59 5 5 0 0 1 3.67-1.61 4.873 4.873 0 0 1 3.59 1.61zm-.2 3.79a3.848 3.848 0 0 0-1-2.62 3.23 3.23 0 0 0-4.8 0 3.8 3.8 0 0 0-1 2.62 3.74 3.74 0 0 0 1 2.61 3.215 3.215 0 0 0 2.4 1.078 3.205 3.205 0 0 0 2.4-1.078 3.792 3.792 0 0 0 1-2.61zm13.1-4.23v8.85a.839.839 0 0 1-.84.82.823.823 0 0 1-.83-.82v-6.32l-2.16 3a.797.797 0 0 1-.67.35.829.829 0 0 1-.69-.35l-2.15-3v6.32a.83.83 0 1 1-1.66 0V231a.828.828 0 0 1 .82-.83.796.796 0 0 1 .66.35l3 4.14 3-4.14a.797.797 0 0 1 .67-.35.857.857 0 0 1 .85.83zM217 239.68v-8.85a.839.839 0 0 1 .84-.82.81.81 0 0 1 .586.237.81.81 0 0 1 .244.583v6.32l2.16-3a.797.797 0 0 1 .67-.35.829.829 0 0 1 .69.35l2.15 3v-6.32a.83.83 0 1 1 1.66 0v8.85a.828.828 0 0 1-.82.83.796.796 0 0 1-.66-.35l-3-4.14-3 4.14a.797.797 0 0 1-.67.35.857.857 0 0 1-.85-.83zm64.251.13V231a.803.803 0 0 1 .502-.769.807.807 0 0 1 .318-.061h4.93a.828.828 0 0 1 .578 1.414.85.85 0 0 1-.578.256h-4.07v2.74h3.5a.84.84 0 0 1 0 1.67h-3.5V239h4.07a.83.83 0 0 1 0 1.66h-4.91a.819.819 0 0 1-.84-.85z"/><path fill="#240046" d="M195.24 265.24v-3.54a.33.33 0 0 1 .33-.33h2a.34.34 0 0 1 0 .67h-1.62v1.1h1.39a.33.33 0 1 1 0 .66h-1.39v1.11h1.62a.33.33 0 1 1 0 .66h-2a.336.336 0 0 1-.33-.33zm7.171-3.54v3.54a.342.342 0 0 1-.34.33.33.33 0 0 1-.33-.33v-2.52l-.86 1.2a.314.314 0 0 1-.119.098.316.316 0 0 1-.151.032.343.343 0 0 1-.28-.13l-.85-1.2v2.52a.34.34 0 0 1-.67 0v-3.54a.33.33 0 0 1 .33-.33.325.325 0 0 1 .26.14l1.19 1.66 1.2-1.66a.309.309 0 0 1 .117-.104.351.351 0 0 1 .503.294zm3.199 2.88h-1.45l-.3.78a.343.343 0 0 1-.31.21.205.205 0 0 1-.11 0 .324.324 0 0 1-.191-.173.318.318 0 0 1-.009-.257l1.32-3.53a.336.336 0 0 1 .32-.21.32.32 0 0 1 .32.21l1.33 3.53a.34.34 0 0 1-.2.43.222.222 0 0 1-.12 0 .313.313 0 0 1-.183-.058.314.314 0 0 1-.117-.152l-.3-.78zm-.24-.66l-.49-1.29-.48 1.29h.97zm2.02-2.22a.33.33 0 0 1 .33-.33.34.34 0 0 1 .34.33v3.54a.345.345 0 0 1-.103.234.345.345 0 0 1-.237.096.33.33 0 0 1-.33-.33v-3.54zm1.79 3.54v-3.54a.33.33 0 0 1 .33-.33.34.34 0 0 1 .34.33v3.21h1.62a.33.33 0 0 1 0 .66h-2a.328.328 0 0 1-.29-.33z"/><path fill="#263238" d="M195 276.91a1.421 1.421 0 0 1 2.84-.11.147.147 0 0 1-.15.14h-2.41a1.15 1.15 0 0 0 1.14 1.12 1.107 1.107 0 0 0 1-.53.15.15 0 0 1 .19-.05.157.157 0 0 1 .066.095.164.164 0 0 1-.016.115 1.398 1.398 0 0 1-1.19.66 1.429 1.429 0 0 1-1.038-.411 1.428 1.428 0 0 1-.319-.471 1.427 1.427 0 0 1-.113-.558zm.3-.24h2.23a1.131 1.131 0 0 0-2.23 0zm7.7-.04a.904.904 0 0 0-.229-.704.902.902 0 0 0-.676-.301.902.902 0 0 0-.676.301.908.908 0 0 0-.229.704v1.62a.11.11 0 0 1-.028.043.105.105 0 0 1-.112.027v-1.62a.904.904 0 0 0-.229-.704.902.902 0 0 0-.676-.301.902.902 0 0 0-.676.301.908.908 0 0 0-.229.704v1.6a.135.135 0 0 1-.015.068.133.133 0 0 1-.045.052H199a.151.151 0 0 1-.12-.11v-2.68a.14.14 0 0 1 .14-.14.14.14 0 0 1 .14.14v.28a1.175 1.175 0 0 1 .91-.42 1.215 1.215 0 0 1 1 .62 1.21 1.21 0 0 1 1.508-.532 1.182 1.182 0 0 1 .65.644c.061.145.092.301.092.458v1.6a.138.138 0 0 1-.012.056.13.13 0 0 1-.033.047.14.14 0 0 1-.105.037.14.14 0 0 1-.14-.14l-.03-1.65zm5.74 0a.9.9 0 0 0-.266-.644.909.909 0 0 0-1.484.296.901.901 0 0 0-.07.348v1.62a.181.181 0 0 1-.08.07.085.085 0 0 1-.035.008.085.085 0 0 1-.035-.008v-1.62a.903.903 0 0 0-.228-.704.911.911 0 0 0-1.582.704v1.6a.146.146 0 0 1-.02.068.146.146 0 0 1-.05.052h-.06a.131.131 0 0 1-.12-.11v-2.68a.13.13 0 0 1 .13-.14.122.122 0 0 1 .057.008.136.136 0 0 1 .093.132v.28a1.157 1.157 0 0 1 .9-.42 1.176 1.176 0 0 1 1.05.62 1.214 1.214 0 0 1 1.06-.62 1.19 1.19 0 0 1 1.19 1.19v1.6a.14.14 0 0 1-.239.099.14.14 0 0 1-.041-.099l-.17-1.65zm3.971-1.05v2.65a.153.153 0 0 1-.048.1.149.149 0 0 1-.102.04.14.14 0 0 1-.14-.14v-.44a1.35 1.35 0 0 1-1.1.58 1.47 1.47 0 0 1 0-2.94 1.35 1.35 0 0 1 1.1.58v-.43a.138.138 0 0 1 .007-.057.143.143 0 0 1 .077-.082.147.147 0 0 1 .113 0 .163.163 0 0 1 .049.033c.014.014.025.03.032.049a.139.139 0 0 1 .012.057zm-.29 1.32a1.114 1.114 0 0 0-1.37-1.009 1.114 1.114 0 0 0-.755 1.525 1.108 1.108 0 0 0 1.025.664 1.15 1.15 0 0 0 1.1-1.18zm1.809 2.33a.221.221 0 0 0 .22-.22v-3.43a.15.15 0 0 1 .15-.15.152.152 0 0 1 .1.047c.026.028.04.065.04.103V279a.511.511 0 0 1-.51.51.14.14 0 0 1-.14-.14.14.14 0 0 1 .14-.14zm.23-4.61a.158.158 0 0 1 .15-.15.152.152 0 0 1 .1.047c.026.028.04.065.04.103v.14a.151.151 0 0 1-.04.103.152.152 0 0 1-.1.047.17.17 0 0 1-.15-.15v-.14zm4.05.96v2.65a.14.14 0 0 1-.239.099.14.14 0 0 1-.041-.099v-.44a1.382 1.382 0 0 1-1.11.58 1.47 1.47 0 0 1 0-2.94 1.381 1.381 0 0 1 1.11.58v-.43a.14.14 0 0 1 .14-.14.14.14 0 0 1 .14.14zm-.28 1.32a1.109 1.109 0 1 0-2.127.509 1.117 1.117 0 0 0 1.017.671 1.149 1.149 0 0 0 1.11-1.18zm5.77-.27a.91.91 0 1 0-1.82 0v1.62a.123.123 0 0 1-.07.07.105.105 0 0 1-.07 0v-1.62a.903.903 0 0 0-.228-.704.911.911 0 0 0-1.582.704v1.6a.146.146 0 0 1-.02.068.146.146 0 0 1-.05.052h-.06a.16.16 0 0 1-.076-.037.162.162 0 0 1-.044-.073v-2.68a.14.14 0 0 1 .14-.14.122.122 0 0 1 .057.008.136.136 0 0 1 .082.076.122.122 0 0 1 .011.056v.28a1.166 1.166 0 0 1 .9-.42 1.176 1.176 0 0 1 1.05.62 1.23 1.23 0 0 1 1.06-.62 1.19 1.19 0 0 1 1.19 1.19v1.6a.14.14 0 0 1-.239.099.14.14 0 0 1-.041-.099l-.19-1.65zm1.26.28a1.42 1.42 0 0 1 2.711-.649c.078.169.122.352.129.539a.14.14 0 0 1-.14.14h-2.41a1.15 1.15 0 0 0 1.14 1.12 1.08 1.08 0 0 0 .94-.53.159.159 0 0 1 .2-.05.16.16 0 0 1 0 .21 1.39 1.39 0 0 1-1.18.66 1.452 1.452 0 0 1-1.39-1.44zm.31-.24h2.22a1.13 1.13 0 0 0-1.1-.95 1.15 1.15 0 0 0-1.12.95zm3.35 1.09a.144.144 0 0 1 .1-.042.14.14 0 0 1 .1.042c.258.203.573.321.9.34a.87.87 0 0 0 .56-.18.421.421 0 0 0 .157-.151.419.419 0 0 0 .063-.209.45.45 0 0 0-.062-.205.448.448 0 0 0-.148-.155 1.504 1.504 0 0 0-.59-.2 1.558 1.558 0 0 1-.67-.23.627.627 0 0 1-.32-.52.748.748 0 0 1 .32-.58 1.26 1.26 0 0 1 .72-.2c.319.018.625.129.88.32a.168.168 0 0 1 0 .21.152.152 0 0 1-.2 0 1.254 1.254 0 0 0-.72-.3.907.907 0 0 0-.56.17.451.451 0 0 0-.18.34.354.354 0 0 0 .16.29c.185.108.389.179.6.21.249.031.49.109.71.23a.692.692 0 0 1 .34.6.691.691 0 0 1-.091.344.687.687 0 0 1-.249.256 1.188 1.188 0 0 1-.73.23 1.753 1.753 0 0 1-1.08-.42.15.15 0 0 1-.033-.042.13.13 0 0 1 .023-.148zm5.33-.25h-2.34a.162.162 0 0 1 0-.21l2.43-3a.13.13 0 0 1 .1-.047.124.124 0 0 1 .1.047.138.138 0 0 1 0 .07v2.92h.28a.143.143 0 0 1 .068-.002.148.148 0 0 1 .105.081.15.15 0 0 1 .016.066.15.15 0 0 1-.016.066.148.148 0 0 1-.173.079h-.28v.72a.15.15 0 1 1-.3 0l.01-.79zm0-.29v-2.46l-2 2.46h2zm3.67-3.05a2.095 2.095 0 0 1 1.943 1.295c.105.255.159.529.157.805.013.346-.063.691-.22 1a1.057 1.057 0 0 1-.54.45h-.12a.418.418 0 0 1-.35-.16.5.5 0 0 1-.09-.29V277a.996.996 0 0 1-.78.36 1.127 1.127 0 0 1-.729-.365 1.127 1.127 0 0 1 0-1.521c.189-.208.449-.338.729-.364a1.102 1.102 0 0 1 1.07 1.12v1a.405.405 0 0 0 0 .13.146.146 0 0 0 .11 0 .61.61 0 0 0 .35-.31c.134-.253.203-.534.2-.82a1.811 1.811 0 0 0-3.09-1.28 1.812 1.812 0 0 0 .275 2.785c.297.199.647.305 1.005.305.152.004.303-.013.45-.05.08 0 .17 0 .17.1a.157.157 0 0 1 .007.057.153.153 0 0 1-.017.055.157.157 0 0 1-.038.043.14.14 0 0 1-.052.025c-.17.041-.345.061-.52.06a2.1 2.1 0 1 1 0-4.2l.08.04zm0 2.92a.799.799 0 0 0 .77-.82.76.76 0 0 0-.19-.6.763.763 0 0 0-.575-.258.763.763 0 0 0-.574.258.764.764 0 0 0-.191.6.794.794 0 0 0 .76.82zm8.22-.46a.904.904 0 0 0-.229-.704.902.902 0 0 0-.676-.301.902.902 0 0 0-.676.301.908.908 0 0 0-.19.328.903.903 0 0 0-.039.376v1.62a.133.133 0 0 1-.028.043.105.105 0 0 1-.112.027h-.05v-1.62a.904.904 0 0 0-.229-.704.902.902 0 0 0-.676-.301.902.902 0 0 0-.676.301.908.908 0 0 0-.19.328.903.903 0 0 0-.039.376v1.6a.135.135 0 0 1-.015.068.133.133 0 0 1-.045.052h-.06a.151.151 0 0 1-.12-.11v-2.68a.14.14 0 0 1 .14-.14.14.14 0 0 1 .14.14v.28a1.175 1.175 0 0 1 .91-.42 1.203 1.203 0 0 0 1.05.619 1.196 1.196 0 0 0 1.05-.619 1.19 1.19 0 0 1 1.19 1.19v1.6a.127.127 0 0 1-.008.055.112.112 0 0 1-.03.047.112.112 0 0 1-.047.03.115.115 0 0 1-.055.008.14.14 0 0 1-.14-.14l-.15-1.65zm3.97-1.05v2.65a.14.14 0 0 1-.14.14.151.151 0 0 1-.103-.04.152.152 0 0 1-.047-.1v-.44a1.347 1.347 0 0 1-1.1.58c-.39 0-.764-.155-1.039-.431a1.467 1.467 0 0 1 0-2.078 1.467 1.467 0 0 1 1.039-.431 1.348 1.348 0 0 1 1.1.58v-.43a.15.15 0 0 1 .15-.15.147.147 0 0 1 .14.15zm-.29 1.32a1.102 1.102 0 0 0-1.902-.67 1.093 1.093 0 0 0-.204 1.187 1.097 1.097 0 0 0 1.006.663 1.15 1.15 0 0 0 1.1-1.18zm1.55-2.28a.15.15 0 0 1 .14-.15.149.149 0 0 1 .15.15v.14a.149.149 0 0 1-.15.15.15.15 0 0 1-.14-.15v-.14zm0 1a.158.158 0 0 1 .008-.057.166.166 0 0 1 .03-.049.132.132 0 0 1 .046-.032.138.138 0 0 1 .056-.012.149.149 0 0 1 .15.15v2.65a.147.147 0 0 1-.15.14.14.14 0 0 1-.14-.14v-2.65zm1.63-1.3a.147.147 0 0 1 .14-.15.15.15 0 0 1 .15.15v3.91a.138.138 0 0 1-.012.056.136.136 0 0 1-.032.047.144.144 0 0 1-.106.037.14.14 0 0 1-.14-.14v-3.91zm1.651 3.45a.3.3 0 1 1 0 .6.3.3 0 0 1 0-.6zm.809-.87a1.514 1.514 0 0 1 .872-1.328 1.517 1.517 0 0 1 1.578.188.14.14 0 0 1 0 .2.152.152 0 0 1-.2 0 1.197 1.197 0 0 0-1.091-.262 1.192 1.192 0 0 0-.831.754 1.209 1.209 0 0 0 .156 1.111 1.195 1.195 0 0 0 1.006.497 1.24 1.24 0 0 0 .76-.25.147.147 0 0 1 .1-.038c.037 0 .072.013.1.038a.153.153 0 0 1 .043.105.153.153 0 0 1-.043.105c-.268.201-.595.31-.93.31a1.48 1.48 0 0 1-1.52-1.43zm4.8-1.47a1.467 1.467 0 0 1 1.531 1.705 1.468 1.468 0 0 1-2.666.589 1.468 1.468 0 0 1-.255-.824 1.44 1.44 0 0 1 1.39-1.47zm0 2.65a1.149 1.149 0 0 0 1.11-1.18 1.119 1.119 0 0 0-.283-.852 1.104 1.104 0 0 0-.822-.363 1.107 1.107 0 0 0-1.053.759 1.12 1.12 0 0 0-.052.456 1.132 1.132 0 0 0 .306.818 1.133 1.133 0 0 0 .794.362zm6.74-1.45a.92.92 0 0 0-.91-.91.913.913 0 0 0-.64.267.916.916 0 0 0-.26.643v1.62a.13.13 0 0 1-.027.043.12.12 0 0 1-.043.027.105.105 0 0 1-.07 0H265v-1.62a.903.903 0 0 0-.228-.704.921.921 0 0 0-.306-.223.928.928 0 0 0-.741 0 .911.911 0 0 0-.535.927v1.6a.13.13 0 0 1-.017.07.134.134 0 0 1-.053.05h-.06a.16.16 0 0 1-.076-.037.162.162 0 0 1-.044-.073v-2.68a.14.14 0 0 1 .14-.14.14.14 0 0 1 .14.14v.28a1.178 1.178 0 0 1 .91-.42 1.199 1.199 0 0 0 2.1 0 1.187 1.187 0 0 1 1.19 1.19v1.6a.14.14 0 0 1-.239.099.14.14 0 0 1-.041-.099l-.14-1.65z"/><path fill="#DBDBDB" d="M194.62 281.74l13.84-.18 13.85-.11 27.69-.08 27.69.08 13.85.11 13.84.18-13.84.19-13.85.1-27.69.09-27.69-.09-13.85-.11-13.84-.18z"/><path fill="#240046" d="M196.65 297.69h-.74V299a.339.339 0 0 1-.554.202.344.344 0 0 1-.116-.202v-3.54a.33.33 0 0 1 .33-.33h1.08a1.28 1.28 0 1 1 0 2.56zm-.74-.66h.74a.619.619 0 1 0 0-1.24h-.74v1.24zm4.551 1.3h-1.46l-.29.78a.32.32 0 0 1-.31.21h-.12a.34.34 0 0 1-.19-.43l1.32-3.54a.357.357 0 0 1 .32-.21.35.35 0 0 1 .32.21l1.32 3.54a.343.343 0 0 1-.2.43h-.11a.32.32 0 0 1-.31-.21l-.29-.78zm-.25-.65l-.48-1.29-.49 1.29h.97zm1.789.6a.32.32 0 0 1 .44 0c.318.276.72.438 1.14.46.267.005.528-.072.75-.22a.534.534 0 0 0 .26-.43.383.383 0 0 0-.05-.19.517.517 0 0 0-.18-.18 2.393 2.393 0 0 0-.82-.29 3.002 3.002 0 0 1-.78-.23 1.353 1.353 0 0 1-.56-.47.91.91 0 0 1-.13-.49 1.12 1.12 0 0 1 .48-.88c.295-.202.643-.31 1-.31.476.023.933.19 1.31.48a.296.296 0 0 1 .133.192.303.303 0 0 1-.053.228.284.284 0 0 1-.19.138.303.303 0 0 1-.23-.048 1.778 1.778 0 0 0-1-.38 1.128 1.128 0 0 0-.67.2.482.482 0 0 0-.23.38c0 .06.017.119.05.17a.478.478 0 0 0 .16.15c.229.141.484.233.75.27.285.052.564.135.83.25.242.109.449.282.6.5.092.154.14.33.14.51a1.177 1.177 0 0 1-.52.93 1.902 1.902 0 0 1-1.11.34 2.614 2.614 0 0 1-1.53-.6.332.332 0 0 1 .01-.48zm3.9 0a.32.32 0 0 1 .44 0c.322.276.727.438 1.15.46.267.005.529-.072.75-.22a.517.517 0 0 0 .25-.43.292.292 0 0 0-.05-.19.5.5 0 0 0-.18-.18 2.318 2.318 0 0 0-.82-.29 3.082 3.082 0 0 1-.78-.23 1.327 1.327 0 0 1-.55-.47.915.915 0 0 1-.14-.49 1.12 1.12 0 0 1 .48-.88c.296-.2.644-.308 1-.31.473.023.926.191 1.3.48a.308.308 0 0 1 .09.42.282.282 0 0 1-.083.089.289.289 0 0 1-.112.049.295.295 0 0 1-.235-.048 1.778 1.778 0 0 0-1-.38 1.192 1.192 0 0 0-.68.2.472.472 0 0 0-.22.38.327.327 0 0 0 0 .17.478.478 0 0 0 .16.15c.231.137.485.229.75.27.286.05.565.134.83.25.242.109.449.282.6.5.092.154.14.33.14.51a1.17 1.17 0 0 1-.51.93c-.328.22-.714.339-1.11.34a2.617 2.617 0 0 1-1.54-.6.346.346 0 0 1-.07-.256.342.342 0 0 1 .047-.127.344.344 0 0 1 .093-.097zm9.521-2.66l-1.47 3.5v.05a.122.122 0 0 1-.06 0h-.25a.088.088 0 0 1-.06 0h-.05v-.05l-.78-1.86-.79 1.86v.05h-.31a.106.106 0 0 1-.05 0v-.05l-1.47-3.5a.312.312 0 0 1 .001-.248.324.324 0 0 1 .179-.172.333.333 0 0 1 .43.17l1.17 2.78.77-1.84a.353.353 0 0 1 .128-.153.354.354 0 0 1 .192-.057.36.36 0 0 1 .31.21l.77 1.84 1.17-2.78a.34.34 0 0 1 .44-.17.321.321 0 0 1-.27.42zm4.179.03a2.19 2.19 0 0 1 0 3 2.006 2.006 0 0 1-1.43.64 1.994 1.994 0 0 1-1.47-.64 2.211 2.211 0 0 1 0-3 2.006 2.006 0 0 1 1.47-.64 1.91 1.91 0 0 1 1.43.64zm-.08 1.52a1.527 1.527 0 0 0-.41-1.05 1.285 1.285 0 0 0-.94-.43 1.282 1.282 0 0 0-1 .43 1.541 1.541 0 0 0 0 2.09 1.282 1.282 0 0 0 1 .43 1.278 1.278 0 0 0 .94-.43c.264-.282.411-.654.41-1.04zm4.65 1.66a.34.34 0 0 1-.21.42h-.14a.503.503 0 0 1-.24-.06.777.777 0 0 1-.19-.21 1.69 1.69 0 0 1-.12-.72.497.497 0 0 0-.08-.26.434.434 0 0 0-.18-.17 1.215 1.215 0 0 0-.33-.15H222V299a.318.318 0 0 1-.029.125.326.326 0 0 1-.311.195.32.32 0 0 1-.32-.32v-3.54a.337.337 0 0 1 .021-.126.328.328 0 0 1 .174-.179.317.317 0 0 1 .125-.025h1.08a1.28 1.28 0 0 1 .81 2.27c.082.06.153.135.21.22.131.191.201.418.2.65a1.282 1.282 0 0 0 0 .35.329.329 0 0 1 .129.081c.037.036.064.08.081.129zm-.84-2.41a.631.631 0 0 0-.62-.63H222V297h.74a.619.619 0 0 0 .59-.58zm1.81 2.58v-3.54a.312.312 0 0 1 .093-.236.319.319 0 0 1 .237-.094h.71a2.101 2.101 0 0 1 0 4.19h-.71a.337.337 0 0 1-.126-.021.328.328 0 0 1-.179-.174.317.317 0 0 1-.025-.125zm.66-.34h.38a1.44 1.44 0 0 0 0-2.87h-.38v2.87z"/><path fill="#263238" d="M195.84 308.93l-.55.37h-.1a.123.123 0 0 1-.085-.035.121.121 0 0 1 0-.17.119.119 0 0 1 .085-.035l.62-.3-.62-.29s-.09-.06-.09-.12a.133.133 0 0 1 .038-.082.128.128 0 0 1 .082-.038.17.17 0 0 1 .1 0l.55.38-.05-.66a.135.135 0 0 1 .006-.049.127.127 0 0 1 .026-.043.112.112 0 0 1 .04-.028.12.12 0 0 1 .168.12l-.05.66.54-.38h.1c.032 0 .063.012.085.035a.117.117 0 0 1 .035.085.111.111 0 0 1-.02.073.117.117 0 0 1-.06.047l-.62.29.62.3a.103.103 0 0 1 .062.039.1.1 0 0 1 .018.071.104.104 0 0 1-.006.049.112.112 0 0 1-.025.042.128.128 0 0 1-.04.029.138.138 0 0 1-.049.01.28.28 0 0 1-.1 0l-.54-.37.05.65a.104.104 0 0 1-.006.049.112.112 0 0 1-.025.042.128.128 0 0 1-.04.029.138.138 0 0 1-.049.01.133.133 0 0 1-.048-.01.128.128 0 0 1-.066-.071.138.138 0 0 1-.006-.049l.02-.65zm2.58 0l-.55.37h-.1a.12.12 0 0 1-.12-.12c0-.032.013-.063.036-.085a.116.116 0 0 1 .084-.035l.62-.3-.62-.29c-.05 0-.09-.06-.09-.12a.133.133 0 0 1 .038-.082.128.128 0 0 1 .082-.038.17.17 0 0 1 .1 0l.55.38v-.66a.135.135 0 0 1 .006-.049.145.145 0 0 1 .026-.043.112.112 0 0 1 .04-.028.115.115 0 0 1 .048-.01c.017 0 .034.003.049.01a.112.112 0 0 1 .04.028.124.124 0 0 1 .031.092l-.05.66.54-.38a.189.189 0 0 1 .1 0c.032 0 .063.012.085.035a.117.117 0 0 1 .035.085.111.111 0 0 1-.02.073.117.117 0 0 1-.06.047l-.62.29.62.3a.103.103 0 0 1 .062.039.1.1 0 0 1 .018.071.104.104 0 0 1-.006.049.112.112 0 0 1-.025.042.128.128 0 0 1-.04.029.138.138 0 0 1-.049.01h-.1l-.54-.37.05.65a.104.104 0 0 1-.006.049.112.112 0 0 1-.025.042.128.128 0 0 1-.04.029.134.134 0 0 1-.049.01.133.133 0 0 1-.048-.01.128.128 0 0 1-.066-.071.138.138 0 0 1-.006-.049l-.03-.65zm2.58 0l-.55.37h-.1a.12.12 0 0 1-.12-.12.12.12 0 0 1 .12-.12l.62-.3-.62-.29s-.09-.06-.09-.12a.133.133 0 0 1 .038-.082.128.128 0 0 1 .082-.038.17.17 0 0 1 .1 0l.55.38-.03-.61a.117.117 0 0 1 .007-.049.124.124 0 0 1 .025-.043.126.126 0 0 1 .04-.028.115.115 0 0 1 .048-.01c.017 0 .034.003.049.01a.126.126 0 0 1 .04.028c.011.013.02.027.025.043.006.016.008.032.006.049l-.05.66.55-.38a.153.153 0 0 1 .09 0 .119.119 0 0 1 .12.12.116.116 0 0 1-.08.12l-.62.29.62.3a.103.103 0 0 1 .062.039.1.1 0 0 1 .018.071.104.104 0 0 1-.006.049.112.112 0 0 1-.025.042.116.116 0 0 1-.089.039.172.172 0 0 1-.09 0l-.55-.37.05.65a.104.104 0 0 1-.006.049.112.112 0 0 1-.025.042.116.116 0 0 1-.089.039.115.115 0 0 1-.088-.039.112.112 0 0 1-.025-.042.12.12 0 0 1-.007-.049v-.7zm2.581 0l-.55.37h-.1a.119.119 0 0 1-.12-.12c0-.032.012-.063.035-.085a.117.117 0 0 1 .085-.035l.62-.3-.62-.29c-.05 0-.09-.06-.09-.12a.128.128 0 0 1 .12-.12.17.17 0 0 1 .1 0l.55.38-.05-.66a.124.124 0 0 1 .031-.092.112.112 0 0 1 .04-.028.116.116 0 0 1 .049-.01c.016 0 .033.003.048.01a.112.112 0 0 1 .04.028c.011.013.02.027.025.043a.117.117 0 0 1 .007.049l-.05.66.54-.38a.189.189 0 0 1 .1 0c.031 0 .062.012.084.035a.118.118 0 0 1 .036.085.124.124 0 0 1-.02.073.126.126 0 0 1-.06.047l-.62.29.62.3a.101.101 0 0 1 .08.11.12.12 0 0 1-.007.049.112.112 0 0 1-.025.042.128.128 0 0 1-.04.029.133.133 0 0 1-.048.01h-.1l-.54-.37.05.65a.12.12 0 0 1-.007.049.112.112 0 0 1-.025.042.128.128 0 0 1-.04.029.133.133 0 0 1-.048.01.134.134 0 0 1-.049-.01.128.128 0 0 1-.04-.029.112.112 0 0 1-.025-.042.104.104 0 0 1-.006-.049l.02-.65zm2.579 0l-.55.37h-.1a.119.119 0 0 1-.12-.12c0-.032.012-.063.035-.085a.117.117 0 0 1 .085-.035l.62-.3-.62-.29s-.09-.06-.09-.12a.127.127 0 0 1 .037-.082.13.13 0 0 1 .083-.038.17.17 0 0 1 .1 0l.55.38v-.66a.124.124 0 0 1 .031-.092.12.12 0 0 1 .137-.028.112.112 0 0 1 .04.028c.012.013.02.027.026.043a.135.135 0 0 1 .006.049v.66l.54-.38a.189.189 0 0 1 .1 0c.031 0 .062.012.084.035a.118.118 0 0 1 .036.085.124.124 0 0 1-.02.073.126.126 0 0 1-.06.047l-.62.29.62.3a.101.101 0 0 1 .08.11.114.114 0 0 1-.032.091.128.128 0 0 1-.04.029.133.133 0 0 1-.048.01h-.1l-.54-.37v.65a.114.114 0 0 1-.032.091.128.128 0 0 1-.04.029.133.133 0 0 1-.048.01.138.138 0 0 1-.049-.01.128.128 0 0 1-.04-.029.112.112 0 0 1-.025-.042.104.104 0 0 1-.006-.049l-.03-.65zm2.58 0l-.55.37h-.1a.119.119 0 0 1-.12-.12c0-.032.012-.063.035-.085a.117.117 0 0 1 .085-.035l.62-.3-.62-.29c-.05 0-.09-.06-.09-.12a.127.127 0 0 1 .037-.082.13.13 0 0 1 .083-.038.17.17 0 0 1 .1 0l.55.38-.05-.66a.124.124 0 0 1 .031-.092.12.12 0 0 1 .137-.028.112.112 0 0 1 .04.028c.012.013.02.027.026.043a.135.135 0 0 1 .006.049l-.05.66.54-.38a.189.189 0 0 1 .1 0 .119.119 0 0 1 .12.12.124.124 0 0 1-.02.073.126.126 0 0 1-.06.047l-.62.29.62.3a.101.101 0 0 1 .08.11.114.114 0 0 1-.032.091.128.128 0 0 1-.04.029.133.133 0 0 1-.048.01h-.1l-.54-.37.05.65a.114.114 0 0 1-.032.091.128.128 0 0 1-.04.029.133.133 0 0 1-.048.01.138.138 0 0 1-.049-.01.128.128 0 0 1-.04-.029.112.112 0 0 1-.025-.042.104.104 0 0 1-.006-.049l.02-.65zm2.57 0l-.54.37h-.1a.119.119 0 0 1-.12-.12.119.119 0 0 1 .12-.12l.61-.3-.61-.29s-.09-.06-.09-.12a.123.123 0 0 1 .038-.082.128.128 0 0 1 .082-.038.17.17 0 0 1 .1 0l.54.38v-.66a.107.107 0 0 1 .027-.095.11.11 0 0 1 .042-.029.11.11 0 0 1 .051-.006.115.115 0 0 1 .088.039.114.114 0 0 1 .032.091v.66l.54-.38a.189.189 0 0 1 .1 0c.032 0 .062.013.085.035a.123.123 0 0 1 .035.085.124.124 0 0 1-.02.073.126.126 0 0 1-.06.047l-.62.29.62.3a.101.101 0 0 1 .08.11.114.114 0 0 1-.032.091.115.115 0 0 1-.088.039h-.1l-.54-.37v.65a.114.114 0 0 1-.032.091.115.115 0 0 1-.088.039.11.11 0 0 1-.051-.006.11.11 0 0 1-.042-.029.107.107 0 0 1-.027-.095l-.03-.65zm2.59 0l-.55.37h-.1a.123.123 0 0 1-.085-.035.121.121 0 0 1 0-.17.119.119 0 0 1 .085-.035l.62-.3-.62-.29c-.05 0-.09-.06-.09-.12a.128.128 0 0 1 .038-.082.128.128 0 0 1 .082-.038.17.17 0 0 1 .1 0l.55.38-.05-.66a.124.124 0 0 1 .031-.092.115.115 0 0 1 .041-.028.112.112 0 0 1 .048-.01c.017 0 .033.003.048.01a.112.112 0 0 1 .04.028c.012.013.02.027.026.043a.135.135 0 0 1 .006.049l-.05.66.54-.38a.189.189 0 0 1 .1 0 .119.119 0 0 1 .12.12.124.124 0 0 1-.02.073.126.126 0 0 1-.06.047l-.62.29.62.3a.101.101 0 0 1 .08.11.114.114 0 0 1-.032.091.128.128 0 0 1-.04.029.129.129 0 0 1-.048.01h-.1l-.54-.37.05.65a.114.114 0 0 1-.032.091.128.128 0 0 1-.04.029.129.129 0 0 1-.048.01.129.129 0 0 1-.048-.01.133.133 0 0 1-.041-.029.118.118 0 0 1-.031-.091l.02-.65zm2.58 0l-.55.37h-.1a.123.123 0 0 1-.085-.035.121.121 0 0 1 0-.17.119.119 0 0 1 .085-.035l.61-.3-.61-.29c-.05 0-.09-.06-.09-.12a.128.128 0 0 1 .038-.082.128.128 0 0 1 .082-.038.17.17 0 0 1 .1 0l.55.38v-.66a.124.124 0 0 1 .031-.092.115.115 0 0 1 .041-.028.112.112 0 0 1 .048-.01c.017 0 .033.003.048.01a.115.115 0 0 1 .041.028.143.143 0 0 1 .025.043.135.135 0 0 1 .006.049v.66l.54-.38a.189.189 0 0 1 .1 0 .122.122 0 0 1 .085.035.116.116 0 0 1 .035.085.121.121 0 0 1-.08.12l-.62.29.62.3a.103.103 0 0 1 .062.039.106.106 0 0 1 .018.071.138.138 0 0 1-.006.049.127.127 0 0 1-.025.042.133.133 0 0 1-.041.029.129.129 0 0 1-.048.01h-.1l-.54-.37v.65a.138.138 0 0 1-.006.049.127.127 0 0 1-.025.042.133.133 0 0 1-.041.029.129.129 0 0 1-.048.01.129.129 0 0 1-.048-.01.133.133 0 0 1-.041-.029.112.112 0 0 1-.025-.042.138.138 0 0 1-.006-.049l-.03-.65zm2.58 0l-.55.37h-.1a.123.123 0 0 1-.085-.035.123.123 0 0 1-.035-.085c0-.032.013-.062.035-.085a.123.123 0 0 1 .085-.035l.62-.3-.62-.29s-.09-.06-.09-.12a.128.128 0 0 1 .038-.082.128.128 0 0 1 .082-.038.17.17 0 0 1 .1 0l.55.38-.09-.61a.135.135 0 0 1 .006-.049.143.143 0 0 1 .025-.043.13.13 0 0 1 .089-.038.13.13 0 0 1 .089.038.124.124 0 0 1 .031.092l-.05.66.54-.38a.189.189 0 0 1 .1 0c.032 0 .062.013.085.035a.123.123 0 0 1 .035.085.111.111 0 0 1-.02.073.117.117 0 0 1-.06.047l-.62.29.62.3a.103.103 0 0 1 .062.039.106.106 0 0 1 .018.071.138.138 0 0 1-.006.049.118.118 0 0 1-.066.071.112.112 0 0 1-.048.01h-.1l-.54-.37.05.65a.138.138 0 0 1-.006.049.118.118 0 0 1-.066.071.112.112 0 0 1-.048.01.112.112 0 0 1-.048-.01.118.118 0 0 1-.066-.071.138.138 0 0 1-.006-.049l.06-.7zm2.58 0l-.55.37h-.1a.123.123 0 0 1-.085-.035.121.121 0 0 1 0-.17.119.119 0 0 1 .085-.035l.62-.3-.62-.29c-.05 0-.09-.06-.09-.12a.128.128 0 0 1 .038-.082.128.128 0 0 1 .082-.038.17.17 0 0 1 .1 0l.55.38v-.66a.135.135 0 0 1 .006-.049.127.127 0 0 1 .026-.043.112.112 0 0 1 .04-.028.112.112 0 0 1 .048-.01c.017 0 .033.003.048.01a.115.115 0 0 1 .072.12l-.05.66.55-.38a.139.139 0 0 1 .09 0 .119.119 0 0 1 .12.12.111.111 0 0 1-.02.073.117.117 0 0 1-.06.047l-.62.29.62.3a.103.103 0 0 1 .062.039.1.1 0 0 1 .018.071.118.118 0 0 1-.072.12.129.129 0 0 1-.048.01.153.153 0 0 1-.09 0l-.55-.37.05.65a.118.118 0 0 1-.072.12.129.129 0 0 1-.048.01.129.129 0 0 1-.048-.01.128.128 0 0 1-.066-.071.138.138 0 0 1-.006-.049l-.03-.65z"/><path fill="#DBDBDB" d="M194.62 315.5l13.84-.19 13.85-.1 27.69-.09 27.69.09 13.85.1 13.84.19-13.84.18-13.85.1-27.69.09-27.69-.09-13.85-.1-13.84-.18z"/><path fill="#263238" d="M223.66 304.52h-.5v8.98h.5v-8.98z"/><path fill="#240046" d="M290.731 340.87h-81.46v25.61h81.46v-25.61z"/><path fill="#fff" d="M236.25 357v-5.31c0-.133.053-.26.146-.354a.504.504 0 0 1 .708 0 .504.504 0 0 1 .146.354v4.81h2.44a.508.508 0 0 1 .5.5.513.513 0 0 1-.5.5h-2.94a.5.5 0 0 1-.5-.5zm9.68-5a3.302 3.302 0 0 1 0 4.55 2.933 2.933 0 0 1-2.15 1 2.995 2.995 0 0 1-2.21-1 3.24 3.24 0 0 1-.89-2.27 3.278 3.278 0 0 1 .89-2.28 3 3 0 0 1 2.21-1 2.923 2.923 0 0 1 2.15 1zm-.12 2.28a2.35 2.35 0 0 0-.61-1.58 2.005 2.005 0 0 0-1.42-.64 2.01 2.01 0 0 0-1.46.64 2.3 2.3 0 0 0-.61 1.58 2.22 2.22 0 0 0 .61 1.56 2.005 2.005 0 0 0 1.46.65 1.925 1.925 0 0 0 1.42-.65c.396-.423.614-.981.61-1.56zm2.52.01a3.28 3.28 0 0 1 3.32-3.25 3.348 3.348 0 0 1 2.06.7.52.52 0 0 1 .201.346.516.516 0 0 1-.111.384.52.52 0 0 1-.72.08 2.343 2.343 0 0 0-2.306-.323 2.254 2.254 0 0 0-.744.493 2.159 2.159 0 0 0-.67 1.57 2.138 2.138 0 0 0 .67 1.54 2.214 2.214 0 0 0 1.62.66 2.49 2.49 0 0 0 1.24-.34v-1.23h-1.29a.522.522 0 0 1-.51-.52.494.494 0 0 1 .316-.465.477.477 0 0 1 .194-.035h1.79a.523.523 0 0 1 .364.142.507.507 0 0 1 .156.358v2.16a.49.49 0 0 1-.17.22 3.34 3.34 0 0 1-2 .7 3.276 3.276 0 0 1-3.41-3.19zm7.67-2.58a.48.48 0 0 1 .49-.49.502.502 0 0 1 .51.49V357a.509.509 0 0 1-.7.462.504.504 0 0 1-.3-.462v-5.29zm3.671 5.29a.5.5 0 0 1-1 0v-5.23a.461.461 0 0 1 .2-.41.49.49 0 0 1 .68.11l2.91 4v-3.71a.5.5 0 1 1 1 0V357a.502.502 0 0 1-.49.5.471.471 0 0 1-.37-.18l-.05-.06-2.88-4V357z"/><path fill="#263238" d="M224.14 375.91a.14.14 0 0 1 .14-.14h2.17a.14.14 0 0 1 .14.14.15.15 0 0 1-.14.15h-2v1.66h1.76a.15.15 0 1 1 0 .3h-1.76v1.8a.15.15 0 0 1-.15.15.152.152 0 0 1-.1-.047.151.151 0 0 1-.04-.103l-.02-3.91zm4.38 1.09a1.47 1.47 0 1 1-1.39 1.47 1.44 1.44 0 0 1 1.39-1.47zm0 2.65a1.191 1.191 0 0 0 .947-2.003 1.185 1.185 0 0 0-1.309-.289 1.188 1.188 0 0 0-.748 1.112 1.161 1.161 0 0 0 .301.838 1.146 1.146 0 0 0 .809.372v-.03zm2.37-2.47a.155.155 0 0 1 .018-.113A.152.152 0 0 1 231 377a.13.13 0 0 1 .056.012.127.127 0 0 1 .047.032.166.166 0 0 1 .03.049.14.14 0 0 1 .007.057v.65-.08a1.468 1.468 0 0 1 1.18-.72.13.13 0 0 1 .056.012.127.127 0 0 1 .047.032.166.166 0 0 1 .03.049.14.14 0 0 1 .007.057.14.14 0 0 1-.14.14 1.08 1.08 0 0 0-.483.137 1.085 1.085 0 0 0-.367.343c-.15.209-.271.438-.36.68v1.29a.138.138 0 0 1-.007.057.166.166 0 0 1-.03.049.127.127 0 0 1-.047.032.13.13 0 0 1-.056.012.15.15 0 0 1-.15-.15l.07-2.56zm5.2 2.55a1.38 1.38 0 0 1-1.99 1.24.15.15 0 0 1-.066-.084.149.149 0 0 1 .006-.106.118.118 0 0 1 .03-.049.14.14 0 0 1 .048-.032.132.132 0 0 1 .112.011.999.999 0 0 0 .48.11 1.097 1.097 0 0 0 .777-.316 1.084 1.084 0 0 0 .323-.774v-.36a1.324 1.324 0 0 1-1.1.58 1.458 1.458 0 0 1-1.46-1.46 1.458 1.458 0 0 1 1.46-1.46 1.344 1.344 0 0 1 1.1.57v-.43a.133.133 0 0 1-.001-.079.138.138 0 0 1 .113-.101.14.14 0 0 1 .078.01c.018 0 .036.004.052.011a.132.132 0 0 1 .044.03.136.136 0 0 1 .034.099l-.04 2.59zm-.28-1.25a1.098 1.098 0 0 0-1.54-1.111 1.106 1.106 0 0 0-.599.659 1.098 1.098 0 0 0-.051.452 1.1 1.1 0 1 0 2.19 0zm2.93-1.48a1.47 1.47 0 1 1-1.39 1.47 1.44 1.44 0 0 1 1.39-1.47zm0 2.65a1.19 1.19 0 0 0 1.162-.671 1.19 1.19 0 0 0 .104-.695 1.192 1.192 0 0 0-1.615-.927 1.192 1.192 0 0 0-.751 1.113 1.15 1.15 0 0 0 1.1 1.21v-.03zm3.41-2.48a.158.158 0 0 1-.15.15h-.37v2.14a.223.223 0 0 0 .065.146c.038.039.09.062.145.064a.15.15 0 0 1 0 .3.505.505 0 0 1-.474-.313.513.513 0 0 1-.036-.197v-2.14H241c-.14 0-.14-.08-.14-.15 0-.07 0-.14.14-.14h.37v-1.09a.15.15 0 0 1 .14-.15.16.16 0 0 1 .16.15V377h.33a.151.151 0 0 1 .114.051.15.15 0 0 1 .036.119zm3.17 1.37v-1.37a.15.15 0 0 1 .3 0v.43a1.357 1.357 0 0 1 1.11-.57 1.42 1.42 0 0 1 1.012.429 1.435 1.435 0 0 1 .408 1.021 1.449 1.449 0 0 1-1.42 1.47 1.361 1.361 0 0 1-1.11-.58v1.68a.15.15 0 1 1-.3 0v-2.51zm.3-.06a1.12 1.12 0 1 0 2.24 0 1.12 1.12 0 0 0-2.24 0zm6.13-1.31v2.65a.156.156 0 0 1 .002.068.148.148 0 0 1-.147.12.156.156 0 0 1-.067-.015.154.154 0 0 1-.08-.105.142.142 0 0 1 .002-.068v-.44a1.36 1.36 0 0 1-1.1.59 1.47 1.47 0 0 1 0-2.94 1.347 1.347 0 0 1 1.1.57v-.43a.14.14 0 0 1 .14-.14c.038 0 .074.014.102.04a.153.153 0 0 1 .048.1zm-.29 1.33a1.114 1.114 0 0 0-1.37-1.009 1.106 1.106 0 0 0-.832.893 1.105 1.105 0 0 0 1.102 1.296 1.15 1.15 0 0 0 1.1-1.18zm1.331.85a.135.135 0 0 1 .105-.047.142.142 0 0 1 .105.047c.256.206.571.326.9.34a.862.862 0 0 0 .55-.18.445.445 0 0 0 .23-.36.467.467 0 0 0-.21-.36 1.468 1.468 0 0 0-.63-.22 1.653 1.653 0 0 1-.66-.23.613.613 0 0 1-.32-.53.74.74 0 0 1 .32-.58c.213-.13.46-.196.71-.19.317.015.623.123.88.31a.16.16 0 0 1 0 .21.144.144 0 0 1-.1.042.14.14 0 0 1-.1-.042 1.29 1.29 0 0 0-.72-.29.856.856 0 0 0-.55.16.453.453 0 0 0-.19.34c0 .059.016.117.046.167.03.051.073.093.124.123.181.114.386.186.6.21.25.031.492.113.71.24a.705.705 0 0 1 .33.6.749.749 0 0 1-.33.59c-.212.156-.468.24-.73.24a1.815 1.815 0 0 1-1.09-.42.147.147 0 0 1 .02-.17zm2.899 0a.128.128 0 0 1 .1-.047.13.13 0 0 1 .1.047c.257.205.572.324.9.34a.89.89 0 0 0 .56-.18.407.407 0 0 0 .214-.36.413.413 0 0 0-.214-.36 1.463 1.463 0 0 0-.63-.22 1.653 1.653 0 0 1-.66-.23.608.608 0 0 1-.32-.53.741.741 0 0 1 .32-.58 1.34 1.34 0 0 1 .72-.19c.314.017.616.124.87.31a.148.148 0 0 1 .043.105.148.148 0 0 1-.086.135.131.131 0 0 1-.147-.03 1.349 1.349 0 0 0-.72-.29.89.89 0 0 0-.56.16.464.464 0 0 0-.19.34.36.36 0 0 0 .17.29c.182.114.387.186.6.21.253.033.498.115.72.24a.718.718 0 0 1 .33.6.753.753 0 0 1-.34.59 1.18 1.18 0 0 1-.73.24 1.826 1.826 0 0 1-1.09-.42.146.146 0 0 1-.01-.092.145.145 0 0 1 .05-.078zm4.04.59l-.06-.06-1.1-2.63a.167.167 0 0 1 .001-.108.163.163 0 0 1 .069-.082.147.147 0 0 1 .111.002.147.147 0 0 1 .079.078l1 2.32.67-1.62a.16.16 0 0 1 .29 0l.67 1.62 1-2.32a.143.143 0 0 1 .074-.077.139.139 0 0 1 .106-.003.15.15 0 0 1 .08.19l-1.1 2.61a.204.204 0 0 1-.05.08h-.07a.159.159 0 0 1-.12-.09l-.69-1.63-.68 1.62a.151.151 0 0 1-.13.09h-.05l-.1.01zM265 377a1.466 1.466 0 0 1 1.414.85c.123.267.164.564.117.855a1.477 1.477 0 0 1-1.134 1.198 1.463 1.463 0 0 1-1.533-.609 1.467 1.467 0 0 1-.254-.824A1.44 1.44 0 0 1 265 377zm0 2.65a1.19 1.19 0 0 0 1.162-.671 1.19 1.19 0 1 0-2.262-.509 1.15 1.15 0 0 0 1.1 1.21v-.03zm2.4-2.47a.138.138 0 0 1 .091-.142.144.144 0 0 1 .112.006.142.142 0 0 1 .077.136v.65l.05-.08a1.426 1.426 0 0 1 1.17-.72.15.15 0 0 1 .15.15.153.153 0 0 1-.048.1.147.147 0 0 1-.102.04 1.077 1.077 0 0 0-.85.48c-.152.207-.27.436-.35.68v1.29a.141.141 0 0 1-.034.102.158.158 0 0 1-.043.034.144.144 0 0 1-.163-.027.138.138 0 0 1-.04-.109l-.02-2.59zm4.83 2.22a1.426 1.426 0 0 1-1.13.57 1.47 1.47 0 0 1 0-2.94 1.397 1.397 0 0 1 1.13.57v-1.69a.15.15 0 0 1 .3 0v3.91a.15.15 0 0 1-.3 0v-.42zm0-.85v-.1a1.169 1.169 0 1 0-2.005.868 1.17 1.17 0 0 0 2.005-.768zm2.29-.31a.14.14 0 0 1 .14-.14.997.997 0 0 0 1-1 .997.997 0 0 0-1-1 1.004 1.004 0 0 0-.87.51.159.159 0 0 1-.2.05.135.135 0 0 1-.041-.095.135.135 0 0 1 .041-.095 1.27 1.27 0 0 1 1.11-.65 1.291 1.291 0 1 1 .15 2.58v.6a.147.147 0 0 1-.15.14.14.14 0 0 1-.14-.14l-.04-.76zm0 1.46a.156.156 0 0 1-.002-.068.148.148 0 0 1 .147-.12.149.149 0 0 1 .147.12.142.142 0 0 1-.002.068v.13a.147.147 0 0 1-.15.14.14.14 0 0 1-.14-.14v-.13z"/><path fill="#fff" d="M259.55 77.08h-19.11a1.183 1.183 0 0 1-1.18-1.18 1.18 1.18 0 0 1 1.18-1.18h19.11a1.178 1.178 0 0 1 .834 2.014 1.179 1.179 0 0 1-.834.346z"/><path fill="#263238" d="M340.309 129.43l-.4.1a.244.244 0 0 1 .07-.12l.33.02z"/><path fill="#FFC4C0" d="M351.64 160.83h-.01v7.04h.01v-7.04zm.18 257.5h-.18v-.13l.18.13zm41.299 8.53c-2.2-1-50.6-44.76-51.39-47.6-.31-1.07 5.66-8.49 13.13-17.26 1.61-1.89 20.43-32 20.43-32l33.91 26.89-23.06 33.29s11 25.06 11.56 28.27c.56 3.21-2.38 9.38-4.58 8.41z"/><path fill="#263238" d="M393.739 407.9a93.486 93.486 0 0 1 4 10.51c.52 3.21-2.38 9.42-4.58 8.45-2.2-.97-50.61-44.76-51.39-47.59-.25-.88 3.62-5.93 9.09-12.48 9.78 11.36 40.62 46.72 42.88 43.43a4.39 4.39 0 0 0 0-2.32z"/><path fill="#37474F" d="M358.09 356.35l34.3 28.3s47.71-66.43 49.08-90.71c1-18.67-26.66-53.46-45.48-83.24-1.82-2.89-.71-13.85-.64-15.68l-37.29.07c-.45 4.2-3.37 25.33 2.91 35.62 12.92 21.16 33.78 51.87 34.58 58.52.8 6.65-37.46 67.12-37.46 67.12z"/><path fill="#263238" d="M394.6 374.25c-5.48-4.64-3.84-3.38-9.37-8-2.71-2.24-16.28-13.54-19.15-15.22-.07 0-.14.06-.09.11 2.22 2.47 16 13.48 18.78 15.68 5.61 4.48 4.05 3.13 9.71 7.55a.095.095 0 0 0 .025.046.098.098 0 0 0 .044.028.106.106 0 0 0 .099-.026.105.105 0 0 0 .026-.046.102.102 0 0 0-.028-.097.104.104 0 0 0-.046-.025zm4.249-91.25c-1.25-2.44-2.59-4.84-4-7.21-2.8-4.79-5.85-9.42-8.85-14.09a5354.59 5354.59 0 0 0-9.4-14.62c-2.82-4.38-5.68-8.75-8.13-13.35a52.289 52.289 0 0 1-5.41-14.39c-1.1-5.54-.87-11.24-.39-16.84.12-1.4.25-2.79.38-4.19 0-.24-.39-.29-.42-.05a89.982 89.982 0 0 0-.79 16.55 44.406 44.406 0 0 0 3.82 14.69 101.831 101.831 0 0 0 7.34 13.3c3 4.73 6 9.43 9 14.13 3 4.7 6.13 9.51 9.12 14.31 1.46 2.33 2.89 4.68 4.25 7.07a71.29 71.29 0 0 1 3.8 7.25 11.726 11.726 0 0 1 1.05 3.93 9.628 9.628 0 0 1-.76 4.1c-1 2.57-2.34 5-3.56 7.5-2.44 4.93-4.92 9.84-7.48 14.71-5.14 9.77-19 32.77-19.73 33.95-.05.09.08.16.14.08 5.89-9.41 13.05-20.37 18.35-30.13a467.701 467.701 0 0 0 7.73-14.74 348.82 348.82 0 0 0 3.68-7.46c1.1-2.28 2.37-4.63 2.44-7.22.07-2.59-1.03-5.01-2.18-7.28z"/><path fill="#263238" d="M394.05 195c-2.4 12.32-9.34 47.76-13.14 67.36-6.52-10.42-14.06-22-19.94-31.67-6.28-10.29-3.36-31.42-2.91-35.62l35.99-.07z"/><path fill="#FFC4C0" d="M401.31 451.53c-2.29.73-67.56-.19-70-1.8-.94-.61-1.36-10.12-1.54-21.63 0-2.48.55-40.37.55-40.37l43.66.49-2.13 40.35s24.84 11.53 27.35 13.59c2.51 2.06 4.4 8.64 2.11 9.37z"/><path fill="#263238" d="M389.249 436.88a95.03 95.03 0 0 1 9.92 5.28c2.51 2.06 4.43 8.64 2.14 9.36-2.29.72-67.56-.18-70-1.79-.77-.49-1.19-6.84-1.41-15.37 14.84 2.07 61.35 8.25 60.87 4.29-.06-.37-.63-1-1.52-1.77z"/><path fill="#37474F" d="M395.35 195.09s-7.39 36-7.78 37.15a93.615 93.615 0 0 0-10.5 5.21l-2.64 183-47.08.31s5.84-97 5.67-103.24c-.26-10 4.07-77.64 3.47-79.34-6.15-17.36 3.5-43 3.5-43l55.36-.09z"/><path fill="#263238" d="M372.66 411.72c-13.28-.57-39-.33-42.25.23-.07 0-.07.14 0 .15 3.29.53 34.5.59 42.25-.17a.112.112 0 0 0 .056-.04.107.107 0 0 0 .021-.065.11.11 0 0 0-.077-.105zM338 365.14c.75-13.76 1.56-27.52 2.35-41.28.79-13.76 1.57-27.53 2.36-41.29.39-6.88.76-13.76 1.18-20.64l.63-10.32c.341-3.395.488-6.808.44-10.22-.19-3.72-1.82-7-2.75-10.55a41.328 41.328 0 0 1-1.21-10.33c0-7.18 1.45-14.28 2.82-21.29.08-.39.68-.22.6.17a102.738 102.738 0 0 0-2.89 19.61 42.076 42.076 0 0 0 .85 9.83c.67 3.1 2 6 2.8 9 .8 3 .45 6.44.25 9.66-.21 3.44-.38 6.88-.56 10.32-.37 6.74-.77 13.48-1.15 20.23-1.57 27.38-3.09 54.77-4.76 82.15-.96 15.41-1.69 30.81-2.96 46.24 0 .11-.19.11-.18 0 .52-13.77 1.42-27.53 2.18-41.29z"/><path fill="#263238" d="M345.08 216.65c.79-.32 1.67-.42 2.48-.67a20.57 20.57 0 0 0 2.52-.93 19.021 19.021 0 0 0 4.32-2.71 10.083 10.083 0 0 0 2.76-4.17c.34-.85.66-1.71 1-2.57.16-.42.33-.85.5-1.27.06-.17.5-1.07.57-1.35a.08.08 0 0 1-.11 0h-.05a.092.092 0 0 1-.019-.055c0-.02.007-.039.019-.055.05-.1.06-.11.17-.14a.114.114 0 0 1 .12.05c.17.28 0 .55-.06.85-.13.57-.26 1.13-.4 1.69-.25 1-.48 2-.76 2.94a9.906 9.906 0 0 1-2.76 4.79 15.444 15.444 0 0 1-4.82 2.88 17.16 17.16 0 0 1-2.79.82 7.587 7.587 0 0 1-2.68.2c-.17-.06-.09-.25-.01-.3zm38.03 9.87c.08-1.65.18-3.29.3-4.94.26-3.76.59-7.53 1.18-11.24.05-.3.46-.19.44.08-.2 2.92-.49 5.84-.71 8.75-.22 2.91-.52 5.82-.52 8.72 0 .87.08 2.35 1.16 2.58 1.44.3 2.09-1.61 2.42-2.65a47.984 47.984 0 0 0 1.67-8c.42-3.07.62-6.17.86-9.25 0-.11.19-.1.2 0 .12 6.11.14 12.5-2 18.31a3.412 3.412 0 0 1-2.49 2.46h-.06v.1c0 .03-.07.35-.09.52-.02.17-.05.28-.08.43-.03.15-.09.59-.16.89a.228.228 0 0 1-.225.182.23.23 0 0 1-.225-.182.2.2 0 0 1-.13-.18 5.001 5.001 0 0 1 .37-1.74 2.147 2.147 0 0 1-1.6-1.3 7.606 7.606 0 0 1-.31-3.54z"/><path fill="#263238" d="M387.609 231.89a86.952 86.952 0 0 0-13.33 7.28c-.17.11 0 .37.14.27 4.5-2.28 9.1-4.48 13.47-7a.31.31 0 0 0-.28-.55zM375.74 327.9c0-.44.14-.61.16-.07.11 3 .07 7.39.1 10.43v10.72c0 3.57-.13 7.15-.27 10.73l-.22 5.35c-.07 1.24 0 3.68-.12 4.91 0 .55-.17.65-.22.1-.09-1.79-.09-3.22-.15-5l-.06-5.37v-10.72c0-3.57.13-7.15.27-10.72.14-3.57.25-6.79.51-10.36zm23.49-183.59a.531.531 0 0 1-.39.59l-2.11.2c-2.11-5.24-4.33-9.39-3.73-7.76a28.951 28.951 0 0 1 1.65 7.94l-4.17.32c-2-9.27-4.42-16.11-4.2-14 .88 8.57.52 11.34.09 14.3-10.07.74-23.28 1.54-32.84 1.91-1.32-5.11-2.51-10.66-2.67-10.26-1.18 2.93-1.36 7.15-1.26 10.4-3.05.09-5.48.11-7 0 0 0-.89-4.31-1.05-5.73a31.406 31.406 0 0 1 .62-10.85 54.89 54.89 0 0 1 4-10.15v-.07a31.268 31.268 0 0 0 2.28-6.77.21.21 0 0 0 0-.05c.339-1.704.533-3.433.58-5.17.18-6.36 3.3-11.92 8.81-13.73 10.09-10.86 20.83-6.64 24.35 1.42.34.79.68 1.69 1 2.68 1.23 3.64 2.39 8.38 3.43 12a38.236 38.236 0 0 0 1.42 4.22c3.08 6.72 9.32 10.34 11.19 28.56z"/><path fill="#263238" d="M355.579 97.26a11.699 11.699 0 0 0-6.08 9.8 32.773 32.773 0 0 1-1.14 7.92 27.533 27.533 0 0 1-3.93 7 20.856 20.856 0 0 0-4.33 11.49c-.21 4.63.22 10.08 1.85 14.35a39.508 39.508 0 0 1-1.1-15c.59-5 3.12-8.27 5.68-12.15a21.386 21.386 0 0 0 3.58-10.36c.18-2.29.05-4.68.83-6.85.92-2.6 2.9-4.29 4.88-5.79.3-.16.03-.58-.24-.41zm39.041 25.61c-2.73-3.54-5.55-6.55-7.25-11-1.54-4-2.51-8.31-4.08-12.34 0-.07-.11 0-.09 0 2.46 7.16 3.18 14.44 7.79 20.4 2.5 3.24 5 6.24 6.72 10.16a37.789 37.789 0 0 1 3 13 .11.11 0 0 0-.004.051.113.113 0 0 0 .109.092.104.104 0 0 0 .049-.012.104.104 0 0 0 .039-.033.11.11 0 0 0 .017-.098 31.005 31.005 0 0 0-6.3-20.22z"/><path fill="#37474F" d="M418.929 103.23l-6.47 29.64c-.29.88.16 1.56 1 1.54l15.17-.48a2.464 2.464 0 0 0 2.06-1.64l6.48-29.63c.28-.88-.17-1.56-1-1.54l-15.17.48a2.473 2.473 0 0 0-2.07 1.63z"/><path fill="#455A64" d="M420.73 103.16l-6.47 29.64c-.29.87.16 1.56 1 1.53l15.18-.48a2.465 2.465 0 0 0 2.05-1.63l6.51-29.64c.28-.87-.17-1.56-1-1.53l-15.17.48a2.474 2.474 0 0 0-2.1 1.63z"/><path fill="#263238" d="M424.929 104.37a1.285 1.285 0 0 1-.778 1.204 1.278 1.278 0 0 1-.492.106 1.29 1.29 0 0 1 0-2.58 1.279 1.279 0 0 1 1.27 1.27z"/><path fill="#FFC4C0" d="M371.439 149.31c9 18.09 28.83 41.4 36.81 41.33 3.8 0 10.59.71 15.48-3.76 10.65-9.77 19.32-28.18 20.93-38.64.57-3.73-17.64-11.34-20.23-8.26-6.08 7.21-13 21.24-14.11 21.18-4.09-.16-20.32-13.16-31.73-22.25-13.79-11.06-10.74 3.19-7.15 10.4zm73.231-20.24c-2.08-7.48-3.76-9.08-2.17-16.33 1.05-4.75-1.54-7.46-4.8-3.59-5.34 6.33-4.68 16.55-3.44 20l10.41-.08z"/><path fill="#FFC4C0" d="M443.85 151.48s3.12-10.56 1.69-18.75c-1-5.66-4.51-17.75-20.57-23.8-3.81-1.44-10.25-.78-4.88 3.82 3.81 3.27 7.22 4.19 9.09 6.5 0 0-8.1 1.81-9.39 5.68a75.944 75.944 0 0 0-2.65 10.36c.618.263 1.253.487 1.9.67 0 0-.86 3.73 1.95 8.83l22.86 6.69z"/><path fill="#FFC4C0" d="M443.74 127.47c-2.34-1.89-7.38-5.83-12.61-7.62-5.82-2-17.56-4.24-19 .07-1 3.16 3.37 4.41 3.37 4.41s-5 .09-5.37 3.15c-.29 2.79 3.18 3.56 3.18 3.56s-3.06.58-2.82 3.32c.29 3.29 6.64 1.54 9.81 4.62.7.7 23.44-11.51 23.44-11.51z"/><path fill="#263238" d="M430.05 126.35a24.454 24.454 0 0 0-14.44-2.1c-.12 0-.17.13-.05.13 4.89.082 9.751.754 14.48 2 0 0 .04-.01.01-.03zm-2.171 5.81c-2.28-1-9.06-2.54-14.55-1.23-.12 0-.16.14 0 .13a64.448 64.448 0 0 1 14.57 1.16s.01-.05-.02-.06z"/><path fill="#240046" d="M379.72 165.72l15-15.71s-11.2-10.23-19.42-14.22c-8.22-3.99-9.57 1.35-6.16 9.58s10.58 20.35 10.58 20.35z"/><path fill="#000" d="M379.72 165.72l15-15.71s-11.2-10.23-19.42-14.22c-8.22-3.99-9.57 1.35-6.16 9.58s10.58 20.35 10.58 20.35z" opacity=".1"/><path fill="#EBEBEB" d="M393.579 181.38l7.05 33.07s-54.36 4.38-67.93 4.32c0 0 6.91-63.15 20.4-79.87 6.75-8.37 15.32-8.34 21.11-3.18 1.47 1.31 19.31 21.92 21.58 30.09 1.99 7.19-2.21 15.57-2.21 15.57z"/><path fill="#240046" d="M368.209 132.51h-5.77c1.896-.46 3.875-.46 5.77 0zm5.941 3.16h-17.88c.25-.21.51-.41.77-.59h16.4c.24.19.48.38.71.59zm2.849 3.16h-23.84l.49-.59h22.86l.49.59zM379.7 142H351c.11-.2.23-.4.36-.59h27.86l.48.59zm2.59 3.15h-33c.09-.2.19-.4.29-.59h32.24l.47.59zm2.5 3.16h-37c.09-.2.17-.4.25-.59h36.24l.51.59zm2.41 3.16h-40.61l.22-.6h39.94l.45.6zm2.289 3.16h-44c.07-.21.13-.4.2-.6h43.4l.4.6zm2.151 3.16h-47.22l.2-.6h46.62l.4.6zm1.929 3.21h-50.09c0-.21.11-.4.17-.6h49.57c.13.15.24.35.35.6zm1.611 3.11h-52.59c.05-.2.11-.4.16-.6h52.16c.1.2.19.4.27.6zm.93 3.15h-54.35l.15-.59H396c0 .2.08.39.11.59zm.22 2.57v.59H341c0-.2.1-.4.14-.59h55.19zm-.21 3.17c0 .2-.06.4-.1.59h-55.77c0-.19.08-.39.13-.59h55.74zm-.65 3.15c-.05.2-.1.4-.16.59h-55.77c0-.2.09-.39.13-.59h55.8zm-1.01 3.16l-.23.59h-55.35c0-.2.07-.39.12-.59h55.46zm-.521 3.75h-55.7c0-.2.07-.39.12-.59h55.45l.13.59zm.67 3.16h-57c0-.2.07-.39.11-.59h56.75l.14.59zm.681 3.16h-58.24c0-.2.07-.4.1-.6h58l.14.6zm.709 3.16h-59.51c0-.2.07-.4.1-.6h59.24l.17.6zm.631 3.16H336c0-.2.06-.4.1-.6h60.4l.13.6zm.679 3.16h-61.86l.09-.6h61.64l.13.6zM398 202h-63c0-.2.07-.4.1-.6h62.8l.1.6zm.649 3.17h-64.17l.09-.59h64l.08.59zm.681 3.16H334l.09-.59h65.11l.13.59zm.67 3.16h-66.4c0-.19.06-.39.08-.59h66.19l.13.59zm.629 2.96l-2.48.2h-64.95c0-.19 0-.38.07-.59h67.28l.08.39zm-37.339 2.77c-3.08.21-6.14.41-9.09.59h-21.39c0-.17 0-.37.07-.59h30.41z"/><path fill="#263238" d="M395.49 175.74c.438-1.968.579-3.99.42-6a28.01 28.01 0 0 0-4.07-11.39c-1.17-2-2.57-3.84-3.73-5.83a.05.05 0 0 1-.009-.018.06.06 0 0 1-.001-.019.044.044 0 0 1 .007-.019.043.043 0 0 1 .013-.014.056.056 0 0 1 .017-.009l.02-.001a.067.067 0 0 1 .018.007.047.047 0 0 1 .015.013 41.984 41.984 0 0 1 3 4.08.632.632 0 0 0-.07-.14c-.32-.78-.65-1.55-1-2.31 0-.08.1-.15.14-.07.4.74.78 1.48 1.14 2.23.22.49.41 1 .58 1.48a37.606 37.606 0 0 1 3 5.46 18.913 18.913 0 0 1 1.41 12 21.504 21.504 0 0 1-2.73 6.17.085.085 0 0 1-.046.028.081.081 0 0 1-.053-.006.087.087 0 0 1-.037-.039.08.08 0 0 1-.004-.053 29.957 29.957 0 0 0 2-5.59"/><path fill="#FFC4C0" d="M361.55 136.37c.41 1 6.53 7.12 11.34 6.14 1.56-.32.19-8.94.19-8.94v-.66l.62-9.23-11.53-5.1-1.65-.66v10.38a58.274 58.274 0 0 0 1.03 8.07z"/><path fill="#263238" d="M360.59 123.62a18.578 18.578 0 0 0 12.53 9.29l.62-9.23-11.53-5.1-1.65-.66s0 2.54.03 5.7z"/><path fill="#FFC4C0" d="M385.11 109.82c1.69 16.15-7.79 19-11.27 19.34-3.16.33-14 1-17.32-14.84-3.32-15.84 3.62-21.78 10.82-22.91 7.2-1.13 16.08 2.26 17.77 18.41z"/><path fill="#263238" d="M381.52 106.34a10.586 10.586 0 0 1-1.11-.11 1.79 1.79 0 0 1-1.12-.34.575.575 0 0 1-.07-.7 1.414 1.414 0 0 1 1.37-.48 2.132 2.132 0 0 1 1.39.6.61.61 0 0 1-.46 1.03zm-10.63 1.23c.363-.092.72-.206 1.07-.34a1.779 1.779 0 0 0 1-.56.57.57 0 0 0-.07-.7 1.464 1.464 0 0 0-1.44-.19 2.144 2.144 0 0 0-1.24.88.6.6 0 0 0-.091.348.61.61 0 0 0 .771.562zm2.85 3.85s-.08.06-.07.11c.17 1.09.19 2.37-.75 2.86v.06c1.2-.32 1.16-2.02.82-3.03z"/><path fill="#263238" d="M372.609 110.4c-1.78.1-1.46 3.65.19 3.56 1.65-.09 1.31-3.64-.19-3.56z"/><path fill="#263238" d="M371.93 110.65c-.29.23-.56.61-.93.69-.37.08-.79-.27-1.11-.6 0 0-.06 0-.06.05.05.68.38 1.36 1.12 1.39.74.03 1.1-.61 1.21-1.31.02-.13-.11-.31-.23-.22zm7.889-.06s.09 0 .09.09c.06 1.11.31 2.36 1.33 2.65v.06c-1.24-.07-1.55-1.74-1.42-2.8z"/><path fill="#263238" d="M380.709 109.36c1.76-.28 2.19 3.27.56 3.52s-2.04-3.28-.56-3.52z"/><path fill="#263238" d="M381.48 109.51c.3.15.62.46.95.44.33-.02.64-.44.84-.84h.06c.1.68 0 1.41-.67 1.62-.67.21-1.09-.34-1.33-1-.05-.08.02-.29.15-.22zm-6.851 10.71c.28.24.56.59 1 .6.41-.02.81-.133 1.17-.33 0 0 .07 0 .05.06a1.483 1.483 0 0 1-1.37.66 1.18 1.18 0 0 1-.91-.94c-.06-.06.02-.09.06-.05zm4.201-4.45s.39 1.62.47 2.4c0 .07-.18.12-.44.17a3.722 3.722 0 0 1-3.72-1c-.06-.07 0-.16.11-.12a5.619 5.619 0 0 0 3.46.62c0-.22-.77-2.75-.65-2.77a6.51 6.51 0 0 1 1.8.22c-.72-3.4-2-6.65-2.65-10a.11.11 0 0 1 .073-.111.115.115 0 0 1 .071-.001.116.116 0 0 1 .056.042 56.907 56.907 0 0 1 3.32 10.7c.07.37-1.58-.05-1.9-.15z"/><path fill="#263238" d="M378.67 118.15a4.38 4.38 0 0 1-1.55 1.58c-.36.199-.772.283-1.18.24-.89-.11-1-.89-.95-1.59.036-.368.117-.731.24-1.08a5.67 5.67 0 0 0 3.44.85z"/><path fill="#FF9ABB" d="M377.12 119.73c-.36.199-.772.283-1.18.24-.89-.11-1-.89-.95-1.59a2.052 2.052 0 0 1 2.13 1.35z"/><path fill="#263238" d="M357.75 113.63c3 .49 4-6.28 4-6.28s12.74-1.63 14.22-11.88a17.478 17.478 0 0 0 8.41 9.89s0-11.31-8.85-13.86c0 0-10.94-4.5-17.54 4.07s-2.22 17.73-.24 18.06z"/><path fill="#263238" d="M375.999 94.71a11.233 11.233 0 0 1-.76 4.68 11.756 11.756 0 0 1-2.55 4.06c-.282.289-.579.562-.89.82l-.45.4-.5.34c-.34.22-.67.45-1 .65-.33.2-.72.36-1.08.53-.18.08-.36.18-.54.25l-.57.2-1.13.38c-.77.18-1.55.32-2.33.45.74-.29 1.5-.49 2.22-.78l1.07-.47.53-.23.5-.29c.34-.2.67-.39 1-.57.33-.18.62-.45.93-.67l.47-.34.42-.38c.294-.245.571-.509.83-.79a13.919 13.919 0 0 0 3.36-6c.22-.732.377-1.481.47-2.24z"/><path fill="#FFC4C0" d="M359.58 115s-3.63-5-5.91-3.7c-2.28 1.3.52 8.6 3.24 9.56a2.745 2.745 0 0 0 2.152.006 2.77 2.77 0 0 0 .907-.62c.257-.266.458-.581.591-.926l-.98-4.32z"/><path fill="#263238" d="M354.52 113.41v.07c1.91.74 2.94 2.47 3.67 4.28a1.53 1.53 0 0 0-1.055-.71 1.517 1.517 0 0 0-1.225.34s0 .11.05.1a1.682 1.682 0 0 1 1.87.55c.355.465.663.964.92 1.49.09.17.4.07.33-.12-.02-2.41-1.96-5.8-4.56-6zm4.74-18.02c1.45-.54 2.83-8.65-2.5-12.52-5.33-3.87-12.16.55-9.3 7.2 1.81 4.2 8.73 6.46 11.8 5.32z"/><path fill="#263238" d="M349.299 82.4a9.073 9.073 0 0 0-3.07 5.14 5.47 5.47 0 0 0 1.62 5.22 10.94 10.94 0 0 0 5.29 2.59 16.32 16.32 0 0 0 3.05.38 8.635 8.635 0 0 0 3.07-.34 7.333 7.333 0 0 1-3.05.9 13.344 13.344 0 0 1-3.22-.05 10.61 10.61 0 0 1-5.94-2.64 6.384 6.384 0 0 1-1.76-2.91 6.598 6.598 0 0 1 .06-3.36 8.014 8.014 0 0 1 3.95-4.93z"/><path fill="#FFC4C0" d="M352.1 140.18c-13.38 20.13-20.94 46.93-20 52.83 1.08 6.49 10.24 28.43 19.68 38.1 2.49 2.55 21.35-18.37 18.8-21.2-4.91-5.46-14.66-21.55-15.09-25.22-.4-3.39 4.54-25.2 5.84-37.6 1.3-11.91-3.01-16.28-9.23-6.91z"/><path fill="#FFC4C0" d="M370 209.24s10.24 4.5 16.8 7.76c3.66 1.82 9.66 5.5 11.74 8.07 3.1 3.83 13.65 21.87 9.33 24.52-3.91 2.4-11-14.24-11-14.24s8.64 16.16 3.4 18.19c-5.24 2.03-10.75-17.86-10.75-17.86s8.51 16.81 2.78 18c-4.3.98-10.3-16.74-10.3-16.74s7.21 14.5 2.8 15.65c-4.88 1.27-11.45-14.74-11.45-14.74-11.71 1-17.71-3.27-21.61-6.83-.96-.86 18.26-21.78 18.26-21.78z"/><path fill="#263238" d="M394.27 229.56c1.08 1.86 2.19 3.74 3.11 5.69a64.67 64.67 0 0 1 2.49 6 36.814 36.814 0 0 1 2.08 8.16c-1-4.9-4.2-11.94-5.12-13.89-.92-1.95-1.73-4-2.64-5.9-.02-.07.05-.1.08-.06zm-7.11 3.18c1.28 2.43 2.64 4.81 3.82 7.3 1.18 2.49 2 4.94 3 7.5.07.2-.06.17-.14 0-1.1-2.52-2.3-4.76-3.43-7.26-1.13-2.5-2.15-5-3.36-7.5.03-.06.09-.08.11-.04zm-6.59 1.62a62.116 62.116 0 0 1 5 11.62c.07.2-.1.15-.18 0-1.58-3.89-2.8-7-4.93-11.49-.05-.12.06-.2.11-.13z"/><path fill="#240046" d="M339.239 160.83l21.32 4.11s2.55-14.95 1.46-24c-1.09-9.05-6.31-7.31-11.38 0-5.07 7.31-11.4 19.89-11.4 19.89z"/><path fill="#000" d="M339.239 160.83l21.32 4.11s2.55-14.95 1.46-24c-1.09-9.05-6.31-7.31-11.38 0-5.07 7.31-11.4 19.89-11.4 19.89z" opacity=".1"/><path fill="#240046" d="M121.6 343.45c-1.16 4.93-2.39 9.78-2.63 14.84.14.25.11 1.17 0 .92 0 .82-1.27.67-1.27-.14v-1.55c-2.9-3.61-7.11-5.89-10.51-9a19.765 19.765 0 0 1-5.76-9.17c-2.82-9.73-.18-20-3.57-29.75-2.93-8.36-8.18-15.64-12.62-23.22-4.69-8-8.15-16.44-8.5-25.83-.27-7.19.58-16.77 6.06-22.15 5.8-5.72 13-1.44 17.45 3.66 12.88 14.79 18.84 33.48 21.25 52.59 1.33 10.58 2.71 21.22 2.39 31.89a86.014 86.014 0 0 1-2.29 16.91z"/><path fill="#263238" d="M119.001 362.18c.705-9.993.588-20.026-.35-30a1.667 1.667 0 0 0 0-.1c.16-8.1.8-16.17.48-24.28a143.97 143.97 0 0 0-3.56-26c0-.1-.18-.07-.16 0a170.221 170.221 0 0 1 2.82 25.46c.16 4.58.123 9.157-.11 13.73-.08 1.49-.22 3-.32 4.49a160.164 160.164 0 0 0-24.1-63.77c-.16-.26-.63 0-.47.29a166.422 166.422 0 0 1 19.62 47.28c-6.2-11.48-15.56-20.92-22.5-31.95 0-.06-.14 0-.11.06 6.24 12.29 16.55 22 23.12 34.07 1.13 4.93 2.07 9.91 2.76 14.92a167.584 167.584 0 0 1 1.5 20.72c-3.78-7.05-7.7-13.8-10.78-21.26a.15.15 0 0 0-.037-.052.158.158 0 0 0-.116-.046.144.144 0 0 0-.062.013.154.154 0 0 0-.087.09.168.168 0 0 0-.012.063c0 .021.005.042.014.062 2.62 7.75 6.15 16.1 11.1 22.71 0 4.907-.137 9.813-.41 14.72-.77 13.08-3 26-4 39-.01.08.013.16.063.222a.302.302 0 0 0 .537-.152 298.767 298.767 0 0 0 5.17-40.29z"/><path fill="#263238" d="M105.141 261.29c0-.09-.18 0-.15.07 2.39 6.61 3.74 13.3 5.47 20.07a.253.253 0 0 0 .106.142.254.254 0 0 0 .174.036.253.253 0 0 0 .154-.089.26.26 0 0 0 .056-.169c-.7-6.87-3.15-13.72-5.81-20.06z"/><path fill="#240046" d="M165.81 289a101.272 101.272 0 0 1-5.49 11.29c-4.31 7.81-8.79 15-9.61 24.07-.36 4.06-.49 8.14-1.73 12a35.768 35.768 0 0 1-4.8 9.44c-4.66 6.79-10.49 12.65-14.81 19.7a82.745 82.745 0 0 0-9.85 23.73c-.1.46-.82.33-.72-.12a.405.405 0 0 0 0-.11.117.117 0 0 1 0-.09c-.69-19.51.87-39.17 6.82-57.86a200.277 200.277 0 0 1 9.44-24.05c3.19-6.77 7.16-13.29 12.76-18.35 3.63-3.27 11.5-9.47 16.67-6.19 2.51 1.6 2.3 4.09 1.32 6.54z"/><path fill="#263238" d="M146.211 333.21a161.907 161.907 0 0 1-11.34 16.3c-1.89 2.46-3.8 4.91-5.69 7.38-.89 1.16-1.89 2.32-2.71 3.58.52-2.05 1-4.11 1.54-6.16 2.52-9.85 4.94-19.8 8.69-29.27 3.66-9.27 8.54-18 13.54-26.56.14-.22-.23-.39-.36-.17-4.12 6.78-8.31 13.55-11.77 20.7a107.803 107.803 0 0 0-5 12.28 190.579 190.579 0 0 1 6.65-26.24c0-.08-.08-.13-.11-.05a89.541 89.541 0 0 0-6.91 27.29c-.847 2.533-1.63 5.09-2.35 7.67-3.07 10.91-5.77 21.94-8.27 33-.044-7.276.585-14.54 1.88-21.7 0-.16-.22-.2-.26 0a68.816 68.816 0 0 0-1.88 22.87 1248.9 1248.9 0 0 0-2.77 12.63c-1.91 9-4.27 18.15-5.39 27.28a.188.188 0 0 0 .031.136.186.186 0 0 0 .119.074.189.189 0 0 0 .136-.031.202.202 0 0 0 .049-.052.201.201 0 0 0 .025-.067c1.34-4.92 2.15-10 3.24-15 1.09-5 2.23-10 3.39-15 1.7-7.26 3.46-14.503 5.28-21.73 1.21-2.65 3.54-5 5.29-7.22 1.92-2.44 3.84-4.88 5.71-7.36a109.494 109.494 0 0 0 9.39-14.53c.08-.08-.09-.15-.15-.05z"/><path fill="#263238" d="M147 324.87a101.778 101.778 0 0 0-11 17.62c0 .08.08.17.13.09 3.73-5.85 7.4-11.75 11.13-17.6.01-.1-.15-.2-.26-.11z"/><path fill="#240046" d="M64 307.48c2.53 4.36 5.41 9.58 4.33 14.81-.69 3.31-3.11 6-3.55 9.37-1 7.45 6.44 12.38 11.82 15.9 13.39 8.79 31.76 16.62 34.2 34.57.09.64 1.19.48 1.11-.15a.255.255 0 0 0 0-.11s.07-.06.07-.11a68.911 68.911 0 0 0-.25-27.41c-2-9.25-6-17.56-10.8-25.69-8.06-13.75-16.6-27.84-28.79-38.37-3.37-2.91-10.28-8.16-13-1.58-2.61 6.4 1.76 13.46 4.86 18.77z"/><path fill="#263238" d="M76.26 336.64c8.88 9.61 23 15 30.64 25.77-4.53-16.5-12-31.35-23.55-44.24a.35.35 0 0 1 .49-.49 87.162 87.162 0 0 1 19.25 27.88 124.523 124.523 0 0 0-8.29-21.2.23.23 0 0 1 .253-.307.23.23 0 0 1 .137.077 80.734 80.734 0 0 1 8.93 23.87c10.08 24.38 11 53 8.9 78.68 0 .37-.59.38-.58 0 .58-20.25.25-40.86-4.6-60.64-.1-.42-.22-.82-.32-1.23-8.32-11.6-22.38-17-31.42-28-.1-.12.06-.28.16-.17z"/><path fill="#263238" d="M74.2 328.38c4.66 4.28 9.25 8.65 13.92 12.93 0 0 0 .12-.07.09a68.518 68.518 0 0 1-14.13-12.74.199.199 0 0 1 .019-.261.198.198 0 0 1 .127-.058.196.196 0 0 1 .134.039zm-.74-18.53a147.486 147.486 0 0 0 14 19.19.08.08 0 0 1 .014.089.077.077 0 0 1-.02.026.093.093 0 0 1-.026.017.083.083 0 0 1-.032.004.081.081 0 0 1-.03-.007.09.09 0 0 1-.026-.019A67.637 67.637 0 0 1 73.21 310a.15.15 0 0 1 .066-.173.141.141 0 0 1 .096-.02.148.148 0 0 1 .088.043z"/><path fill="#455A64" d="M94.45 444.77h40.84l-5.51-54.94h-29.04l-6.29 54.94z"/><path fill="#263238" d="M99.72 398.76h30.961l-.89-8.93h-29.05l-1.02 8.93z"/><path fill="#455A64" d="M95.73 392.52h38.281v-8.77h-38.28v8.77z"/></svg>