<svg xmlns="http://www.w3.org/2000/svg" width="590" height="387" fill="none" viewBox="0 0 590 387"><g clip-path="url(#clip0)"><path fill="#FEEFDC" d="M43.368 386.191S.594 364.179.008 311.773c-.585-52.406 29.005-106.106 67.384-128.427 38.379-22.321 72.07-37.202 87.598-59.2 15.527-21.997 51.27-57.258 76.465-57.258 25.196 0 44.825 7.44 60.059-5.176 15.235-12.616 94.3-64.788 142.054-60.906 47.754 3.882 100.57 13.146 134.262 72.669 33.692 59.523 24.629 160.336-3.496 219.535-28.125 59.2-51.856 93.181-51.856 93.181H43.368z"/><path fill="#F07162" d="M464.323 66.405l27.539 6.973L291.909 267.78l-71.192-63.567L73.942 387h28.588l117.748-145.908 73.389 62.111L509.44 92.608l9.375 27.497 16.7-74.404-71.192 20.704z"/><path fill="#258D8C" d="M283.771 296.177s19.942-38.135 31.823-15.559c0 0 22.104-43.932 40.063-28.373 17.96 15.559-9.394 96.102-9.394 96.102s29.564-31.424 19.894 15.254c0 0 12.433-10.406 20.446-7.034 8.013 3.373 1.105 29.624 1.105 29.624h-87.587l-16.35-90.014z"/><path fill="#7FC6A6" d="M86.981 356.415s53.614-56.935 62.696-21.674c0 0 12.305-11.646 15.821-3.882 0 0 29.297-71.492 65.039-70.198 0 0 12.598.323 7.617 37.202-4.98 36.878 1.166 78.609 1.166 78.609s-34.857 9.381-36.029 9.705c-1.172.323-92.579-4.853-93.458-4.853-.879 0-22.852-24.909-22.852-24.909z"/><path fill="#FE9F73" d="M103.596 241.892c-2.609 1.164-14.13 25.591-14.13 25.591l6.426 3.989 14.479-19.956s-4.166-10.788-6.775-9.624z"/><path fill="#FE9F73" d="M85.11 275.441c.263.298.698.302.985.032l1.783-1.679a.159.159 0 0 1 .199-.019c.093.061.112.201.04.29l-2.313 2.843c-.265.326-.202.775.139.999.34.223.836.139 1.101-.187l2.359-2.899a.16.16 0 0 1 .215-.036l.05.033a.2.2 0 0 1 .06.259l-1.998 3.718c-.192.357-.115.83.196 1.065.34.257.801.14 1.008-.245l2.01-3.741c.048-.089.154-.119.235-.066l.159.104a.2.2 0 0 1 .07.238l-1.443 3.713c-.148.383-.017.84.32 1.028.367.207.81.025.97-.388 0 0 2.475-5.532 2.926-6.362l.866 2.045c.097.418.481.67.86.563.378-.106.607-.531.51-.949l-.605-4.983c-.063-.272-.501-.561-.903-.7-3.416-2.646-3.962-3.023-4.942-3.643l-2.146 4.318a11.557 11.557 0 0 1-2.417 3.279l-.246.231a.838.838 0 0 0-.047 1.139zm25.262 34.588l1.428 38.981h9.321l4.01-38.981h-14.759zm-15.418-14.396l-4.279 4.205-23.27 7.74-2.868 1.603.458 6.416 3.067 2.592s30.245-4.803 31.857-6.178c1.611-1.375 4.703-5.703 4.703-5.703s5.42-8.977 4.98-10.675c-.439-1.698-4.907-5.104-5.273-5.1-.366.005-9.375 5.1-9.375 5.1z"/><path fill="#F2A5B7" d="M102.498 241.407s1.978 6.672 7.251 8.37l9.872-24.834s-5.038-.844-9.872 6.354c-4.834 7.199-7.251 10.11-7.251 10.11z"/><path fill="#3F9896" d="M129.195 275.01s-1.758 32.268-3.076 40.639c0 0-9.888 2.79-29.334-10.918l4.175-7.642-6.592 5.216-3.515-6.859s7.47-11.702 9.009-13.521c0 0-.55-7.643 3.515-13.829 0 0 14.612-2.912 14.942-2.912.329 0 10.876 9.826 10.876 9.826z"/><path fill="#FE9F73" d="M134.154 242.647s10.848.825 13.528-.121c2.68-.946 15.468-23.218 15.468-23.218l-6.139-4.506-13.06 16.245-10.757-.174.96 11.774z"/><path fill="#FE9F73" d="M168.03 211.729a.677.677 0 0 0-.979-.112l-1.892 1.528a.157.157 0 0 1-.199.002.202.202 0 0 1-.021-.292l2.498-2.645a.669.669 0 0 0-.071-1.007.85.85 0 0 0-1.111.095l-2.547 2.697a.16.16 0 0 1-.217.019l-.048-.037a.202.202 0 0 1-.042-.264l2.243-3.543c.215-.341.171-.818-.123-1.078-.322-.284-.79-.206-1.023.162l-2.256 3.564a.161.161 0 0 1-.239.047l-.151-.116a.202.202 0 0 1-.054-.243l1.689-3.585c.173-.369.073-.836-.249-1.051-.353-.236-.807-.091-.995.307 0 0-2.841 5.313-3.346 6.104l-.726-2.11c-.068-.425-.435-.708-.82-.633-.384.076-.641.481-.572.905l.268 5.019c.044.277.461.601.852.772 3.228 2.92 3.747 3.34 4.684 4.039l2.43-4.129a11.302 11.302 0 0 1 2.632-3.071l.26-.211c.328-.265.389-.783.125-1.133z"/><path fill="#FECC86" d="M127.819 212.015s.026 9.544-1.239 9.799c-1.265.255 2.079 7.896 4.898 2.062.988-2.044-.396-11.311-3.495-13.606s-.164 1.745-.164 1.745z"/><path fill="#FE9F73" d="M128.037 209.59s2.095 8.755 1.203 10.473c0 0-.429.908-1.683 1.112l.64 5.219h-5.772l-1.731-14.857s1.243-3.884 1.261-3.732c.017.152 6.082 1.785 6.082 1.785z"/><path fill="#F07162" d="M127.159 217.226c-.024.004-.048-.012-.056-.038-.009-.029.005-.062.032-.073.322-.125.478-.605.521-.761-.502-.21-.832-.53-.978-.951-.239-.687.093-1.385.107-1.414.014-.028.045-.039.071-.024.025.015.034.05.021.078-.004.007-.324.683-.102 1.32.14.4.463.704.962.902l.044.017-.011.051c-.007.029-.164.721-.601.891a.036.036 0 0 1-.01.002zm.605 5.726l-.207-1.777s-2.741.21-4.545-.715c0 0 2.545 2.084 4.752 2.492z"/><path fill="#FECC86" d="M123.657 214.679a.095.095 0 0 1-.075-.021.124.124 0 0 1-.022-.161c.012-.016 1.157-1.693 2.487-.792a.122.122 0 0 1 .035.158c-.031.054-.094.071-.143.038-1.168-.791-2.17.67-2.212.733a.098.098 0 0 1-.07.045zm3.547-.756a.096.096 0 0 1-.082-.028.122.122 0 0 1-.009-.161c.035-.043.85-1.038 1.495-.57a.121.121 0 0 1 .029.158c-.031.053-.095.068-.143.033-.496-.359-1.219.522-1.226.531a.099.099 0 0 1-.064.037z"/><path fill="#2B2323" d="M125.502 215.38c.159 0 .289-.143.289-.319 0-.176-.13-.319-.289-.319-.16 0-.289.143-.289.319 0 .176.129.319.289.319zm2.696-.383c.16 0 .289-.143.289-.319 0-.177-.129-.319-.289-.319-.159 0-.289.142-.289.319 0 .176.13.319.289.319z"/><path fill="#FBFDFC" d="M124.909 217.395c.032.004 1.976.622 1.976.622s-.493.797-1.215.569c-.723-.227-.761-1.191-.761-1.191z"/><path fill="#FE9F73" d="M120.853 218.886c.895 0 1.62-.801 1.62-1.788 0-.988-.725-1.789-1.62-1.789-.894 0-1.62.801-1.62 1.789 0 .987.726 1.788 1.62 1.788z"/><path fill="#F07162" d="M120.862 218.209c-.338.048-.596-.2-.702-.469-.126-.318-.063-.654.161-.855.319-.287.65-.193.835-.098a.746.746 0 0 0-.362-.367c-.337-.146-.709.048-.713.05-.026.014-.056.002-.069-.026a.06.06 0 0 1 .024-.077c.017-.009.417-.218.796-.054.219.095.383.294.489.593l.068.191-.148-.125c-.018-.015-.444-.368-.855.002-.227.204-.213.516-.131.721.085.215.293.447.601.4.028-.005.055.017.059.049.004.031-.016.06-.044.064l-.009.001z"/><path fill="#FE9F73" d="M125.585 210.075l-1.603-1.944s2.382 1.255 2.204 1.341c-.178.087-.601.603-.601.603z"/><path fill="#FECC86" d="M121.33 209.595s.741 3.269 8.013 3.03c0 0 1.165-5.124-4.236-6.106-5.4-.982-5.417 3.507-5.315 3.453.102-.054 1.538-.377 1.538-.377z"/><path fill="#FEBAC7" d="M103.377 268.096l10.877-37.728s2.307-6.308 7.36-5.459c5.054.849 17.249 3.639 17.249 3.639s-.11 10.069-2.088 15.407c0 0-3.662 0-5.566-.405 0 0-.439 30.247-.659 32.35 0 0-15.821 2.022-27.173-7.804zm11.284 85.584l12.926-.226c.116-.021.212-.044.281-.069 1.211-.433.802-1.279.802-1.279l-7.326-5.273-3.338 1.667s-5.472 1.009-6.255-.705l.11 4.482s-.398 1.436 2.8 1.403zm-52.647-43.022l-.086 14.275c.016.129.035.235.056.312.364 1.346 1.14.913 1.14.913l4.939-7.968-1.435-3.722s-.791-6.064.778-6.89l-4.06.022c0-.001-1.292-.473-1.332 3.058z"/><path fill="#F07162" d="M92.93 304.675a.282.282 0 0 1-.25-.169l-2.079-4.398c-.072-.153-.018-.342.12-.422.14-.08.31-.021.383.133l2.078 4.398a.328.328 0 0 1-.12.422.264.264 0 0 1-.131.036z"/><path fill="#2B2323" d="M136.889 244.143h-.114c-8.704-.042-13.877-2.618-13.928-2.644a.196.196 0 0 1-.083-.249c.039-.095.14-.136.225-.093.051.026 5.117 2.546 13.671 2.609.289-.845 1.999-6.22 2.033-15.064l-5.533-1.238c-.092-.021-.152-.12-.133-.222.019-.102.11-.167.201-.147l5.805 1.3v.154c-.015 9.789-2.079 15.422-2.1 15.477l-.044.117z"/><path fill="#2B2323" d="M123.57 243.78c-.078 0-.149-.06-.166-.149-.019-.102.04-.201.132-.223l3.545-.819c.091-.021.182.044.201.146.019.101-.04.201-.132.222l-3.545.819a.134.134 0 0 1-.035.004zm6.98 32.308h-.004c-.094-.003-.168-.089-.166-.192l.659-32.35c.002-.104.083-.187.174-.183.094.002.169.088.166.192l-.659 32.349c-.002.102-.078.184-.17.184zm-23.489-20.582a.158.158 0 0 1-.052-.009c-.089-.031-.139-.137-.11-.236l6.896-23.92c1.01-3.504 2.231-3.926 2.283-3.942.09-.029.185.029.21.129.026.099-.025.202-.114.231-.024.009-1.117.443-2.055 3.695l-6.896 23.921a.173.173 0 0 1-.162.131zm-.846-7.734a.163.163 0 0 1-.12-.054c-.144-.159-3.521-3.908-3.766-6.29l-.008-.078.044-.06 8.753-12.094a.16.16 0 0 1 .239-.03.201.201 0 0 1 .026.264l-8.707 12.032c.298 2.259 3.625 5.952 3.659 5.99a.2.2 0 0 1 0 .265.159.159 0 0 1-.12.055zm-5.606 37.011c-.073 0-.14-.052-.163-.133l-.755-2.715c-.417-8.226 3.512-13.899 3.551-13.955a.16.16 0 0 1 .239-.033.202.202 0 0 1 .03.264c-.039.055-3.882 5.613-3.481 13.68l.741 2.648c.028.099-.022.205-.112.236a.169.169 0 0 1-.05.008z"/><path fill="#2B2323" d="M90.853 295.634a.162.162 0 0 1-.101-.036.201.201 0 0 1-.036-.263l9.009-13.522a.16.16 0 0 1 .238-.04.202.202 0 0 1 .036.263l-9.01 13.522a.165.165 0 0 1-.136.076zm32.512 20.493c-5.111 0-11.3-2.523-15.931-4.856-5.96-3.004-10.694-6.348-10.741-6.382l-.14-.098 4.261-7.799c.049-.089.153-.117.234-.064a.2.2 0 0 1 .057.258l-4.088 7.485c.824.573 5.194 3.555 10.562 6.26 5.466 2.754 13.114 5.776 18.505 4.534.092-.021.182.044.201.146.02.101-.04.201-.132.222-.878.202-1.813.294-2.788.294zm12.324-83.285a.17.17 0 0 1-.148-.094l-.969-1.868c-.046-.09-.018-.205.063-.256.082-.052.186-.021.233.069l.969 1.867a.2.2 0 0 1-.063.257.158.158 0 0 1-.085.025zm-.083 1.09a.166.166 0 0 1-.144-.088l-1.082-1.89a.2.2 0 0 1 .053-.26c.079-.055.184-.029.235.059l1.082 1.891a.2.2 0 0 1-.053.259.158.158 0 0 1-.091.029zm-30.591 42.99a.169.169 0 0 1-.148-.095l-.969-1.867c-.046-.09-.018-.205.063-.256.082-.052.186-.021.233.069l.969 1.867a.201.201 0 0 1-.063.257.158.158 0 0 1-.085.025zm-.084 1.09a.166.166 0 0 1-.144-.088l-1.082-1.891a.2.2 0 0 1 .053-.259c.079-.055.184-.029.235.059l1.082 1.891a.2.2 0 0 1-.053.259.163.163 0 0 1-.091.029z"/><path fill="#FECC86" d="M122.61 211.319s-.023 1.036-.478 2.688c0 0 5.668 10.384-2.166 14.753l-.868.096c-4.296.476-5.135-6.573-.87-7.306.051-.009.101-.017.152-.024.084-.012.067-.281.105-.196.094.211-1.775-2.622-2.266-8.071-.307-3.412 3.08-7.342 5.731-5.575 2.651 1.768.66 3.635.66 3.635z"/><path fill="#2B2323" d="M127.775 211.942c-3.115 0-4.982-2.004-5.065-2.095a.2.2 0 0 1-.001-.265.158.158 0 0 1 .24-.001c.021.022 2.113 2.259 5.463 1.956.092-.008.176.069.184.172.007.103-.062.194-.156.202a7.221 7.221 0 0 1-.665.031z"/><path fill="#FE9F73" d="M419.653 197.146l8.128.813 1.119-3.021-.02-9.523-9.441.526.214 11.205z"/><path fill="#49263E" d="M426.084 200.877l-12.927.024a1.85 1.85 0 0 1-.283-.062c-1.217-.41-.821-1.264-.821-1.264l6.184-4.255.117-.62c.188-.995 1.301-1.349 2.135-.679l2.168 1.743s5.488.903 6.244-.826l-.04 4.483s.421 1.429-2.777 1.456z"/><path fill="#FE9F73" d="M499.961 175.647l3.48-3.291-2.772-6.732-.67-.423-8.427-2.028-1.567 10.294 9.956 2.18z"/><path fill="#49263E" d="M504.646 169.516l-2.762 13.945a2.21 2.21 0 0 1-.116.291c-.625 1.225-1.295.614-1.295.614l-2.432-7.585-.522-.259c-.84-.417-.914-1.692-.142-2.448l2.009-1.963s1.98-5.723.613-6.91l3.956 1.007c0 .001 1.354-.146.691 3.308z"/><path fill="#61A3C5" d="M428.16 116.702l-4.006 7.148-8.71 15.544s-3.118 6.692-1.977 13.95c1.14 7.258 4.862 34.121 4.862 34.121s7.336.668 11.863-.229c0 0-.562-30.887-.54-34.164.021-3.276 13.181-25.733 14.042-26.842l6.798 26.804s3.416 14.494 9.8 15.22c6.385.726 30.443 7.299 30.443 7.299s2.932-9.157 2.19-14.359l-22.31-7.213s-5.614-28.404-7.724-36.735c-2.109-8.331-20.003-7.258-20.003-7.258l-14.728 6.714z"/><path fill="#2B2323" d="M463.367 126.729c-3.321 0-5.377-1.969-6.56-3.76-1.47-2.225-1.923-4.589-1.942-4.689-.019-.102.04-.201.132-.222.091-.021.182.044.201.146.004.024.46 2.394 1.89 4.553 1.904 2.875 4.545 4.037 7.85 3.453.093-.016.18.053.195.156.015.102-.048.199-.141.215a9.345 9.345 0 0 1-1.625.148z"/><path fill="#FE9F73" d="M466.603 77.7s9.497 6.41 11.294 8.802c1.795 2.392 1.697 28.763 1.697 28.763l-7.37.142-3.073-21.456-9.146-6.254 6.598-9.997z"/><path fill="#FE9F73" d="M480.006 124.551c-.36.125-.743-.1-.88-.487l-.847-2.413a.173.173 0 0 0-.168-.121c-.108.005-.185.118-.159.234l.813 3.715c.093.425-.155.788-.551.806-.397.018-.797-.315-.89-.741l-.829-3.788c-.02-.088-.092-.148-.174-.145l-.058.003c-.095.004-.169.092-.165.197l.16 4.319c.016.415-.255.791-.63.835-.41.048-.765-.297-.782-.745l-.161-4.345c-.004-.105-.084-.186-.178-.182l-.184.008c-.087.004-.157.078-.164.173l-.327 4.025c-.034.414-.347.747-.723.737-.413-.011-.724-.404-.688-.85 0 0 .2-6.167.16-7.133l-1.641 1.345a.66.66 0 0 1-.999.046.84.84 0 0 1-.041-1.104l2.675-4.068c.173-.206.682-.231 1.096-.143 4.144-.538 4.786-.584 5.916-.615l.032 4.925a12.8 12.8 0 0 0 .717 4.153l.118.332c.146.418-.055.89-.448 1.027zm-55.981-17.076s-3.566 11.343-5.405 13.695c-1.839 2.351-25.408 6.61-25.408 6.61l-1.348-8.003 18.655-6.898 4.072-10.995 9.434 5.591z"/><path fill="#FE9F73" d="M384.986 129.766a.844.844 0 0 1 .29-1.039l2.014-1.322a.197.197 0 0 0 .08-.202c-.022-.117-.136-.182-.235-.136l-3.183 1.501c-.365.171-.73-.038-.811-.467-.082-.428.149-.919.514-1.091l3.246-1.53a.196.196 0 0 0 .1-.214l-.012-.062c-.019-.103-.11-.168-.203-.147l-3.831.889c-.368.086-.749-.147-.85-.547-.111-.439.138-.883.536-.975l3.854-.895c.093-.021.152-.122.133-.225l-.038-.199c-.018-.093-.095-.157-.181-.15l-3.649.311c-.375.032-.725-.254-.778-.665-.058-.451.24-.856.646-.89 0 0 5.54-.803 6.397-1.006l-1.474-1.565c-.327-.235-.419-.719-.205-1.08.213-.361.651-.463.978-.227l4.077 2.239c.213.154.319.704.309 1.169 1.167 4.424 1.314 5.116 1.529 6.341l-4.393.85a10 10 0 0 0-3.591 1.469l-.277.182c-.349.229-.805.089-.992-.317z"/><path fill="#FD7583" d="M419.974 78.56l12.185-7.327c4.614-2.774 9.822-4.159 15.071-3.903 1.897.092 3.852.398 5.693 1.05 7.367 2.608 15.98 9.883 15.98 9.883s-5.122 9.644-7.884 10.991l-8.286-2.803s9.861 19.031 10.157 30.794c0 0-14.614 6.955-34.731-.543 0 0-2.347-8.704-2.671-10.639l-.392 3.027s-9.782-.943-13.008-4.224c0 0 3.312-18.713 3.874-20.566.766-2.522 2.758-5.035 4.012-5.74z"/><path fill="#F07162" d="M414.393 115.731a.27.27 0 0 1-.143-.042l-3.883-2.494a.33.33 0 0 1-.103-.428c.079-.15.252-.2.388-.113l3.883 2.493a.33.33 0 0 1 .103.428.28.28 0 0 1-.245.156z"/><path fill="#2B2323" d="M440.943 120.018l-.023-.002c-7.7-1.153-12.767-3.117-12.817-3.136l-.084-.033-.024-.096c-.045-.187-4.558-18.743-5.69-22.89-1.513-5.546.437-9.666.457-9.707.044-.091.147-.126.23-.077.083.05.114.163.07.254-.019.04-1.901 4.03-.431 9.421 1.09 3.997 5.314 21.346 5.669 22.805.689.259 5.543 2.02 12.666 3.086.093.014.158.109.146.212-.012.094-.085.163-.169.163z"/><path fill="#2B2323" d="M425.097 109.278l-.02-.001c-11.264-1.397-13.06-4.189-13.131-4.307l-.039-.065.014-.077 3.666-19.71c.009-.042.842-4 4.025-6.543a.16.16 0 0 1 .237.042.2.2 0 0 1-.037.262c-3.075 2.458-3.884 6.28-3.891 6.318l-3.65 19.62c.32.394 2.675 2.825 12.844 4.087.094.011.161.104.151.207-.01.097-.084.167-.169.167z"/><path fill="#2B2323" d="M425.097 109.278l-.023-.001c-.093-.014-.158-.109-.146-.212l.403-3.252c.013-.102.097-.175.192-.16.093.014.158.109.145.211l-.402 3.252c-.012.094-.085.162-.169.162zm35.954-19.816l-13.437-4.547c-.089-.03-.14-.135-.112-.234.027-.1.122-.156.212-.125l13.271 4.49c.529-.46 4.098-3.72 7.77-10.875.046-.09.151-.122.232-.071a.198.198 0 0 1 .064.256c-3.998 7.791-7.892 11.018-7.931 11.05l-.069.056z"/><path fill="#2B2323" d="M458.345 99.335a.17.17 0 0 1-.155-.112c-.04-.1-4.038-9.995-5.654-12.687a.2.2 0 0 1 .048-.26c.078-.058.184-.034.236.052 1.632 2.718 5.516 12.334 5.681 12.742.038.095-.001.206-.086.248a.158.158 0 0 1-.07.017zm-8.594 50.969a.175.175 0 0 1-.164-.138l-6.052-23.867-1.989-4.235c-.043-.092-.01-.206.073-.253.083-.048.186-.012.23.08l2.004 4.27.005.018 6.057 23.886c.025.1-.028.204-.118.232a.147.147 0 0 1-.046.007zm-22.292 2.549c-.092 0-.168-.082-.17-.184-.002-.104.073-.19.167-.191 1.68-.033 2.158-.37 2.234-.436l4.323-9.242c.044-.092.147-.128.23-.081.083.048.116.161.073.254l-4.346 9.29-.012.016c-.067.089-.505.536-2.496.575l-.003-.001z"/><path fill="#2B2323" d="M428.659 153.882a.17.17 0 0 1-.155-.113c-.038-.095.001-.205.087-.247a1.938 1.938 0 0 0 1.067-1.389c.013-.103.099-.175.192-.161.093.014.158.108.146.211a2.3 2.3 0 0 1-1.268 1.683.158.158 0 0 1-.069.016z"/><path fill="#2B2323" d="M423.332 187.981c-.444 0-.867-.012-1.251-.042-.093-.007-.164-.096-.158-.2.006-.104.088-.181.182-.175 2.607.198 7.042-.375 7.914-.493l-.502-34.445c-.001-.104.074-.19.168-.191.094-.004.171.081.173.185l.506 34.781-.151.021c-.045.007-3.943.559-6.881.559z"/><path fill="#2B2323" d="M423.956 186.028c-3.344 0-6.129-.44-6.174-.447-.093-.015-.157-.111-.143-.213.013-.103.1-.174.193-.159.071.012 7.181 1.135 12.289-.235.091-.024.183.038.206.138.022.101-.034.203-.126.227-1.959.525-4.206.689-6.245.689zm44.858-29.901a.167.167 0 0 1-.146-.092.198.198 0 0 1 .058-.258 5.461 5.461 0 0 0 1.707-1.828l-3.137-15.566c-.02-.102.037-.202.129-.225.092-.022.183.042.203.143l3.166 15.706-.03.061c-.023.048-.58 1.182-1.863 2.032a.156.156 0 0 1-.087.027z"/><path fill="#2B2323" d="M492.08 170.638a.147.147 0 0 1-.046-.007c-.091-.027-.144-.131-.119-.231.837-3.327.846-8.188.84-9.066l-21.967-7.102c-.01.364-.076 1.081-.393 2.066-.031.097-.129.148-.217.114-.089-.035-.135-.142-.104-.24.433-1.346.371-2.166.371-2.174l-.023-.275.24.077 22.43 7.252.002.138c.001.056.081 5.607-.851 9.311a.172.172 0 0 1-.163.137z"/><path fill="#2B2323" d="M488.668 175.381a.173.173 0 0 1-.038-.005c-.092-.023-.149-.124-.128-.226.021-.099 2.092-9.996 1.927-14.701-.004-.104.07-.191.164-.195.094-.005.172.077.176.18.166 4.756-1.914 14.701-1.935 14.801-.018.087-.088.146-.166.146zm-62.436-50.675a3.788 3.788 0 0 1-2.177-.703.2.2 0 0 1-.04-.262c.054-.084.16-.105.237-.045.013.011 1.354 1.03 3.049.456 1.805-.611 3.34-2.724 4.563-6.28.034-.097.132-.146.22-.109.087.037.132.145.098.242-1.263 3.675-2.874 5.865-4.788 6.508a3.617 3.617 0 0 1-1.162.193zm-1.894-44.696a.159.159 0 0 1-.078-.021.198.198 0 0 1-.073-.253l.89-1.915c.043-.092.146-.128.23-.08.083.047.116.16.073.252l-.89 1.914a.17.17 0 0 1-.152.103zm-.873.517a.156.156 0 0 1-.071-.017c-.086-.044-.123-.155-.083-.25l.847-2.031c.039-.094.14-.135.225-.092.086.043.123.155.084.25l-.847 2.03a.171.171 0 0 1-.155.11zm37.168 34.806l-.023-.002c-.093-.014-.158-.108-.146-.211l.26-2.133c.012-.103.098-.175.191-.162.093.014.158.109.146.212l-.259 2.133c-.012.094-.085.163-.169.163zm-.666.81l-.015-.001c-.094-.009-.163-.101-.154-.204l.182-2.228c.008-.103.093-.179.185-.17.093.01.162.101.154.204l-.182 2.228c-.008.097-.083.171-.17.171z"/><path fill="#FE9F73" d="M422.148 62.856l2.224 7.02s.664 2.407 2.613 1.987l.46 2.314c.428 2.147 2.448 3.418 4.334 2.715l.064-.024c2.12-.82 2.705-3.043 2.6-4-.105-.959-1.982-5.006-1.982-5.006l-.598-2.114-2.805-8.001-6.91 5.11z"/><path fill="#49263E" d="M428.379 64.389a.096.096 0 0 0 .053-.051c.023-.052.004-.115-.042-.141-.017-.01-1.672-.931-2.466.499a.113.113 0 0 0 .031.144c.044.031.102.016.129-.033.703-1.267 2.16-.459 2.222-.424.024.014.05.015.073.006zm-3.829.813a.096.096 0 0 0 .056-.06c.019-.053-.005-.114-.053-.135-.047-.021-1.145-.502-1.516.215a.112.112 0 0 0 .034.143c.045.03.103.012.129-.038.29-.561 1.274-.13 1.284-.126a.08.08 0 0 0 .066.001z"/><path fill="#2B2323" d="M426.912 65.082c-.146.057-.223.236-.171.4.052.163.213.25.359.194.147-.057.223-.235.171-.4-.052-.163-.212-.25-.359-.194zm-2.917.768c-.146.056-.223.235-.171.399.052.163.213.25.359.194.147-.057.223-.235.171-.4-.052-.163-.212-.25-.359-.193z"/><path fill="#F07162" d="M426.418 67.84a.05.05 0 0 0 .031-.05c0-.029-.022-.052-.048-.051l-.989.014-.459-2.44c-.005-.029-.03-.047-.055-.041-.026.005-.042.033-.037.061l.475 2.526 1.067-.016a.05.05 0 0 0 .015-.002z"/><path fill="#FBFDFC" d="M427.476 68.456c-.031.006-1.885.728-1.885.728s.522.754 1.212.487c.69-.266.673-1.215.673-1.215z"/><path fill="#49263E" d="M428.934 58.232l-.737 2.915s-5.096 2.716-8.124 1.296c-3.028-1.42-1.939-3.961-.614-4.3 1.325-.34 2.591.04 3.1-1.207.508-1.247 1.514-1.759 3.002-1.446 1.487.314 3.38 1.12 3.388 1.725a15.42 15.42 0 0 1-.015 1.017z"/><path fill="#49263E" d="M428.531 57.277s2.005-.898 3.271 1.08c1.265 1.977.864 3.424 1.052 4.086.187.663 1.983 4.926-.891 5.667l-3.059-7.006.044-3.277-.417-.55z"/><path fill="#FE9F73" d="M429.911 62.158c-.878.339-1.338 1.41-1.027 2.394.312.983 1.276 1.505 2.155 1.165.878-.339 1.337-1.41 1.026-2.394-.311-.983-1.276-1.505-2.154-1.165z"/><path fill="#F07162" d="M430.93 64.96c.33-.127.463-.49.448-.796-.019-.361-.218-.642-.509-.716-.43-.109-.699.172-.825.355a.902.902 0 0 1 .183-.562c.252-.314.685-.324.689-.324.026 0 .047-.023.046-.052 0-.03-.022-.052-.048-.052-.019 0-.477.01-.757.357-.162.201-.229.472-.2.805l.016.187.073-.168c.01-.024.258-.582.803-.444.302.076.423.381.435.62.012.246-.081.575-.385.692l-.009.003c-.024.01-.037.039-.029.066.008.028.035.042.059.033a.053.053 0 0 0 .01-.003zm-.283 3.226s.971 3.197-3.342 5.289l-.321-1.612s3.08-.464 3.663-3.677z"/><path fill="#2B2323" d="M433.568 78.317a.169.169 0 0 1-.153-.105.197.197 0 0 1 .078-.252c3.023-1.63 1.579-6.504 1.564-6.553-.03-.099.018-.205.107-.238s.186.02.216.118c.015.052 1.554 5.235-1.738 7.01a.153.153 0 0 1-.074.02z"/><path fill="#F07162" d="M469.076 94.263a.277.277 0 0 1-.24-.146.332.332 0 0 1 .089-.432l3.802-2.642c.132-.092.308-.048.391.099a.332.332 0 0 1-.089.431l-3.803 2.642a.262.262 0 0 1-.15.048z"/><path fill="#FE9F73" d="M270.373 177.898s-6.812 6.302-7.911 6.949c-2.483 1.462-26.23 8.361-26.23 8.361l-1.658-7.931 18.369-7.778 11.001-8.047 6.429 8.446z"/><path fill="#FE9F73" d="M228.089 195.582a.848.848 0 0 1 .25-1.051l1.96-1.417a.198.198 0 0 0 .073-.205c-.027-.116-.143-.176-.241-.125l-3.121 1.651c-.358.189-.731-.004-.829-.428-.098-.424.114-.926.472-1.115l3.183-1.683a.195.195 0 0 0 .092-.218l-.014-.062c-.024-.101-.117-.163-.209-.137l-3.793 1.07c-.365.103-.754-.111-.87-.506-.128-.434.103-.889.497-1l3.816-1.077c.092-.026.147-.129.124-.231l-.046-.197c-.021-.092-.101-.152-.187-.141l-3.633.483c-.374.05-.735-.218-.804-.627-.075-.448.207-.866.611-.92 0 0 5.504-1.065 6.352-1.309l-1.533-1.493c-.336-.22-.447-.699-.248-1.07.199-.37.633-.493.969-.273l4.16 2.044c.219.143.346.688.354 1.153 1.338 4.364 1.512 5.049 1.775 6.262l-4.356 1.058c-1.257.305-2.453.86-3.53 1.638l-.271.196c-.339.246-.8.127-1.003-.27zm89.488-25.011s10.183 4.213 12.997 4.152c2.813-.061 20.83-17.371 20.83-17.371l-4.717-6.255-16.72 11.448-10.263-3.56-2.127 11.586z"/><path fill="#FE9F73" d="M358.041 151.629a.7.7 0 0 0-.909-.416l-2.208.867a.162.162 0 0 1-.192-.061c-.067-.094-.04-.232.056-.286l3.078-1.747c.353-.2.439-.645.193-.988-.247-.343-.737-.459-1.09-.259l-3.138 1.781a.162.162 0 0 1-.214-.051l-.036-.05a.203.203 0 0 1 .028-.266l3.066-2.688a.856.856 0 0 0 .161-1.072c-.235-.374-.704-.446-1.022-.167l-3.084 2.704a.162.162 0 0 1-.242-.031l-.114-.159a.204.204 0 0 1 .011-.25l2.546-2.902c.262-.299.287-.778.034-1.086a.663.663 0 0 0-1.033-.02s-4.097 4.196-4.786 4.794l-.15-2.251c.045-.428-.234-.815-.621-.865-.389-.049-.739.259-.784.687l-1.041 4.894c-.03.279.286.721.617 1.009 2.338 3.817 2.727 4.383 3.443 5.348l3.397-3.191a10.451 10.451 0 0 1 3.317-2.113l.305-.119c.382-.151.575-.628.412-1.046z"/><path fill="#F07162" d="M329.263 167.772a.26.26 0 0 1-.047-.005c-.154-.028-.258-.19-.233-.36l.742-4.893c.026-.171.172-.286.327-.257.154.028.259.19.233.36l-.742 4.893c-.023.153-.144.262-.28.262z"/><path fill="#FE9F73" d="M261.111 281.064l9.943.206 3.242-9.453-10.285-2.175-2.9 11.422z"/><path fill="#49263E" d="M268.732 284.695h-12.814a1.921 1.921 0 0 1-.281-.065c-1.216-.421-.843-1.293-.843-1.293l6.036-4.338.102-.633c.164-1.017 1.259-1.377 2.1-.69l2.189 1.785s5.81.025 6.665-.617l-.434 4.367c-.001 0 .449 1.461-2.72 1.484z"/><path fill="#FE9F73" d="M336.828 266.487l-10.271-.25-1.242-10.139 10.103-.941 1.41 11.33z"/><path fill="#49263E" d="M328.917 269.694l13.234.581c.12-.013.219-.03.291-.05 1.261-.357.885-1.228.885-1.228l-6.185-4.518-.099-.624c-.158-1.003-1.284-1.405-2.161-.771l-2.28 1.648s-5.65.666-6.364-1.094l-.113 4.481c-.001 0-.481 1.409 2.792 1.575z"/><path fill="#7FC6A6" d="M276.964 201.749s-10.107 39.022-14.502 68.5c0 0 5.383 3.033 12.634 2.548l19.812-57.38s17.432 6.308 23.438 6.955l5.567 35.585s10.693.485 12.744-.971c0 0-2.784-42.378-3.955-45.451-1.172-3.073-23.78-14.8-23.78-14.8l-31.958 5.014z"/><path fill="#2B2323" d="M314.966 202.022c-3.128 0-6.841-3.102-7.04-3.271a.2.2 0 0 1-.031-.263.16.16 0 0 1 .238-.035c.06.051 6.074 5.077 9.035 2.4a.16.16 0 0 1 .24.026.203.203 0 0 1-.024.265c-.698.63-1.535.878-2.418.878zm-38.599 8.589c-1.01 0-1.693-.3-1.741-.321-.087-.039-.128-.149-.093-.245.036-.096.135-.142.222-.103.025.011 1.834.794 3.894-.276 2.046-1.063 3.634-3.522 4.719-7.309.029-.099.124-.154.214-.123.089.032.139.137.11.236-1.115 3.896-2.766 6.432-4.906 7.54a5.22 5.22 0 0 1-2.419.601z"/><path fill="#61A3C5" d="M290.953 152.497s-8.642.809-11.718 1.618c-3.076.808-19.044 14.557-19.044 14.557s2.71 10.352 8.79 12.535l8.422-8.977-.439 29.519s19.702 5.581 33.985-3.962l-1.685-30.166 8.789 4.609s4.688-8.41 4.102-13.829c0 0-12.598-5.742-16.114-5.904-3.515-.162-15.088 0-15.088 0z"/><path fill="#2B2323" d="M290.903 203.517c-7.223 0-13.893-1.564-13.975-1.584l-.136-.032.002-.155.433-29.066-8.202 8.741-.097-.035c-3.193-1.147-5.444-4.534-6.77-7.174-1.431-2.846-2.123-5.462-2.13-5.488l-.032-.122.091-.078c.653-.563 16.031-13.783 19.108-14.592l.013-.003 4.304-.764c.093-.017.18.053.195.155.015.103-.048.199-.141.216l-4.298.763c-2.9.775-17.569 13.318-18.879 14.442.327 1.155 3.042 10.182 8.548 12.252l8.643-9.212-.443 29.816c1.229.277 10.499 2.264 18.677 1.266.094-.011.177.063.187.166.011.104-.057.196-.15.208a41.08 41.08 0 0 1-4.948.28z"/><path fill="#2B2323" d="M277.403 172.418a.16.16 0 0 1-.125-.061.201.201 0 0 1 .011-.265l1.585-1.601a.158.158 0 0 1 .24.012.201.201 0 0 1-.011.265l-1.585 1.601a.158.158 0 0 1-.115.049zm15.193-13.038c-3.978 0-4.308-5.648-4.311-5.706-.005-.104.067-.192.161-.198.095-.006.174.074.179.177.001.014.077 1.405.63 2.756.727 1.774 1.896 2.647 3.475 2.593.097-.003.173.079.176.182.002.104-.071.191-.165.194-.049.002-.097.002-.145.002zm17.369 20.98c-.089 0-.164-.077-.17-.176-.458-8.198-1.316-20.363-1.325-20.485-.007-.103.063-.193.156-.201.096-.008.176.069.183.172.009.122.868 12.289 1.326 20.491.005.104-.066.193-.16.199h-.01z"/><path fill="#2B2323" d="M318.123 172.475l-8.932-4.685c-.085-.044-.121-.157-.081-.25.04-.094.142-.134.227-.089l8.646 4.534c.381-.755 2.077-4.172 3.018-7.037.032-.097.13-.148.218-.113.089.036.134.143.102.241-1.069 3.256-3.099 7.207-3.12 7.247l-.078.152z"/><path fill="#2B2323" d="M310.886 167.647a.17.17 0 0 1-.15-.1l-.921-1.897c-.044-.091-.013-.205.07-.254.083-.049.186-.014.23.077l.921 1.897c.044.091.013.205-.07.254a.157.157 0 0 1-.08.023zm.881.5a.169.169 0 0 1-.153-.106l-.879-2.015c-.041-.094-.005-.206.079-.251.085-.045.186-.006.227.088l.879 2.015c.041.093.005.206-.079.25a.154.154 0 0 1-.074.019zm-30.783 30.643a.17.17 0 0 1-.148-.094l-.969-1.867a.2.2 0 0 1 .063-.257c.082-.052.186-.02.233.07l.969 1.867c.046.09.018.205-.063.256a.158.158 0 0 1-.085.025zm-.082 1.09a.166.166 0 0 1-.144-.087l-1.082-1.891a.199.199 0 0 1 .053-.259c.079-.056.184-.029.234.058l1.083 1.891a.2.2 0 0 1-.053.259.156.156 0 0 1-.091.029zm10.297 26.47a.16.16 0 0 1-.063-.014c-.088-.038-.13-.147-.096-.244l5.275-14.698v-5.665c0-.104.076-.188.17-.188.094 0 .17.084.17.188v5.737l-5.298 14.765a.172.172 0 0 1-.158.119zm-26.291 45.163a.167.167 0 0 1-.044-.006c-.091-.026-.145-.129-.121-.229l3.997-16.832c.024-.101.117-.16.208-.134.09.026.145.129.121.229l-3.997 16.832c-.02.084-.089.14-.164.14zm61.535-13.32c-.083 0-.155-.066-.168-.16l-2.505-18.19c-.014-.103.05-.199.143-.214.092-.016.18.054.194.157l2.504 18.191c.014.103-.049.198-.142.214a.246.246 0 0 1-.026.002z"/><path fill="#FE9F73" d="M288.378 139.624v7.581s-.097 2.563 1.934 2.883l-.38 3.42c-.14 1.271.548 2.487 1.653 2.874a5.798 5.798 0 0 0 1.918.327c2.321 0 3.578-1.922 3.771-2.883.194-.961-.386-5.553-.386-5.553l.07-2.256-.264-8.742-8.316 2.349z"/><path fill="#49263E" d="M293.981 143.415c.024 0 .048-.01.067-.03a.114.114 0 0 0 .003-.151c-.013-.015-1.344-1.517-2.559-.436a.114.114 0 0 0-.015.15.092.092 0 0 0 .137.016c1.077-.958 2.248.361 2.297.418a.093.093 0 0 0 .07.033zm-3.986-.641a.09.09 0 0 0 .073-.037.114.114 0 0 0-.01-.15c-.039-.038-.962-.909-1.545-.356a.114.114 0 0 0-.01.15.09.09 0 0 0 .136.012c.457-.433 1.284.348 1.292.355a.09.09 0 0 0 .064.026z"/><path fill="#2B2323" d="M292.315 144.167c.161 0 .291-.143.291-.32 0-.177-.13-.321-.291-.321-.16 0-.29.144-.29.321 0 .177.13.32.29.32zm-3.083-.32c.161 0 .291-.144.291-.321 0-.177-.13-.32-.291-.32-.16 0-.29.143-.29.32 0 .177.13.321.29.321z"/><path fill="#49263E" d="M296.424 137.696l-1.619 2.532s-4.905 2.103-7.419-.389c-2.515-2.491-1.741-3.688-1.004-4.935.363-.615 2.098-1.867 4.225-.824 1.162.569 2.021-1.13 3.374-.275 1.354.854 2.951 2.333 2.773 2.919-.179.585-.33.972-.33.972z"/><path fill="#49263E" d="M296.327 136.628s2.233-.118 2.856 2.255c.623 2.373-.215 3.615-.237 4.323-.021.707.413 5.477-2.619 5.121l-.819-7.878 1.055-3.136-.236-.685z"/><path fill="#FE9F73" d="M296.163 145.658c.961 0 1.74-.861 1.74-1.923 0-1.061-.779-1.922-1.74-1.922-.962 0-1.741.861-1.741 1.922 0 1.062.779 1.923 1.741 1.923z"/><path fill="#F07162" d="M296.291 144.913c.362 0 .603-.3.683-.6.094-.355-.014-.699-.275-.878-.385-.264-.735-.095-.914.035.075-.218.193-.377.352-.473.343-.208.768-.056.772-.055.026.009.053-.006.061-.034.009-.028-.005-.058-.03-.067-.019-.007-.469-.168-.849.062-.22.133-.369.369-.444.7l-.043.186.124-.135c.017-.019.431-.463.92-.128.271.185.295.524.233.757-.064.243-.257.523-.589.523h-.01c-.027 0-.048.024-.049.053 0 .03.021.054.048.054h.01zm-1.271 2.999s-.136 4.289-4.988 4.699l.28-2.522s3.146.698 4.708-2.177z"/><path fill="#49263E" d="M288.042 145.999s-.633 5.135 2.455 5.317c4.418.261 4.846-2.523 5.108-4.801l.045-4.702-.142-1.364a2.57 2.57 0 0 0-.545 1.397c-.092 1.128-.318 4.165-.573 4.3-.36.19-5.661-.641-6.348-.147z"/><path fill="#F07162" d="M291.002 146.007a.05.05 0 0 0 .046-.036c.008-.028-.005-.059-.031-.068l-.969-.354.306-2.519c.004-.029-.015-.056-.041-.06-.027-.004-.051.017-.055.046l-.317 2.607 1.046.382c.005.002.01.002.015.002z"/><path fill="#FBFDFC" d="M291.754 147.048c-.03-.007-1.915-.056-1.915-.056s.237.861.937.881c.701.02.978-.825.978-.825z"/><path fill="#FEC786" d="M179.797 353.195H54.991v32.996h124.806v-32.996z"/><path fill="#F99247" d="M179.797 353.195h-21.314v32.996h21.314v-32.996z"/><path fill="#FEC786" d="M337.123 284.048H212.317v102.143h124.806V284.048zm164.942-83.462H377.26v185.605h124.805V200.586z"/><path fill="#F99247" d="M337.122 284.048h-21.313v102.143h21.313V284.048zm164.942-83.462h-21.313v185.605h21.313V200.586z"/><path fill="#2B2323" d="M54.992 386.379c-.094 0-.17-.084-.17-.188v-33.184H170.48c.094 0 .17.084.17.188s-.076.188-.17.188H55.162v32.808c0 .104-.076.188-.17.188z"/><path fill="#2B2323" d="M158.484 375.699c-.094 0-.171-.085-.171-.188v-22.316c0-.104.077-.188.171-.188.093 0 .17.084.17.188v22.316c0 .103-.077.188-.17.188zm-92.87-9.269a.168.168 0 0 1-.148-.095l-3.067-5.91c-.047-.09-.019-.205.063-.256.08-.051.185-.021.232.069l3.067 5.911a.199.199 0 0 1-.063.256.156.156 0 0 1-.084.025zm-.261 3.451a.166.166 0 0 1-.144-.088l-3.425-5.984a.2.2 0 0 1 .053-.259c.08-.056.185-.03.235.058l3.425 5.985a.2.2 0 0 1-.053.259.156.156 0 0 1-.09.029zm103.109 1.924c-.089 0-.164-.078-.169-.178l-.336-6.802c-.005-.103.067-.192.161-.198.091-.007.174.074.179.178l.335 6.802c.005.103-.066.192-.16.198h-.01zm-1.636 2.954c-.086 0-.16-.073-.169-.17l-.625-7.046c-.009-.103.059-.195.153-.205.093-.01.177.065.186.169l.625 7.046c.009.103-.059.195-.153.205l-.017.001zm56.319-75.817a.17.17 0 0 1-.148-.094l-3.067-5.91a.199.199 0 0 1 .063-.257c.081-.051.185-.02.232.07l3.067 5.91c.047.09.019.205-.063.256a.155.155 0 0 1-.084.025zm-.259 3.451a.165.165 0 0 1-.144-.088l-3.426-5.984a.202.202 0 0 1 .053-.26c.08-.055.185-.029.235.059l3.425 5.985a.2.2 0 0 1-.053.259.16.16 0 0 1-.09.029zm103.109 1.924c-.09 0-.165-.078-.17-.178l-.335-6.802c-.006-.103.066-.192.16-.198.094-.007.174.074.179.178l.336 6.802c.005.103-.067.192-.161.197l-.009.001zm-1.637 2.954c-.086 0-.16-.073-.169-.17l-.625-7.046c-.009-.103.059-.195.153-.205.093-.011.177.065.186.169l.625 7.046c.009.103-.06.195-.153.205l-.017.001zm65.721-92.347a.167.167 0 0 1-.147-.094l-3.068-5.91a.2.2 0 0 1 .063-.257c.082-.051.186-.02.233.069l3.067 5.911c.046.09.018.205-.063.256a.158.158 0 0 1-.085.025zm-.259 3.451a.168.168 0 0 1-.144-.088l-3.425-5.984a.2.2 0 0 1 .053-.26c.079-.055.185-.029.235.059l3.425 5.984a.2.2 0 0 1-.053.26.163.163 0 0 1-.091.029zM518.948 87.162a.2.2 0 0 1 .059.177l-1.086 6.705c-.017.103-.105.17-.198.152-.092-.018-.154-.115-.137-.218l1.085-6.705c.017-.102.105-.17.198-.152.03.006.057.02.079.04zm2.207-2.462a.2.2 0 0 1 .059.17l-.855 7.016c-.012.103-.098.175-.191.161-.093-.014-.158-.108-.146-.21l.855-7.017c.012-.103.098-.175.191-.162a.16.16 0 0 1 .087.043zM169.766 274.651a.203.203 0 0 1-.034.185l-4.092 5.097a.159.159 0 0 1-.24.016.201.201 0 0 1-.014-.265l4.092-5.098a.16.16 0 0 1 .24-.016.192.192 0 0 1 .048.081zm3.044-.831a.205.205 0 0 1-.029.179l-4.041 5.495a.16.16 0 0 1-.24.028.203.203 0 0 1-.025-.264l4.042-5.496a.16.16 0 0 1 .239-.028.19.19 0 0 1 .054.086zm179.371-52.734a.203.203 0 0 1-.034.185l-4.092 5.097a.159.159 0 0 1-.24.016.201.201 0 0 1-.014-.265l4.092-5.098a.16.16 0 0 1 .24-.016.192.192 0 0 1 .048.081zm3.044-.831a.205.205 0 0 1-.029.179l-4.041 5.496a.16.16 0 0 1-.24.027.201.201 0 0 1-.024-.264l4.041-5.496a.16.16 0 0 1 .239-.028.19.19 0 0 1 .054.086zm137.704.044c-.089 0-.165-.078-.17-.178l-.335-6.802c-.005-.104.067-.192.161-.198.092-.006.174.074.179.178l.335 6.801c.005.104-.066.192-.16.198l-.01.001zm-1.636 2.954c-.087 0-.161-.073-.169-.17l-.625-7.046c-.009-.103.059-.195.153-.205.092-.01.177.066.186.169l.625 7.045c.009.104-.059.196-.153.206l-.017.001z"/><path fill="#2B2323" d="M212.317 353.868c-.094 0-.171-.084-.171-.188v-69.82h114.319c.094 0 .17.084.17.188s-.076.188-.17.188H212.487v69.444c0 .104-.076.188-.17.188z"/><path fill="#2B2323" d="M315.809 335.307c-.094 0-.17-.084-.17-.187v-51.072c0-.104.076-.188.17-.188.094 0 .17.084.17.188v51.072c0 .103-.076.187-.17.187zm61.45-32.914c-.094 0-.17-.084-.17-.188V200.398l115.838.316c.094 0 .17.084.17.188-.001.104-.077.188-.171.188l-115.497-.315v101.43c0 .104-.076.188-.17.188z"/><path fill="#2B2323" d="M480.751 277.511c-.094 0-.17-.084-.17-.188v-76.737c0-.103.076-.188.17-.188.094 0 .171.085.171.188v76.737c0 .104-.077.188-.171.188z"/><path fill="#258D8C" d="M171.053 386.689c1.465-1.618 12.891-24.262 20.801-12.616 0 0 12.927-32.835 29.297-26.406 0 0 10.437 6.673 2.856 23.292 0 0 25.269-1.779 24.94 15.73h-77.894z"/><path fill="#7FC6A6" d="M398.105 387c.733-.647 12.745-26.527 20.655-14.395 0 0 11.865-44.481 28.125-42.378 16.26 2.103 2.49 35.099 2.49 35.099s13.916-6.308 10.694 10.352c0 0 17.725-3.559 16.406 10.513l-78.37.809z"/><path fill="#7FC6A6" d="M471.145 341.441c-1.401-1.283-4.295.019-6.463 2.908-2.168 2.888-2.79 6.27-1.388 7.552 1.401 1.283 4.295-.019 6.463-2.908 2.168-2.888 2.79-6.27 1.388-7.552zm.693 12.502c-.83-.759-2.543.012-3.827 1.721-1.283 1.71-1.651 3.712-.822 4.471.83.76 2.543-.011 3.827-1.721 1.283-1.71 1.651-3.711.822-4.471z"/><path fill="#49263E" d="M521.168 385.382H35.202V387h485.966v-1.618z"/><path fill="#2B2323" d="M213.326 269.83a.166.166 0 0 1-.139-.08.201.201 0 0 1 .042-.262c.022-.016 2.181-1.664 5.219-3.09 2.811-1.319 6.974-2.714 10.842-1.868.092.02.152.119.134.221-.019.101-.109.167-.2.147-7.249-1.584-15.716 4.834-15.8 4.899a.159.159 0 0 1-.098.033zm4.725 0a.165.165 0 0 1-.14-.081.2.2 0 0 1 .043-.261c.039-.03 3.971-2.958 10.871-2.626.094.005.167.092.163.196-.004.103-.082.184-.178.179-6.775-.326-10.624 2.532-10.662 2.56a.158.158 0 0 1-.097.033zm120.898-14.256a.165.165 0 0 1-.139-.081.201.201 0 0 1 .042-.262c.06-.045 6.046-4.584 11.207-3.456.092.02.152.119.134.221-.019.101-.109.167-.2.147-5.019-1.096-10.888 3.352-10.946 3.397a.16.16 0 0 1-.098.034zm3.984.411a.166.166 0 0 1-.14-.082.2.2 0 0 1 .043-.261c.112-.085 2.776-2.068 7.59-1.836.094.005.167.092.163.196-.004.104-.081.185-.178.18-4.692-.226-7.355 1.75-7.382 1.77a.16.16 0 0 1-.096.033zm97.813 80.916a.163.163 0 0 1-.118-.053.203.203 0 0 1-.004-.266c.119-.136 2.943-3.325 5.972-3.325h.002c.094 0 .17.084.17.188s-.076.188-.17.188h-.002c-2.883 0-5.699 3.178-5.727 3.21a.165.165 0 0 1-.123.058zm2.27-.257a.16.16 0 0 1-.119-.053.202.202 0 0 1-.003-.266c.054-.061 1.363-1.514 4.102-1.976.094-.016.18.055.195.157.014.103-.05.199-.143.214-2.628.444-3.898 1.853-3.91 1.868a.166.166 0 0 1-.122.056zm-34.26 39.48a.16.16 0 0 1-.118-.052.201.201 0 0 1-.004-.266c.118-.136 2.943-3.326 5.972-3.326.098.003.172.084.172.189 0 .103-.076.188-.17.188h-.002c-2.886 0-5.7 3.178-5.728 3.21a.16.16 0 0 1-.122.057zm2.27-.256a.161.161 0 0 1-.119-.054.2.2 0 0 1-.003-.265c.054-.062 1.363-1.514 4.102-1.976.095-.016.18.055.194.157.014.103-.05.198-.142.214-2.619.442-3.898 1.853-3.911 1.867a.16.16 0 0 1-.121.057zm-55.308-32.042a.159.159 0 0 1-.116-.051.202.202 0 0 1-.008-.266c.128-.15 3.173-3.689 6.484-3.739h.003c.093 0 .169.082.17.185.001.104-.074.189-.168.19-3.166.049-6.21 3.586-6.241 3.621a.162.162 0 0 1-.124.06zm2.481-.32a.164.164 0 0 1-.117-.052.201.201 0 0 1-.006-.265c.058-.068 1.467-1.678 4.456-2.23.092-.018.18.052.196.154.015.102-.047.199-.14.217-2.868.529-4.251 2.102-4.265 2.117a.163.163 0 0 1-.124.059zm-164.871-16.45a.165.165 0 0 1-.124-.059.202.202 0 0 1 .008-.266l5.213-5.381a.16.16 0 0 1 .241.009.202.202 0 0 1-.008.265l-5.213 5.382a.166.166 0 0 1-.117.05zm-.57 2.951a.168.168 0 0 1-.142-.084.202.202 0 0 1 .048-.261c1.056-.777 5.153-4.778 5.195-4.818a.159.159 0 0 1 .24.015.204.204 0 0 1-.015.266c-.169.165-4.156 4.058-5.232 4.85a.153.153 0 0 1-.094.032zm-90.369 18.514a.171.171 0 0 1-.156-.111c-.038-.095.001-.206.086-.248l3.725-1.835c.085-.042.186.001.224.096a.196.196 0 0 1-.086.248l-3.724 1.834a.155.155 0 0 1-.069.016zm-.806 1.477c-.075 0-.144-.056-.164-.14-.024-.1.03-.203.121-.229.697-.202 3.581-1.518 3.61-1.532.087-.039.187.006.222.102.036.096-.005.206-.092.246-.119.054-2.934 1.339-3.654 1.547a.16.16 0 0 1-.043.006zm107.277 3.87a.164.164 0 0 1-.134-.072.203.203 0 0 1 .028-.264c.169-.147 4.182-3.601 7.849-4.087.094-.013.178.061.189.164.012.103-.055.197-.148.209-3.572.473-7.638 3.974-7.679 4.01a.16.16 0 0 1-.105.04zm-.001 2.178a.164.164 0 0 1-.133-.069.203.203 0 0 1 .025-.264c.028-.025 2.778-2.463 6.286-3.593.089-.029.184.028.211.128.026.099-.026.204-.116.233-3.44 1.108-6.139 3.5-6.166 3.524a.162.162 0 0 1-.107.041z"/><path fill="#FEEFDC" d="M268.029 29.826c-2.722 5.286-8.496 10.19-7.178 16.66 1.318 6.47 10.254 13.587 25.928 4.853 15.674-8.734 19.482-26.688 12.891-32.188-6.592-5.5-23.145-5.823-31.641 10.675zm-44.083 15.862c-.546-3.97 1.788-7.76 5.319-8.726a11.185 11.185 0 0 1 1.923-.342c6.153-.566 8.863 4.933 6.446 8.411-2.417 3.478-8.863 5.904-11.646 4.044-1.391-.93-1.868-2.123-2.042-3.387z"/><path fill="#fff" d="M206.472 127.439c8.851-1.681 39.219-7.083 60.456-6.389 2.754.09 4.095-3.718 1.987-5.677-1.233-1.146-3.214-1.952-6.383-1.785 0 0-1.219-21.655-16.089-21.16-17.055.567-14.998 21.73-14.998 21.73s-8.532-7.042-12.975 3.876c0 0-10.216-4.855-13.833 7.046-.395 1.298.613 2.591 1.835 2.359zM63.518 219.043c5.345-1.316 17.907-4.195 29.055-5.157 4.612-.398 7.946-5.12 7.097-10.142-.347-2.055-1.373-4.334-3.51-6.74-8.227-9.265-18.352 2.83-17.453 8.125 0 0-3.532-7.579-10.45-4.891-6.92 2.688-2.675 13.872-2.675 13.872s-2.38-.122-3.796 1.368c-1.392 1.464-.145 4.027 1.732 3.565zM377.79 42.294c9.912-1.838 34.129-5.933 49.011-5.104 2.15.12 3.314-2.777 1.764-4.428-1.118-1.19-2.996-2.09-6.146-1.906 0 0 1.575-15.345-11.718-15.345-13.661 0-12.452 15.83-12.452 15.83s-8.642-7.44-11.572 3.235c0 0-8.713-3.14-12.06 2.28-1.576 2.554.413 5.95 3.173 5.438z"/><path fill="#FEC787" d="M36.372 253.165c2.791 0 5.054-2.498 5.054-5.58s-2.263-5.58-5.054-5.58c-2.791 0-5.054 2.498-5.054 5.58s2.263 5.58 5.054 5.58zm282.514-151.281c2.791 0 5.053-2.498 5.053-5.58s-2.262-5.58-5.053-5.58-5.054 2.498-5.054 5.58 2.263 5.58 5.054 5.58zm10.378-20.831c1.462 0 2.648-1.31 2.648-2.924 0-1.615-1.186-2.924-2.648-2.924-1.463 0-2.649 1.309-2.649 2.924s1.186 2.924 2.649 2.924zm217.83 84.008c3.317 0 6.005-2.969 6.005-6.631 0-3.662-2.688-6.631-6.005-6.631-3.316 0-6.005 2.969-6.005 6.631 0 3.662 2.689 6.631 6.005 6.631zm9.682 20.03c1.738 0 3.147-1.556 3.147-3.475s-1.409-3.475-3.147-3.475c-1.738 0-3.147 1.556-3.147 3.475s1.409 3.475 3.147 3.475zM53.761 260.63c1.313 0 2.377-1.175 2.377-2.625 0-1.449-1.064-2.624-2.377-2.624-1.312 0-2.376 1.175-2.376 2.624 0 1.45 1.064 2.625 2.376 2.625zM25.05 280.777c.739 0 1.337-.661 1.337-1.476 0-.816-.598-1.477-1.337-1.477-.738 0-1.337.661-1.337 1.477 0 .815.599 1.476 1.337 1.476z"/><path fill="#2B2323" d="M482.714 71.283a.19.19 0 0 1-.044-.005l-19.254-4.699 71.96-21.039c.107-.03.217.04.245.157.029.118-.035.24-.142.271l-70.364 20.573 17.642 4.305c.108.026.176.144.152.264-.02.103-.103.173-.195.173zM352.373 209.324a.192.192 0 0 1-.15-.075.238.238 0 0 1 .018-.312l48.076-46.85a.188.188 0 0 1 .283.019.238.238 0 0 1-.017.313l-48.077 46.85a.189.189 0 0 1-.133.055zm4.202 32.702a.195.195 0 0 1-.151-.076.238.238 0 0 1 .02-.312l20.854-20.098a.186.186 0 0 1 .282.021.238.238 0 0 1-.019.312l-20.854 20.098a.188.188 0 0 1-.132.055zm-169.246 3.989a.187.187 0 0 1-.133-.056.239.239 0 0 1-.017-.312l33.507-41.717.149.132 21.331 19.018c.087.077.1.217.03.312a.188.188 0 0 1-.282.033l-21.181-18.885-33.254 41.4a.189.189 0 0 1-.15.075zm50.86 10.457a.19.19 0 0 1-.121-.045l-17.881-15.052a.237.237 0 0 1-.038-.31c.067-.097.193-.117.281-.042l17.881 15.052a.237.237 0 0 1 .038.31.194.194 0 0 1-.16.087z"/></g><defs><clipPath id="clip0"><path fill="#fff" d="M0 0h590v386.4H0z" transform="translate(0 .6)"/></clipPath></defs></svg>