<svg xmlns="http://www.w3.org/2000/svg" width="642" height="461" fill="none" viewBox="0 0 642 461"><g clip-path="url(#clip0)"><path fill="#FFE2CF" d="M548.918 31.083c-97.181-36.085-174.368 69.037-275.31 80.461-75.933 8.639-191.644-33.438-240.478 60.05-12.887 24.661-15.117 64.369-10.589 91.816 12.54 75.097 67.504 133.406 137.586 156.255 89.378 29.12 189.971 26.612 277.887-10.449 121.841-51.342 246.747-192.828 173.183-330.274-13.376-25.079-40.684-39.848-62.279-47.859z"/><path fill="#F4BBA6" d="M608.062 460.697H19.755c-7.245 0-13.166-5.921-13.166-13.166s5.921-13.167 13.166-13.167h588.307c7.245 0 13.167 5.922 13.167 13.167s-5.922 13.166-13.167 13.166z"/><path fill="#F4BB56" d="M573.23 197.3c-10.24 0-18.46 8.29-18.46 18.461 0 10.24 8.289 18.46 18.46 18.46 10.241 0 18.461-8.29 18.461-18.46 0-10.241-8.29-18.461-18.461-18.461zm0 30.721c-6.757 0-12.26-5.503-12.26-12.26 0-6.758 5.503-12.261 12.26-12.261 6.758 0 12.261 5.503 12.261 12.261 0 6.757-5.503 12.26-12.261 12.26zM398.236 1.616l5.991 7.314c.488.558 1.254.767 1.95.488l8.778-3.414c1.533-.627 2.996 1.115 2.09 2.578l-5.085 7.941a1.675 1.675 0 0 0 .139 2.02l5.991 7.315c1.045 1.324-.139 3.205-1.811 2.787l-9.126-2.369c-.697-.209-1.463.14-1.881.767l-5.086 7.941c-.905 1.394-3.065.836-3.204-.836l-.557-9.474c-.07-.766-.558-1.393-1.324-1.602l-9.126-2.369c-1.602-.418-1.741-2.716-.209-3.274l8.778-3.413c.696-.279 1.114-.976 1.114-1.742l-.487-9.474c-.07-1.672 2.02-2.508 3.065-1.184zM77.645 223.424l-.627 9.404c-.07.766.418 1.463 1.114 1.742l8.778 3.553c1.533.627 1.393 2.856-.209 3.274l-9.196 2.299c-.696.209-1.254.836-1.323 1.532l-.627 9.405c-.14 1.672-2.299 2.229-3.205.836l-5.015-8.012c-.418-.626-1.185-.975-1.881-.766l-9.196 2.299c-1.602.418-2.856-1.532-1.742-2.786l6.061-7.245a1.676 1.676 0 0 0 .14-2.021l-5.016-8.011c-.906-1.393.557-3.135 2.09-2.508l8.777 3.553c.697.279 1.463.07 1.95-.488l6.062-7.245c1.044-1.323 3.204-.487 3.065 1.185z"/><path fill="#A5EA81" d="M616.7 330.566c-3.344 8.359-11.077 26.193-23.129 21.805a.525.525 0 0 1-.278-.14c-2.717-1.114-4.25-3.483-5.016-6.13-.697-2.438-.766-5.155-.488-7.524.488-4.876 1.881-11.912 5.155-21.177 3.484-9.614 9.893-19.715 15.953-25.428 4.25-4.04 8.36-5.921 11.077-3.901 1.393 1.045 2.368 2.996 2.856 6.2 1.951 12.122-1.742 25.288-6.13 36.295z"/><path fill="#80D36C" d="M616.699 330.566c-3.344 8.359-11.076 26.193-23.128 21.804h-.07a.523.523 0 0 1-.278-.139c1.463-4.528 3.483-11.146 6.339-20.829 8.22-27.935 16.51-39.151 20.411-43.261.906.697 1.672 1.811 2.23 3.553.278.766.487 1.672.627 2.717 1.95 11.982-1.742 25.148-6.131 36.155z"/><path fill="#70B758" d="M616.7 330.566c-3.344 8.36-11.077 26.193-23.129 21.805 4.668-1.115 11.146-5.225 16.162-18.183 6.34-16.37 10.659-33.926 12.54-42.494.278.766.487 1.672.627 2.717 1.88 11.982-1.812 25.148-6.2 36.155z"/><path fill="#A5EA81" d="M580.614 399.602c-.07 0-.07 0 0 0-.139-.209-.488-.348-.975-.487-2.23-.627-7.315-.976-8.081-1.115-4.041-.627-7.942-.906-11.564-2.787-10.38-5.294-19.158-15.953-19.785-27.935-.139-3.343 1.184-6.339 3.692-8.011.836-.557 1.812-.975 2.926-1.254 5.295-1.114 9.126 1.811 12.54 5.295 9.683 9.752 18.042 22.779 21.247 36.294-.07 0 0 0 0 0z"/><path fill="#80D36C" d="M580.544 399.532c-.278-.139-.627-.278-.975-.487-3.413-1.742-10.38-6.061-19.645-16.65-8.847-9.962-13.654-18.46-16.023-23.198a6.658 6.658 0 0 1 2.369-1.045c.209-.069.348-.139.557-.139 5.295-1.114 9.126 1.811 12.54 5.295 9.474 9.543 17.694 22.292 20.968 35.528.14.209.209.487.209.696z"/><path fill="#70B758" d="M580.405 398.836c-2.647-2.578-6.687-7.454-10.658-16.092-5.364-11.495-18.113-20.969-23.407-24.522.209-.07.348-.139.557-.139 5.295-1.115 9.126 1.811 12.54 5.294 9.474 9.474 17.624 22.223 20.968 35.459z"/><path fill="#393150" d="M580.614 400.09c-.069 0-.139 0-.209-.07-19.714-10.798-28.771-27.029-28.84-27.238-.14-.209-.07-.557.209-.627.209-.139.557-.07.627.209.069.139 8.986 16.162 28.422 26.82.209.14.349.418.209.697-.139.139-.278.209-.418.209z"/><path fill="#393150" d="M576.643 442.236a.476.476 0 0 1-.488-.487c0-.418-.418-40.614 14.978-87.01 15.465-46.326 17.555-49.739 17.625-49.879.139-.209.487-.278.696-.139.209.139.279.418.14.697-.07.139-2.299 4.04-17.486 49.67-15.395 46.186-14.977 86.243-14.977 86.661 0 .209-.209.487-.488.487z"/><path fill="#A5EA81" d="M612.171 413.187c-4.947 3.413-10.45 6.13-16.232 7.871-2.926.906-5.921 1.603-8.917 2.021-2.647.418-6.409 1.323-9.056.696.069-.348.139-.766.278-1.184.906-2.856 3.205-5.921 4.877-8.22 2.159-3.065 4.737-5.852 7.593-8.36 5.573-4.946 12.331-8.777 19.645-10.937 4.807-1.463 10.38-2.09 14.56.488.697.418 1.115.975 1.324 1.602 1.184 4.876-11.634 14.281-14.072 16.023z"/><path fill="#80D36C" d="M623.874 402.807c-3.553 4.389-10.032 9.195-11.703 10.31-4.947 3.413-10.45 6.13-16.232 7.872-2.926.906-5.921 1.602-8.917 2.02-2.647.418-6.409 1.324-9.056.697.069-.349.139-.767.278-1.185.488-.417 1.115-.905 1.881-1.532 3.553-2.717 10.171-7.315 22.153-14.42 11.286-6.688 18.949-8.848 23.895-9.405.418 1.602-.627 3.553-2.299 5.643z"/><path fill="#70B758" d="M623.874 402.807c-3.553 4.388-10.032 9.195-11.703 10.31-4.947 3.413-10.45 6.13-16.232 7.872-2.926.905-5.921 1.602-8.917 2.02-2.647.418-6.409 1.324-9.056.697.069-.349.139-.767.278-1.185.488-.418 1.115-.905 1.881-1.532 5.922-.418 15.605-2.438 25.567-9.614 6.757-4.737 13.027-7.245 18.182-8.568z"/><path fill="#393150" d="M577.966 424.193c-.139 0-.209-.069-.278-.139-.14-.139-.14-.418 0-.627 11.633-11.773 37.618-22.501 37.896-22.64.209-.07.488 0 .558.209.069.209 0 .487-.209.557-.279.139-26.124 10.798-37.619 22.432-.139.139-.209.208-.348.208z"/><path fill="#77C282" d="M641.5 360.173c-.209 6.478-14.49 17.625-17.346 19.715-6.061 4.458-12.888 7.941-20.064 10.31-3.552 1.184-7.245 2.02-11.006 2.647-3.275.488-7.872 1.741-11.146.906.069-.349.139-.627.209-.976.905-3.901 3.97-8.15 6.13-11.285a66.285 66.285 0 0 1 9.335-10.868c6.896-6.478 15.186-11.425 24.243-14.281 5.921-1.881 12.748-2.717 17.903.697 1.254.766 1.742 1.881 1.742 3.135z"/><path fill="#58A066" d="M641.5 360.173c-.07 1.463-.767 3.065-1.951 4.807-4.04 6.13-13.236 13.236-15.395 14.838-6.061 4.458-12.888 7.942-20.064 10.31-3.552 1.184-7.245 2.02-11.006 2.647-3.275.488-7.872 1.742-11.146.906.069-.348.139-.627.209-.975.975-.906 2.507-2.299 4.249-3.762 4.11-3.483 9.753-8.011 14.978-10.868 9.613-5.294 24.103-14.35 37.06-17.415 1.115-.209 2.16-.418 3.066-.488z"/><path fill="#33895C" d="M639.549 365.049c-4.04 6.131-13.236 13.236-15.395 14.839-6.061 4.458-12.888 7.941-20.064 10.31-3.552 1.184-7.245 2.02-11.006 2.647-3.275.488-7.872 1.742-11.146.906.069-.349.139-.627.209-.976.975-.905 2.507-2.299 4.249-3.761 3.622-.07 8.708-1.115 16.023-3.832 14.002-5.364 28.213-14.142 37.13-20.133z"/><path fill="#393150" d="M581.937 394.168c-.139 0-.209-.069-.278-.139-.209-.139-.209-.488 0-.627 14.35-15.326 46.395-29.328 46.744-29.467.209-.07.487 0 .557.209.07.209 0 .487-.209.557-.348.139-32.254 14.072-46.396 29.258-.209.14-.278.209-.418.209z"/><path fill="#77C282" d="M576.852 433.807c-.07-.07-.418-.07-1.045 0-1.951.069-6.061.418-6.897.348-2.577-.209-5.155-.696-7.593-1.532-6.27-2.16-11.355-6.479-14.56-12.261-2.299-4.18-4.737-11.007.279-12.749a11.134 11.134 0 0 1 2.369-.418c8.429-.278 14.49 6.409 18.809 12.888 3.065 4.389 5.642 9.196 8.638 13.724z"/><path fill="#58A066" d="M575.807 433.738c-1.951.07-6.061.418-6.897.349-2.578-.209-5.155-.697-7.593-1.533-6.27-2.159-11.356-6.479-14.56-12.261-1.045-1.811-2.09-4.179-2.438-6.409-.558-2.786-.07-5.364 2.717-6.339 4.249 3.483 9.056 9.613 16.301 17.207 2.856 3.065 5.434 5.155 7.593 6.548 1.881 1.254 3.553 2.02 4.877 2.438z"/><path fill="#33895C" d="M575.807 433.737c-1.95.07-6.061.418-6.896.348-2.578-.209-5.156-.696-7.594-1.532-6.269-2.16-11.355-6.479-14.559-12.261-1.045-1.811-2.09-4.18-2.439-6.409 2.787 1.742 6.758 4.876 11.425 10.519 4.319 5.225 10.241 6.758 15.187 6.897 1.881 1.254 3.553 2.02 4.876 2.438z"/><path fill="#393150" d="M576.853 434.294h-.14c-12.051-4.388-20.063-15.047-22.71-18.53-.348-.488-.627-.836-.766-.975-.209-.209-.209-.488 0-.697.209-.209.487-.209.696 0 .14.139.418.488.836 1.045 2.578 3.413 10.45 13.933 22.223 18.182.279.07.418.348.279.627 0 .209-.209.348-.418.348z"/><path fill="#77C282" d="M587.023 370.205c-1.324 1.254-6.339-1.254-7.524-1.811-5.085-2.229-9.544-5.573-13.723-9.126-8.43-7.315-15.396-16.232-20.342-26.194-3.483-6.966-5.852-17.276 1.951-21.247a16.42 16.42 0 0 1 2.229-.905c8.917-2.578 17.067 5.015 21.595 11.842 12.958 19.367 15.605 44.655 15.814 47.302v.139z"/><path fill="#58A066" d="M587.023 369.995c-1.185-1.114-2.717-2.577-4.389-4.388-5.086-5.574-11.982-14.003-18.043-22.78-8.847-12.749-10.519-26.681-17.277-31.07a16.487 16.487 0 0 1 2.23-.906 13.847 13.847 0 0 1 2.229-.418c8.011-.836 15.186 6.061 19.366 12.261 12.958 19.366 15.605 44.654 15.884 47.301z"/><path fill="#33895C" d="M587.023 369.995c-1.184-1.114-2.717-2.577-4.389-4.389-.836-7.244-3.344-18.6-11.007-29.676-8.289-12.122-14.489-20.62-19.854-25.427 8.012-.836 15.187 6.06 19.367 12.261 12.957 19.296 15.604 44.584 15.883 47.231z"/><path fill="#393150" d="M587.023 370.692a.536.536 0 0 1-.348-.139c-.209-.209-19.993-21.805-26.751-35.668-.139-.209 0-.557.209-.627.209-.139.558 0 .627.209 6.688 13.724 26.403 35.18 26.542 35.389.209.209.139.488 0 .697-.07.069-.139.139-.279.139z"/><path fill="#D9A693" d="M590.019 450.944c-.279-5.573-6.409-10.031-13.933-10.031s-13.654 4.458-13.933 10.031h27.866z"/><path fill="#A5EA81" d="M25.398 330.566c3.343 8.359 11.076 26.193 23.128 21.805.07 0 .209-.07.279-.14 2.717-1.114 4.249-3.483 5.015-6.13.697-2.438.767-5.155.488-7.524-.488-4.876-1.88-11.912-5.155-21.177-3.483-9.614-9.892-19.715-15.953-25.428-4.25-4.04-8.36-5.921-11.077-3.901-1.393 1.045-2.368 2.996-2.856 6.2-1.95 12.122 1.672 25.288 6.13 36.295z"/><path fill="#80D36C" d="M25.398 330.566c3.343 8.359 11.076 26.193 23.128 21.804h.07a.52.52 0 0 0 .278-.139c-1.463-4.528-3.483-11.146-6.34-20.829-8.22-27.935-16.51-39.151-20.41-43.261-.906.697-1.672 1.811-2.23 3.553-.278.766-.487 1.672-.627 2.717-1.95 11.982 1.672 25.148 6.13 36.155z"/><path fill="#70B758" d="M25.398 330.566c3.344 8.36 11.076 26.193 23.128 21.805-4.667-1.115-11.146-5.225-16.162-18.183-6.34-16.37-10.658-33.926-12.54-42.494-.278.766-.487 1.672-.626 2.717-1.881 11.982 1.741 25.148 6.2 36.155z"/><path fill="#A5EA81" d="M61.483 399.602c.14-.209.488-.348.976-.487 2.229-.627 7.314-.976 8.08-1.115 4.041-.627 7.942-.906 11.565-2.787 10.38-5.294 19.157-15.953 19.784-27.935.139-3.343-1.184-6.339-3.692-8.011-.836-.557-1.811-.975-2.926-1.254-5.294-1.114-9.126 1.811-12.54 5.295-9.752 9.752-18.042 22.779-21.247 36.294z"/><path fill="#80D36C" d="M61.483 399.532c.28-.139.627-.278.976-.487 3.413-1.742 10.38-6.061 19.645-16.65 8.847-9.962 13.654-18.46 16.022-23.198a6.656 6.656 0 0 0-2.368-1.045c-.21-.069-.349-.139-.557-.139-5.295-1.114-9.126 1.811-12.54 5.295-9.474 9.543-17.694 22.292-20.969 35.528-.07.209-.139.487-.209.696z"/><path fill="#70B758" d="M61.622 398.836c2.647-2.578 6.688-7.454 10.659-16.092 5.364-11.495 18.112-20.969 23.406-24.522-.209-.07-.348-.139-.557-.139-5.294-1.115-9.126 1.811-12.54 5.294-9.474 9.474-17.624 22.223-20.968 35.459z"/><path fill="#393150" d="M61.483 400.09c.07 0 .14 0 .209-.07 19.715-10.798 28.77-27.029 28.84-27.238.14-.209.07-.557-.209-.627-.208-.139-.557-.07-.626.209-.07.139-8.987 16.162-28.423 26.82-.21.14-.349.418-.21.697.07.139.21.209.419.209z"/><path fill="#393150" d="M65.385 442.236a.476.476 0 0 0 .487-.488c0-.418.418-40.613-14.977-87.009-15.466-46.326-17.556-49.74-17.625-49.879-.14-.209-.488-.279-.697-.139-.209.139-.279.418-.14.696.07.14 2.3 4.041 17.486 49.67 15.396 46.187 14.978 86.243 14.978 86.661 0 .209.209.488.488.488z"/><path fill="#A5EA81" d="M29.855 413.187c4.946 3.413 10.45 6.13 16.232 7.872 2.925.905 5.921 1.602 8.917 2.02 2.647.418 6.409 1.324 9.056.697-.07-.349-.14-.767-.279-1.185-.905-2.856-3.204-5.921-4.876-8.22-2.16-3.065-4.737-5.852-7.594-8.36-5.573-4.946-12.33-8.777-19.645-10.937-4.806-1.463-10.38-2.09-14.56.488-.696.418-1.114.975-1.323 1.602-1.184 4.877 11.634 14.281 14.072 16.023z"/><path fill="#80D36C" d="M18.152 402.807c3.553 4.389 10.031 9.195 11.703 10.31 4.946 3.413 10.45 6.13 16.232 7.872 2.926.906 5.921 1.602 8.917 2.02 2.647.418 6.409 1.324 9.056.697-.07-.349-.14-.767-.279-1.185-.487-.417-1.114-.905-1.88-1.532-3.554-2.717-10.172-7.315-22.154-14.42-11.285-6.688-18.948-8.848-23.894-9.405-.418 1.602.627 3.553 2.299 5.643z"/><path fill="#70B758" d="M18.152 402.807c3.553 4.389 10.032 9.195 11.704 10.31 4.946 3.414 10.45 6.13 16.231 7.872 2.926.906 5.922 1.602 8.917 2.02 2.648.418 6.41 1.324 9.057.697-.07-.348-.14-.766-.28-1.184-.487-.418-1.114-.906-1.88-1.533-5.922-.418-15.605-2.438-25.567-9.614-6.757-4.737-13.027-7.245-18.182-8.568z"/><path fill="#393150" d="M64.06 424.193c.14 0 .209-.069.279-.139.139-.139.139-.418 0-.627-11.634-11.773-37.618-22.501-37.897-22.64-.21-.07-.488 0-.558.209-.07.209 0 .487.21.557.278.139 26.123 10.798 37.618 22.432.139.139.278.208.348.208z"/><path fill="#77C282" d="M.597 360.173c.21 6.478 14.49 17.625 17.347 19.715 6.06 4.458 12.887 7.941 20.063 10.31 3.552 1.184 7.245 2.02 11.006 2.647 3.275.488 7.872 1.741 11.146.906-.07-.349-.139-.627-.209-.976-.905-3.901-3.97-8.15-6.13-11.285a66.27 66.27 0 0 0-9.335-10.868c-6.896-6.478-15.186-11.425-24.243-14.281-5.921-1.881-12.748-2.717-17.903.697-1.324.766-1.811 1.881-1.742 3.135z"/><path fill="#58A066" d="M.598 360.173c.07 1.463.766 3.065 1.95 4.807 4.04 6.13 13.236 13.236 15.396 14.838 6.06 4.458 12.887 7.942 20.063 10.31 3.553 1.184 7.245 2.02 11.007 2.647 3.274.488 7.872 1.742 11.146.906-.07-.348-.14-.627-.21-.975a116.381 116.381 0 0 0-4.249-3.762c-4.11-3.483-9.752-8.011-14.977-10.868-9.614-5.294-24.104-14.35-37.061-17.415-1.184-.209-2.16-.418-3.065-.488z"/><path fill="#33895C" d="M2.478 365.049c4.04 6.131 13.236 13.236 15.395 14.839 6.06 4.458 12.888 7.941 20.063 10.31 3.553 1.184 7.245 2.02 11.007 2.647 3.274.488 7.872 1.742 11.146.906-.07-.349-.14-.627-.209-.976a116.428 116.428 0 0 0-4.25-3.761c-3.622-.07-8.707-1.115-16.022-3.832-14.002-5.364-28.214-14.142-37.13-20.133z"/><path fill="#393150" d="M60.09 394.168c.14 0 .209-.069.278-.139.21-.139.21-.488 0-.627-14.35-15.326-46.395-29.328-46.744-29.467-.209-.07-.487 0-.557.209-.07.209 0 .487.21.557.347.139 32.253 14.072 46.395 29.258.209.14.348.209.418.209z"/><path fill="#77C282" d="M65.175 433.807c.07-.07.418-.07 1.045 0 1.95.07 6.06.418 6.896.348 2.578-.209 5.156-.696 7.594-1.532 6.27-2.16 11.355-6.479 14.56-12.261 2.298-4.18 4.736-11.007-.28-12.748a11.067 11.067 0 0 0-2.368-.418c-8.43-.279-14.49 6.409-18.809 12.887-3.065 4.389-5.643 9.196-8.638 13.724z"/><path fill="#58A066" d="M66.22 433.738c1.95.069 6.06.418 6.896.348 2.578-.209 5.156-.697 7.594-1.533 6.27-2.159 11.355-6.478 14.56-12.26 1.044-1.812 2.09-4.18 2.438-6.409.557-2.787.07-5.365-2.717-6.34-4.25 3.483-9.057 9.614-16.302 17.207-2.856 3.065-5.433 5.155-7.593 6.548-1.88 1.254-3.553 2.021-4.876 2.439z"/><path fill="#33895C" d="M66.22 433.737c1.95.07 6.06.418 6.896.349 2.578-.209 5.156-.697 7.594-1.533 6.27-2.159 11.355-6.479 14.56-12.261 1.044-1.811 2.09-4.179 2.438-6.409-2.787 1.742-6.758 4.877-11.425 10.519-4.32 5.225-10.24 6.758-15.187 6.897-1.88 1.254-3.553 2.02-4.876 2.438z"/><path fill="#393150" d="M65.175 434.295h.14c12.05-4.389 20.062-15.048 22.71-18.531.348-.487.626-.836.766-.975.209-.209.209-.488 0-.697-.21-.209-.488-.209-.697 0-.14.14-.418.488-.836 1.045-2.578 3.414-10.45 13.933-22.222 18.182-.28.07-.418.349-.28.627 0 .209.21.349.419.349z"/><path fill="#77C282" d="M55.004 370.204c1.324 1.254 6.34-1.254 7.524-1.811 5.085-2.229 9.543-5.573 13.723-9.126 8.43-7.314 15.396-16.231 20.342-26.193 3.483-6.967 5.852-17.277-1.95-21.248a16.461 16.461 0 0 0-2.23-.905c-8.917-2.578-17.067 5.016-21.596 11.843-12.957 19.366-15.604 44.654-15.813 47.301v.139z"/><path fill="#58A066" d="M55.004 369.995c1.184-1.114 2.717-2.577 4.389-4.388 5.085-5.574 11.982-14.003 18.043-22.78 8.847-12.749 10.519-26.681 17.276-31.07a16.46 16.46 0 0 0-2.23-.906 13.863 13.863 0 0 0-2.228-.418c-8.012-.836-15.187 6.061-19.367 12.261-12.957 19.366-15.604 44.654-15.883 47.301z"/><path fill="#33895C" d="M55.004 369.995c1.184-1.114 2.717-2.577 4.389-4.389.836-7.244 3.343-18.6 11.007-29.676 8.29-12.122 14.49-20.62 19.854-25.427-8.012-.836-15.187 6.06-19.367 12.261-12.957 19.296-15.604 44.584-15.883 47.231z"/><path fill="#393150" d="M55.004 370.692c.14 0 .279-.07.349-.139.209-.209 19.993-21.805 26.75-35.668.14-.209 0-.557-.209-.627-.209-.139-.557 0-.627.209-6.687 13.724-26.402 35.18-26.541 35.389-.21.209-.14.488 0 .697.07.069.139.139.278.139z"/><path fill="#D9A693" d="M52.009 450.944c.278-5.573 6.409-10.031 13.933-10.031 7.523 0 13.654 4.458 13.932 10.031H52.01z"/><path fill="url(#paint0_linear)" d="M176.846 30.735v124.279a2.2 2.2 0 0 1-2.229 2.229H86.144a2.2 2.2 0 0 1-2.229-2.229V30.734a2.2 2.2 0 0 1 2.23-2.228h88.472c1.184 0 2.229.975 2.229 2.229z"/><path fill="#FFE2CF" d="M170.854 38.746v108.257c0 1.045-.905 1.95-1.95 1.95H91.787c-1.045 0-1.951-.905-1.951-1.95V38.746c0-1.045.906-1.95 1.95-1.95h77.048c1.115 0 2.02.835 2.02 1.95z"/><path fill="#6D4132" d="M170.854 98.796v26.263H89.836V102.07c1.045-3.553 2.438-6.478 4.25-7.593 5.782-3.623 8.011-1.184 9.056-12.121.139-1.254.209-2.578.348-4.18.488-7.942 1.742-16.72 7.315-23.268 7.175-8.43 20.69-9.195 31.348-6.27.07 0 .139.07.209.07 3.065.906 5.713 2.578 7.733 4.807 3.483 3.692 5.712 8.499 6.13 13.306.209 2.716.418 5.433.697 7.872.905 8.707 2.368 15.535 6.13 17.555 3.344 1.811 5.643 3.9 7.802 6.548z"/><path fill="#54261B" d="M168.834 125.059H89.836v-11.564c.906-1.463 1.88-2.995 3.065-4.598 10.38-14.141 25.706-3.413 19.994-16.092-5.783-12.679-2.996-18.53 9.195-21.317 12.191-2.787 19.506-13.306 19.506-13.306s7.314 15.117 8.15 25.497c.836 10.45 2.09 13.027 13.236 25.079 5.225 5.921 6.27 11.773 5.852 16.301z"/><path fill="#845842" d="M156.922 74.692c-9.544-1.602-5.085-19.854-17.276-20.76-12.192-.905-17.068 10.66-18.949 7.385-1.881-3.274 13.584-9.404 6.13-8.569-7.523.837-13.932 5.016-16.858 15.745-1.393 5.154-4.18 10.17-6.688 13.932.14-1.254.209-2.577.349-4.18.487-7.941 1.741-16.719 7.314-23.267 7.176-8.43 20.69-9.196 31.349-6.27.069 0 .139.07.209.07 3.065.905 5.712 2.577 7.732 4.806 3.484 3.693 5.713 8.5 6.131 13.306.069 2.647.278 5.295.557 7.802z"/><path fill="#fff" d="M170.854 124.571v22.432c0 1.045-.905 1.95-1.95 1.95H91.787c-1.045 0-1.951-.905-1.951-1.95v-22.432h81.018z"/><path fill="url(#paint1_linear)" d="M120.071 134.742h-20.063a.952.952 0 0 1-.976-.975c0-.558.418-.975.976-.975h20.063c.557 0 .975.417.975.975a.952.952 0 0 1-.975.975z"/><path fill="url(#paint2_linear)" d="M159.987 141.918h-59.91a.953.953 0 0 1-.975-.976c0-.557.417-.975.975-.975h59.91c.558 0 .976.418.976.975 0 .488-.418.976-.976.976z"/><path fill="#393150" d="M166.257 124.571H94.155s7.454-10.728 21.108-10.728c4.946 0 10.38-.278 15.257-.557 8.777-.557 15.952-1.324 15.952-1.324s8.569 1.812 13.585 5.225c4.946 3.483 6.2 7.384 6.2 7.384z"/><path fill="#26213D" d="M166.257 124.571H101.4a15.06 15.06 0 0 1 3.553-2.438c9.753-4.876 21.735-.139 21.735-.139l3.623-6.897.139-1.811c8.778-.557 15.953-1.324 15.953-1.324s8.568 1.812 13.584 5.225c5.016 3.483 6.27 7.384 6.27 7.384z"/><path fill="#FFCCB9" d="M139.646 95.313v13.654l-9.265 6.13-1.184-.905-7.176-5.295V95.313h17.625z"/><path fill="#F0AC9A" d="M139.646 95.313v13.654l-3.553 2.368-5.712 3.762-1.185-.905c.697-.906 1.185-1.742 1.185-2.23 0-1.393.975-5.433-1.951-5.433-1.672 0-4.389-1.324-6.339-2.439v-8.777h17.555z"/><path fill="#E38777" d="M139.646 95.313v13.654l-3.553 2.368c-.557-3.413-1.811-7.105-4.737-6.757-2.786.348-6.409-1.463-9.265-3.205v-6.06h17.555z"/><path fill="#F4BB56" d="M146.473 111.962l-8.777 8.708-1.533-1.184-5.782-4.389 5.712-3.762 3.553-2.368 6.827 2.995z"/><path fill="#E8A154" d="M146.474 111.962l-8.778 8.708-1.533-1.184 4.738-4.737-4.807-3.414 3.553-2.368 6.827 2.995z"/><path fill="#F4BB56" d="M130.381 115.097l-7.106 5.573-2.229-1.881-5.852-4.946 5.086-3.692 1.741-1.254h.07l8.29 6.2z"/><path fill="#E8A154" d="M130.381 115.097l-7.105 5.573-2.229-1.881 4.179-3.971-4.946-4.667 1.742-1.254h.07l8.289 6.2z"/><path fill="#FFCCB9" d="M117.492 92.874s-4.737-1.671-7.454-6.06c-.557-.906-1.115-2.02-1.393-3.205-1.951-6.827 6.409-6.827 7.105-3.901.07.279.14.697.209 1.184.627 3.832 1.533 11.982 1.533 11.982z"/><path fill="#F0AC9A" d="M117.492 92.874s-4.737-1.672-7.454-6.06c-.139-.976-.139-1.881 0-2.717.348-2.16 1.463-3.623 2.856-4.18 1.045-.418 2.09.07 3.065.975.418 2.438.976 6.618 1.254 9.405.14 1.532.279 2.577.279 2.577z"/><path fill="#E38777" d="M117.144 90.227a2.496 2.496 0 0 1-.488.697c-1.95 1.95-2.925-2.926-3.831-4.598-.906-1.672-1.045-.279-2.856-2.23.348-2.159 1.463-3.622 2.856-4.18 1.045-.417 2.09.07 3.065.976.488 2.438.975 6.618 1.254 9.335z"/><path fill="#FFCCB9" d="M152.324 83.61c-.558 1.88-1.463 3.413-2.438 4.667-2.717 3.344-6.409 4.597-6.409 4.597s.975-9.125 1.671-12.609c.07-.209.07-.418.14-.557.627-2.926 8.986-2.926 7.036 3.901z"/><path fill="#F0AC9A" d="M149.816 88.277c-2.717 3.343-6.409 4.597-6.409 4.597s.14-1.254.349-3.065c.348-2.995.905-7.314 1.323-9.544 1.533-.557 3.344-.627 4.598.906.07.14.209.209.279.348 1.323 1.811.836 4.389-.14 6.758z"/><path fill="#E38777" d="M148.701 82.773c-.766 2.3 1.324 4.668-.697 5.922-1.114.696-2.926.975-4.249 1.114.348-2.995.906-7.314 1.323-9.544 1.533-.557 3.344-.627 4.598.906-.348.209-.696.697-.975 1.602z"/><path fill="#FFCCB9" d="M146.472 73.299v13.027c0 8.22-6.687 14.838-14.838 14.838h-2.438c-8.221 0-14.839-6.687-14.839-14.838V75.18c3.205-.906 7.454-2.23 12.679-4.25 4.877-1.88 8.151-4.597 10.38-7.314a22.604 22.604 0 0 0 3.274-5.364h.906c.348 5.294 2.995 11.355 4.876 15.047z"/><path fill="#F0AC9A" d="M141.526 58.252h-.905c-.139.348-.279.696-.488 1.045-.069.07-.069.139-.139.209-.209.348-.418.766-.627 1.184 0 0 0 .07-.07.07-.557.905-1.184 1.88-2.02 2.856-2.229 2.717-5.503 5.433-10.38 7.314-2.299.906-4.389 1.603-6.27 2.3a113.452 113.452 0 0 1-6.339 1.95v1.323c3.692-.209 9.544-1.044 16.58-3.552 3.413-1.185 5.712-3.066 7.315-5.155.627 2.16 1.602 3.97 3.065 4.806 4.737 2.717 5.225 6.061 5.225 6.061V73.3c-1.881-3.692-4.529-9.753-4.947-15.047z"/><path fill="#E38777" d="M141.526 58.252h-.906c-.139.348-.278.696-.487 1.045-.07.07-.07.139-.14.209-.209.348-.418.766-.627 1.184-2.02 3.413-5.712 7.663-12.469 10.24-2.299.906-4.389 1.603-6.27 2.3 3.483-.558 7.524-1.324 10.449-2.578 3.135-1.324 6.409-4.18 8.917-6.827.418 1.254.976 2.508 1.812 3.553 1.741 2.229 3.413 4.597 4.597 6.2v-.349c-1.811-3.622-4.458-9.683-4.876-14.977z"/><path fill="#F0AC9A" d="M130.589 86.814a.476.476 0 0 1-.487-.488v-7.175c0-.279.209-.488.487-.488.279 0 .488.21.488.488v7.175a.476.476 0 0 1-.488.488z"/><path fill="#393150" d="M138.391 81.52c.808 0 1.463-1.529 1.463-3.414 0-1.885-.655-3.414-1.463-3.414s-1.463 1.529-1.463 3.414c0 1.885.655 3.413 1.463 3.413zm-14.629 0c.808 0 1.463-1.529 1.463-3.414 0-1.885-.655-3.414-1.463-3.414s-1.463 1.529-1.463 3.414c0 1.885.655 3.413 1.463 3.413zm19.088-9.962c-.209 0-.418-.14-.488-.419-.209-.975-.627-1.671-1.393-2.02-1.812-.975-4.807.14-4.807.14-.279.07-.557 0-.627-.28-.07-.278 0-.556.279-.626.139-.07 3.413-1.324 5.642-.14.976.558 1.603 1.464 1.881 2.718.07.278-.139.487-.348.557-.07.07-.139.07-.139.07zm-23.477-.001h-.069c-.279-.07-.418-.278-.349-.557.279-1.254.906-2.16 1.881-2.717 2.229-1.184 5.504.07 5.643.14.279.07.348.348.279.626-.07.28-.349.349-.627.28 0 0-2.996-1.185-4.807-.14-.697.418-1.184 1.045-1.393 2.02-.07.21-.279.348-.558.348z"/><path fill="#EF6159" d="M131.007 95.73h-.418c-2.856-.209-4.598-2.438-4.668-2.577a.536.536 0 0 1 .07-.697.536.536 0 0 1 .697.07s1.602 2.02 3.97 2.16c1.672.139 3.344-.627 5.016-2.23.209-.209.488-.209.697 0 .209.21.209.488 0 .697-1.811 1.741-3.553 2.578-5.364 2.578z"/><path fill="url(#paint3_linear)" d="M610.361 44.598v120.03a2.17 2.17 0 0 1-2.16 2.159h-85.477a2.17 2.17 0 0 1-2.16-2.159V44.598c0-1.184.976-2.16 2.16-2.16h85.407c1.254 0 2.23.975 2.23 2.16z"/><path fill="#FFE2CF" d="M606.459 50.937v108.257c0 1.045-.906 1.951-1.951 1.951h-77.117c-1.045 0-1.951-.906-1.951-1.951V50.937c0-1.045.906-1.95 1.951-1.95h77.048c1.114 0 2.02.835 2.02 1.95z"/><path fill="#fff" d="M605.972 136.275v22.431c0 1.045-.906 1.951-1.951 1.951h-77.117c-1.045 0-1.951-.906-1.951-1.951v-22.431h81.019z"/><path fill="#393150" d="M602.698 136.275h-74.122s1.115-1.254 3.344-2.787c2.926-2.09 7.733-4.737 14.281-5.991.975-.209 2.02-.348 3.135-.488 2.647-.278 5.573-.487 8.568-.696a318 318 0 0 1 15.396-.627c6.13-.14 10.589-.209 10.589-.209s8.359 2.02 12.261 4.946c3.97 2.926 6.548 5.852 6.548 5.852z"/><path fill="#26213D" d="M568.981 136.275h-40.405s1.115-1.254 3.344-2.787c5.573.279 13.515.627 16.092-.697 2.16-1.114.349-3.343-1.741-5.294.975-.209 2.02-.348 3.135-.488 2.647-.278 5.573-.487 8.568-.696 4.598 4.389 10.101 9.683 11.007 9.962z"/><path fill="#26213D" d="M602.698 136.275h-11.634c-2.368-1.951-4.667-3.484-6.13-3.553-2.229-.07-6.966 1.811-10.659 3.553h-8.568c-3.205-4.18 4.807-8.43 5.643-9.266.209-.209.975-.696 2.02-1.323 6.13-.14 10.589-.209 10.589-.209s8.359 2.02 12.26 4.946c3.902 2.926 6.479 5.852 6.479 5.852z"/><path fill="#FFCCB9" d="M575.738 107.991v12.679l-9.335 7.733-9.265-6.967v-13.445h18.6z"/><path fill="#F0AC9A" d="M575.738 107.992v12.678l-4.529 3.762-4.737 3.971s2.926-8.22-1.323-9.056c-2.23-.418-5.434-2.23-7.942-3.901v-7.524h18.531v.07z"/><path fill="#E38777" d="M575.738 107.991v12.679l-4.529 3.762c-.348-3.344-1.463-7.175-4.737-7.175-3.135 0-6.618-2.648-9.265-5.086v-4.18h18.531z"/><path fill="#393150" d="M585.491 96.288c-17.555 15.605-38.036.975-38.036.975s-.279-1.463-.558-3.831c-.069-.697-.209-1.463-.278-2.369-.488-4.458-.836-10.519-.14-15.326 1.951-13.654 10.728-17.555 19.994-17.346 4.04.07 8.15 1.324 11.564 3.483 3.483 2.16 6.339 5.155 7.732 8.708.418 1.045.697 2.09.836 3.205 1.045 8.917-1.114 22.501-1.114 22.501z"/><path fill="#26213D" d="M585.491 96.288c-17.555 15.605-38.036.975-38.036.975s-.279-1.463-.558-3.831c1.045-1.324 2.16-2.578 3.484-3.483 5.364-3.832 26.82-6.897 32.184-11.146 2.647-2.09 3.274-5.434 3.205-8.22a12.81 12.81 0 0 1 .836 3.204c1.045 8.917-1.115 22.501-1.115 22.501z"/><path fill="#474260" d="M578.037 61.944c-1.045.767-3.135 1.254-6.688 1.393-14.629.349-22.64 3.066-22.571 14.351.07 6.479-.557 11.495-2.159 13.445-.488-4.458-.836-10.52-.14-15.326 1.951-13.654 10.728-17.555 19.994-17.346 3.97.14 8.081 1.393 11.564 3.483z"/><path fill="#EF6159" d="M572.742 133.349l-2.926 2.369-.696.557h-6.2l-1.812-1.951-.836-.975 4.877-3.901 1.254-1.045 6.339 4.946z"/><path fill="#DB514D" d="M572.742 133.349l-3.622 2.926h-.976l.836-2.647-3.065-2.02-4.807 2.716-.836-.975 6.131-4.946 6.339 4.946z"/><path fill="#C43B3B" d="M569.816 135.717l.348-2.368-5.016-3.901 1.254-1.045 6.34 4.946-2.926 2.368z"/><path fill="#7B46C1" d="M583.889 125.477l-11.146 7.872-2.578-2.02-3.762-2.926 4.807-3.971 4.528-3.762 8.151 4.807z"/><path fill="#6635A6" d="M583.889 125.477l-11.146 7.872-2.578-2.02 4.11-3.901-3.065-2.996 4.528-3.762 8.151 4.807z"/><path fill="#7B46C1" d="M566.403 128.403l-6.13 4.946-4.18-2.369-6.688-3.97 5.922-4.25 1.811-1.323 9.265 6.966z"/><path fill="#6635A6" d="M566.403 128.403l-6.131 4.946-4.18-2.369 4.18-3.97-4.946-4.25 1.811-1.323 9.266 6.966z"/><path fill="url(#paint4_linear)" d="M555.186 146.446h-19.993a.952.952 0 0 1-.975-.976c0-.557.418-.975.975-.975h20.063c.557 0 .975.418.975.975 0 .558-.487.976-1.045.976z"/><path fill="url(#paint5_linear)" d="M595.104 153.621h-59.911a.952.952 0 0 1-.975-.975c0-.558.418-.976.975-.976h59.911c.557 0 .975.418.975.976 0 .487-.418.975-.975.975z"/><path fill="#FFCCB9" d="M551.355 102.21c-.069 1.393-.139 2.368-.139 2.368s-5.991-5.364-5.016-8.29c.975-2.926 3.901-2.577 3.901-2.577.558.348.836 1.323 1.045 2.508.349 1.81.279 4.249.209 5.991z"/><path fill="#F0AC9A" d="M551.425 101.025v1.184c-.278.07-.626 0-1.044-.209-2.09-.975-2.508-3.134-2.23-4.667.209-.975.697-1.742 1.254-1.88.906-.21 1.463.347 1.742.765.279 1.463.278 3.275.278 4.807z"/><path fill="#E38777" d="M551.425 101.025c-.488-1.184-1.185-2.717-2.021-3.274-.487-.348-.905-.418-1.254-.418.209-.975.697-1.742 1.254-1.88.906-.21 1.463.347 1.742.765.279 1.463.279 3.275.279 4.807z"/><path fill="#FFCCB9" d="M581.45 104.578s-.069-.766-.139-1.881c-.07-1.393-.139-3.344 0-5.155.139-1.811.488-3.344 1.184-3.831 0 0 2.926-.349 3.901 2.577.976 2.926-4.946 8.29-4.946 8.29z"/><path fill="#F0AC9A" d="M584.864 97.124c0 1.811-1.393 4.877-3.553 5.573v-.209c-.07-.557-.07-1.254-.139-2.09-.07-1.254-.14-2.647-.07-3.622.139-.14.418-.349.906-.557a5.142 5.142 0 0 1 2.02-.418c.557 0 .836.557.836 1.323z"/><path fill="#E38777" d="M584.863 97.124c-.557-.209-.975-.07-.975.488-.07 1.254-1.602 3.552-2.578 4.876a6.949 6.949 0 0 1-.766.975l.627-3.065.836-4.25a5.146 5.146 0 0 1 2.02-.417c.557.07.836.627.836 1.393z"/><path fill="#FFCCB9" d="M582.564 84.585v14.141c0 5.573-2.786 10.45-7.105 13.306-2.578 1.742-5.713 2.787-8.987 2.787a16.055 16.055 0 0 1-16.092-16.093V84.585c0-8.081 6.548-14.63 14.629-14.63h2.926c1.602 0 3.135.279 4.528.697 5.852 1.95 10.101 7.454 10.101 13.933z"/><path fill="#F0AC9A" d="M582.565 84.585v14.141c0 5.573-2.786 10.45-7.106 13.306-.278-8.29 3.693-16.371 3.693-25.915 0-6.2-3.693-11.843-6.688-15.465 5.852 1.95 10.101 7.454 10.101 13.933z"/><path fill="#393150" d="M582.564 94.755v3.971a16.054 16.054 0 0 1-16.092 16.092c-2.368 0-4.598-.487-6.618-1.393a15.753 15.753 0 0 1-6.479-5.364c-1.881-2.647-2.995-5.852-2.995-9.335V93.71c.697 0 1.393.488 2.229 1.324 2.438 2.578 5.086 7.872 6.339 7.315 1.672-.767 6.131-2.16 10.032-1.185 3.901.976 6.827 2.926 8.708-2.02 1.811-4.946 4.876-4.389 4.876-4.389z"/><path fill="#26213D" d="M582.565 94.755v3.971a16.054 16.054 0 0 1-16.092 16.092c-5.434 0-10.171-2.647-13.097-6.757.836-.488 1.742-.418 2.856.627 4.389 4.11 13.167 3.692 17.346 0 4.18-3.692 4.041-9.544 4.041-9.544 1.881-4.946 4.946-4.389 4.946-4.389z"/><path fill="#F0AC9A" d="M566.403 96.706a.476.476 0 0 1-.488-.488v-7.175c0-.279.209-.488.488-.488.278 0 .487.21.487.488v7.175a.476.476 0 0 1-.487.488z"/><path fill="#393150" d="M574.274 91.412c.808 0 1.463-1.529 1.463-3.414 0-1.885-.655-3.413-1.463-3.413s-1.462 1.528-1.462 3.413c0 1.885.654 3.414 1.462 3.414zm-14.699 0c.808 0 1.463-1.529 1.463-3.414 0-1.885-.655-3.413-1.463-3.413s-1.463 1.528-1.463 3.413c0 1.885.655 3.414 1.463 3.414z"/><path fill="#26213D" d="M578.663 81.45c-.209 0-.418-.14-.488-.418-.209-.976-.627-1.672-1.393-2.02-1.811-.976-4.807.139-4.807.139-.278.07-.557 0-.627-.279-.069-.279 0-.557.279-.627.139-.07 3.414-1.324 5.643-.14.975.558 1.602 1.464 1.881 2.718.069.278-.14.487-.349.557-.069.07-.139.07-.139.07zm-23.476 0h-.07c-.279-.07-.418-.279-.348-.558.278-1.254.905-2.16 1.881-2.716 2.229-1.185 5.503.07 5.642.139.279.07.349.348.279.627-.07.279-.348.348-.627.279 0 0-2.995-1.185-4.807-.14-.696.418-1.184 1.045-1.393 2.02-.07.21-.279.349-.557.349z"/><path fill="#EF6159" d="M572.185 106.041s-.557.906-1.463 1.811a10.49 10.49 0 0 1-.905.836c-1.742 1.393-4.389 2.229-7.245-.696a10.658 10.658 0 0 1-.836-.906c-.209-.279-.488-.627-.697-.975h11.146v-.07z"/><path fill="#DB514D" d="M572.184 106.041s-.906 1.463-2.369 2.647c-1.114-.627-2.438-1.254-3.343-1.393-.976-.14-2.578.278-3.832.627-.488-.488-.975-1.185-1.533-1.951h11.077v.07z"/><path fill="#C43B3B" d="M572.185 106.041s-.557.906-1.463 1.811c-.557-.069-1.184-.278-1.881-.487-3.483-1.185-5.782-.836-7.036-.349-.209-.278-.488-.627-.697-.975h11.077z"/><path fill="#E7F8FC" d="M438.71 75.598v283.669c0 1.742-1.462 3.205-3.204 3.205h-16.092v15.256c0 1.881-2.299 2.856-3.692 1.533l-16.72-16.72H217.39c-1.742 0-3.204-1.463-3.204-3.204V75.598c0-1.742 1.462-3.204 3.204-3.204h218.116c.209 0 .418 0 .697.07 1.393.278 2.507 1.602 2.507 3.134z"/><path fill="#CAD9EF" d="M438.71 75.598v283.669c0 1.742-1.462 3.205-3.204 3.205h-16.092v15.256c0 1.881-2.299 2.856-3.692 1.533l-16.72-16.719H217.39c-1.742 0-3.204-1.463-3.204-3.205v-103.52c22.64-4.946 55.521-13.514 92.721-27.656 56.706-21.526 110.626-119.055 129.296-155.698 1.393.279 2.507 1.603 2.507 3.135z"/><path fill="#ACBDE5" d="M438.71 221.055v138.212c0 1.742-1.462 3.205-3.204 3.205h-16.092v15.256c0 1.881-2.299 2.856-3.692 1.533l-16.72-16.72H217.39c-1.742 0-3.204-1.462-3.204-3.204V348.4c24.173-.279 89.865-5.782 156.463-35.111 35.877-15.883 56.428-54.198 68.061-92.234z"/><path fill="#fff" d="M429.375 88.486V346.03a2.943 2.943 0 0 1-2.926 2.926H411.82v13.793c0 1.742-2.09 2.647-3.344 1.393l-15.186-15.186H228.397a2.943 2.943 0 0 1-2.926-2.926V88.486a2.943 2.943 0 0 1 2.926-2.926h198.052c.14 0 .279 0 .418.07 1.394.139 2.508 1.393 2.508 2.856z"/><path fill="url(#paint6_linear)" d="M426.867 85.63L274.374 294.688h-48.903v-3.831L375.177 85.56h51.272c.14 0 .279 0 .418.07z" opacity=".2"/><path fill="url(#paint7_linear)" d="M429.375 115.585v70.917l-78.859 108.187h-48.973v-3.831l127.832-175.273z" opacity=".15"/><path fill="#FFCCB9" d="M346.407 105.066l-.14 4.458v.627l-.209 5.782-.627 15.465-8.568 6.897-5.086 4.041-12.678-9.823v-12.609l13.584-7.384 5.364-2.926 8.36-4.528z"/><path fill="#F0AC9A" d="M346.267 110.151l-.209 5.852-.557 15.465-1.881 1.463-6.758 5.434v-.07c1.672-5.364-1.602-5.364-9.404-5.712-3.762-.14-6.479-1.812-8.29-3.483v-9.196l13.515-7.315 8.638-2.577 1.602-.488c-.069 0 1.463.209 3.344.627z"/><path fill="#E38777" d="M346.267 109.524h-3.413c-1.463 0-3.135.07-4.807.139l-18.948 10.241v5.503c2.995 2.16 7.941 4.459 13.654 1.881a21.686 21.686 0 0 0 3.692-2.09c2.647-1.811 6.27-.139 6.409 3.066v.209c.07 1.811.348 3.274.766 4.458l1.881-1.463.557-15.465.209-5.852v-.627z"/><path fill="#393150" d="M369.883 80.683c-2.926 16.58-13.654 22.432-13.654 22.432l-.07-.07c-1.881-.766-32.811-13.793-51.62-22.292a446.346 446.346 0 0 1-10.728-5.016c-1.185-.626-2.299-1.393-3.344-2.229-7.733-6.688-10.101-20.69-5.295-29.467 3.484-6.41 13.236-6.13 19.436-4.737 0 0 .976-17.207 14.63-17.207 13.305 0 20.69 12.957 21.038 13.654.348-.349 9.335-8.569 17.904 0 6.2 6.2 6.06 16.858 5.991 22.57 0 2.37-.07 3.902.418 3.902 1.532.209 8.22 1.88 5.294 18.46z"/><path fill="#26213D" d="M369.883 80.683c-2.926 16.58-13.654 22.432-13.654 22.432l-.07-.07c-1.881-.766-32.811-13.793-51.62-22.292a446.738 446.738 0 0 1-10.728-5.016c-1.185-.627-2.299-1.393-3.344-2.229 2.368-4.18 6.757-8.987 6.757-8.987s9.265-.07 13.375-4.876l4.18-4.876s10.589 6.757 17.973 4.876c7.385-1.95 8.36-2.438 8.36-2.438s2.229 10.17 8.429 12.678c6.2 2.508 15.048-7.663 15.048-7.663 1.532.21 8.22 1.881 5.294 18.461z"/><path fill="#FFCCB9" d="M356.648 106.737c-2.439 2.23-5.922 2.717-8.917 4.041-4.598 2.09-7.942 6.2-12.261 8.778-16.232 9.752-31-4.389-31-20.9V68.214c2.995-.767 5.642-2.02 8.22-3.762 4.18-2.787 2.647-2.578 7.524-1.463 5.921 1.324 12.887 1.742 18.809.697.278 2.02 1.114 4.04 2.647 5.573 6.27 6.2 2.577 11.773 2.508 19.366-.07 3.135.487 6.757 2.647 9.126 7.245-9.892 17.416 2.23 9.823 8.986z"/><path fill="#F0AC9A" d="M346.825 97.75s-6.688-4.876-5.713-12.19c.976-7.315-1.95-17.068-8.29-16.092-6.339.975-13.654-2.578-13.654-2.578s-7.314 2.578-12.191 2.578a6.32 6.32 0 0 1-2.438-.488v-.697c2.996-.766 5.643-2.02 8.22-3.761 1.463-.976 2.23-1.603 2.787-1.951 1.114-.627 1.532-.279 4.667.418 5.922 1.324 12.888 1.741 18.809.697.279 2.02 1.115 4.04 2.648 5.573 6.269 6.2 2.577 11.773 2.507 19.366 0 .836.001 1.672.14 2.508.139 2.508.905 4.946 2.508 6.618z"/><path fill="#E38777" d="M344.108 88.695c0 .836 0 1.672.14 2.508-4.041-1.045-1.254-13.097-3.205-19.645-1.951-6.688-5.852-5.992-14.629-5.574-5.434.279-8.987-1.81-10.937-3.413 1.114-.627 1.532-.279 4.667.418 5.921 1.324 12.888 1.741 18.809.697.279 2.02 1.115 4.04 2.647 5.573 6.27 6.2 2.648 11.842 2.508 19.436z"/><path fill="#393150" d="M333.728 88.486c1.077 0 1.95-1.965 1.95-4.389 0-2.424-.873-4.389-1.95-4.389s-1.951 1.965-1.951 4.389c0 2.424.874 4.389 1.951 4.389zm-19.506 0c1.077 0 1.951-1.965 1.951-4.389 0-2.424-.874-4.389-1.951-4.389s-1.951 1.965-1.951 4.389c0 2.424.874 4.389 1.951 4.389zm26.333-13.166c-.209 0-.348-.07-.418-.28-1.115-2.229-2.577-3.552-4.319-3.97-2.856-.697-5.643 1.254-5.712 1.254-.209.14-.558.14-.697-.14-.139-.208-.139-.557.139-.696.14-.07 3.205-2.23 6.479-1.393 2.02.487 3.692 2.02 4.946 4.528.139.209 0 .557-.209.627 0 .07-.07.07-.209.07zm-32.184 0c-.07 0-.14 0-.209-.07-.209-.14-.349-.418-.209-.627 1.254-2.508 2.925-4.04 4.946-4.528 3.344-.836 6.339 1.323 6.478 1.393.209.14.279.488.14.697-.14.209-.488.278-.697.139 0 0-2.856-1.95-5.712-1.254-1.742.418-3.205 1.811-4.319 3.97-.07.21-.209.28-.418.28z"/><path fill="#F0AC9A" d="M322.303 85.908l-5.503 14.838 5.225 1.951.278-16.789zm34.414 14.769s-.139.766-.696 1.881c-.697 1.323-2.09 3.065-4.807 4.11-.906.348-2.02.627-3.274.836 0 0-1.045-5.782 2.856-8.708s5.921 1.881 5.921 1.881z"/><path fill="#E38777" d="M356.717 100.677s-.139.766-.696 1.881c-.279-.558-1.115-1.254-3.832-1.115-3.901.209.279 2.508-.975 5.225-.906.348-2.02.627-3.274.836 0 0-1.045-5.782 2.856-8.708s5.921 1.881 5.921 1.881z"/><path fill="#EF6159" d="M335.192 107.434s-.488 1.254-1.463 2.857c-.279.557-.697 1.114-1.045 1.671-2.508 3.484-6.688 6.897-11.425 1.045a13.226 13.226 0 0 1-1.045-1.463c-.348-.487-.697-1.114-1.045-1.741l16.023-2.369z"/><path fill="#DB514D" d="M335.191 107.435s-.906 2.298-2.508 4.528c-.627 0-1.393 0-2.229-.14-5.086-.766-7.803.14-9.265 1.185-.697-.836-1.394-1.881-2.09-3.135l16.092-2.438z"/><path fill="#C43B3B" d="M335.191 107.435s-.488 1.254-1.463 2.856c-.557 0-1.115 0-1.742-.07-5.782-.697-9.613.348-11.842 1.324-.349-.488-.697-1.115-1.045-1.742l16.092-2.368z"/><path fill="#EF6159" d="M273.26 256.653a18160.85 18160.85 0 0 1 4.389-40.335h-19.994s.976-11.703 3.901-26.333c2.926-14.629 15.605-41.937 25.358-43.888.209-.069.418-.069.627-.139 9.613-2.02 20.829-6.897 20.829-6.897l34.344-1.254 14.421-.487 15.743 4.389s-1.114 4.388 2.787 22.919c2.229 10.449 3.971 49.809 5.155 82.342.488 12.957.836 24.87 1.045 33.369.209 8.081.348 13.096.348 13.096H269.359l1.95-18.53c.07-.975.209-1.951.349-2.996.209-1.741.348-3.552.557-5.503.348-3.135.697-6.409 1.045-9.753z"/><path fill="#DB514D" d="M319.238 151.81l1.812 2.02 8.289-5.503c0 .069-3.692-6.827-10.101 3.483zm-32.394 92.582c-1.045-.139-1.95-.278-2.786-.487-2.09-.558-3.553-3.066-4.598-6.758-1.045-3.901-1.532-9.056-1.741-14.629-.418-15.187 1.671-33.648 2.786-38.036 1.951-7.663 9.335-18.391 9.335-18.391s7.036 13.166 7.175 31.487c.07 18.322 6.897 31.279 15.187 37.479 7.733 5.643-13.863 10.659-25.358 9.335z"/><path fill="#C43B3B" d="M293.532 222.309c-.279 13.027-6.688 22.083-6.688 22.083s-4.11-4.04-7.314-7.245c-1.045-3.901-1.533-9.056-1.742-14.629 3.971-17.625 12.191-50.158 12.191-50.158s3.832 36.922 3.553 49.949z"/><path fill="#DB514D" d="M382.214 291.624c-.07-2.16-.14-6.061-.279-11.355-.209-8.499-.627-20.342-1.045-33.369 0-.766-.07-1.532-.07-2.299-1.184-32.045-2.926-69.802-5.085-80.043-2.787-13.375-2.996-19.366-2.856-21.665.069-.906.139-1.254.139-1.254l-15.744-4.389-1.254.07-13.166.487c-3.623 2.996-6.27 6.061-7.524 8.36-3.901 7.245-3.274 16.51-3.274 16.51-2.299 12.191-.139 73.495-.139 73.495l5.573 4.667-1.254 1.045c-11.564 9.126-27.03 18.043-45.142 15.396-7.524-1.115-13.306-1.184-17.695-.488-.348 3.344-.696 6.618-1.044 9.683-.209 1.951-.418 3.762-.558 5.504-.139 1.045-.209 2.02-.278 2.926 8.429.766 26.75 1.881 33.09-1.672 8.359-4.668 10.31 8.22 16.649 14.002 2.09 1.951 9.265 4.389 18.113 6.27h43.052c-.14-.139-.14-.766-.209-1.881zm-26.472-103.171c.278 19.784 1.393 30.233-8.778 39.011-3.065 2.647-1.881 6.688-6.897 11.007-.139-6.618-.696-20.899-2.368-44.585-1.324-18.669-.209-30.582 1.114-37.618 2.16-1.463 4.041-1.881 4.11.906.209 6.827 5.852 2.786 12.261-2.508 6.409-5.225.279 14.072.558 33.787z"/><path fill="#C43B3B" d="M372.948 141.639s-.07.348-.14 1.254l-2.507 2.229-15.326-5.294.905-2.439 1.254-.069 15.814 4.319zm9.265 149.985c-.976.697-2.021 1.254-3.205 1.742h-39.847c-8.848-1.812-16.023-4.32-18.113-6.27-6.339-5.782-8.29-18.6-16.649-14.002-6.34 3.483-24.591 2.368-33.09 1.672.069-.906.209-1.881.278-2.926.209-1.742.349-3.553.558-5.504.348-3.065.696-6.339 1.044-9.683 4.389-.697 10.102-.627 17.695.488 18.112 2.647 33.647-6.2 45.142-15.396 15.256-.279 37.409.906 44.654 2.787 0 .766.07 1.532.07 2.299.487 12.957.836 24.869 1.045 33.368.278 5.295.348 9.265.418 11.425z"/><path fill="#393150" d="M335.679 261.181l-12.539 17.486-7.733-11.773-3.065-4.668 1.254-7.593 3.553-20.969 12.469-73.704 1.185-7.175.278-.209 2.717-2.299 1.463 83.805.209 11.216.209 15.883z"/><path fill="#26213D" d="M323.14 278.736c.139-.557 4.18-13.166.139-13.375-2.786-.14-6.06.905-7.941 1.602l-3.066-4.667 1.254-7.594c3.135-1.463 14.281-6.409 21.875-9.335l.278 15.814-12.539 17.555z"/><path fill="#474260" d="M331.778 156.686l-9.474 78.302-5.156-1.254 13.654-80.879.279-.209.697 4.04z"/><path fill="#26213D" d="M331.151 234.988l.766-72.311-2.368-2.577 1.184-7.176.279-.209 2.717-2.298 1.463 83.804c-2.16.418-4.041.767-4.041.767z"/><path fill="#393150" d="M342.854 146.028l-11.076 12.33-6.061-7.036-4.598-5.225-.069-.069h.139l10.589-3.693 11.076 3.693z"/><path fill="#26213D" d="M331.778 158.358l.627-11.425-6.757 4.389-4.598-5.225v-.069l10.658-3.693 11.077 3.693-11.007 12.33z"/><path fill="#FFCCB9" d="M391.549 221.821s-.836 3.832-2.299 9.335a270.12 270.12 0 0 1-3.692 12.749c-4.041 12.818-9.683 26.402-15.256 25.636-4.111-.558-16.023-4.668-28.98-9.335-2.717-.975-5.434-1.951-8.151-2.996-.139-.069-.279-.139-.418-.139l-5.016-1.881c-1.254-.487-2.577-.975-3.762-1.463-.278-.069-.557-.209-.766-.278-.766-.279-1.463-.558-2.229-.836-6.27-2.369-11.843-4.529-15.814-6.061-3.831-1.463-6.13-2.369-6.13-2.369s-2.229 1.951-5.225 4.18c-3.344 2.508-7.732 5.434-11.355 6.549-6.757 2.159-13.724-11.286-8.777-16.58.975-1.045 2.298-2.16 3.831-3.275 2.647-1.95 5.852-3.97 8.778-5.642.557-.349 1.045-.627 1.532-.906 1.393-.836 2.926-1.393 4.528-1.741 2.439-.558 5.016-.627 7.524 0l6.966 1.602 6.409 1.463 5.852 1.323 4.667 1.045.906.209 7.315 1.672 10.031 2.229 5.295 1.185 8.359 1.881.767-2.23 6.548-18.321.418-1.254 1.742-4.807.557-1.463 2.786 1.115 6.34 2.647 16.719 6.757z"/><path fill="#F0AC9A" d="M323.976 234.152c-1.463-.209-9.266 1.463-9.266 1.463l-30.233 1.672-.418-4.668 1.741-.209 27.517-2.856 5.852 1.324 5.434-.488c.069.557.209 1.184.209 1.741 0 1.115-.209 2.09-.836 2.021z"/><path fill="#F0AC9A" d="M289.98 234.291c.069.279.069.557.069.836.209 4.389-6.618 6.897-7.314.975-.14-1.254 0-2.856.487-4.946 0 0 3.484-1.323 7.663-2.02.906-.139 1.881-.279 2.857-.279.836-.069 1.323-.069 1.463-.139-.488.07-6.201 1.115-5.225 5.573z"/><path fill="#E38777" d="M290.049 235.127c-1.323.557-4.946 1.045-7.314.975-.14-1.254 0-2.856.487-4.946 0 0 3.484-1.323 7.663-2.02-.696.627-1.323 1.115-1.95 1.324-2.578.975-2.299 2.786.975 3.831.906.279.836.557.139.836z"/><path fill="#F0AC9A" d="M391.549 221.822s-.836 3.831-2.299 9.334a269.775 269.775 0 0 1-3.692 12.749c-3.135-.558-6.34-1.393-8.29-2.508-4.737-2.787-10.868-4.041-6.758 0 4.111 4.04 1.742 6.688-3.134 3.762-4.877-2.926-7.803 0-16.58 8.777-2.996 2.996-6.34 4.946-9.405 6.27-2.717-.975-5.434-1.951-8.15-2.996-.14-.069-.279-.139-.418-.139-2.996-1.114-5.922-2.229-8.778-3.274l-3.971-5.712 11.982-14.142 15.257 3.483 8.359 1.881.766-2.229 6.549-18.322 2.717-7.523 25.845 10.589z"/><path fill="#E38777" d="M353.861 238.889l-20.551 18.252c-.139-.07-.279-.14-.418-.14-3.274-1.184-6.479-2.438-9.614-3.622l30.583-14.49z"/><path fill="#E38777" d="M367.515 224.538c.558-.209 1.184-.348 1.951-.487a40.841 40.841 0 0 1 4.11-.418l15.674 7.454c1.463-5.504 2.299-9.335 2.299-9.335l-16.649-6.897c-1.742-1.95-4.041-2.577-6.34-2.647l-2.786-1.115-2.717 7.524-6.549 18.321-.766 2.23-8.359-1.881-5.295-1.185c-2.508 3.066-4.249 5.155-4.389 5.225-.278.139.627 5.016 1.254 8.081 6.618-3.622 11.425-6.688 14.212-8.429 1.393 0 2.716.139 3.831.418 1.602.418 3.274.557 4.737.348.418-.209.627-.418.627-.418s-1.672-2.508 0-3.553c.418-.278 1.115-.487 2.16-.487 4.667 0 4.806-1.463 4.806-1.603 0 0-4.249-3.065-1.741-4.179.418-.209 1.045-.279 1.881-.349 5.921-.278 5.364-2.438 5.364-2.438s-10.31-3.135-7.315-4.18z"/><path fill="#FFCCB9" d="M374.829 228.718c-.626.697-2.089 1.115-3.761.975-3.344-.209-8.36-.069-9.335 0v.07c.696.139 3.553.766 5.852 1.742 1.741.766 3.134 1.741 3.134 2.856 0 .627-.557 1.045-1.393 1.323-2.995.836-9.822-.348-9.822-.348s1.253 1.045 2.786 2.438l1.672 1.463c1.393 1.185-.07 2.229-2.369 2.508a11.188 11.188 0 0 1-4.737-.348c-1.114-.279-2.438-.418-3.831-.418a235.156 235.156 0 0 1-14.211 8.429c-3.275 1.811-6.967 3.692-11.077 5.712-4.737 2.299-9.892 4.738-15.605 7.176-24.173 10.24-45.629 7.036-52.804-.07-.767-.766-1.394-1.602-1.812-2.438-2.925-5.921-.627-24.522 1.254-36.155.349-2.021.627-3.832.906-5.295.279-1.532.488-2.717.627-3.483.139-.557.139-.836.139-.836l22.502-.07h5.294l-1.115 10.659-.905 4.737-.627 3.205-.279 1.323 33.647-2.786 5.434-.488 9.196-.766s7.314-1.185 14.838-6.131c1.951-1.323 4.25-2.508 6.618-3.553 3.065-1.323 6.131-2.298 8.36-2.647 1.045-.139 1.881-.139 2.577 0 .418 0 .767 0 1.115.07 2.159.279 6.13 1.951 6.757 3.692.07.139.07.279.07.488 0 .557-.627.836-1.533.905h-.209c-1.463.07-3.553-.209-5.503-.209h-.906c-.139.349-.348.697-.557 1.045h.139c.209 0 .488.07.697.07.348.07.766.139 1.184.209.627.139 1.324.209 2.02.418 1.045.279 2.16.627 3.135 1.115 2.856 1.184 3.274 2.507 2.438 3.413z"/><path fill="#F0AC9A" d="M353.095 240.909c-1.324.836-3.205 2.02-5.504 3.483-.766.418-1.532.906-2.368 1.394a292.414 292.414 0 0 1-6.34 3.622c-3.274 1.811-6.966 3.692-11.076 5.712-4.737 2.299-9.892 4.738-15.605 7.176-24.173 10.24-45.629 7.036-52.805-.07 4.25.418 10.52 1.115 19.158 2.438 19.506 2.926 64.369-25.357 67.086-23.267 2.717 2.02 7.454-.488 7.454-.488z"/><path fill="#E38777" d="M347.591 244.392c-.766.418-1.532.906-2.368 1.394-.627-1.254-.279-4.25-.279-3.623 0 .766 1.881 1.811 2.647 2.229z"/><path fill="#F0AC9A" d="M287.263 224.538l-1.742 9.196s4.807 4.528-2.786 6.548c-7.663 2.09-16.72 10.589-12.818 4.737 3.901-5.851 10.728-13.654 10.728-13.654s-.975-.975-5.364-1.741c-2.647-.418-10.519-3.693-16.302-6.131.349-2.02.627-3.831.906-5.294.279-1.533.488-2.717.627-3.483.139-.558.139-.836.139-.836l22.502-.07h5.294l-1.184 10.728z"/><path fill="#E38777" d="M288.377 212.905l-1.114 11.633-27.448-6.269c.279-1.533.488-2.717.627-3.484l8.221-.836 19.714-1.044z"/><path fill="#F0AC9A" d="M359.504 235.336s-3.692.975-5.713 0c-1.95-.975 2.717-1.95 5.713 0zm2.229-5.573s-2.857 1.184-5.922-.07c-2.995-1.184 5.086-1.672 5.922.07zm3.762-6.339c.209 0 .488.069.697.069 0 .07-.07.07-.07.14l-.627-.209zm8.568-1.742c0 .557-.627.836-1.532.906-1.742-.07-3.901-.279-5.713-.209h-.905c-.14.348-.349.696-.558 1.045-4.319-1.185-7.732-.767-3.065-1.951 3.414-.836 8.708-.557 11.634-.279.07.14.139.279.139.488z"/><path fill="#F5968F" d="M357.204 137.25l-7.732 8.917-5.016 5.712-9.404-7.105-3.275-2.439 13.654-10.937 11.773 5.852z"/><path fill="#ED7E7C" d="M357.204 137.25l-2.229 2.508-5.503 6.409-5.016-5.922-9.404 4.529-1.324-1.045-1.951-1.394 13.654-10.937 11.773 5.852z"/><path fill="#F5968F" d="M331.778 142.335l-12.679 9.544-2.02-2.438-8.708-10.449 7.175-4.32 3.553-2.159 12.679 9.822z"/><path fill="#ED7E7C" d="M331.777 142.335l-12.539 9.475-.139.069-2.021-2.438 3.971-5.921-5.503-8.848 2.229-1.323 1.324-.836 12.678 9.822z"/><path fill="#E06868" d="M319.238 151.81l6.409-9.475-7.872-8.986 1.324-.836 12.679 9.822-12.54 9.475z"/><path fill="#F5968F" d="M391.34 223.563l-29.816-9.056s-.07-2.021-.07-5.434c-.069-4.668 0-11.843.418-19.854.488-10.38 1.602-22.153 3.901-31.627 1.185-4.947 2.717-9.266 4.668-12.54.766-1.323 1.672-2.508 2.647-3.413 0 0 12.539 4.388 18.391 19.993 5.852 15.605-.139 61.931-.139 61.931z"/><path fill="#ED7E7C" d="M370.579 167.484c-2.717 6.339-8.777 21.735-8.777 21.735.487-10.38 1.602-22.153 3.901-31.627.279 5.643-.07 12.052.488 10.867.696-1.463 7.105-7.314 4.388-.975z"/><path fill="#F5968F" d="M289.84 175.286c-.975 22.432-.557 40.962-.557 40.962h-31.697s.279-2.856.836-7.593c.627-4.737 1.602-11.425 3.065-18.74 2.926-14.629 15.605-41.937 25.358-43.887.209-.07.418-.07.627-.14.975 4.389 2.159 11.146 2.368 20.133.209 2.856.139 5.991 0 9.265z"/><path fill="#ED7E7C" d="M289.979 172.291c0 .975-.07 1.95-.07 2.995-.975 22.432-.557 40.962-.557 40.962h-31.697s.14-1.672.488-4.528c.139-.906.209-1.951.348-3.065 7.106.139 16.65-.07 20.272-2.16 5.991-3.413 9.614-18.112 6.479-32.115-3.135-14.072-2.717-12.33 3.135-8.499.696.418 1.184.418 1.532.07.07 2.09.07 4.18.07 6.34z"/><path fill="#E06868" d="M289.84 175.286c-.975 22.432-.557 40.962-.557 40.962h-31.697s.139-1.672.488-4.528c6.757.766 18.6 2.09 25.009 2.09 9.335 0 4.319-37.061 3.762-42.913-.279-2.856 1.393-1.114 3.065 1.324 0 1.045 0 2.09-.07 3.065z"/><path fill="#ED7E7C" d="M391.34 223.563l-29.816-9.056s0-.767-.07-2.23c0-.836 0-1.95-.069-3.204 8.011 1.323 22.78 3.204 20.55-.906-3.065-5.643.14-28.562.349-44.724.139-11.633-7.594-16.58-11.913-18.391.767-1.323 1.672-2.508 2.648-3.413 0 0 7.105 2.508 13.096 10.38 1.951 2.577 3.832 5.782 5.295 9.613 5.782 15.605-.07 61.931-.07 61.931z"/><path fill="#E06868" d="M391.34 223.563l-29.816-9.056s0-.767-.07-2.23l28.074 3.971s.349-14.141 0-40.265c-.139-10.101-1.671-18.043-3.483-23.964 1.951 2.577 3.832 5.782 5.295 9.613 5.851 15.605 0 61.931 0 61.931z"/><path fill="#ED7E7C" d="M286.915 140.246c0-.14-.07-.21-.07-.21l.07.21z"/><path fill="#E06868" d="M357.204 137.25l-2.229 2.508-8.708-4.459-12.539 8.43-1.951-1.394 13.654-10.937 11.773 5.852z"/><path fill="url(#paint8_linear)" d="M429.375 278.737v67.294a2.943 2.943 0 0 1-2.926 2.926H411.82v13.794c0 1.741-2.09 2.647-3.344 1.393l-15.186-15.187H228.397a2.943 2.943 0 0 1-2.926-2.926v-67.294h203.904z"/><path fill="#fff" d="M409.869 318.236c-12.678 0-22.919-10.241-22.919-22.919 0-6.549 2.717-12.4 7.106-16.58h-12.331c-2.856 4.876-4.528 10.519-4.528 16.58 0 18.042 14.63 32.672 32.672 32.672 7.315 0 14.072-2.369 19.506-6.479v-14.211c-4.04 6.618-11.285 10.937-19.506 10.937zm15.814-39.499a23.3 23.3 0 0 1 3.692 4.528v-4.528h-3.692z" opacity=".2"/><path fill="#fff" d="M336.166 302.631h-84.85a3.895 3.895 0 0 1-3.901-3.901 3.895 3.895 0 0 1 3.901-3.901h84.85a3.895 3.895 0 0 1 3.901 3.901 3.894 3.894 0 0 1-3.901 3.901z"/><path fill="#747AE8" d="M400.605 317.26H250.341a2.943 2.943 0 0 1-2.926-2.925 2.943 2.943 0 0 1 2.926-2.926h150.264a2.943 2.943 0 0 1 2.926 2.926 2.943 2.943 0 0 1-2.926 2.925zm0 13.654H250.341a2.943 2.943 0 0 1-2.926-2.925 2.943 2.943 0 0 1 2.926-2.926h150.264a2.943 2.943 0 0 1 2.926 2.926 2.943 2.943 0 0 1-2.926 2.925z"/><path fill="#54261B" d="M142.084 178.7s-2.369-.627-6.061 2.09c-3.692 2.786.836-1.254 3.971.766 3.065 2.02 2.09-2.856 2.09-2.856z"/><path fill="#845842" d="M160.684 240.561s-22.083 16.649-31.836 14.699c-2.438-.488-4.598-1.672-6.479-3.274-5.573-4.807-7.942-13.794-4.249-21.108 4.876-9.753 15.604-17.555 11.424-24.382-4.179-6.827-5.573-20.551 1.254-26.403s10.729-2.926 10.729-2.926l17.415 9.962 1.742 53.432z"/><path fill="#6D4132" d="M160.684 240.561s-10.241 7.733-19.854 12.052c-4.528 2.02-8.847 3.274-11.982 2.647-2.439-.488-4.598-1.672-6.479-3.274-2.926-6.27-.766-13.027 2.09-18.67 3.901-7.802 7.802-20.481 8.22-15.117.418 5.364-4.319 12.191 2.02 3.344 6.34-8.847 2.439-10.659-2.02-20.76-4.458-10.101 6.409-20.133 2.508-16.858-3.901 3.274-5.852 4.528-2.508-1.533 3.344-6.061 8.847-5.225 8.847-5.225l17.416 9.962.627 18.74 1.115 34.692z"/><path fill="#54261B" d="M160.683 240.561s-10.24 7.732-19.854 12.052c-15.813 3.692-15.395 1.184-15.395-7.594 0-8.777 3.901-24.382 4.876-14.211.975 10.171 3.901-5.294 12.4-9.753 8.499-4.528 9.056-10.171 6.827-14.49-2.229-4.389-1.184-7.315-1.184-7.315l4.876 3.414s2.996.418 6.34 3.413l1.114 34.484z"/><path fill="#FFCCB9" d="M221.569 318.723h-28.492l-.766-9.126-3.066-37.479-.278-3.065 2.09-.488 6.13-1.462.557 5.015 3.344 32.045s5.434 2.857 10.45 5.922c3.762 2.229 7.245 4.528 8.081 5.782l1.95 2.856z"/><path fill="#E38777" d="M221.569 318.723h-28.492l-.766-9.126-3.066-37.479-.278-3.065 2.09-.488 6.13-1.462.557 5.015 3.344 32.045s5.434 2.857 10.45 5.922c3.762 2.229 7.245 4.528 8.081 5.782l1.95 2.856z"/><path fill="#F4BB56" d="M190.36 268.635l-1.393.349.07.487 1.045 12.401.487 5.851.07.418.488 5.782.418 5.295 1.393 17.207.139 1.671.07.627h-60.259l.557-2.716 3.623-17.347 1.463-6.896 1.045-4.877 1.045-4.876 2.299-10.937-6.827-1.463-4.807-1.045-11.982-2.578s1.045-2.786 2.717-6.966c4.388-11.146 12.678-31.906 14.838-33.996 2.926-2.926 13.654-5.851 13.654-5.851l20.133-.906 2.298-.07s.418.14 1.115.488c2.717 1.254 9.823 4.737 14.56 9.753 5.991 6.339 8.638 38.524 8.638 38.524l-3.205.766-3.692.905z"/><path fill="#E8A154" d="M189.942 268.705l-.975.209.069.487 1.045 12.401.488 6.269.488 5.782.418 5.295 1.393 17.207.139 1.671-2.508.627c-20.55 4.529-45.838.349-49.67 0-1.602-.139-4.388-1.184-7.523-2.716l6.13-29.12 1.045-4.876 2.299-10.937-6.827-1.463-4.807-1.045-11.982-2.578s1.045-2.786 2.717-6.966c8.847 1.393 19.227 4.737 19.018-2.787-.209-8.22-7.593-19.087-2.438-17.346 5.155 1.672 4.598 12.958 5.434 6.34.766-6.618-.767-15.814 1.532-9.823 2.369 6.061 2.508 8.638 4.946 20.829 2.438 12.261 12.191 1.394 20.969 8.221 1.95 1.532 7.802-10.728 6.339-19.088-1.463-8.29-8.29-17.068-16.092-15.047-7.802 2.02-12.679-10.728-7.315-5.922 5.364 4.807 10.52.697 10.52.697l5.782-6.897 2.298-.069s.07 0 .14.069c.209.07.557.209 1.045.418 2.717 1.254 9.822 4.737 14.559 9.753 5.991 6.339 8.639 38.524 8.639 38.524l-3.205.766-3.622.836-.488.279z"/><path fill="#D68041" d="M197.188 267.033l-3.205.766-3.622.836-.349.07-.975-2.787s2.856-.418 4.946-2.508c2.16-2.09-1.184-13.514-3.274-22.919-2.09-9.474-5.712-11.076-10.032-14.42-4.319-3.344-6.409-3.483-10.797-.906-4.389 2.508-3.414-.557 0-3.274 1.532-1.184 2.507-2.508 3.065-3.553.209.07.557.209 1.045.418 2.717 1.254 9.822 4.737 14.559 9.753 5.922 6.339 8.639 38.524 8.639 38.524z"/><path fill="#D68041" d="M190.499 258.743c-.557 2.647-.487 6.479-.139 9.892l-1.393.348.069.488-1.463-6.757s2.299-6.897 1.394-10.519c-.906-3.553-3.484-13.306-3.484-13.306s6.34 14.002 5.016 19.854zm.975 40.544l-.417-5.294-.488-5.782-.07-.418c-1.463 5.433-4.319 10.867-9.822 12.678-7.176 2.439-21.944-1.602-32.951-5.294-2.369-.766-3.901-2.996-3.971-5.434-.139-16.789 3.414-45.838 3.414-45.838l-4.389 27.238c-1.742 8.917-2.926 15.674-3.762 20.899-.209-.07-.418-.139-.557-.209l-1.115 5.295a5.719 5.719 0 0 0 .209 3.065c.209.696.348 1.393.279 2.09-.14 4.319.487 6.13 1.881 7.175.905.627 1.532 1.602 1.881 2.647.696 1.951 1.114 3.274 1.184 3.414.278.766 30.512 2.717 33.926 3.204.418.07 1.045.07 1.811 0 2.16-.139 5.573-.627 9.126-1.254 2.996-.487 5.016-3.204 4.807-6.2l-.976-11.982z"/><path fill="#FFCCB9" d="M172.806 218.269s-2.09 7.245-8.012 7.036c-.278 0-.627-.07-.905-.07-6.688-1.045-13.515-5.921-13.515-5.921l3.901-1.951v-14.629l15.605 4.876v8.778l2.926 1.881z"/><path fill="#F0AC9A" d="M172.805 218.268s-2.09 7.245-8.011 7.036c1.602-.836 2.159-2.02 2.647-2.507.975-.836 0-4.041-5.852-5.713-2.926-.836-5.434-2.995-7.315-4.946v-6.827c3.344.766 10.171 2.578 15.117 4.667.14.07.349.14.488.209v6.131l2.926 1.95z"/><path fill="#E38777" d="M169.879 207.54v5.643c-2.647.766-5.921 1.184-8.29-.279-2.647-1.602-5.364-4.458-7.315-6.757v-3.483l15.605 4.876z"/><path fill="#F5968F" d="M148.423 175.287l-2.996 11.912s-3.831-1.184-5.503-2.856c-.836-.836-.836-2.717-.279-4.598.488-1.811 1.463-3.692 2.438-4.458.976-.767 2.23-.906 3.344-.836 1.603.139 2.996.836 2.996.836z"/><path fill="#ED7E7C" d="M148.423 175.286l-2.996 11.912s-3.831-1.184-5.503-2.856c-.558-.557-.767-1.463-.627-2.577.069-.627.139-1.324.348-2.021 1.533.209 2.996 0 3.483-1.671.418-1.324 1.324-2.578 2.299-3.693.279 0 .557.07.836.14 1.184.348 2.16.766 2.16.766z"/><path fill="#E06868" d="M148.423 175.287l-2.996 11.912s-3.831-1.184-5.503-2.856c-.558-.557-.767-1.463-.627-2.578 3.413.767 3.831.558 4.737-3.134.348-1.533 1.254-2.926 2.229-4.041 1.184.279 2.16.697 2.16.697z"/><path fill="#845842" d="M178.656 186.014l-13.654 13.167-16.58 1.463s-4.876-3.902-5.434-8.778c-.348-3.204-.418-6.827.906-10.589a19.537 19.537 0 0 1 2.995-5.503c.14-.14.209-.279.349-.488 4.667-5.852 14.838-9.753 23.616-5.155 2.09 1.115 3.622 2.578 4.737 4.18l.069.07c3.553 5.155 2.996 11.633 2.996 11.633z"/><path fill="#6D4132" d="M178.657 186.014l-13.654 13.167-16.58 1.463s-4.876-3.901-5.434-8.778c-.209-1.95-.348-4.11-.069-6.27.139-1.393.487-2.856.975-4.319-.139 1.812.139 3.901 1.533 5.991 3.483 5.155 11.564 2.857 15.326-2.856 3.761-5.712 6.687-4.389 9.125-3.553 1.672.558 4.947-2.368 5.713-6.478l.069.069c1.672 2.369 2.439 5.016 2.787 7.176.348 2.507.209 4.388.209 4.388z"/><path fill="#54261B" d="M178.657 186.014l-13.654 13.167-16.58 1.463s-4.876-3.901-5.434-8.778c-.209-1.95-.348-4.11-.069-6.27.696 2.787 1.881 6.2 4.249 8.221 5.155 4.388 9.474 1.463 14.838-6.618 5.365-8.081 8.29-4.598 12.679-3.275 2.02.627 3.065-.766 3.692-2.368.418 2.577.279 4.458.279 4.458z"/><path fill="#6635A6" d="M229.372 393.054l-.488 2.02-3.622 14.281-1.324 5.155-.418 1.672h-19.018l2.926-68.34 21.526 44.306.418.906z"/><path fill="#EA4E1B" d="M228.954 392.218c-.07.975-.07 1.881-.139 2.856l-3.623 14.281c-2.02-4.11-1.811-2.647-5.155-11.216 0-.069-.069-.139-.069-.209-1.185-1.811-4.041-1.114-4.459 1.045-.557 2.787-1.115 4.111-1.393 7.106-.697 6.757 6.548 8.151 9.753 8.429l-.418 1.672h-19.018l2.925-68.339 21.596 44.375z"/><path fill="#AD5C5C" d="M251.455 444.605h-46.953v-28.283h19.018s-.209 1.88.418 4.319c.697 2.577 2.369 5.782 6.409 8.29.139.069.209.139.348.209a24.303 24.303 0 0 0 4.389 2.02c5.713 1.811 10.31.696 13.167 4.598 1.671 2.298 2.438 4.388 2.856 5.921.418 1.811.348 2.926.348 2.926z"/><path fill="#964040" d="M240.17 444.605h-35.668v-28.283h19.018s-.07.626 0 1.602c.07.696.139 1.672.488 2.717-1.324 1.045-3.483 2.229-6.131 2.159-4.597-.139 2.23 9.823 7.663 10.241 2.996.209 4.459-1.951 5.225-3.832l4.389 2.02c1.393 1.951 2.577 3.762 2.577 4.18-.069.627 1.603 5.852 2.439 9.196z"/><path fill="#872929" d="M223.52 417.924c-2.23.905-5.364 1.811-8.639 1.811-3.552 0-7.523.905-10.31 1.741v-5.155h19.018c-.069 0-.139.558-.069 1.603zm27.935 26.681h-46.953v-2.926h46.605c.418 1.811.348 2.926.348 2.926z"/><path fill="#F7A77F" d="M207.915 352.858v91.677H120.14v-87.776a3.895 3.895 0 0 1 3.901-3.901h83.874z"/><path fill="#EA906C" d="M207.915 352.858v91.677H192.52a89.228 89.228 0 0 0-7.036-1.463c-21.944-3.901-13.166-27.308-21.456-54.128-6.758-21.805-33.926-24.591-43.888-24.87v-7.315a3.895 3.895 0 0 1 3.901-3.901h83.874z"/><path fill="#E27659" d="M207.915 352.858v78.65c-8.15-4.04-13.166-12.121-17.416-25.357-6.2-19.367-1.393-35.668-27.029-42.077-15.605-3.901-28.144-5.991-33.717-11.216h78.162z"/><path fill="#7B46C1" d="M248.251 418.272h-17.904l-1.115-3.622-16.51-52.805v-.07c-.418-1.254-.975-2.368-1.741-3.413-.627-.906-1.394-1.742-2.23-2.369-1.114-.906-2.368-1.602-3.692-2.16a12.516 12.516 0 0 0-4.319-.766h-52.944a14.954 14.954 0 0 1-14.978-14.977v-19.367h60.259l30.234 3.692c5.921.697 10.659 5.225 11.564 11.146l1.184 7.663 12.192 77.048z"/><path fill="#6635A6" d="M248.25 418.272h-17.903l-.836-2.786-.279-.836c1.393-8.29 2.926-23.616-3.762-33.021-6.478-9.195-1.114-28.631-7.802-27.517-2.856.488-3.205 5.434-4.946 7.663-.418-1.254-.975-2.368-1.742-3.413 1.394-2.926 1.881-4.877-2.229-2.369-1.115-.905-2.368-1.602-3.692-2.159.627-1.603 1.533-3.623 2.438-5.852 2.926-7.384-29.607-4.598-46.814-7.245-11.633-1.811-20.55-8.917-27.795-11.007v-10.937h60.258l30.234 3.692a13.23 13.23 0 0 1 11.564 11.146l1.185 7.663 10.24 64.996 1.881 11.982z"/><path fill="#EA4E1B" d="M248.25 418.272h-17.903l-.836-2.786c2.786-1.045 6.339-2.16 10.171-2.578 3.413-.348 5.503-3.274 6.687-6.688l1.881 12.052zm-36.433-63.254c2.717-5.782 6.967-11.007 5.852-6.688-1.114 4.249-4.249 9.474-5.643 11.773l-.209-5.085z"/><path fill="#C07272" d="M277.857 444.605H233.9l-.558-4.389-2.647-19.645-.279-1.811-.069-.418h17.903s1.672 1.95 4.18 4.528c4.249 4.389 11.007 10.449 15.883 11.076 4.946.627 7.454 4.877 8.638 7.803.627 1.602.906 2.856.906 2.856z"/><path fill="#AD5C5C" d="M277.858 444.605H233.9l-.557-4.389h26.82s1.951-3.901-4.389-5.573c-6.339-1.672-9.265-11.007-15.813-11.842-3.692-.488-7.036-1.463-9.196-2.23l-.278-1.811-.07-.418h17.903s1.672 1.951 4.18 4.528c2.717 2.787 6.409 6.2 9.962 8.569 1.045.696 2.02 1.254 3.065 1.672.976.418 1.951.766 2.857.836 4.946.627 7.453 4.876 8.638 7.802.557 1.602.836 2.856.836 2.856z"/><path fill="#964040" d="M265.387 432.971c-1.532.627-3.344 1.324-4.528 1.602-1.393.349-.279-1.323 1.533-3.274 1.045.697 2.02 1.254 2.995 1.672zm-13.026-10.241l-22.014-4.04-.07-.418h17.904c.069 0 1.741 1.951 4.18 4.458zm25.496 21.875h-43.958l-.418-2.926h43.47c.627 1.672.906 2.926.906 2.926z"/><path fill="#FFCCB9" d="M217.669 318.723h-28.702s-.209.279-.487.697c-1.045 1.532-3.692 4.946-5.991 4.18-.976-.349-7.524-.558-15.675-.697-15.604-.279-37.478-.488-39.986-1.184-3.832-1.045-6.758-7.872-6.758-23.477 0-7.245.627-14.56 1.324-20.272.488-3.831.906-6.966 1.254-8.917.209-1.393.348-2.159.348-2.159l19.715 4.249-1.045 10.589-2.09 21.456.488.07 40.474 7.732s13.654-3.901 18.531-3.901c3.901 0 9.683 3.762 13.375 5.782.906.488 1.672.906 2.229 1.045 2.996.906 2.996 4.737 2.996 4.807z"/><path fill="#F0AC9A" d="M184.439 320.674c1.533-.906 2.856-1.185 4.11-1.254-1.045 1.532-3.692 4.946-5.991 4.179-.975-.348-7.524-.557-15.674-.696.696-.279 1.741-.348 3.274-.279 4.249.279 7.245-.557 9.196-1.463.836-.348 1.88-.418 2.507.209.209.279.976.209 2.578-.696zm31.697-1.951h-12.47c1.672-.766 2.578-1.463 2.578-1.463s.139-.975 2.02 0c1.811.906 1.045 0 2.995 0-.069.139-.139.975 1.951.975 2.02 0 2.159-.069 2.926.488zm1.533 0h-.14c0-1.045-.696-2.368-3.343-3.065-4.807-1.324-5.782-2.299-8.708-2.299s1.811-1.672 5.782-.836c.418.07.836.139 1.254.279.905.487 1.672.905 2.229 1.045 2.926.975 2.926 4.807 2.926 4.876zm-75.933-37.061l-2.09 21.456.488.07c-2.439 1.533-4.946 2.926-3.762 1.115 1.463-2.229-.766-9.753-2.299-14.281-.766-2.16-2.16-4.11-3.971-5.504l-8.638-6.548c.488-3.831.905-6.966 1.254-8.917.209-1.393.348-2.159.348-2.159l19.715 4.249-1.045 10.519z"/><path fill="#E38777" d="M142.78 271.143l-1.045 10.589-19.088-12.609c.209-1.394.349-2.16.349-2.16l19.784 4.18zm74.401 47.58s0-2.438-1.951-2.438c-1.95 0-5.852-1.951-5.852-1.951l-3.901-.975s-.975-1.324 1.951-.627c2.926.697 5.573 2.578 5.573 2.578s4.18 0 4.18 3.413z"/><path fill="#fff" d="M237.035 282.01c0 .209 0 .418-.07.627l-7.662 39.987h-3.902l.209-.906.767-3.901 7.454-38.942c.627 0 1.184.209 1.672.488.975.488 1.532 1.533 1.532 2.647z"/><path fill="#E2E5F2" d="M237.035 282.01c0 .209 0 .418-.07.627l-7.662 39.987h-2.926a8.795 8.795 0 0 1-.767-.906l.767-3.901h1.672l7.454-38.454c.975.488 1.532 1.533 1.532 2.647z"/><path fill="#fff" d="M229.372 322.554v.07h-43.888c0-.766.209-1.533.627-2.09l.209-.348c.07-.139.209-.209.279-.348.697-.697 1.672-1.115 2.787-1.115h36.503c1.951.209 3.483 1.811 3.483 3.831z"/><path fill="#E2E5F2" d="M229.372 322.554v.07h-43.888c0-.766.209-1.533.627-2.09l.209-.348s19.158 0 28.493.487c5.991.279 9.404-.975 11.076-1.95 1.951.209 3.483 1.811 3.483 3.831z"/><path fill="#FFCCB9" d="M172.805 210.466c-8.778 2.926-17.555-5.852-17.555-5.852s-3.901.976-6.827-.975c-2.926-1.95 0-9.753 2.926-6.827.836.836 2.299.906 3.971.279 3.901-1.393 9.056-6.2 10.519-11.007 2.09-6.827 8.917 5.852 12.818 0 0 0 .209 1.324.348 3.344.348 6.13.418 18.809-6.2 21.038z"/><path fill="#F0AC9A" d="M178.936 189.428c-.976.627-2.299.836-4.25-.14-5.364-2.716-6.339-1.741-10.24 3.135-2.787 3.483-6.27 4.946-9.196 4.668 3.901-1.393 9.056-6.2 10.519-11.007 2.09-6.827 8.917 5.852 12.818 0 .07-.07.209 1.254.349 3.344z"/><path fill="#6D4132" d="M175.731 195.837c.539 0 .975-.874.975-1.951s-.436-1.95-.975-1.95c-.538 0-.975.873-.975 1.95s.437 1.951.975 1.951zm-9.753 0c.539 0 .975-.874.975-1.951s-.436-1.95-.975-1.95c-.538 0-.975.873-.975 1.95s.437 1.951.975 1.951z"/><path fill="#845842" d="M163.122 191.378h-.14c-.278-.069-.418-.348-.348-.557.418-1.742 1.184-2.926 2.229-3.413 1.533-.697 3.135.139 3.205.139.209.139.348.418.209.627-.14.209-.418.348-.627.209 0 0-1.254-.627-2.369-.139-.836.348-1.393 1.323-1.741 2.716 0 .279-.14.418-.418.418zm14.769-1.602c-.209 0-.418-.139-.488-.418-.209-.836-.488-1.324-.975-1.533-.836-.348-1.951.279-2.369.558-.209.139-.557.069-.696-.14-.14-.209-.07-.557.139-.696.07-.07 1.811-1.254 3.274-.697.836.348 1.324 1.045 1.602 2.229.07.279-.139.488-.348.558-.07.139-.139.139-.139.139z"/><path fill="#EF6159" d="M170.089 207.053c-1.533 0-4.737-.349-5.573-3.066-.07-.278.069-.557.348-.626.279-.07.557.069.627.348.836 2.786 5.295 2.368 5.364 2.368.279 0 .488.14.557.418 0 .279-.139.488-.417.558h-.906z"/><path fill="#F0AC9A" d="M172.805 195.837l.975 6.827-2.926-.348 1.951-6.479zm-20.968 7.314c-.279.14-.558.279-.836.279-1.184 0-2.508-1.184-2.09-3.205.139-.557.348-1.045.697-1.462.417-.488 1.044-.697 1.671-.418.627.278 1.185.835 1.533 1.811.975 2.995.279 2.159-.975 2.995z"/><path fill="#E38777" d="M151.837 203.151c-.279.14-.558.279-.836.279-.697-.836-.836-2.09-.627-2.856.278-.836-.209-1.393-.767-1.742.418-.487 1.045-.696 1.672-.418.627.279 1.185.836 1.533 1.812.975 2.925.279 2.09-.975 2.925z"/><path fill="#AD5C5C" d="M471.661 439.728a5.782 5.782 0 0 1-5.712 4.877h-9.544a5.782 5.782 0 0 1-5.713-4.877c-.069-.487-.139-1.045-.069-1.602l2.438-20.759.418-3.553.487-3.832h15.466l.348 3.971.348 4.458 1.672 19.994c0 .348-.069.836-.139 1.323z"/><path fill="#964040" d="M469.71 413.883c-2.508-1.045-6.339-1.602-11.773-.209-1.881.488-3.344.488-4.458.07l.487-3.832h15.465l.279 3.971z"/><path fill="#C07272" d="M471.661 440.216a5.781 5.781 0 0 1-5.712 4.876h-9.544a5.781 5.781 0 0 1-5.713-4.876c-.069-.488-.139-1.045-.069-1.602l.557-4.668 1.881-16.162a12.114 12.114 0 0 1 8.011-2.995c.975 0 1.881.139 2.787.348 2.229.557 4.249 1.672 5.851 3.274l.418.418 1.672 19.994c0 .418-.069.905-.139 1.393z"/><path fill="#AD5C5C" d="M471.661 440.216a5.781 5.781 0 0 1-5.712 4.876h-9.544a5.781 5.781 0 0 1-5.713-4.876c-.069-.488-.139-1.045-.069-1.602l.557-4.668c7.315-8.986 12.957.279 14.002-6.687.558-3.693-.278-8.29-1.254-12.122 2.23.558 4.25 1.672 5.852 3.274l.418.418 1.672 19.994c-.07.418-.139.905-.209 1.393z"/><path fill="#964040" d="M471.661 439.728a5.782 5.782 0 0 1-5.712 4.877h-9.544a5.782 5.782 0 0 1-5.713-4.877h20.969z"/><path fill="#AD5C5C" d="M517.499 439.728a5.782 5.782 0 0 1-5.713 4.877h-9.543a5.782 5.782 0 0 1-5.713-4.877c-.07-.487-.139-1.045-.07-1.602l2.439-20.759.418-3.344.487-4.041h15.466l.348 4.459.348 3.97 1.672 19.994c0 .348 0 .836-.139 1.323z"/><path fill="#964040" d="M515.619 414.371c-2.439-1.254-6.549-2.299-12.749-.627-1.393.348-2.577.418-3.553.278l.488-4.04h15.465l.349 4.389z"/><path fill="#C07272" d="M517.5 439.728a5.782 5.782 0 0 1-5.713 4.877h-9.543a5.782 5.782 0 0 1-5.713-4.877c-.07-.487-.139-1.045-.07-1.602l.627-5.364 1.812-15.396a12.114 12.114 0 0 1 8.011-2.995c.557 0 1.115.069 1.602.139 2.717.348 5.155 1.602 7.036 3.483l.418.418 1.672 19.994c0 .348 0 .836-.139 1.323z"/><path fill="#AD5C5C" d="M517.5 439.728a5.782 5.782 0 0 1-5.713 4.877h-9.543a5.782 5.782 0 0 1-5.713-4.877c-.07-.487-.139-1.045-.07-1.602l.627-5.364c6.758-6.897 11.983 1.115 12.888-5.503.557-3.971-.348-8.848-1.463-12.819 2.717.349 5.155 1.603 7.036 3.484l.418.418 1.672 19.993c0 .418 0 .906-.139 1.393z"/><path fill="#964040" d="M517.5 439.728a5.781 5.781 0 0 1-5.712 4.876h-9.544a5.781 5.781 0 0 1-5.713-4.876H517.5z"/><path fill="#393150" d="M515.27 409.913h-17.625l-1.533-9.614-19.227-118.428-.278-1.741-.209-1.393-4.807-1.742-1.742 133.475h-17.067l-.209-2.578-.557-8.359-8.639-122.677-.209-2.648-.696-9.892 6.409-10.031s17.137-7.385 22.71-7.106c5.573.279 30.93 14.908 30.93 14.908l12.749 147.826z"/><path fill="#474260" d="M496.461 399.533c-.139.278-.209.557-.348.766l-19.227-118.428c.696-1.672 1.881-4.11 2.995-3.134 1.672 1.462-.209 15.256 5.086 31.766 5.294 16.51 8.917 22.432 7.593 24.87-1.324 2.368-4.249.418-3.274 6.27.975 5.851 8.917 11.076 4.946 11.355-3.901.348 5.364 38.105 2.229 46.535zm-44.723-46.744c-.349 4.806 3.134 35.11.278 46.744l-8.638-122.678c1.463.767 3.413 2.508 4.389 6.41 1.672 6.687 2.159 51.202 5.294 51.829 3.205.697 1.115 4.041-1.254 3.344-2.368-.697.349 5.782 2.926 7.872 2.438 2.159-2.577 1.045-2.995 6.479z"/><path fill="#26213D" d="M480.787 269.959c-1.811 2.647-4.668 4.18-7.175 5.085-1.463.558-3.135.14-4.25-1.045-1.463-1.602-3.344-2.856-4.389-.696-1.95 3.901.906 62-1.95 63.672-2.926 1.672-10.171 2.09-7.524 6.27 2.647 4.18 8.499-1.672 9.474 8.081.976 9.753 5.643 48.067-10.867 55.73-.558.279-1.045.488-1.533.767l.209 2.577h17.068l1.741-133.266 4.807 1.533.209 1.393c1.672-3.204 7.384-14.699 4.18-10.101z"/><path fill="#26213D" d="M504.542 402.946c6.409-6.966-1.533-57.402-6.897-57.472-5.364-.07-9.265-3.832-5.016-4.668 4.25-.766 9.405-6.06 6.409-12.051-3.065-5.991-14.49-50.576-18.112-58.587-.07-.07-.07-.139-.139-.209-2.439-5.364-9.405-6.897-14.003-3.205a149.002 149.002 0 0 0-5.643 4.877c-4.737 4.319-13.375 3.413-17.973 2.508l-.696-9.893 6.409-10.031s17.137-7.384 22.71-7.106c5.573.279 30.93 14.908 30.93 14.908l12.749 147.895h-16.789l6.061-6.966z"/><path fill="#F4BB56" d="M485.036 254.424c-.418 0-.766 0-1.184-.139-4.877-.975-10.38-1.324-15.535-1.324-2.299 0-4.598.07-6.688.14-3.553.209-6.687.418-8.917.696-2.368.279-3.831.488-3.831.488l2.856-14.072 13.166-65.066 1.045-5.085.488-2.299 13.793.279 1.812.069s9.752 14.908 10.728 23.686c.975 8.638 5.573 62.279-7.733 62.627z"/><path fill="#E8A154" d="M485.035 254.424c-.418 0-.766 0-1.184-.139-4.807-.976-10.24-1.254-15.326-1.324h-.209c-2.299 0-4.598.07-6.687.139-.836.07-1.603.07-2.369.14-2.578.139-4.807.348-6.548.557-.627-1.881-.906-7.036-.976-13.654l5.573-27.517 7.594-37.549 1.045-5.085.487-2.299 10.659.279 3.065.069c.766 2.299 1.533 5.295 1.533 5.295s-5.086 6.479-7.524 6.409c-2.438-.139-.906 41.519-2.647 54.337-1.742 12.818 2.856 14.351 8.359 16.023 2.717.905 4.528 2.717 5.155 4.319z"/><path fill="#D68041" d="M480.925 171.943s-6.2 6.2-8.638 5.016c-2.438-1.185-1.672-4.25-3.065 19.227-1.115 19.157-.697 46.813-.766 56.845h-.209c-2.299 0-4.598.07-6.688.139-.836.07-1.602.07-2.369.14-.348-7.385-1.253-24.383-1.88-40.614l7.593-37.549 1.045-5.085.487-2.299 10.659.279a105.2 105.2 0 0 1 3.831 3.901z"/><path fill="#393150" d="M500.293 143.52c-.349 1.811-1.045 3.344-1.951 4.598-.557.766-1.184 1.393-1.811 1.95-2.438 2.09-5.085 2.856-5.085 2.856s-25.01-11.703-27.935-13.654c-2.439-1.602-4.041-3.831-4.111-8.568 0-.488 0-.975.07-1.463.07-.557.07-1.115.139-1.742.767-6.966 14.63-18.53 25.358-13.654 8.708 3.971 10.449 11.843 10.798 14.63.069.627.069.975.069.975.349.418 5.713 7.036 4.459 14.072z"/><path fill="#26213D" d="M496.531 149.999c-2.438 2.089-5.085 2.856-5.085 2.856s-25.01-11.704-27.935-13.654c-2.439-1.603-4.041-3.832-4.111-8.569.767-.696 1.812-1.045 3.135-1.184 3.414-.488 5.364-6.339 13.863-5.991 8.499.278 10.032 6.479 12.191 6.27 2.16-.279 1.742-4.598 2.926-2.648 1.115 1.951 1.115 5.225 1.115 5.295 0 0 .696 9.335 3.204 14.072a7.372 7.372 0 0 1 .697 3.553z"/><path fill="#474260" d="M500.293 143.52c-.349 1.811-1.045 3.344-1.951 4.597.279-4.249-.766-9.961-2.438-11.912-2.229-2.578 0-6.688 0-6.688.279.349 5.643 6.967 4.389 14.003zm-4.528-15.047c-1.184.836-2.02.836-1.463-1.045 1.045-3.553-11.076-10.241-6.896-6.2 4.18 4.04 1.393 4.528-3.901 1.95-5.574-2.717-9.126-5.433-17.068-1.672-4.04 1.951-6.061 4.877-6.966 7.803.069-.558.069-1.115.139-1.742.766-6.966 14.629-18.53 25.358-13.654 8.777 3.901 10.519 11.773 10.797 14.56z"/><path fill="#FFCCB9" d="M482.041 154.805v13.376s-5.155 7.384-8.917 6.269c-2.368-.696-4.458-3.204-5.643-4.946-.696-.975-1.044-1.672-1.044-1.672V155.85l15.604-1.045z"/><path fill="#F0AC9A" d="M482.041 154.805v13.376s-5.155 7.384-8.917 6.269c-2.369-.696-4.459-3.204-5.643-4.946l2.369-2.577s.069.07.975 2.995c.488 1.463 1.393 3.414 2.299 3.066 1.045-.418 1.741-1.394 1.95-2.578.279-2.02.349-5.503-2.716-5.712-2.299-.209-4.389-1.254-5.852-2.299v-6.618l2.159-.14 13.376-.836z"/><path fill="#E38777" d="M466.437 155.85v4.25c1.602.905 3.622 1.811 5.155 2.577 1.323.627 3.552-.836 5.712-2.786 1.115-.975 2.926-.627 3.414.766.208.697.696.836 1.323.697v-6.549l-15.604 1.045z"/><path fill="#FFCCB9" d="M435.505 156.408c.279 5.503-2.368 7.105-2.368 7.105l-1.115-3.413-2.647-8.221V135.3s3.901 5.851 6.13 10.588c2.23 4.807-.278 5.016 0 10.52z"/><path fill="#F0AC9A" d="M434.739 149.441l-1.115 2.578-4.249-7.524v-6.897l1.463 5.225h1.324l-.767 1.533 2.438 5.085h.906z"/><path fill="#E38777" d="M434.251 160.657c-.836.139-1.532-.07-2.229-.557l-2.647-8.22v-9.893c1.254 2.508 2.717 5.434 4.18 8.569 2.647 5.991.696 10.101.696 10.101z"/><path fill="#FFCCB9" d="M434.252 160.657c-1.951 5.852-4.877 7.802-4.877 7.802v-6.757s0-4.946-.975-9.056c-.07-.209-.07-.418-.139-.627-.627-3.832 1.184-6.758 2.229-4.041 1.114 2.926 5.712 6.827 3.762 12.679z"/><path fill="#F0AC9A" d="M430.838 162.12c0 2.578-.766 4.18-1.463 5.155v-5.573s0-4.946-.975-9.056c-.07-.209-.07-.418-.139-.627 2.02 2.229 2.577 2.229 2.577 2.229l-1.323 1.811c-.07 0 1.323 1.185 1.323 6.061z"/><path fill="#EA4E1B" d="M515.2 259.231s-1.95 1.95-3.901-1.951c-1.95-3.901-1.95-16.58-1.95-16.58s6.06-1.462 7.941-.766c1.881.697-.139 16.371-2.09 19.297z"/><path fill="#7B46C1" d="M505.308 268.008s-.836 1.951-7.663 0c-6.827-1.95-17.694-5.224-17.694-5.224l-.14-11.774-.836-79.276h-2.647v-4.807l4.18-2.369c.348-.209.766-.278 1.115-.278 1.184 0 2.298.975 2.298 2.298l16.511 3.275 1.881 11.424a90.429 90.429 0 0 1 1.253 13.654l1.742 73.077z"/><path fill="#6635A6" d="M505.308 268.008s-.836 1.951-7.663 0c-6.827-1.95-17.694-5.225-17.694-5.225l-.07-4.319-.069-7.454c2.786 1.672 7.453 3.762 11.006 1.742 5.364-3.065 4.18-1.324 6.34-5.712 2.159-4.389-2.299-34.414-3.901-48.765-.976-8.777 2.647-17.834-3.902-20.481-3.134-1.254-4.946-8.011-6.339-7.941-1.045.069-1.672.278-1.951.487-.069.07-.139.07-.139.07l.348-.418 2.717-3.414 2.021.418 14.42 2.857 1.393 8.498.488 2.926a90.548 90.548 0 0 1 1.254 13.654l1.741 73.077z"/><path fill="#EA4E1B" d="M505.308 268.008s-.836 1.951-7.663 0c-6.827-1.95-17.694-5.224-17.694-5.224l-.07-4.32c6.757 5.573 13.166 6.967 10.937 4.807-2.438-2.299 2.438-4.528.627-5.016-1.811-.557 1.811-4.319 6.2-4.876 4.389-.488 4.389-23.895 4.25-45.908-.07-11.773-.07-22.083-.07-29.119l.487 2.925a90.301 90.301 0 0 1 1.254 13.654l1.742 73.077zm-19.227-101.081l-2.996 2.856c-1.045.07-1.672.279-1.95.488l.209-.349 2.717-3.413 2.02.418z"/><path fill="#F0AC9A" d="M518.127 251.428l-2.787 3.414-5.991 7.314-1.951-18.53 1.951-2.926s.975-1.602 2.508-2.438c.697-.348 1.533-.557 2.438-.418a4.667 4.667 0 0 1 1.881.906c3.901 2.925 1.951 12.678 1.951 12.678z"/><path fill="#E38777" d="M518.126 251.428l-2.786 3.414a43.513 43.513 0 0 0-.07-5.155c-.418-6.061-5.921-9.056-5.921-9.056.418-1.254 1.393-2.021 2.507-2.439a7.199 7.199 0 0 1 2.439-.418 4.68 4.68 0 0 1 1.881.906c3.901 2.996 1.95 12.748 1.95 12.748z"/><path fill="#FFCCB9" d="M512.275 258.255c-1.951 5.852-3.762 7.176-7.733 7.942-1.741.348-2.786.279-3.204-.07-.418-.418.139-1.323 1.672-2.577 1.463-1.184 1.741-1.463 1.254-1.324-1.045.279-5.295 2.647-6.479 1.742-.07 0-.07-.07-.139-.07-1.045-1.184 4.458-4.946 5.851-6.618.209-.209.14-.279-.069-.209-1.254.488-8.917 5.713-10.659 4.11-.069-.069-.139-.139-.139-.209-.279-.905 2.229-2.786 4.667-4.458h.07c.488-.348.975-.697 1.463-.975.07-.07.139-.07.209-.14l.07-.069c1.463-.976 2.577-1.742 2.438-1.951 0 0-.07.07-.209.139-1.254.697-8.151 4.25-8.778 3.135-.766-1.254-.278-3.135 5.573-5.643 4.668-2.089 6.131-4.458 6.549-5.364.139-.209.139-.348.139-.348l-.279-11.007v-.418s2.857-.975 2.857 2.926c0 3.901 1.95 5.852 2.925 7.802.976 1.951 3.902 7.803 1.951 13.654z"/><path fill="#F0AC9A" d="M505.935 240.212c-.975.976 0 3.902-.627 4.738a2.686 2.686 0 0 1-.627.627c.14-.209.14-.349.14-.349l-.279-11.007c1.602.279 2.299 5.086 1.393 5.991zm-4.04 13.933c-1.533 2.438-6.827 5.434-9.265 6.757-.279-.905 2.229-2.786 4.667-4.458h.07c.557-.348 1.114-.697 1.463-.975.069-.07.139-.07.209-.14l.069-.069c1.463-.976 2.578-1.742 2.439-1.951 0 0-.07.07-.209.139 1.184-.905 1.88-1.253.557.697zm3.413 8.847c-1.184 1.603-2.995 2.717-3.971 3.205-.418-.418.14-1.324 1.672-2.578 1.463-1.184 1.742-1.463 1.254-1.323.767-.697 1.394-1.254 1.672-1.602.976-.976.976 0-.627 2.298zm.628-7.175c-.975 1.951-2.926 2.926-4.528 4.528l-3.692 3.693c-.07 0-.07-.07-.14-.07-1.045-1.184 4.459-4.946 5.852-6.618.209-.209.139-.279-.07-.209 2.857-1.951 3.484-3.135 2.578-1.324z"/><path fill="#7B46C1" d="M532.756 227.046c-.976 2.857-16.789 30.792-17.556 32.115.279-.766 3.693-9.892 0-14.559-3.901-4.877-5.851-3.902-5.851-3.902l8.638-15.535s-11.564-18.6-16.44-21.525c-.906-.558-1.672-1.881-2.23-3.832-2.577-8.429-2.159-27.308 1.115-29.955 0 0 10.867 12.33 18.67 25.984 7.802 13.654 14.629 28.284 13.654 31.209z"/><path fill="#6635A6" d="M524.954 222.588l-1.881.697-5.086 1.811s-11.564-18.6-16.44-21.526c-.558-.348-1.045-.975-1.463-1.811a11.147 11.147 0 0 1-.766-2.021c-1.185-8.777 1.114-18.739 1.114-18.739s7.593 19.227 14.838 28.98c7.245 9.753 9.684 12.609 9.684 12.609z"/><path fill="#EA4E1B" d="M523.073 223.285l-5.085 1.881s-11.564-18.6-16.441-21.526c-.557-.349-1.045-.976-1.463-1.812-.139-5.642 1.812-12.121 1.812-12.121s3.97 12.888 8.359 21.456c4.459 8.569 12.818 12.122 12.818 12.122z"/><path fill="#7B46C1" d="M456.683 167.484s-2.995 11.285-6.061 20.899c-1.254 4.04-2.577 7.733-3.692 10.24-.766 1.742-1.463 2.857-1.95 3.066-2.926.975-15.605 10.17-15.605 10.17v-21.526s.975-1.393 9.056-9.543c8.081-8.151 18.252-13.306 18.252-13.306z"/><path fill="#6635A6" d="M450.622 188.383c-2.229 6.897-4.458 12.888-5.642 13.306-2.926.975-15.605 10.171-15.605 10.171v-8.499c3.901-2.787 7.384-5.504 9.056-7.315 4.668-5.085 10.45-20.063 10.45-20.063l1.741 12.4z"/><path fill="#EA4E1B" d="M448.881 187.826c-.209.627-.976 5.573-1.951 10.797-.766 1.742-1.463 2.857-1.95 3.066-2.926.975-15.605 10.171-15.605 10.171v-3.693a17.396 17.396 0 0 1 3.553-1.881c6.966-2.647 13.166-23.755 13.166-23.755s3.274 3.971 2.787 5.295z"/><path fill="#7B46C1" d="M469.85 166.439v5.434h-2.438l-1.951 89.726s-3.901 6.827-13.654 7.802c-9.753.976-13.375-1.114-13.375-1.114s.278-4.668.766-11.913c1.602-23.964 5.225-76.142 6.757-80.67 1.951-5.851 10.589-8.847 10.728-8.777.14.069 3.414-.418 5.365-.767.348-.069.696-.139.905-.139.348-.07.557-.07.557-.07.488-1.045 1.533-1.602 2.578-1.602.557 0 1.115.139 1.602.488l.349.278 1.811 1.324z"/><path fill="#6635A6" d="M469.85 166.439v5.434h-2.438l-1.951 89.726s-3.901 6.827-13.654 7.802c-9.753.976-13.375-1.114-13.375-1.114s.069-1.324.278-3.692c.14-2.021.279-4.877.558-8.221 6.2-3.622 14.35-10.101 17.485-21.177 5.364-19.088 8.29-51.133 8.151-56.637-.07-3.831-1.742-9.404-2.787-12.33l.906-.139c1.114 1.254 2.438 2.856 2.995 3.483.697.836 1.603-2.438 2.09-4.459l1.742 1.324z"/><path fill="#EA4E1B" d="M467.621 171.873h-.209l-1.951 89.726s-3.901 6.827-13.654 7.802c-9.753.976-13.375-1.114-13.375-1.114s.069-1.324.278-3.692c7.036-3.693 18.461-11.913 22.641-26.333 6.13-20.829 4.667-68.758 4.667-68.758l1.603 2.369z"/><path fill="#FFCCB9" d="M490.818 153.83c-1.95 1.951-8.777.975-8.777.975s-15.605 7.803-19.506-2.925c-3.065-8.43.488-17.416 2.16-20.899.417-.976.766-1.533.766-1.533 9.753 8.778 19.506 0 18.53 5.852-.557 3.204-.487 7.314.14 10.031.557 2.229 1.463 3.553 2.786 2.647 2.926-1.95 5.852 3.902 3.901 5.852z"/><path fill="#F0AC9A" d="M484.131 145.331c-2.647-1.254-2.717-6.2-3.414-8.708-.836-3.065-5.991 1.185-11.494-1.254-2.229-.975-3.623-2.647-4.598-4.319.418-.975.766-1.532.766-1.532 9.753 8.777 19.506 0 18.531 5.851-.488 3.135-.418 7.245.209 9.962zm-15.257 4.11l-2.438-4.389 5.642-5.851-3.204 10.24z"/><path fill="#393150" d="M479.044 142.052c.503-1.249.505-2.425.005-2.626-.5-.201-1.312.649-1.814 1.899-.503 1.249-.505 2.425-.005 2.626.5.201 1.312-.649 1.814-1.899zm-10.728-2.93c.502-1.249.504-2.425.004-2.626-.499-.201-1.312.649-1.814 1.898-.502 1.25-.504 2.425-.004 2.626.499.201 1.312-.649 1.814-1.898z"/><path fill="#26213D" d="M481.763 139.201c-.279 0-.488-.209-.488-.418-.07-.836-.348-1.463-.836-1.812-.836-.626-2.16-.278-2.16-.278-.278.069-.557-.07-.626-.348-.07-.279.069-.558.348-.627.069 0 1.741-.488 2.995.418.767.487 1.185 1.393 1.254 2.507 0 .349-.209.558-.487.558zm-9.475-4.389c-.14 0-.209-.07-.349-.139 0 0-2.647-2.369-4.179-.836-.209.209-.488.209-.697 0-.209-.209-.209-.488 0-.697 2.229-2.09 5.434.766 5.573.836.209.209.209.488 0 .697a.536.536 0 0 1-.348.139z"/><path fill="#F0AC9A" d="M484.896 152.646s.767-2.717 2.857-3.205c2.09-.487 3.831 5.922-2.857 3.205z"/><path fill="#F06767" d="M476.398 150.556s-.139.348-.418.906c-.766 1.602-2.508 4.528-4.598 2.716-.487-.418-1.045-1.114-1.532-2.229l6.548-1.393z"/><path fill="#DB514D" d="M476.398 150.556s-.139.348-.418.906c-2.647.696-3.97 1.95-4.597 2.716a2.648 2.648 0 0 1-.627-.627c-.349-.418-.627-.905-.976-1.602l4.319-.975 2.299-.418z"/><path fill="#C43B3B" d="M474.169 151.043c-1.741.836-2.786 1.742-3.413 2.508-.349-.418-.627-.905-.976-1.602l4.389-.906z"/></g><defs><linearGradient id="paint0_linear" x1="83.874" x2="176.818" y1="92.878" y2="92.878" gradientUnits="userSpaceOnUse"><stop stop-color="#FEF7F3"/><stop offset="1" stop-color="#FFE8E2"/></linearGradient><linearGradient id="paint1_linear" x1="99.087" x2="121.078" y1="133.76" y2="133.76" gradientUnits="userSpaceOnUse"><stop stop-color="#FEF7F3"/><stop offset="1" stop-color="#FFE8E2"/></linearGradient><linearGradient id="paint2_linear" x1="99.087" x2="160.967" y1="140.921" y2="140.921" gradientUnits="userSpaceOnUse"><stop stop-color="#FEF7F3"/><stop offset="1" stop-color="#FFE8E2"/></linearGradient><linearGradient id="paint3_linear" x1="519.288" x2="605.231" y1="24.613" y2="173.47" gradientUnits="userSpaceOnUse"><stop stop-color="#FEF7F3"/><stop offset="1" stop-color="#FFE8E2"/></linearGradient><linearGradient id="paint4_linear" x1="534.2" x2="556.191" y1="145.467" y2="145.467" gradientUnits="userSpaceOnUse"><stop stop-color="#FEF7F3"/><stop offset="1" stop-color="#FFE8E2"/></linearGradient><linearGradient id="paint5_linear" x1="534.2" x2="596.081" y1="152.628" y2="152.628" gradientUnits="userSpaceOnUse"><stop stop-color="#FEF7F3"/><stop offset="1" stop-color="#FFE8E2"/></linearGradient><linearGradient id="paint6_linear" x1="225.466" x2="426.867" y1="190.13" y2="190.13" gradientUnits="userSpaceOnUse"><stop stop-color="#E7F8FC"/><stop offset="1" stop-color="#C9CAF8"/></linearGradient><linearGradient id="paint7_linear" x1="301.562" x2="429.365" y1="205.154" y2="205.154" gradientUnits="userSpaceOnUse"><stop stop-color="#E7F8FC"/><stop offset="1" stop-color="#C9CAF8"/></linearGradient><linearGradient id="paint8_linear" x1="287.183" x2="370.659" y1="243.096" y2="387.681" gradientUnits="userSpaceOnUse"><stop stop-color="#8CC0FF"/><stop offset="1" stop-color="#8999FC"/></linearGradient><clipPath id="clip0"><path fill="#fff" d="M0 0h641v461H0z" transform="translate(.5)"/></clipPath></defs></svg>