<svg xmlns="http://www.w3.org/2000/svg" width="32" height="32" fill="none" viewBox="0 0 32 32"><path fill="#000" d="M32 8.917v6.58c-4.47 1.919-10.023 3.015-16 3.015-5.976 0-11.53-1.096-16-3.015v-6.58c0-1.206.847-2.193 1.882-2.193h7.765V5.079c0-2.522 1.788-4.66 4-4.66h4.706c2.212 0 4 2.138 4 4.66v1.645h7.765c1.035 0 1.882.987 1.882 2.193zM12 5.08v1.645h8V5.079c0-1.042-.753-1.919-1.647-1.919h-4.706c-.894 0-1.647.877-1.647 1.92zm1.647 10.034v1.096c0 .33.188.549.47.549h3.765c.283 0 .47-.22.47-.549v-1.096c0-.33-.187-.548-.47-.548h-3.764c-.283 0-.47.219-.47.548zM0 29.807V17.854c4.518 1.81 10.024 2.851 16 2.851 5.977 0 11.482-1.041 16-2.85v11.952C32 31.013 31.153 32 30.118 32H1.882C.847 32 0 31.013 0 29.807zm18.353-5.647v-1.097c0-.329-.188-.548-.47-.548h-3.765c-.283 0-.47.219-.47.548v1.097c0 .328.187.548.47.548h3.764c.283 0 .47-.22.47-.548z"/></svg>