<svg xmlns="http://www.w3.org/2000/svg" width="24" height="24" fill="none" viewBox="0 0 24 24"><path stroke="#0D0229" stroke-miterlimit="10" stroke-width="1.5" d="M21.931 6.76l-3.37 13.53a2.228 2.228 0 0 1-2.18 1.71H3.241c-1.51 0-2.59-1.48-2.14-2.93l4.21-13.52a2.25 2.25 0 0 1 2.14-1.59h12.3c.95 0 1.74.58 2.07 1.38.19.43.23.92.11 1.42z"/><path stroke="#0D0229" stroke-linecap="round" stroke-linejoin="round" stroke-miterlimit="10" stroke-width="1.5" d="M16.001 22h4.78c1.29 0 2.3-1.09 2.21-2.38L22.001 6m-12.32.38l1.04-4.32m5.659 4.33l.94-4.34M7.701 12h8m-9 4h8"/></svg>