<svg xmlns="http://www.w3.org/2000/svg" width="24" height="25" fill="none" viewBox="0 0 24 25"><path stroke="#0D0229" stroke-linecap="round" stroke-linejoin="round" stroke-miterlimit="10" stroke-width="1.5" d="M8 22.182h8c4.02 0 4.74-1.61 4.95-3.57l.75-8c.27-2.44-.43-4.43-4.7-4.43H7c-4.27 0-4.97 1.99-4.7 4.43l.75 8c.21 1.96.93 3.57 4.95 3.57z"/><path stroke="#0D0229" stroke-linecap="round" stroke-linejoin="round" stroke-miterlimit="10" stroke-width="1.5" d="M8.001 6.182v-.8c0-1.77 0-3.2 3.2-3.2h1.6c3.2 0 3.2 1.43 3.2 3.2v.8m-2 7v1.02c0 1.09-.01 1.98-2 1.98-1.98 0-2-.88-2-1.97v-1.03c0-1 0-1 1-1h2c1 0 1 0 1 1zm7.65-2a16.484 16.484 0 0 1-7.65 3.02m-11.38-2.75c2.25 1.54 4.79 2.47 7.38 2.76"/></svg>