<svg xmlns="http://www.w3.org/2000/svg" width="26" height="27" fill="none" viewBox="0 0 26 27"><path fill="#000" d="M10.6.6a10.4 10.4 0 0 0-9.08 15.475L.248 19.407a1.6 1.6 0 0 0 1.926 2.111l3.98-1.115A10.4 10.4 0 1 0 10.6.6zm-.011 6.242c-.573.112-1.2.483-1.693 1.353a.8.8 0 0 1-1.392-.79c.706-1.242 1.709-1.925 2.778-2.133a3.89 3.89 0 0 1 2.867.578c.774.512 1.4 1.349 1.42 2.352.02 1.048-.617 1.993-1.791 2.688-.797.47-1.107.79-1.24 1.003-.112.18-.138.342-.138.707a.8.8 0 1 1-1.6 0c0-.435.022-.976.38-1.552.335-.54.91-1.02 1.783-1.536.856-.507 1.012-.989 1.007-1.277-.008-.33-.228-.736-.704-1.05a2.29 2.29 0 0 0-1.677-.343zM11 17.4a1.2 1.2 0 1 1 0-2.4 1.2 1.2 0 0 1 0 2.4z"/><path fill="#000" d="M7.458 22.584a10.376 10.376 0 0 0 7.883 3.616 10.36 10.36 0 0 0 4.448-.997l3.98 1.116a1.6 1.6 0 0 0 1.924-2.112l-1.273-3.332a10.354 10.354 0 0 0 1.32-5.075c0-3.104-1.36-5.891-3.518-7.797.233.903.363 1.848.376 2.82A8.762 8.762 0 0 1 24.14 15.8c0 1.68-.47 3.25-1.288 4.586l-.205.336 1.552 4.056-4.576-1.28-.28.14a8.75 8.75 0 0 1-4.003.962 8.76 8.76 0 0 1-5.067-1.605 12 12 0 0 1-2.816-.41z"/></svg>