<svg xmlns="http://www.w3.org/2000/svg" width="25" height="16" fill="none" viewBox="0 0 25 16"><g fill="#000" clip-path="url(#clip0)"><path d="M4.75 0A2.25 2.25 0 0 0 2.5 2.25v9a2.25 2.25 0 0 0 2.25 2.25h15.5a2.25 2.25 0 0 0 2.25-2.25v-9A2.25 2.25 0 0 0 20.25 0H4.75zM4 2.25a.75.75 0 0 1 .75-.75h15.5a.75.75 0 0 1 .75.75v9a.75.75 0 0 1-.75.75H4.75a.75.75 0 0 1-.75-.75v-9zM1.25 14.5a.75.75 0 1 0 0 1.5h22.5a.75.75 0 1 0 0-1.5H1.25z"/></g><defs><clipPath id="clip0"><path fill="#fff" d="M0 0h24v16H0z" transform="translate(.5)"/></clipPath></defs></svg>