<svg xmlns="http://www.w3.org/2000/svg" width="25" height="23" fill="none" viewBox="0 0 25 23"><g clip-path="url(#clip0)"><path stroke="#000" stroke-width="2" d="M16.5 15c0-1.105-3.134-2-7-2m7 2c0 1.105-3.134 2-7 2s-7-.895-7-2m14 0v4.937c0 1.139-3.134 2.063-7 2.063s-7-.923-7-2.063V15m14 0h-14m14 0c3.824 0 7-.987 7-2V3m-7 12l7-12m-14 10c-3.866 0-7 .895-7 2m7-2c-4.418 0-8-.987-8-2V6m8 7l-8-7m0 0c0-1.105 3.582-2 8-2v4m-8-2c0 1.105 3.582 2 8 2m0 0c0 1.013 3.253 2 7.077 2C20.4 10 23.5 9.013 23.5 8m0-5c0-1.105-3.1-2-6.923-2-3.824 0-6.923.895-6.923 2M23.5 3c0 1.105-3.1 2-6.923 2s-6.923-.895-6.923-2m0 0v10.166"/></g><defs><clipPath id="clip0"><path fill="#fff" d="M0 0h24v23H0z" transform="translate(.5)"/></clipPath></defs></svg>