<svg xmlns="http://www.w3.org/2000/svg" width="32" height="32" fill="none" viewBox="0 0 32 32"><path fill="#000" d="M5.485 26.883c.481 0 .871-.266.871-.594 0-.328-.39-.594-.87-.594-.482 0-.872.266-.872.594 0 .328.39.594.871.594z"/><path fill="#000" d="M31 23.334l-.327-.192c-.025-.014-2.523-1.497-3.144-3.296l-.139-.398-.256.334c-.008.011-.363.45-1.357.965-.735-4.186-3.237-9.184-6.525-11.316.94.077 1.883-.001 2.793-.332.548-.2.311-1.092-.242-.89-.745.271-1.493.345-2.239.307 1.831-1.678 3.27-4.251 3.27-6.132 0-.452 0-1.293-.67-1.293-.27 0-.487.167-.788.4-.46.355-1.157.893-2.179.893-.39 0-1.102-.411-1.675-.741C16.828 1.244 16.386 1 16.014 1c-.617 0-1.522.498-2.321.938-.325.178-.77.423-.862.447-1.158 0-1.83-.534-2.276-.888-.26-.207-.448-.357-.7-.357-.659 0-.659.79-.659 1.706 0 1.767 1.346 4.1 3.109 5.667-1.111.08-2.206.415-2.975 1.16-.425.412.219 1.063.642.653.64-.62 1.478-.885 2.375-.937.025.092.056.182.095.27-3.758 2.701-6.428 9.114-6.428 13.443 0 .427.033.813.084 1.177-.969-.43-1.322-.808-1.33-.817l-.258-.297-.127.375c-.561 1.652-3.002 3.085-3.027 3.1L1 26.847l.363.197c.128.069.254.129.382.194l-.23.16.122 1.52L11.162 31l3.612-2.31c.364.002.733.002 1.109.002L20.106 31l9.544-3v-1.605l-.252-.151c.126-.08.252-.162.378-.245l.334-.224-.073-.036.425-.117.072-1.668-.246-.174c.131-.079.261-.159.392-.242l.32-.204zM10.107 2.846c0-.222.003-.395.007-.53.076.06.165.126.26.194.292.698.843 1.703 1.778 2.336 1.137.77.986-.115 1.591-.924.607-.807 1.016-1.23 2.031.847.443.905 1.18-1.625 1.882-1.994.185.1.37.195.552.275 1.257 2.043 1.839 1.406 2.956-.293.306-.18.558-.373.759-.528l.002.156c0 1.605-1.312 3.907-2.918 5.409a1.794 1.794 0 0 0-.32-.527c-.649-.735-1.663.08-2.143.614-.853-.274-2.242-1.028-3.146-.596a2.305 2.305 0 0 0-.614.415c-1.48-1.349-2.678-3.296-2.678-4.854zm8.102 5.487c-.225-.048-.448-.1-.669-.16.279-.24.535-.325.643.033.011.039.018.084.026.127zm-3.8.31a8.572 8.572 0 0 0-.511-.082 7.086 7.086 0 0 1-.39-.262c.458-.307 1.246-.144 1.999.112a5.419 5.419 0 0 0-1.098.232zm.226 1.32c-.28.07-.585.043-.848-.063.107-.056.215-.105.323-.155.175.085.35.155.526.219zM5.388 28.19a19.665 19.665 0 0 1-3.456-1.367c.679-.446 2.157-1.524 2.758-2.82.412.323 1.362.913 3.215 1.366-.032.051-.07.105-.107.159-1.582-.414-2.48-.938-2.495-.947l-.218-.13-.104.234c-.138.306-.46.352-.64.352a.858.858 0 0 1-.088-.004l-.178-.026-.066.171c-.132.349-.679.805-.878.951l-.334.245.382.157c.142.058.18.111.182.126.005.034-.055.125-.12.177l-.291.235.339.157c.693.32 1.478.585 2.264.803-.063.061-.116.114-.165.16zm4.032-1.864a16.685 16.685 0 0 0 2.856.152.524.524 0 0 0 .232.273l-1.275 1.091a1.481 1.481 0 0 0-.073-.002c-.569 0-.993.21-1.197.582a34.198 34.198 0 0 1-2.3-.374 25.934 25.934 0 0 0 1.757-1.721zm-5.675.599a.508.508 0 0 0-.089-.629c.225-.192.535-.49.705-.797.386-.005.705-.152.906-.411.339.177 1.101.534 2.228.845-.46.577-1.081 1.232-1.563 1.719a16.355 16.355 0 0 1-2.187-.727zm7.126 2.104l-.102.001c-.431 0-1.857-.035-3.742-.428.066-.055.135-.113.198-.168 1.529.32 2.762.456 2.854.467l.184.02.056-.178c.123-.383.579-.44.84-.44.072 0 .119.005.125.005l.097.011 2.216-1.894-.592-.02c-.198-.007-.282-.051-.303-.082l.126-.328-.347.014a16.117 16.117 0 0 1-2.686-.102l.139-.163c1.208.161 2.655.26 4.401.248-.417.585-1.457 1.828-3.464 3.037zm5.012-2.172v.913c-.284 0-.562-.002-.832-.003l-.082-1.027-.677.055c.456-.54.65-.899.668-.932l.184-.346-.388.006c-3.709.069-6.128-.373-7.655-.864a6.437 6.437 0 0 1-.176-1.557c0-4.061 2.596-10.2 6.042-12.688.61.59 1.536.848 2.416.274a2.69 2.69 0 0 0 .518-.466c.038 0 .076.009.115.009.125 0 .253-.01.381-.027.162.065.32.13.466.194.702.31 1.3.117 1.71-.309 3.156 1.91 5.685 6.963 6.35 11.047-1.442.577-3.732 1.14-7.245 1.239.694-.396 1.213-1.062 1.026-1.937-.196-.925-.969-1.185-1.77-1.227-.002-.435-.002-.868.002-1.303.245.108.48.233.695.367.378.238.72-.378.344-.615a5.148 5.148 0 0 0-1.036-.5c.005-.503.008-1.005.008-1.507 0-.46-.684-.46-.684 0 0 .441-.003.882-.006 1.323a3.551 3.551 0 0 0-1.101-.018c-.06-.331-.132-.66-.216-.985-.114-.444-.774-.256-.659.188.084.32.152.638.209.96-.029.012-.06.017-.089.03-.926.366-1.491 1.301-.814 2.172.316.407.729.57 1.18.625.024.601.04 1.203.057 1.805a4.566 4.566 0 0 1-.827-.715c-.309-.326-.792.177-.483.503.42.446.86.784 1.338 1 .021.513.051 1.028.101 1.539.044.454.729.456.684 0a26.937 26.937 0 0 1-.093-1.328c.26.045.533.056.823.029.032.473.07.946.124 1.419.031.27.29.377.481.322l-.043.982c-.3.027-.608.052-.928.073l-.38.025.203.328c.02.033.25.398.765.928h-.706v-.001zm12.444-3.291c-.628.296-1.424.567-2.233.803-.498-.514-1.136-1.201-1.611-1.81 1.06-.321 1.652-.652 1.92-.83.211.186.491.283.823.283.11 0 .207-.011.282-.023.24.311.627.67.87.884a.522.522 0 0 0-.166.389c.004.12.052.221.115.304zm-3.578 1.643l.316.275c-2.027.537-3.536.596-3.864.601-2.1-1.28-3.188-2.635-3.607-3.245 1.756-.044 3.209-.203 4.42-.422l.149.18c-.973.152-1.954.249-2.938.292l-.404.017.222.339s-.046.085-.344.143l-.484.094 2.382 1.928.111-.03c.002 0 .212-.056.466-.056.367 0 .618.111.744.329l.08.138.155-.027a43.63 43.63 0 0 0 2.596-.556zm-7.048-1.47l-.569-.03c-.026-.285-.053-.569-.073-.852.1.166.305.477.642.883zm-.704-1.83a52.572 52.572 0 0 1-.06-2.02c.082.003.163.01.24.021.885.134 1.116 1.117.426 1.67-.18.143-.388.247-.606.329zm5.22 3.376c-.225-.276-.581-.422-1.042-.422a2.57 2.57 0 0 0-.469.047l-1.497-1.213a.565.565 0 0 0 .254-.273.48.48 0 0 0 .026-.085 26.51 26.51 0 0 0 3.032-.329c.41.457 1.013 1.088 1.812 1.822-.982.233-1.8.393-2.117.453zm-5.963-5.378c.009.724.027 1.45.066 2.174-.065.01-.128.023-.192.03a1.697 1.697 0 0 1-.613-.043c-.024-.7-.04-1.402-.067-2.102.269-.013.542-.039.806-.06zm-.84-.633a22.109 22.109 0 0 0-.155-1.643 2.67 2.67 0 0 1 .993.05 156.94 156.94 0 0 0-.003 1.534c-.219.012-.428.033-.611.05a4.23 4.23 0 0 1-.225.009zm-.687-.088c-.042-.011-.084-.02-.128-.035a1.335 1.335 0 0 1-.528-.333c-.427-.399.159-.79.528-.975.058.445.098.894.128 1.343zm5.519 9.733c-2.17-1.108-3.335-2.341-3.797-2.912.332-.025.646-.055.958-.087l3.559 2.31 7.805-2.143c-4.025 2.425-8.002 2.795-8.525 2.832zm6.446-3.945l-.231-.231c.888-.269 1.747-.581 2.387-.924l.39-.21-.395-.2c-.088-.046-.175-.13-.176-.161 0-.012.035-.076.187-.163l.289-.166-.257-.214c-.008-.006-.81-.672-1.091-1.1l-.093-.14-.16.046c-.001 0-.138.04-.316.04-.275 0-.481-.09-.613-.267l-.146-.194-.183.158c-.01.008-.576.473-2.096.912a5.173 5.173 0 0 1-.144-.22c1.843-.559 2.784-1.235 3.192-1.605.655 1.417 2.215 2.558 2.892 3.006a18.987 18.987 0 0 1-3.436 1.633z"/><path fill="#000" d="M22.19 23.559c-.498-.136-1.06-.043-1.258.204-.195.249.052.562.55.698.499.136 1.06.043 1.258-.205.195-.249-.05-.56-.55-.697z"/></svg>