<svg xmlns="http://www.w3.org/2000/svg" width="32" height="32" fill="none" viewBox="0 0 32 32"><g clip-path="url(#clip0)"><path fill="#fff" d="M32 11.016v5.981c-4.47 1.744-10.023 2.741-16 2.741-5.976 0-11.53-.997-16-2.741v-5.981c0-1.097.847-1.994 1.882-1.994h7.765V7.527c0-2.293 1.788-4.237 4-4.237h4.706c2.212 0 4 1.944 4 4.237v1.495h7.765c1.035 0 1.882.897 1.882 1.994zm-20-3.49v1.496h8V7.527c0-.947-.753-1.745-1.647-1.745h-4.706c-.894 0-1.647.798-1.647 1.745zm1.647 9.122v.997c0 .299.188.498.47.498h3.765c.283 0 .47-.199.47-.498v-.997c0-.299-.187-.498-.47-.498h-3.764c-.283 0-.47.199-.47.498zM0 30.006V19.14c4.518 1.645 10.024 2.592 16 2.592 5.977 0 11.482-.947 16-2.592v10.866C32 31.103 31.153 32 30.118 32H1.882C.847 32 0 31.103 0 30.006zm18.353-5.134v-.997c0-.299-.188-.498-.47-.498h-3.765c-.283 0-.47.2-.47.498v.997c0 .3.187.499.47.499h3.764c.283 0 .47-.2.47-.499z"/></g><defs><clipPath id="clip0"><path fill="#fff" d="M0 0h32v32H0z"/></clipPath></defs></svg>