<svg xmlns="http://www.w3.org/2000/svg" width="65" height="64" fill="none" viewBox="0 0 65 64"><g clip-path="url(#clip0)"><circle cx="32.563" cy="32" r="31.5" fill="#C05299" stroke="#fff"/><path fill="#fff" d="M47.371 22.588l-5.48-5.5a3.993 3.993 0 0 0-5.32-.14l-18 18.065a4.02 4.02 0 0 0-1.14 2.429l-.86 8.37a2.015 2.015 0 0 0 .58 1.606 2 2 0 0 0 1.42.582h.18l8.34-.763a3.994 3.994 0 0 0 2.42-1.144l18-18.065a3.862 3.862 0 0 0-.14-5.44zm-20.64 20.634l-6 .563.54-6.022 11.3-11.2 5.4 5.419-11.24 11.24zm13.84-13.93l-5.36-5.38 3.9-4.014 5.46 5.48-4 3.914z"/></g><defs><clipPath id="clip0"><path fill="#fff" d="M0 0h64v64H0z" transform="translate(.563)"/></clipPath></defs></svg>