<svg xmlns="http://www.w3.org/2000/svg" width="24" height="24" fill="none" viewBox="0 0 24 24"><path stroke="#8A8A8A" stroke-linecap="round" stroke-linejoin="round" stroke-width="2" d="M16.474 5.408l2.118 2.117-2.118-2.117zm1.362-1.865L12.109 9.27a2.118 2.118 0 0 0-.58 1.082L11 13l2.648-.53c.41-.082.786-.283 1.082-.579l5.727-5.727a1.854 1.854 0 0 0-2.621-2.62v0z"/><path stroke="#8A8A8A" stroke-linecap="round" stroke-linejoin="round" stroke-width="2" d="M19 15v3a2 2 0 0 1-2 2H6a2 2 0 0 1-2-2V7a2 2 0 0 1 2-2h3"/></svg>