<svg xmlns="http://www.w3.org/1999/svg" width="37" height="36" fill="none" viewBox="0 0 37 36"><path fill="#3988FF" d="M23.648 7.815l2.115 4.23c.285.585 1.05 1.14 1.695 1.26l3.825.63c2.445.405 3.015 2.175 1.26 3.945l-2.985 2.985c-.495.495-.78 1.47-.615 2.175l.855 3.69c.675 2.91-.885 4.05-3.45 2.52l-3.585-2.13c-.645-.39-1.725-.39-2.37 0l-3.585 2.13c-2.565 1.515-4.125.39-3.45-2.52l.855-3.69c.135-.72-.15-1.695-.645-2.19l-2.985-2.985c-1.755-1.755-1.185-3.525 1.26-3.945l3.825-.63c.645-.105 1.41-.675 1.695-1.26l2.115-4.23c1.155-2.28 3.015-2.28 4.17.015zm-11.085.81h-9c-.616 0-1.126-.51-1.126-1.125s.51-1.125 1.126-1.125h9c.614 0 1.124.51 1.124 1.125s-.51 1.125-1.124 1.125zm-4.5 21h-4.5c-.616 0-1.126-.51-1.126-1.125s.51-1.125 1.126-1.125h4.5c.614 0 1.124.51 1.124 1.125s-.51 1.125-1.124 1.125zm-3-10.5h-1.5c-.616 0-1.126-.51-1.126-1.125s.51-1.125 1.126-1.125h1.5c.615 0 1.125.51 1.125 1.125s-.51 1.125-1.125 1.125z"/></svg>