<svg xmlns="http://www.w3.org/2000/svg" width="80" height="80" fill="none" viewBox="0 0 80 80"><path fill="#BD851D" d="M47.721 55.432c10.272-4.226 17.886-9.387 17.006-11.526-.88-2.14-9.922-.45-20.194 3.777-10.272 4.226-17.886 9.386-17.005 11.526.88 2.14 9.92.449 20.193-3.777z"/><path fill="#844F15" d="M46.48 52.378c5.022-2.066 8.581-4.987 7.949-6.526-.633-1.538-5.218-1.111-10.24.954-5.023 2.065-8.582 4.987-7.95 6.525.633 1.539 5.217 1.112 10.24-.953z"/><path fill="#FBB041" d="M40.543 54.464l-.72-4.824c-.126-.851-1.23-1.396-2.469-1.21-1.239.185-2.137 1.025-2.01 1.879l.72 4.824c-2.362.996-3.867 2.885-3.58 4.793.366 2.462 3.547 4.024 7.11 3.49 3.555-.531 6.142-2.954 5.777-5.415-.286-1.91-2.278-3.274-4.832-3.537"/><path fill="#E09734" d="M35.022 59.544c-.285-1.91 1.224-3.798 3.581-4.793l-.72-4.824c-.078-.528.24-1.052.78-1.417a2.97 2.97 0 0 0-1.309-.083c-1.239.186-2.137 1.026-2.01 1.88l.72 4.823c-2.362.996-3.867 2.885-3.58 4.793.366 2.463 3.547 4.024 7.11 3.49a9.808 9.808 0 0 0 1.257-.276c-3.014.033-5.505-1.434-5.829-3.593z"/><path fill="#F9C178" d="M44.513 58.186a3.069 3.069 0 0 1-.207 1.662 2.59 2.59 0 0 1-.184.346c-.253.37-.94 1.014-1.054.488a5.512 5.512 0 0 0-.306-.987c-.49-1.488-1.562-1.272-2.433-1.845-.43-.26-.125-.848.106-1.127.077-.106.158-.201.24-.289.334-.35.71-.566 1.132-.603a2.14 2.14 0 0 1 .375-.021c1.127.046 2.129 1.034 2.33 2.376z"/><path fill="#FBB041" d="M38.395 21.447c.578 1.405-.604 3.224-2.637 4.059-2.039.84-4.155.377-4.733-1.028-.578-1.405.602-3.224 2.64-4.061 2.032-.836 4.151-.375 4.73 1.03z"/><path fill="#F9C178" d="M37.241 21.185c.109.263.086.558-.041.841a1.758 1.758 0 0 1-.115.208c-.167.236-.645.708-.768.484a1.523 1.523 0 0 0-.3-.4c-.474-.592-1.276-.236-1.973-.304-.345-.02-.154-.373.002-.561.052-.069.106-.133.166-.195.224-.247.503-.438.816-.556.094-.037.19-.07.286-.1.856-.244 1.684-.01 1.927.583z"/><path fill="#E09734" d="M33.888 22.61c-.305-.739-.185-1.579.256-2.364-.162.05-.322.108-.48.17-2.038.84-3.216 2.657-2.64 4.062.578 1.404 2.694 1.867 4.733 1.028a5.303 5.303 0 0 0 1.854-1.252c-1.717.184-3.224-.424-3.723-1.644z"/><path fill="#FBB041" fill-rule="evenodd" d="M56.952 40.04c-3.161-1.529-5.366-3.883-7.07-6.72-1.607-2.685-2.903-5.522-4.151-8.371-.756-1.72-2.02-2.354-3.99-2.214a21.1 21.1 0 0 0-3.998.687c-.75.272-1.497.553-2.252.84a119.042 119.042 0 0 0-3.6 1.652 20.949 20.949 0 0 0-2.893 2.064c-1.498 1.284-1.951 2.624-1.278 4.38 1.118 2.901 2.193 5.827 2.939 8.872.786 3.216.873 6.44-.297 9.75-.602 1.702-1.328 3.362-2.039 5.028-.456 1.066-.892 2.136-.81 3.28.153.086.26.042.338-.114.984-1.968 2.79-3.252 4.583-4.515 3.086-2.176 6.448-3.911 9.881-5.518.788-.37 1.586-.721 2.39-1.076a99.908 99.908 0 0 1 2.458-.917c3.575-1.277 7.181-2.408 10.906-3.031 2.16-.364 4.35-.721 6.432-.017.166.058.272.014.317-.154-.743-.87-1.81-1.324-2.881-1.761-1.678-.686-3.362-1.356-4.986-2.141" clip-rule="evenodd"/><path fill="#F9C178" fill-rule="evenodd" d="M61.928 42.168c-1.679-.684-3.362-1.356-4.986-2.14-3.161-1.528-5.366-3.883-7.071-6.72-1.608-2.686-2.904-5.522-4.151-8.37-.756-1.722-2.02-2.354-3.99-2.213-1.351.098-2.69.328-3.997.685-.75.272-1.496.554-2.252.842-.45.198-.897.404-1.345.605.286-.107.575-.218.865-.323A21.213 21.213 0 0 1 39 23.846c1.968-.139 3.232.495 3.988 2.217 1.25 2.849 2.544 5.685 4.15 8.369 1.706 2.84 3.91 5.192 7.072 6.72 1.624.786 3.308 1.456 4.986 2.14.37.15.736.312 1.09.483 1.42-.153 2.836-.152 4.206.31.164.055.27.013.316-.154-.743-.873-1.81-1.327-2.88-1.763z" clip-rule="evenodd"/><path fill="#E09734" fill-rule="evenodd" d="M33.96 52.754c.711-1.668 1.437-3.328 2.038-5.028 1.17-3.31 1.084-6.536.296-9.75-.744-3.042-1.821-5.966-2.937-8.873-.674-1.755-.22-3.095 1.279-4.38.092-.081.19-.157.285-.233-.614.275-1.227.541-1.83.826-.406.19-.81.38-1.211.573a20.883 20.883 0 0 0-2.892 2.062c-1.5 1.284-1.953 2.626-1.278 4.38 1.117 2.903 2.193 5.83 2.938 8.871.788 3.216.875 6.44-.297 9.75-.601 1.702-1.326 3.36-2.037 5.03-.456 1.065-.892 2.135-.81 3.276.153.09.258.043.336-.112.986-1.967 2.791-3.25 4.583-4.515.36-.251.726-.5 1.093-.743.132-.38.283-.76.444-1.136" clip-rule="evenodd"/><path fill="#1F0643" d="M66.536 38.042c-.279-.404-.555-.808-.83-1.204-.042-.064-.058-.118-.089-.176-.036-.062-.077-.125-.104-.196a1.149 1.149 0 0 1-.08-.33c-.002-.022-.014-.042-.017-.067-.309-4.064-2.539-8.129-6.147-10.986-1.938-1.535-2.355-1.009-3.788-3.091-.585-.851-.213-1.574.492-1.304 6.472 2.467 11.957 10.432 11.953 17.356.001.756-.808.846-1.39-.002z"/><path fill="#1F0643" d="M62.568 38.756l-.681-.987c-.035-.054-.049-.092-.076-.144-.028-.052-.063-.106-.087-.163a1.047 1.047 0 0 1-.063-.27c-.002-.018-.01-.036-.014-.054-.251-3.345-2.089-6.69-5.06-9.044-1.592-1.259-1.934-.83-3.113-2.541-.483-.703-.178-1.298.404-1.076 5.327 2.033 9.838 8.583 9.836 14.285 0 .623-.664.693-1.146-.006zM23.19 54.153l-.29-1.432c-.015-.075-.043-.126-.064-.187-.019-.07-.037-.143-.069-.212a1.191 1.191 0 0 0-.182-.286c-.014-.017-.022-.04-.036-.058-2.71-3.045-4.087-7.472-3.637-12.048.241-2.461.91-2.396.407-4.874-.208-1.013-.984-1.247-1.28-.551-2.72 6.37-.8 15.846 4.187 20.653.545.527 1.168.007.964-1.003"/><path fill="#1F0643" d="M26.456 51.796c-.081-.389-.161-.788-.239-1.174-.015-.064-.034-.1-.053-.154-.017-.057-.03-.12-.056-.176a1 1 0 0 0-.15-.233c-.012-.016-.018-.033-.029-.05-2.233-2.503-3.363-6.15-2.994-9.918.2-2.021.746-1.971.333-4.008-.169-.834-.81-1.03-1.054-.456-2.237 5.244-.658 13.04 3.446 16.998.45.432.963.002.796-.83"/></svg>