<svg xmlns="http://www.w3.org/2000/svg" width="20" height="20" fill="none" viewBox="0 0 20 20"><path fill="#0D0229" d="M10 19.044a1.484 1.484 0 001.433-1.266H8.511A1.483 1.483 0 0010 19.045zM18.25 15.628l-.189-.167a7.983 7.983 0 01-1.394-1.628 7.014 7.014 0 01-.75-2.672V8.417a6.072 6.072 0 00-.09-.995A4.166 4.166 0 0112.5 3.333v-.35a5.872 5.872 0 00-1.845-.555v-.7a.742.742 0 10-1.483 0v.728a6.006 6.006 0 00-5.167 5.96v2.745a7.016 7.016 0 01-.75 2.672 8.002 8.002 0 01-1.372 1.628l-.189.167v1.566H18.25v-1.566z"/><path fill="#EA4E1B" d="M16.667 6.111a2.778 2.778 0 1 0 0-5.555 2.778 2.778 0 0 0 0 5.555z"/></svg>