<svg xmlns="http://www.w3.org/2000/svg" width="22" height="22" fill="none" viewBox="0 0 22 22"><g clip-path="url(#clip0)"><path fill="#395185" d="M20.786 22c.67 0 1.214-.544 1.214-1.214V1.214C22 .544 21.456 0 20.786 0H1.214C.544 0 0 .544 0 1.214v19.572C0 21.456.543 22 1.214 22h19.572z"/><path fill="#fff" d="M15.18 22v-8.52h2.86l.427-3.32H15.18V8.04c0-.96.267-1.616 1.645-1.616h1.758v-2.97a23.5 23.5 0 0 0-2.562-.131c-2.535 0-4.27 1.547-4.27 4.389v2.448H8.884v3.32h2.867V22h3.429z"/></g><defs><clipPath id="clip0"><path fill="#fff" d="M0 0h22v22H0z"/></clipPath></defs></svg>