<svg xmlns="http://www.w3.org/2000/svg" width="24" height="23" fill="none" viewBox="0 0 24 23"><path fill="#F6B600" d="M23.42 4.61a7.58 7.58 0 0 0-1.581-2.406A7.327 7.327 0 0 0 19.505.59 7.088 7.088 0 0 0 16.66 0c-1.37 0-2.706.393-3.867 1.134a7.248 7.248 0 0 0-.792.584 7.259 7.259 0 0 0-.791-.584A7.174 7.174 0 0 0 7.343 0C6.356 0 5.4.198 4.498.59a7.312 7.312 0 0 0-2.334 1.614A7.534 7.534 0 0 0 .584 4.61 7.753 7.753 0 0 0 0 7.573c0 .969.189 1.977.564 3.004.314.857.764 1.747 1.339 2.645.911 1.422 2.164 2.905 3.72 4.408 2.578 2.491 5.131 4.212 5.24 4.282l.658.442a.859.859 0 0 0 .958 0l.659-.442a42.384 42.384 0 0 0 5.24-4.282c1.555-1.503 2.808-2.986 3.719-4.408.575-.898 1.028-1.788 1.339-2.645.375-1.027.564-2.035.564-3.004a7.7 7.7 0 0 0-.58-2.962z"/></svg>