<svg xmlns="http://www.w3.org/2000/svg" width="22" height="22" fill="none" viewBox="0 0 22 22"><g clip-path="url(#clip0)"><path fill="#0A66C2" d="M18.744 18.745h-3.26V13.64c0-1.217-.021-2.785-1.695-2.785-1.698 0-1.958 1.327-1.958 2.696v5.193h-3.26V8.247h3.13V9.68h.044a3.43 3.43 0 0 1 3.087-1.695c3.304 0 3.913 2.173 3.913 5v5.759zM4.894 6.812a1.892 1.892 0 1 1 0-3.784 1.892 1.892 0 0 1 0 3.784zm1.63 11.933H3.26V8.247h3.263v10.498zM20.369 0H1.622A1.605 1.605 0 0 0 0 1.587v18.825c.01.886.737 1.597 1.623 1.587H20.37A1.61 1.61 0 0 0 22 20.412V1.585A1.609 1.609 0 0 0 20.369 0"/></g><defs><clipPath id="clip0"><path fill="#fff" d="M0 0h22v22H0z"/></clipPath></defs></svg>