<svg xmlns="http://www.w3.org/2000/svg" width="65" height="64" fill="none" viewBox="0 0 65 64"><g fill="#2B2323" clip-path="url(#clip0)"><path d="M43.245 41.044c-1.516 0-2.75-1.067-2.75-2.38 0-1.312 1.234-2.38 2.75-2.38 1.517 0 2.75 1.068 2.75 2.38a1.25 1.25 0 0 0 2.5 0c0-2.29-1.707-4.216-4-4.739v-.65a1.25 1.25 0 0 0-2.5 0v.65c-2.293.523-4 2.449-4 4.74 0 2.69 2.355 4.88 5.25 4.88 1.517 0 2.75 1.067 2.75 2.38 0 1.312-1.233 2.38-2.75 2.38-1.516 0-2.75-1.068-2.75-2.38a1.25 1.25 0 0 0-2.5 0c0 2.29 1.707 4.216 4 4.74v.54a1.25 1.25 0 0 0 2.5 0v-.54c2.293-.524 4-2.45 4-4.74 0-2.691-2.355-4.88-5.25-4.88zm13.69-7.434a16.287 16.287 0 0 0-6.652-5.888 1.25 1.25 0 1 0-1.084 2.253C53.94 32.253 57 37.12 57 42.375a13.78 13.78 0 0 1-1.602 6.449 1.25 1.25 0 1 0 2.207 1.174 16.283 16.283 0 0 0 1.895-7.623c0-3.12-.887-6.151-2.565-8.766zM45.21 26.125h-.085a1.25 1.25 0 0 0 0 2.5h.078a1.25 1.25 0 0 0 .006-2.5zm-7.91 28.65c-4.738-2.278-7.8-7.145-7.8-12.4 0-2.248.554-4.478 1.603-6.449a1.25 1.25 0 1 0-2.207-1.174A16.283 16.283 0 0 0 27 42.375c0 3.12.887 6.151 2.565 8.766a16.288 16.288 0 0 0 6.652 5.887 1.25 1.25 0 1 0 1.083-2.253zm4.076 1.35h-.072a1.249 1.249 0 1 0-.012 2.5h.084a1.25 1.25 0 0 0 0-2.5z"/><path d="M48.926 21.896a5.738 5.738 0 0 0-.555-1.021h3.254c3.17 0 5.75-2.58 5.75-5.75s-2.58-5.75-5.75-5.75h-10.01a5.716 5.716 0 0 0 1.01-3.25c0-3.17-2.58-5.75-5.75-5.75H6.25C3.08.375.5 2.955.5 6.125s2.58 5.75 5.75 5.75h10.01a5.716 5.716 0 0 0-1.01 3.25c0 1.205.373 2.325 1.01 3.25H13c-3.17 0-5.75 2.58-5.75 5.75a5.74 5.74 0 0 0 2.177 4.5 5.74 5.74 0 0 0 0 9 5.74 5.74 0 0 0 0 9 5.74 5.74 0 0 0-2.177 4.5c0 3.17 2.58 5.75 5.75 5.75h14.731c3.88 4.15 9.402 6.75 15.519 6.75 11.717 0 21.25-9.533 21.25-21.25 0-9.752-6.604-17.99-15.574-20.479zm2.699-10.021a3.254 3.254 0 0 1 3.25 3.25 3.254 3.254 0 0 1-3.25 3.25H21a3.254 3.254 0 0 1-3.25-3.25 3.254 3.254 0 0 1 3.25-3.25h30.625zM6.25 9.375A3.254 3.254 0 0 1 3 6.125a3.254 3.254 0 0 1 3.25-3.25h30.625a3.254 3.254 0 0 1 3.25 3.25 3.254 3.254 0 0 1-3.25 3.25H6.25zm6.75 11.5h30.625c.503 0 .986.117 1.418.326a21.395 21.395 0 0 0-1.793-.076c-5.868 0-11.188 2.391-15.037 6.25H13a3.254 3.254 0 0 1-3.25-3.25 3.254 3.254 0 0 1 3.25-3.25zm0 9h13.077a21.19 21.19 0 0 0-3.213 6.5H13a3.254 3.254 0 0 1-3.25-3.25 3.254 3.254 0 0 1 3.25-3.25zm0 9h9.29a21.291 21.291 0 0 0-.077 6.5H13a3.254 3.254 0 0 1-3.25-3.25 3.254 3.254 0 0 1 3.25-3.25zm0 15.5a3.254 3.254 0 0 1-3.25-3.25 3.254 3.254 0 0 1 3.25-3.25h9.723a21.168 21.168 0 0 0 3 6.5H13zm30.25 6.75c-10.339 0-18.75-8.411-18.75-18.75s8.411-18.75 18.75-18.75S62 32.036 62 42.375s-8.411 18.75-18.75 18.75z"/></g><defs><clipPath id="clip0"><path fill="#fff" d="M0 0h64v64H0z" transform="translate(.5)"/></clipPath></defs></svg>