<svg xmlns="http://www.w3.org/2000/svg" width="30" height="22" fill="none" viewBox="0 0 30 22"><path fill="red" d="M29.337 3.431a3.976 3.976 0 0 0-.973-1.753A3.738 3.738 0 0 0 26.682.662C24.354 0 14.985 0 14.985 0S5.615.02 3.287.682c-.636.18-1.216.53-1.682 1.016a3.975 3.975 0 0 0-.973 1.754C-.073 7.766-.346 14.34.65 18.482c.172.663.508 1.267.974 1.753a3.739 3.739 0 0 0 1.681 1.015c2.328.663 11.698.663 11.698.663s9.37 0 11.697-.663a3.74 3.74 0 0 0 1.682-1.015 3.98 3.98 0 0 0 .974-1.754c.742-4.32.971-10.89-.02-15.05z"/><path fill="#fff" d="M12.002 15.652l7.773-4.696-7.772-4.695v9.39z"/></svg>