<svg xmlns="http://www.w3.org/2000/svg" width="510" height="510" fill="none" viewBox="0 0 510 510"><path fill="#B8C5E8" d="M250.456 436.462c120.989 0 219.071-14.978 219.071-33.455 0-18.477-98.082-33.456-219.071-33.456-120.99 0-219.07 14.979-219.07 33.456 0 18.477 98.08 33.455 219.07 33.455z"/><path fill="#92AAD3" d="M391.812 416.831c20.702 0 37.485-4.888 37.485-10.918 0-6.03-16.783-10.918-37.485-10.918-20.702 0-37.484 4.888-37.484 10.918 0 6.03 16.782 10.918 37.484 10.918z"/><path fill="#B8C5E8" d="M432.902 90.897c-46.751-27.535-123.311-16.12-162.173-2.918-13.842 4.701-28.311 6.757-42.767 5.928-163.838-9.388-193.087 111.37-152.126 174.94 42.71 66.286 214.445 77.989 313.397 36.598 98.952-41.392 117.036-171.336 43.669-214.548z"/><path fill="#9EB0D8" d="M166.14 127.629h-32.357c-.987 0-1.788.801-1.788 1.789v11.725c0 .989.801 1.79 1.788 1.79h32.357c.988 0 1.788-.801 1.788-1.79v-11.725c0-.988-.8-1.789-1.788-1.789zm41.91 0h-32.357c-.988 0-1.788.801-1.788 1.789v11.725c0 .989.8 1.79 1.788 1.79h32.357c.987 0 1.788-.801 1.788-1.79v-11.725c0-.988-.801-1.789-1.788-1.789zm-20.476 20.895h-32.357a1.79 1.79 0 0 0-1.789 1.79v11.725c0 .988.801 1.789 1.789 1.789h32.357c.987 0 1.788-.801 1.788-1.789v-11.725c0-.989-.801-1.79-1.788-1.79zm176.742-30.957h-32.357c-.988 0-1.788.801-1.788 1.789v11.725c0 .989.8 1.79 1.788 1.79h32.357c.987 0 1.788-.801 1.788-1.79v-11.725c0-.988-.801-1.789-1.788-1.789zm95.163 10.062h-32.357c-.988 0-1.788.801-1.788 1.789v11.725c0 .989.8 1.79 1.788 1.79h32.357c.988 0 1.788-.801 1.788-1.79v-11.725c0-.988-.8-1.789-1.788-1.789zm-133.456 7.652h-32.357a1.79 1.79 0 0 0-1.788 1.79v11.725c0 .988.801 1.789 1.788 1.789h32.357c.988 0 1.788-.801 1.788-1.789v-11.725c0-.988-.8-1.79-1.788-1.79zm.845-34.854h-32.356a1.79 1.79 0 0 0-1.789 1.79v11.725c0 .988.801 1.79 1.789 1.79h32.356a1.79 1.79 0 0 0 1.789-1.79v-11.725a1.79 1.79 0 0 0-1.789-1.79zM99.306 202.374H66.95c-.987 0-1.788.801-1.788 1.79v11.725c0 .988.8 1.789 1.788 1.789h32.357c.988 0 1.788-.801 1.788-1.789v-11.725c0-.989-.8-1.79-1.788-1.79zm90.665 15.304h-32.356a1.79 1.79 0 0 0-1.789 1.79v11.725c0 .988.801 1.789 1.789 1.789h32.356c.988 0 1.789-.801 1.789-1.789v-11.725a1.79 1.79 0 0 0-1.789-1.79z"/><path fill="#383844" d="M407.623 367.453l12.463 15.97 25.163-206.531-9.55-8.902-28.076 199.463z"/><path fill="#636372" d="M142.743 367.453h264.88l28.076-199.463H161.13l-18.387 199.463z"/><path fill="#383844" d="M20.553 378.651l282.34.023 104.73-11.221H142.742L20.553 378.651z"/><path fill="#636372" d="M302.893 378.674l-282.34-.023 2.943 6.146a15.342 15.342 0 0 0 13.832 8.718h267.937l114.821-10.09-12.463-15.969-104.73 11.218z"/><path fill="#EDEDED" d="M155.792 350.188h242.981l17.798-165.582-245.357-.592-15.422 166.174z"/><path fill="#EA4E1B" d="M489.446 201.822H416.32v110.752h73.126V201.822z" opacity=".8"/><path fill="#EA4E1B" d="M452.772 207.158a17.56 17.56 0 0 0-16.224 10.846 17.578 17.578 0 0 0 3.806 19.148 17.562 17.562 0 0 0 19.137 3.81 17.567 17.567 0 0 0 10.841-16.232 17.583 17.583 0 0 0-5.143-12.425 17.542 17.542 0 0 0-12.417-5.147z"/><path fill="#fff" d="M428.933 248.747h-7.613v7.618h7.613v-7.618zm0 11.203h-7.613v7.617h7.613v-7.617zm0 11.203h-7.613v7.617h7.613v-7.617zm0 11.203h-7.613v7.617h7.613v-7.617zm27.174-31.941h-22.894v1.446h22.894v-1.446zm21.892 3.002h-44.786v1.334h44.786v-1.334zm-21.281 8.452h-22.895v1.445h22.895v-1.445zm21.894 3.001h-44.789v1.334h44.789v-1.334zm-21.894 19.127h-22.895v1.445h22.895v-1.445zm21.894 3.001h-44.789v1.335h44.789v-1.335zm0-14.233h-44.789v1.334h44.789v-1.334zm0 2.641h-44.789v1.334h44.789v-1.334z"/><path fill="#C05299" d="M450.387 301.197l-1.226-2.486-1.226 2.486-2.743.398 1.984 1.936-.467 2.732 2.452-1.289 2.452 1.289-.469-2.732 1.984-1.936-2.741-.398zm8.906 0l-1.226-2.486-1.226 2.486-2.743.398 1.984 1.936-.467 2.732 2.452-1.289 2.452 1.289-.468-2.732 1.983-1.936-2.741-.398z"/><path fill="#fff" d="M452.772 227.203c-5.846 0-10.596 5.112-10.693 11.462a17.55 17.55 0 0 0 21.389 0c-.098-6.35-4.851-11.462-10.696-11.462z"/><path fill="#fff" d="M452.772 229.093a5.447 5.447 0 0 0 5.445-5.448 5.447 5.447 0 1 0-10.891 0 5.447 5.447 0 0 0 5.446 5.448z"/><path fill="#EA4E1B" d="M166.658 200.933H93.531v110.752h73.127V200.933z" opacity=".8"/><path fill="#EA4E1B" d="M129.982 206.275c-3.473 0-6.868 1.03-9.756 2.961a17.57 17.57 0 0 0-7.467 18.036 17.57 17.57 0 0 0 13.796 13.806 17.558 17.558 0 0 0 18.027-7.47 17.574 17.574 0 0 0-14.6-27.333z"/><path fill="#fff" d="M106.143 247.857h-7.612v7.617h7.612v-7.617zm0 11.203h-7.612v7.617h7.612v-7.617zm0 11.204h-7.612v7.617h7.612v-7.617zm0 11.203h-7.612v7.617h7.612v-7.617zm27.174-31.941h-22.894v1.446h22.894v-1.446zm21.893 3.002h-44.787v1.334h44.787v-1.334zm-21.282 8.45h-22.894v1.446h22.894v-1.446zm21.893 3.003h-44.787v1.335h44.787v-1.335zm-21.893 19.125h-22.894v1.446h22.894v-1.446zm21.893 3.003h-44.787v1.335h44.787v-1.335zm0-14.233h-44.787v1.334h44.787v-1.334zm0 2.641h-44.787v1.334h44.787v-1.334z"/><path fill="#C05299" d="M127.597 300.307l-1.226-2.485-1.226 2.485-2.743.399 1.984 1.936-.467 2.731 2.452-1.29 2.452 1.29-.468-2.731 1.983-1.936-2.741-.399zm8.906 0l-1.226-2.485-1.226 2.485-2.741.399 1.983 1.936-.468 2.731 2.452-1.29 2.452 1.29-.467-2.731 1.982-1.936-2.741-.399z"/><path fill="#fff" d="M129.982 226.316c-5.845 0-10.587 5.113-10.693 11.462a17.551 17.551 0 0 0 21.389 0c-.097-6.352-4.856-11.462-10.696-11.462z"/><path fill="#fff" d="M129.982 228.203a5.447 5.447 0 0 0 5.445-5.449 5.447 5.447 0 0 0-5.445-5.448 5.447 5.447 0 0 0-5.445 5.448 5.447 5.447 0 0 0 5.445 5.449z"/><path fill="#EA4E1B" d="M425.34 186.891h-91.67v138.837h91.67V186.891z" opacity=".8"/><path fill="#EA4E1B" d="M379.366 193.581a22.02 22.02 0 0 0-20.338 13.595 22.038 22.038 0 0 0 4.77 24.003 22.003 22.003 0 0 0 33.869-3.336 22.032 22.032 0 0 0-9.877-32.585 21.997 21.997 0 0 0-8.424-1.677z"/><path fill="#fff" d="M349.482 245.714h-9.543v9.548h9.543v-9.548zm0 14.044h-9.543v9.549h9.543v-9.549zm0 14.045h-9.543v9.548h9.543v-9.548zm0 14.043h-9.543v9.548h9.543v-9.548zm34.065-40.04h-28.7v1.812h28.7v-1.812zm27.445 3.763h-56.145v1.673h56.145v-1.673zm-26.681 10.594h-28.698v1.813h28.698v-1.813zm27.447 3.764h-56.145v1.673h56.145v-1.673zm-27.447 23.976h-28.698v1.812h28.698v-1.812zm27.447 3.763h-56.145v1.674h56.145v-1.674zm0-17.842h-56.145v1.674h56.145v-1.674zm0 3.31h-56.145v1.673h56.145v-1.673z"/><path fill="#EF5959" d="M369.865 311.466l-1.536-3.117-1.537 3.117-3.438.499 2.487 2.425-.587 3.426 3.075-1.618 3.074 1.618-.588-3.426 2.488-2.425-3.438-.499z"/><path fill="#C05299" d="M381.03 311.466l-1.536-3.117-1.538 3.117-3.437.499 2.487 2.425-.587 3.426 3.075-1.618 3.073 1.618-.587-3.426 2.487-2.425-3.437-.499zm11.166 0l-1.538-3.117-1.537 3.117-3.436.499 2.486 2.425-.586 3.426 3.073-1.618 3.074 1.618-.586-3.426 2.486-2.425-3.436-.499z"/><path fill="#fff" d="M379.367 218.708c-7.328 0-13.283 6.408-13.406 14.367a22 22 0 0 0 26.813 0c-.122-7.959-6.079-14.367-13.407-14.367z"/><path fill="#fff" d="M379.366 221.077a6.828 6.828 0 0 0 6.826-6.83 6.828 6.828 0 0 0-6.826-6.83 6.828 6.828 0 0 0-6.826 6.83 6.828 6.828 0 0 0 6.826 6.83z"/><path fill="#EA4E1B" d="M249.041 186.251H157.37v138.837h91.671V186.251z" opacity=".8"/><path fill="#EA4E1B" d="M203.065 192.942a22.01 22.01 0 0 0-20.338 13.595 22.042 22.042 0 0 0 4.77 24.003 21.999 21.999 0 0 0 23.989 4.776 22.013 22.013 0 0 0 9.88-8.111 22.04 22.04 0 0 0 2.036-20.665 22.026 22.026 0 0 0-11.913-11.921 22 22 0 0 0-8.424-1.677z"/><path fill="#fff" d="M173.182 245.076h-9.543v9.548h9.543v-9.548zm0 14.044h-9.543v9.548h9.543v-9.548zm0 14.044h-9.543v9.549h9.543v-9.549zm0 14.043h-9.543v9.548h9.543v-9.548zm34.065-40.04h-28.7v1.812h28.7v-1.812zm27.445 3.763h-56.145v1.674h56.145v-1.674zm-26.679 10.595h-28.7v1.812h28.7v-1.812zm27.445 3.763h-56.145v1.674h56.145v-1.674zm-27.445 23.975h-28.7v1.812h28.7v-1.812zm27.445 3.765h-56.145v1.673h56.145v-1.673zm0-17.844h-56.145v1.674h56.145v-1.674zm0 3.311h-56.145v1.674h56.145v-1.674z"/><path fill="#C05299" d="M193.566 310.827l-1.537-3.116-1.538 3.116-3.437.5 2.487 2.425-.587 3.425 3.075-1.617 3.075 1.617-.588-3.425 2.488-2.425-3.438-.5zm11.165 0l-1.537-3.116-1.538 3.116-3.437.5 2.487 2.425-.587 3.425 3.075-1.617 3.073 1.617-.586-3.425 2.486-2.425-3.436-.5zm11.165 0l-1.538-3.116-1.537 3.116-3.437.5 2.487 2.425-.587 3.425 3.074-1.617 3.074 1.617-.586-3.425 2.486-2.425-3.436-.5z"/><path fill="#fff" d="M203.065 218.069c-7.328 0-13.282 6.409-13.405 14.368a22 22 0 0 0 26.812 0c-.12-7.959-6.077-14.368-13.407-14.368z"/><path fill="#fff" d="M206.656 219.403a6.833 6.833 0 0 0 2.217-9.401 6.823 6.823 0 0 0-9.395-2.218 6.83 6.83 0 0 0-2.217 9.4 6.823 6.823 0 0 0 9.395 2.219z"/><path fill="#EA4E1B" d="M344.833 171.659H237.885v161.976h106.948V171.659z"/><path fill="#fff" d="M291.161 179.528a25.684 25.684 0 0 0-16.743 6.213 25.71 25.71 0 0 0 9.12 44.032 25.831 25.831 0 0 0 4.321.943c.983.125 1.973.192 2.964.201.115.007.225.007.339.007a25.889 25.889 0 0 0 5.471-.593 25.694 25.694 0 0 0 14.526-8.992 25.731 25.731 0 0 0 5.683-16.118c-.002-14.189-11.499-25.693-25.681-25.693zm-34.865 60.824h-11.134v11.14h11.134v-11.14zm0 16.385h-11.134v11.14h11.134v-11.14zm0 16.383h-11.134v11.14h11.134v-11.14zm0 16.385h-11.134v11.14h11.134v-11.14zm39.739-46.714h-33.482v2.114h33.482v-2.114zm32.02 4.39h-65.502v1.952h65.502v-1.952zm-31.126 12.36h-33.482v2.114h33.482v-2.114zm32.02 4.392h-65.502v1.951h65.502v-1.951zm-32.02 27.971h-33.482v2.114h33.482v-2.114zm32.02 4.391h-65.502v1.951h65.502v-1.951zm0-20.816h-65.502v1.951h65.502v-1.951zm0 3.862h-65.502v1.951h65.502v-1.951z"/><path fill="#C05299" d="M267.049 317.06l-1.792-3.635-1.795 3.635-4.008.584 2.901 2.83-.685 3.995 3.587-1.886 3.586 1.886-.685-3.995 2.902-2.83-4.011-.584zm13.025 0l-1.792-3.635-1.793 3.635-4.01.584 2.901 2.83-.685 3.995 3.587-1.886 3.586 1.886-.685-3.995 2.901-2.83-4.01-.584zm13.027 0l-1.793-3.635-1.794 3.635-4.01.584 2.902 2.83-.684 3.995 3.586-1.886 3.586 1.886-.684-3.995 2.901-2.83-4.01-.584zm13.025 0l-1.793-3.635-1.792 3.635-4.011.584 2.902 2.83-.686 3.995 3.587-1.886 3.587 1.886-.685-3.995 2.901-2.83-4.01-.584zm13.027 0l-1.794-3.635-1.793 3.635-4.01.584 2.901 2.83-.684 3.995 3.586-1.886 3.586 1.886-.685-3.995 2.903-2.83-4.01-.584z"/><path fill="#fff" d="M292.569 213.939h-5.42l-2.731 2.147-1.272 1.002.398 12.689a25.692 25.692 0 0 0 4.32.944c.984.124 1.974.191 2.965.2.114.007.224.007.339.007a25.752 25.752 0 0 0 5.471-.592v-13.362l-.531-.397-3.539-2.638z"/><path fill="#000" d="M293.815 194.206s.486-4.661-6.009-3.035c-3.551.888-4.67 2.69-5.254 4.311-.523 1.454-1.563 2.706-2.986 3.309-1.191.504.773 1.432 1.852 1.215 1.349-.27.375 1.193-.655 1.356-1.031.163 2.432 2.873 4.226 2.276 1.794-.597 11.865-1.245 11.865-1.245s4.117-2.766 2.383-6.013c-1.734-3.246-5.422-2.174-5.422-2.174z"/><path fill="#F29086" d="M296.848 204.939v-2.815s-4.063-.868-4.006-2.71c.057-1.843-6.231 4.661-9.86 2.33v3.361s-1.085-1.192-1.518.759c-.434 1.951 2.167 2.928 2.167 2.928s.976 2.764 2.817 3.686v3.361s2.276 4.228 3.305 4.228c1.029 0 3.793-4.337 3.793-4.337v-3.035s2.432-2.433 2.871-4.174c2.003-.976 2.168-1.844 2.113-2.873-.054-1.029-1.682-.709-1.682-.709z"/><path fill="#DE2226" d="M289.536 222.179l-1.464.706.539 1.841-.754 5.987c.984.125 1.974.192 2.965.201l-.366-6.241.867-1.788-1.787-.706z"/><path fill="#50505E" d="M284.412 216.084c-.286.116-9.421 3.882-10.916 4.467-.514.202-.966 1.002-1.339 1.959a25.707 25.707 0 0 0 11.381 7.26c.668.207 1.345.387 2.031.54l-1.151-14.231s-.003 0-.006.005zm22.621 4.848c-1.518-.598-10.922-4.472-10.922-4.472l-.01.117-1.145 14.065a25.582 25.582 0 0 0 13.777-6.688c-.422-1.391-1.001-2.749-1.7-3.022z"/><path fill="#166793" d="M223.826 236.993s2.764 3.903 1.464 8.456c-1.301 4.554 3.9-2.927 1.95-6.993-1.95-4.065 4.063-1.179 4.226 3.476.163 4.655 1.137-11.118-7.64-4.939z"/><path fill="#F8C066" d="M97.644 302.251H75.106v73.074h22.538v-73.074z"/><path fill="#fff" d="M91.576 310.924H80.957v36.212h10.62v-36.212zm-5.526 55.293a6.07 6.07 0 0 0 6.067-6.071 6.07 6.07 0 0 0-6.067-6.07 6.07 6.07 0 0 0-6.068 6.07 6.07 6.07 0 0 0 6.068 6.071z"/><path fill="#DD7426" d="M97.644 375.325l6.502-.947v-68.441l-6.502-3.686v73.074z"/><path fill="#318E8B" d="M126.843 302.586h-22.538v73.074h22.538v-73.074z"/><path fill="#fff" d="M120.775 311.259h-10.619v36.212h10.619v-36.212zm.079 51.545a6.067 6.067 0 1 0-11.211-4.646 6.071 6.071 0 0 0 3.284 7.932 6.065 6.065 0 0 0 7.927-3.286z"/><path fill="#1F6D69" d="M126.843 375.66l6.501-.947v-68.441l-6.501-3.686v73.074z"/><path fill="#7C7624" d="M383.201 367.121a.3.3 0 0 0-.119.405c3.086 5.66.044 10.365.013 10.413a.296.296 0 0 0 .307.457.293.293 0 0 0 .189-.127c.033-.05 3.277-5.043.015-11.029a.3.3 0 0 0-.405-.119z"/><path fill="#B3BD73" d="M397.987 311.096c-8.215 10.543-3.106 25.302-3.106 25.302 20.466-.422 32.573-21.019 32.573-21.019l-8.929-.535 10.716-5.54s2.861-11.257 2.861-20.9c-7.326-.895-25.9 12.151-34.115 22.692z"/><path fill="#7C7624" d="M403.165 350.349c-4.761 3.642-8.035 10.353-9.942 15.342a72.449 72.449 0 0 0-3.022 10.03.307.307 0 0 0-.001.117.295.295 0 0 0 .233.235.3.3 0 0 0 .06 0 .297.297 0 0 0 .286-.237 71.616 71.616 0 0 1 3.005-9.938c3.406-8.907 7.181-13.117 9.747-15.081a.3.3 0 0 0 .115-.197.299.299 0 0 0-.477-.276l-.004.005z"/><path fill="#7C7624" d="M421.079 299.212c-8.37 3.899-15.097 10.486-19.993 19.574-3.908 7.256-6.664 16.115-8.192 26.328-2.6 17.373-.715 32.872-.692 33.026a.295.295 0 0 0 .294.262h.039a.291.291 0 0 0 .257-.332c-.018-.154-1.895-15.583.693-32.877 1.519-10.144 4.253-18.934 8.129-26.126 4.835-8.971 11.467-15.469 19.717-19.312a.301.301 0 0 0 .144-.396.294.294 0 0 0-.168-.154.296.296 0 0 0-.228.01v-.003zm-35.613 47.987c-.116-3.436-.216-6.399-.397-8.432-.429-4.765-1.618-6.553-2.545-7.213-.732-.521-1.33-.392-1.396-.377a.296.296 0 0 0-.083.54.303.303 0 0 0 .223.04c.017 0 .416-.083.94.303.814.602 1.869 2.262 2.268 6.76.179 2.016.279 4.973.395 8.399.346 10.233.819 24.248 3.943 28.733a.3.3 0 0 0 .538-.118.299.299 0 0 0-.049-.223c-3.023-4.34-3.494-18.253-3.837-28.412zm40.709-6.899c-14.466.357-21.677 8.838-21.677 8.838 6.725-3.849 22.392 5.635 22.392 5.635s13.216 12.866 16.608 8.935c3.392-3.931-2.857-23.766-17.323-23.408z"/><path fill="#B3BD73" d="M445.283 358.526c-5.536 4.11-11.787-7.147-23.034-11.972-11.247-4.824-20.18 4.646-20.18 4.646 23.93-4.825 16.43 9.291 31.252 14.83 14.822 5.538 17.499-11.614 11.962-7.504z"/><path fill="#7C7624" d="M375.129 308.929c-10.716-5.898-25.538-13.045-25.538-13.045s13.929 20.187 19.293 22.872c5.364 2.686 13.036 13.207 13.036 13.207s3.923-17.138-6.791-23.034z"/><path fill="#B3BD73" d="M370.366 312.894c-12.918-3.609-20.775-17.007-20.775-17.007s-.715 13.759 11.251 20.549c11.966 6.789 15.18 16.585 21.073 15.53 0-.006 1.369-15.466-11.549-19.072zm-13.097 15.178c4.823 8.491 10.622 19.281 24.687 17.95l-.755-.969s-1.608-14.301-23.932-16.981z"/><path fill="#7C7624" d="M388.28 358.393c-1.784-9.458-10.54-17.595-10.629-17.675a.301.301 0 0 0-.431.007.302.302 0 0 0-.078.222c.003.04.014.08.032.116a.308.308 0 0 0 .075.093c.086.08 8.699 8.087 10.444 17.347 1.773 9.406 7.118 19.637 7.172 19.74a.3.3 0 0 0 .528-.286c-.053-.093-5.356-10.245-7.113-19.564zm-29.059-6.558a6.39 6.39 0 0 0-.165.796c.115-.249.171-.521.165-.796z"/><path fill="#7C7624" d="M360.3 349.138c-.47.854-.834 1.761-1.085 2.703.007.274-.049.546-.164.796.038-.269.093-.535.164-.796-.028-.807-.702-1.924-4.272-1.81-5.536.179-7.858 1.073-7.858 1.073s14.287 9.47 21.43 8.398c7.144-1.072 14.865 8.399 14.865 8.399s6.75-20.734-23.08-18.763z"/><path fill="#B3BD73" d="M367.093 354.129c-10.359 3.029-20.003-3.031-20.003-3.031s8.573 7.684 21.604 9.829c12.827 2.108 14.63 6.814 14.684 6.964-.044-.16-5.977-16.779-16.285-13.762z"/><path fill="#F8C066" d="M411.56 375.244c-4.292-4.168-38.693-2.5-39.765 1.193l3.334 4.05s6.429 19.182 4.047 21.798l-2.38 2.621s25.001 2.264 29.043 0c4.042-2.263 0-3.216 0-3.216l4.535-20.727s5.473-1.549 1.186-5.719z"/><path fill="#DD7426" d="M405.846 401.69c-25.66.348-22.605-10.736-19.986-17.642 2.62-6.905 23.769.311 18.638-2.954-5.13-3.266-23.297 0-23.297 0l-7.869-11.206-10.588 12.505-1.808 25.369 42.405 4.953s28.163-11.372 2.505-11.025z"/></svg>